#N canvas 515 170 913 528 10;
#X declare -path patchmenu;
#X declare -path FX-13;
#X declare -path Sampler24;
#X declare -path sounds;
#X obj 75 19 declare -path patchmenu;
#X obj 75 230 patchmenu;
#X obj 107 143 s enableSubMenu;
#X obj 75 41 loadbang;
#X msg 75 143 0;
#X obj 75 120 t b b;
#X obj 41 50 bng 15 250 50 0 empty empty empty 17 7 0 10 -262144 -1
-1;
#N canvas 660 479 1116 454 mapping 0;
#X obj 539 362 throw~ outL;
#X obj 649 363 throw~ outR;
#X text 536 182 Audio Routing;
#X text 540 66 MIDI (keys) Routing;
#X text 254 13 control routing;
#X obj 542 101 r notes;
#X obj 538 244 s~ fx13-1-in;
#X obj 538 271 r~ fx13-1-outL;
#X obj 648 271 r~ fx13-1-outR;
#X obj 538 293 s~ fx13-2-in;
#X obj 538 323 r~ fx13-2-outL;
#X obj 648 323 r~ fx13-2-outR;
#X obj 286 72 map-knob 3 1 fx13-1-knob1;
#X text 287 42 Page 3 - FX-13 1;
#X text 287 182 Page 4 - FX-13 2;
#X obj 286 97 map-knob 3 2 fx13-1-knob2;
#X obj 286 122 map-knob 3 3 fx13-1-knob3;
#X obj 286 148 map-knob 3 4 fx13-1-knob4;
#X obj 286 212 map-knob 4 1 fx13-2-knob1;
#X obj 286 237 map-knob 4 2 fx13-2-knob2;
#X obj 286 262 map-knob 4 3 fx13-2-knob3;
#X obj 286 288 map-knob 4 4 fx13-2-knob4;
#X text 88 182 Page 2 - Sampler24;
#X obj 86 213 map-knob 2 1 s24-1-speed;
#X obj 542 123 s s24-1-notes-in;
#X text 605 105 skip repeater;
#X obj 86 237 map-knob 2 2 s24-1-release;
#X obj 86 262 map-knob 2 3 s24-1-start;
#X obj 86 288 map-knob 2 4 x;
#X obj 538 212 r~ s24-1-outL;
#X obj 638 212 r~ s24-1-outR;
#X connect 5 0 24 0;
#X connect 7 0 9 0;
#X connect 10 0 0 0;
#X connect 11 0 1 0;
#X connect 29 0 6 0;
#X connect 30 0 6 0;
#X restore 444 233 pd mapping;
#X obj 33 169 delay 3000;
#X text 381 22 delcare and load modules;
#X text 449 204 routing;
#X obj 75 95 versioncheck 2;
#X obj 307 129 declare -path FX-13;
#X obj 282 284 pack s s;
#X obj 310 211 t b s;
#X obj 289 163 r fx13-1-menu;
#X obj 310 189 r fx13-2-menu;
#X obj 75 284 list;
#X text 602 141 arg 2 menu #;
#X obj 307 99 declare -path Sampler24;
#X msg 75 314 \; screenLine1 1) x \; screenLine2 2) Sampler24 \; screenLine3
3) \$1 \; screenLine4 4) \$2 \; screenLine5 <-- HOME \;;
#X obj 521 101 Sampler24 1;
#X obj 216 214 print a;
#X obj 369 271 print b;
#X obj 74 69 delay 100;
#X text 156 70 allow patch loadbangs to happen first;
#X obj 520 130 FX-13 1;
#X obj 521 151 FX-13 2;
#X connect 1 0 17 0;
#X connect 3 0 24 0;
#X connect 4 0 1 0;
#X connect 5 0 4 0;
#X connect 5 0 8 0;
#X connect 5 1 2 0;
#X connect 6 0 5 0;
#X connect 11 0 5 0;
#X connect 13 0 17 1;
#X connect 14 0 13 0;
#X connect 14 1 13 1;
#X connect 14 1 23 0;
#X connect 15 0 13 0;
#X connect 15 0 22 0;
#X connect 16 0 14 0;
#X connect 17 0 20 0;
#X connect 24 0 11 0;
