#N canvas 265 50 1342 938 10;
#X text 254 180 get yer notes;
#N canvas 146 50 954 803 varispeed 0;
#X obj 269 264 phasor~;
#X obj 456 348 snapshot~;
#X obj 455 247 loadbang;
#X msg 456 270 1;
#X obj 401 427 +;
#X obj 432 426 f;
#X obj 369 404 t f f;
#X floatatom 512 459 8 0 0 0 - - -, f 8;
#X obj 401 462 t f b;
#X obj 434 491 f;
#X obj 401 491 -;
#X floatatom 514 404 8 0 0 0 - - -, f 8;
#X obj 383 518 -;
#X obj 456 299 tgl 15 0 empty empty empty 17 7 0 10 -262144 -1 -1 1
1;
#X obj 269 290 -~ 0.5;
#X obj 347 603 + 0.5;
#X floatatom 383 545 8 0 0 0 - - -, f 8;
#X obj 587 311 samplerate~;
#X obj 541 338 /;
#X obj 541 311 t f b;
#X obj 508 381 +;
#X obj 352 579 / 10000;
#X obj 269 315 *~ 10000;
#X obj 541 362 * 10000;
#X text 108 58 playback speed \, samples/sec;
#X text 511 472 new onset is phase plus old onset;
#X text 515 418 extrapolated phase of next sample;
#X text 466 492 new onset minus old onset;
#X text 446 518 back up phasor output by amount the onset advanced
;
#X text 444 531 (approximately zero but not exactly because of;
#X text 446 545 truncation error!);
#X text 511 175 set both last-onset and previous-onset;
#X text 512 198 ... and also reset phasor.;
#X text 411 583 convert phase back to range 0-1;
#X text 272 340 convert phase to;
#X text 272 354 range +/-5000;
#X obj 269 227 / 10000;
#X text 273 204 cycles/sec;
#X text 263 194 convert to;
#X text 526 264 in order to change onset to reflect it;
#X text 526 248 Each 100 msec \, poll phase of phasor~;
#X text 575 331 extrapolate snapshot of phase by one;
#X text 574 344 sample to sync with next block;
#X msg 389 204 0;
#X obj 234 715 outlet~;
#X obj 183 81 inlet;
#X obj 204 523 tabread4~ newsample;
#X obj 412 112 inlet;
#X text 663 56 VARIABLE SPEED PLAYBACK FROM LONG TABLES;
#X text 661 79 from the Pd example patches3.audio.examples;
#X text 660 29 this is from the;
#X obj 551 618 sig~;
#X obj 504 656 +~;
#X text 400 75 start point;
#X obj 398 175 t b f;
#X text 860 102 comment;
#X obj 516 711 outlet~;
#X text 577 709 index out;
#X obj 456 318 metro 20;
#X connect 0 0 14 0;
#X connect 1 0 20 0;
#X connect 2 0 3 0;
#X connect 3 0 13 0;
#X connect 4 0 5 0;
#X connect 4 0 8 0;
#X connect 4 0 7 0;
#X connect 4 0 46 1;
#X connect 5 0 4 1;
#X connect 6 0 12 0;
#X connect 6 1 4 0;
#X connect 7 0 51 0;
#X connect 8 0 9 1;
#X connect 8 0 10 0;
#X connect 8 1 9 0;
#X connect 9 0 10 1;
#X connect 10 0 12 1;
#X connect 12 0 16 0;
#X connect 12 0 21 0;
#X connect 13 0 58 0;
#X connect 14 0 22 0;
#X connect 15 0 0 1;
#X connect 17 0 18 1;
#X connect 18 0 23 0;
#X connect 19 0 18 0;
#X connect 19 1 17 0;
#X connect 20 0 6 0;
#X connect 20 0 11 0;
#X connect 21 0 15 0;
#X connect 22 0 1 0;
#X connect 22 0 46 0;
#X connect 22 0 52 0;
#X connect 23 0 20 1;
#X connect 36 0 0 0;
#X connect 36 0 19 0;
#X connect 43 0 6 0;
#X connect 45 0 36 0;
#X connect 46 0 44 0;
#X connect 47 0 54 0;
#X connect 51 0 52 1;
#X connect 52 0 56 0;
#X connect 54 0 43 0;
#X connect 54 1 9 1;
#X connect 54 1 4 1;
#X connect 58 0 1 0;
#X restore 430 714 pd varispeed;
#X obj 361 239 / 261.626;
#X floatatom 361 261 5 0 0 0 - - -, f 5;
#X obj 361 208 mtof;
#X floatatom 586 317 5 0 0 0 - - -, f 5;
#X obj 579 377 f;
#X obj 588 405 *;
#X obj 586 344 t b f;
#X obj 601 260 line 0 5;
#X msg 601 233 \$1 50;
#X obj 435 825 *~;
#X obj 587 431 moses 4;
#X obj 587 457 * 44100;
#X obj 501 157 r~ mod;
#X obj 515 246 snapshot~;
#X obj 586 287 *;
#X obj 520 213 metro 5;
#X obj 520 185 loadbang;
#X obj 601 183 * 2;
#X obj 601 205 - 1;
#X obj 587 484 > 0;
#X floatatom 587 512 5 0 0 0 - - -, f 5;
#X obj 395 351 t b b f;
#N canvas 108 97 1240 803 loops-start-end 1;
#X obj 520 288 *;
#X obj 796 68 r dur;
#X obj 715 288 *;
#X obj 555 476 +;
#X obj 553 543 expr if($f1 < $f2 \, $f1 \, $f2);
#X obj 612 213 f;
#X obj 466 248 f;
#X obj 780 125 t b f;
#X obj 641 381 t b f;
#X obj 555 449 f;
#X obj 545 598 outlet;
#X obj 372 600 outlet;
#X text 377 63 start;
#X text 543 67 dur;
#X text 793 230 because we add 1000 below;
#X obj 359 545 expr if($f1 <= 0 \, 0 \, $f1);
#X text 622 507 make sure loop end doesn't go down to 0;
#X text 761 541 don't set loop end past end of sample;
#X obj 386 490 - 4410;
#X text 112 482 back up loop start to ensure there is;
#X text 161 505 at least about 0.1 seconds;
#X obj 555 509 + 4410;
#X text 24 138 compute loop start and end from start and duration;
#X text 25 156 making sure that:;
#X text 50 176 sample is never shorter than 4410;
#X text 49 195 loop end a little less than end of sample for fade out
;
#X obj 767 439 - 440;
#X text 817 443 alllow a little time for the fade out (.01 sec at normal
speed);
#X obj 392 99 inlet;
#X obj 549 100 inlet;
#X obj 582 149 t f f;
#X obj 582 171 *;
#X text 493 127 some extra range for smaller lengths;
#X connect 0 0 9 0;
#X connect 0 0 18 0;
#X connect 1 0 7 0;
#X connect 2 0 8 0;
#X connect 3 0 21 0;
#X connect 4 0 10 0;
#X connect 5 0 2 0;
#X connect 6 0 0 0;
#X connect 7 0 6 0;
#X connect 7 0 5 0;
#X connect 7 1 0 1;
#X connect 7 1 2 1;
#X connect 7 1 26 0;
#X connect 8 0 9 0;
#X connect 8 1 3 1;
#X connect 9 0 3 0;
#X connect 15 0 11 0;
#X connect 18 0 15 0;
#X connect 21 0 4 0;
#X connect 26 0 4 1;
#X connect 28 0 6 0;
#X connect 29 0 30 0;
#X connect 30 0 31 0;
#X connect 30 1 31 1;
#X connect 31 0 5 0;
#X restore 838 270 pd loops-start-end;
#X floatatom 826 326 15 0 0 0 - - -, f 15;
#X floatatom 983 324 15 0 0 0 - - -, f 15;
#X obj 611 602 f;
#X obj 573 596 f;
#X floatatom 576 631 15 0 0 0 - - -, f 15;
#X obj 573 537 f;
#X obj 695 725 f;
#X obj 827 729 f;
#X obj 573 563 sel 1 0;
#X text 644 461 put the playhead at beg or end depending on current
direction;
#X text 509 630 playhead;
#X obj 813 359 s \$0-start;
#X obj 1001 354 s \$0-end;
#X obj 712 559 r \$0-end;
#X obj 635 561 r \$0-start;
#X obj 713 677 r \$0-start;
#X obj 845 678 r \$0-end;
#X obj 564 757 expr~ if($v1 < $f2 || $v1 > $f3 \, 0 \, 1);
#X obj 659 864 bng 15 250 50 0 empty empty empty 17 7 0 10 -262144
-1 -1;
#X obj 554 834 threshold~ 0 0 0 0;
#X obj 554 800 -~ 0.5;
#X obj 577 661 t f b b;
#X obj 462 776 line~;
#X obj 462 798 *~;
#X msg 493 752 0 2;
#X text 702 794 stop it when index goes past sample boundry;
#X obj 339 353 f;
#X obj 328 317 t b f b;
#X obj 274 351 delay 2;
#X obj 371 177 unpack;
#X obj 475 297 sel 0;
#X obj 346 289 f;
#X msg 440 522 1;
#X msg 461 753 \$1 2;
#X obj 397 562 f 1;
#X obj 506 328 bang;
#X msg 463 351 0;
#X obj 660 895 t b b;
#X text 695 836 keep looping \, but zero volume (one shot);
#X msg 349 128 72 1;
#X obj 572 123 inlet;
#X text 768 120 start;
#X text 934 124 dur;
#X obj 783 156 inlet;
#X obj 940 157 inlet;
#X text 583 98 speed;
#X text 344 53 play;
#X obj 349 74 inlet;
#X obj 349 96 bang;
#X obj 417 880 outlet~;
#X connect 1 0 11 0;
#X connect 1 1 42 0;
#X connect 2 0 3 0;
#X connect 3 0 56 0;
#X connect 4 0 2 0;
#X connect 5 0 8 0;
#X connect 6 0 7 0;
#X connect 7 0 12 0;
#X connect 8 0 6 0;
#X connect 8 1 7 1;
#X connect 9 0 16 1;
#X connect 10 0 9 0;
#X connect 11 0 74 0;
#X connect 12 0 13 0;
#X connect 13 0 1 0;
#X connect 13 0 21 0;
#X connect 14 0 15 0;
#X connect 15 0 16 0;
#X connect 16 0 5 0;
#X connect 17 0 15 0;
#X connect 18 0 17 0;
#X connect 19 0 20 0;
#X connect 20 0 10 0;
#X connect 21 0 22 0;
#X connect 22 0 30 1;
#X connect 23 0 59 0;
#X connect 23 1 30 0;
#X connect 23 2 6 0;
#X connect 24 0 25 0;
#X connect 24 1 26 0;
#X connect 25 0 36 0;
#X connect 26 0 37 0;
#X connect 27 0 29 0;
#X connect 28 0 29 0;
#X connect 29 0 46 0;
#X connect 30 0 33 0;
#X connect 31 0 42 1;
#X connect 32 0 42 2;
#X connect 33 0 28 0;
#X connect 33 1 27 0;
#X connect 38 0 27 1;
#X connect 39 0 28 1;
#X connect 40 0 31 1;
#X connect 41 0 32 1;
#X connect 42 0 45 0;
#X connect 43 0 62 0;
#X connect 44 1 43 0;
#X connect 45 0 44 0;
#X connect 46 0 1 1;
#X connect 46 1 31 0;
#X connect 46 2 32 0;
#X connect 47 0 48 0;
#X connect 47 0 48 1;
#X connect 48 0 11 1;
#X connect 49 0 47 0;
#X connect 51 0 23 0;
#X connect 52 0 53 0;
#X connect 52 1 51 1;
#X connect 52 2 49 0;
#X connect 53 0 51 0;
#X connect 54 0 4 0;
#X connect 54 1 55 0;
#X connect 55 0 61 0;
#X connect 55 1 60 0;
#X connect 56 0 52 0;
#X connect 57 0 59 1;
#X connect 58 0 47 0;
#X connect 59 0 58 0;
#X connect 60 0 57 0;
#X connect 61 0 59 1;
#X connect 62 0 56 0;
#X connect 62 1 61 0;
#X connect 64 0 54 0;
#X connect 65 0 19 0;
#X connect 68 0 24 0;
#X connect 69 0 24 1;
#X connect 72 0 73 0;
#X connect 73 0 64 0;
