#N canvas 73 50 1413 909 10;
#X declare -path ./effects;
#X obj 57 77 loadbang;
#X obj 178 655 throw~ outL;
#X obj 266 655 throw~ outR;
#X obj 245 364 r~ inR;
#X obj 193 364 r~ inL;
#X obj 294 419 lop~ 5;
#X obj 275 465 *~;
#X obj 232 510 *~;
#X obj 803 303 stripnote;
#X obj 133 78 declare -path ./effects;
#X obj 1136 327 r duration;
#X floatatom 1136 349 15 0 0 0 - - -, f 15;
#N canvas 1113 257 729 423 arrays 0;
#X obj 170 30 20secbuf 5;
#X obj 122 212 loadbang;
#X msg 180 277 \; lengths const 0 \;;
#X obj 144 246 t b b;
#X obj 73 307 s loadsamps;
#X obj 74 208 bng 15 250 50 0 empty empty empty 17 7 0 10 -262144 -1
-1;
#X obj 87 60 20secbuf 1;
#X obj 89 87 20secbuf 2;
#X obj 88 116 20secbuf 3;
#X obj 86 145 20secbuf 4;
#X obj 167 60 20secbuf 6;
#X obj 169 87 20secbuf 7;
#X obj 168 116 20secbuf 8;
#X obj 166 145 20secbuf 9;
#X obj 259 30 20secbuf 10;
#X obj 256 60 20secbuf 11;
#X obj 257 84 20secbuf 12;
#X obj 262 119 20secbuf 13;
#X obj 255 143 20secbuf 14;
#X obj 346 32 20secbuf 15;
#X obj 346 62 20secbuf 16;
#X obj 347 88 20secbuf 17;
#X obj 345 116 20secbuf 18;
#X obj 344 144 20secbuf 19;
#X obj 444 33 20secbuf 20;
#X obj 442 63 20secbuf 21;
#X obj 443 87 20secbuf 22;
#X obj 443 112 20secbuf 23;
#X connect 1 0 3 0;
#X connect 3 0 4 0;
#X connect 3 1 2 0;
#X connect 5 0 3 0;
#X restore 156 276 pd arrays;
#N canvas 0 50 450 250 (subpatch) 0;
#X array lengths 23 float 3;
#A 0 19285.7 1885.91 19428.6 19285.7 19142.9 19142.9 19000 19000 18857.1
18714.3 18714.3 18714.3 18714.3 18714.3 18714.3 18714.3 18714.3 18714.3
18857.1 19000 19000 19000 19142.9;
#X coords 0 20000 24 0 200 140 1 0 0;
#X restore 1135 172 graph;
#X obj 803 336 toggle-keys;
#X obj 698 249 t a a;
#X text 55 55 init;
#N canvas 12 50 766 473 check-for-hold 0;
#X obj 149 29 inlet;
#X obj 141 408 outlet;
#X text 270 78 a bang goes out if a note is held alone without any
others being touched;
#X obj 146 306 f;
#X msg 228 233 stop;
#X obj 159 100 unpack;
#X obj 146 278 del 1000;
#X obj 145 172 sel 0;
#X obj 174 199 bang;
#X obj 152 227 t b f;
#X obj 187 132 t f b;
#X obj 141 331 bng 15 250 50 0 empty empty empty 17 7 0 10 -262144
-1 -1;
#X connect 0 0 5 0;
#X connect 3 0 11 0;
#X connect 4 0 6 0;
#X connect 5 1 10 0;
#X connect 6 0 3 0;
#X connect 7 1 8 0;
#X connect 8 0 9 0;
#X connect 9 0 6 0;
#X connect 9 1 3 1;
#X connect 10 0 7 0;
#X connect 10 1 4 0;
#X connect 11 0 1 0;
#X restore 618 303 pd check-for-hold;
#N canvas 18 50 644 348 save-and-zero 0;
#N canvas 302 50 1121 746 saveit 0;
#X obj 418 200 textfile;
#X obj 402 97 bng 15 250 50 0 empty empty empty 17 7 0 10 -262144 -1
-1;
#X msg 427 165 rewind;
#X obj 402 130 t b b b;
#X msg 533 334 clear;
#X obj 458 314 + 1;
#X msg 452 340 add \$1;
#X obj 397 254 t b f b;
#X text 646 139 records on startup;
#X text 636 179 files are named incrementally by writing to a conf
file;
#X obj 395 60 inlet;
#X floatatom 398 422 5 0 0 0 - - -, f 5;
#X obj 398 655 soundfiler;
#X obj 398 539 i;
#X obj 398 500 t b s;
#X obj 667 405 r duration;
#X obj 673 428 * 44.1;
#X obj 756 470 r bufset;
#X msg 398 610 write -nframes \$1 \$2 itake-\$3;
#X obj 398 571 pack f s f;
#X msg 486 165 read rec-info;
#X obj 350 383 t f;
#X obj 573 667 print;
#X floatatom 752 508 5 0 0 0 - - -, f 5;
#X msg 323 327 write rec-info;
#X obj 398 450 makefilename Archive/sound-%d.wav;
#X connect 0 0 7 0;
#X connect 1 0 3 0;
#X connect 2 0 0 0;
#X connect 3 0 0 0;
#X connect 3 1 2 0;
#X connect 3 2 20 0;
#X connect 4 0 0 0;
#X connect 5 0 6 0;
#X connect 6 0 0 0;
#X connect 7 0 24 0;
#X connect 7 1 5 0;
#X connect 7 1 21 0;
#X connect 7 2 4 0;
#X connect 10 0 1 0;
#X connect 11 0 25 0;
#X connect 13 0 19 0;
#X connect 14 0 13 0;
#X connect 14 1 19 1;
#X connect 15 0 16 0;
#X connect 16 0 13 1;
#X connect 17 0 19 2;
#X connect 17 0 23 0;
#X connect 18 0 12 0;
#X connect 18 0 22 0;
#X connect 19 0 18 0;
#X connect 20 0 0 0;
#X connect 21 0 11 0;
#X connect 24 0 0 0;
#X connect 25 0 14 0;
#X restore 329 150 pd saveit;
#X msg 179 199 \; duration 0 \;;
#X obj 277 216 tabwrite lengths;
#X msg 287 152 0;
#X obj 387 187 r bufset;
#X msg 82 198 \; newsamp bang \;;
#X obj 261 24 inlet;
#X obj 268 106 t b b b b b;
#X obj 464 164 bng 15 250 50 0 empty empty empty 17 7 0 10 -262144
-1 -1;
#X obj 464 214 s state;
#X msg 464 189 0;
#X obj 269 53 t b b;
#X obj 269 82 delay 100;
#X obj 409 102 s flash-led;
#X connect 3 0 2 0;
#X connect 4 0 2 1;
#X connect 6 0 11 0;
#X connect 7 0 5 0;
#X connect 7 1 1 0;
#X connect 7 2 3 0;
#X connect 7 3 0 0;
#X connect 7 4 8 0;
#X connect 8 0 10 0;
#X connect 10 0 9 0;
#X connect 11 0 12 0;
#X connect 11 1 13 0;
#X connect 12 0 7 0;
#X restore 618 337 pd save-and-zero;
#N canvas 9 50 601 606 set-buf 0;
#X floatatom 140 172 5 0 0 0 - - -, f 5;
#X floatatom 225 273 5 0 0 0 - - -, f 5;
#X text 271 273 sample num;
#X obj 210 336 r duration;
#X obj 210 363 tabwrite lengths;
#X obj 377 349 s bufset;
#X obj 117 395 f;
#X obj 117 360 bng 15 250 50 0 empty empty empty 17 7 0 10 -262144
-1 -1;
#X obj 117 422 tabread lengths;
#X obj 117 450 s duration;
#X obj 73 316 s newsamp;
#X obj 73 291 bng 15 250 50 0 empty empty empty 17 7 0 10 -262144 -1
-1;
#X text 200 272 2;
#X text 143 359 3;
#X text 95 288 4;
#X floatatom 377 326 5 0 0 0 - - -, f 5;
#X obj 140 224 t b b f f, f 22;
#X obj 140 148 moses 0;
#X obj 140 196 change 0;
#X obj 140 127 moses 22;
#X obj 141 63 inlet;
#X obj 140 104 - 59;
#X text 248 143 index 1-23;
#X connect 0 0 18 0;
#X connect 1 0 4 1;
#X connect 1 0 6 1;
#X connect 3 0 4 0;
#X connect 6 0 8 0;
#X connect 7 0 6 0;
#X connect 8 0 9 0;
#X connect 11 0 10 0;
#X connect 15 0 5 0;
#X connect 16 0 11 0;
#X connect 16 1 7 0;
#X connect 16 2 1 0;
#X connect 16 3 15 0;
#X connect 17 1 0 0;
#X connect 18 0 16 0;
#X connect 19 0 17 0;
#X connect 20 0 21 0;
#X connect 21 0 19 0;
#X restore 926 445 pd set-buf;
#X obj 698 184 r notes;
#N canvas 809 164 921 687 player 0;
#X obj 447 282 r duration;
#X obj 310 382 *~ 44100;
#X obj 229 -24 r duration;
#X obj 229 -2 / 1000;
#X floatatom 229 20 5 0 0 0 - - -, f 5;
#X obj 414 337 * 44.1;
#X obj 310 329 phasor~ 0.5;
#X floatatom 302 254 5 0 0 0 - - -, f 5;
#X obj 302 223 expr $f2 / $f1;
#X obj 302 198 pack 0 0;
#X floatatom 414 33 5 0 0 0 - - -, f 5;
#X obj 311 417 tabread4~ itake-1;
#X obj 594 214 r bufset;
#X msg 558 321 set itake-\$1;
#X floatatom 573 282 5 0 0 0 - - -, f 5;
#X floatatom 436 376 15 0 0 0 - - -, f 15;
#X msg 384 291 0;
#X obj 457 172 r startover;
#X obj 310 612 outlet~;
#X obj 416 -39 r knob4-detent;
#X obj 414 -13 * 4;
#X obj 414 11 - 2;
#X obj 129 377 threshold~ 0.9 1 0.5 1;
#X obj 198 488 bng 15 250 50 0 empty empty empty 17 7 0 10 -262144
-1 -1;
#X obj 198 512 s looped;
#X obj 378 106 t b f;
#X obj 311 279 sig~;
#X obj 372 516 line~;
#X obj 310 577 *~;
#X obj 410 77 line 1 5;
#X text 424 512 avoid clicks, f 21;
#X msg 408 54 \$1 40;
#X obj 243 166 f;
#X obj 180 102 delay 5;
#X msg 404 473 0 5;
#X msg 359 472 1 5;
#N canvas 4 50 450 300 delay5ms 0;
#X obj 145 46 inlet;
#X obj 133 86 t b f;
#X obj 133 108 delay 5;
#X obj 146 154 f;
#X obj 152 194 outlet;
#X connect 0 0 1 0;
#X connect 1 0 2 0;
#X connect 1 1 3 1;
#X connect 2 0 3 0;
#X connect 3 0 4 0;
#X restore 576 250 pd delay5ms;
#N canvas 4 50 450 300 delay5ms 0;
#X obj 145 46 inlet;
#X obj 133 86 t b f;
#X obj 133 108 delay 5;
#X obj 146 154 f;
#X obj 152 194 outlet;
#X connect 0 0 1 0;
#X connect 1 0 2 0;
#X connect 1 1 3 1;
#X connect 2 0 3 0;
#X connect 3 0 4 0;
#X restore 437 310 pd delay5ms;
#X obj 218 48 t b f b;
#X obj 169 137 t b b;
#X text 666 244 allow 5 ms rampout \, then update;
#X connect 0 0 37 0;
#X connect 1 0 11 0;
#X connect 2 0 3 0;
#X connect 3 0 4 0;
#X connect 4 0 38 0;
#X connect 5 0 1 1;
#X connect 5 0 15 0;
#X connect 6 0 1 0;
#X connect 6 0 22 0;
#X connect 7 0 26 0;
#X connect 8 0 7 0;
#X connect 9 0 8 0;
#X connect 10 0 31 0;
#X connect 11 0 28 0;
#X connect 12 0 36 0;
#X connect 13 0 11 0;
#X connect 14 0 13 0;
#X connect 16 0 6 1;
#X connect 17 0 16 0;
#X connect 19 0 20 0;
#X connect 20 0 21 0;
#X connect 21 0 10 0;
#X connect 22 1 23 0;
#X connect 23 0 24 0;
#X connect 25 0 9 0;
#X connect 25 1 9 1;
#X connect 26 0 6 0;
#X connect 27 0 28 1;
#X connect 28 0 18 0;
#X connect 29 0 25 0;
#X connect 31 0 29 0;
#X connect 32 0 9 0;
#X connect 33 0 39 0;
#X connect 34 0 27 0;
#X connect 35 0 27 0;
#X connect 36 0 14 0;
#X connect 37 0 5 0;
#X connect 38 0 33 0;
#X connect 38 1 32 1;
#X connect 38 2 34 0;
#X connect 39 0 35 0;
#X connect 39 1 32 0;
#X restore 47 355 pd player;
#X obj 875 392 t b a;
#N canvas 287 50 689 720 recorder 0;
#X obj 119 418 r~ inL;
#X obj 168 418 r~ inR;
#X msg 49 378 start \$1;
#X msg 70 430 stop;
#X obj 476 456 timer;
#X floatatom 476 478 5 0 0 0 - - -, f 5;
#X obj 476 584 +, f 5;
#X floatatom 547 519 5 0 0 0 - - -, f 5;
#X msg 549 469 0, f 5;
#X obj 529 549 f;
#X floatatom 476 627 10 0 0 0 - - -, f 10;
#X obj 251 45 r aux;
#X obj 284 141 sel 1 0;
#X obj 52 352 f;
#X obj 549 443 bng 15 250 50 0 empty empty empty 17 7 0 10 -262144
-1 -1;
#X obj 590 576 bng 15 250 50 0 empty empty empty 17 7 0 10 -262144
-1 -1;
#X obj 476 659 s duration;
#X obj 70 253 r duration;
#X obj 70 278 * 44.1;
#X obj 268 437 line~;
#X obj 118 520 *~;
#X obj 297 45 r fs;
#X obj 469 408 t b b;
#X obj 385 545 s done-rec;
#X obj 356 193 t b b;
#X msg 298 366 0;
#X obj 245 472 *~;
#X obj 266 176 t b b;
#X obj 241 227 delay 1;
#X obj 332 231 delay 5;
#X msg 247 369 1 5;
#X msg 335 396 0 5;
#X obj 241 249 t b b b;
#X obj 325 262 t b b;
#X obj 461 229 delay 5;
#X obj 89 682 tabwrite~ itake-1;
#X obj 547 328 r duration;
#X obj 529 350 f;
#X obj 529 301 r newsamp;
#X obj 476 510 t f b, f 8;
#X obj 212 536 r bufset;
#X msg 212 585 set itake-\$1;
#X floatatom 212 562 5 0 0 0 - - -, f 5;
#X obj 9 489 bang;
#X obj 400 229 s mute;
#X obj 461 261 s unmute;
#X msg 12 544 \; state 2 \;;
#X msg 7 604 \; state 1 \;;
#X obj 130 352 *~;
#X obj 180 137 r knob3;
#X obj 180 159 t f f;
#X obj 180 181 *;
#X obj 180 203 sig~;
#X obj 125 289 r~ feedback;
#X obj 180 225 lop~ 1;
#X connect 0 0 20 0;
#X connect 1 0 20 0;
#X connect 2 0 35 0;
#X connect 2 0 43 0;
#X connect 3 0 35 0;
#X connect 3 0 47 0;
#X connect 4 0 5 0;
#X connect 5 0 39 0;
#X connect 6 0 7 0;
#X connect 6 0 10 0;
#X connect 7 0 9 1;
#X connect 8 0 9 0;
#X connect 8 0 6 0;
#X connect 9 0 6 1;
#X connect 10 0 16 0;
#X connect 11 0 12 0;
#X connect 12 0 27 0;
#X connect 12 1 24 0;
#X connect 13 0 2 0;
#X connect 14 0 8 0;
#X connect 15 0 10 0;
#X connect 17 0 18 0;
#X connect 18 0 13 1;
#X connect 19 0 26 1;
#X connect 19 0 26 0;
#X connect 20 0 35 0;
#X connect 21 0 12 0;
#X connect 22 0 23 0;
#X connect 22 1 4 1;
#X connect 24 0 29 0;
#X connect 24 1 31 0;
#X connect 24 1 34 0;
#X connect 24 1 44 0;
#X connect 25 0 19 0;
#X connect 26 0 20 1;
#X connect 27 0 28 0;
#X connect 27 1 25 0;
#X connect 28 0 32 0;
#X connect 29 0 33 0;
#X connect 30 0 19 0;
#X connect 31 0 19 0;
#X connect 32 0 4 0;
#X connect 32 1 13 0;
#X connect 32 2 30 0;
#X connect 33 0 22 0;
#X connect 33 1 3 0;
#X connect 34 0 45 0;
#X connect 36 0 37 1;
#X connect 37 0 9 0;
#X connect 38 0 37 0;
#X connect 39 0 6 0;
#X connect 39 1 9 0;
#X connect 40 0 42 0;
#X connect 41 0 35 0;
#X connect 42 0 41 0;
#X connect 43 0 46 0;
#X connect 48 0 20 0;
#X connect 49 0 50 0;
#X connect 50 0 51 0;
#X connect 50 1 51 1;
#X connect 51 0 52 0;
#X connect 52 0 54 0;
#X connect 53 0 48 0;
#X connect 54 0 48 1;
#X restore 55 277 pd recorder;
#N canvas 9 50 1297 753 detent-knob-4 0;
#X obj 683 215 bang;
#X obj 751 360 i;
#X obj 610 400 i;
#X obj 610 428 abs;
#X obj 748 289 - 0.75;
#X obj 674 143 detent 0.075;
#X obj 245 248 bang;
#X obj 172 433 i;
#X obj 172 461 abs;
#X obj 435 48 moses 0.5;
#X obj 422 72 - 1;
#X obj 422 94 abs;
#X obj 317 388 i;
#X obj 314 317 - 0.75;
#X obj 314 344 * 400;
#X obj 319 366 + 100;
#X obj 748 316 * 400;
#X obj 753 338 + 101;
#X floatatom 973 133 5 0 0 0 - - -, f 5;
#X obj 245 152 detent 0.075;
#X obj 610 350 - 0.5;
#X obj 610 371 * 400;
#X obj 172 383 - 0.5;
#X obj 172 404 * 400;
#X obj 432 196 - 1;
#X obj 432 218 abs;
#X obj 973 111 r knob4-detent;
#X obj 439 16 r knob4;
#X msg 238 274 \; screenLine4 4: Samp Speed: ORIG \;;
#X obj 433 241 s knob4-detent;
#X msg 314 421 \; screenLine4 4: Samp Speed: \$1 % \;;
#X msg 172 496 \; screenLine4 4: Samp Speed: \$1 % \;;
#X obj 712 189 s knob4-detent;
#X msg 676 241 \; screenLine4 4: Samp Speed: ORIG \;;
#X msg 752 388 \; screenLine4 4: Samp Speed: \$1 % \;;
#X msg 610 463 \; screenLine4 4: Samp Speed: \$1 % \;;
#X connect 0 0 33 0;
#X connect 1 0 34 0;
#X connect 2 0 3 0;
#X connect 3 0 35 0;
#X connect 4 0 16 0;
#X connect 5 0 20 0;
#X connect 5 0 32 0;
#X connect 5 1 0 0;
#X connect 5 1 32 0;
#X connect 5 2 4 0;
#X connect 5 2 32 0;
#X connect 6 0 28 0;
#X connect 7 0 8 0;
#X connect 8 0 31 0;
#X connect 9 0 10 0;
#X connect 9 1 5 0;
#X connect 10 0 11 0;
#X connect 11 0 19 0;
#X connect 12 0 30 0;
#X connect 13 0 14 0;
#X connect 14 0 15 0;
#X connect 15 0 12 0;
#X connect 16 0 17 0;
#X connect 17 0 1 0;
#X connect 19 0 22 0;
#X connect 19 0 24 0;
#X connect 19 1 6 0;
#X connect 19 1 24 0;
#X connect 19 2 13 0;
#X connect 19 2 24 0;
#X connect 20 0 21 0;
#X connect 21 0 2 0;
#X connect 22 0 23 0;
#X connect 23 0 7 0;
#X connect 24 0 25 0;
#X connect 25 0 29 0;
#X connect 26 0 18 0;
#X connect 27 0 9 0;
#X restore 234 279 pd detent-knob-4;
#X obj 106 430 lop~ 5;
#X obj 87 476 *~;
#X obj 44 521 *~;
#X obj 106 405 r knob2;
#X obj 294 394 r knob1;
#X obj 83 777 i;
#X obj 83 800 change -1;
#X obj 83 722 r knob1;
#X obj 355 780 i;
#X obj 355 803 change -1;
#X obj 355 725 r knob2;
#X msg 355 831 \; screenLine2 2: Output \$1 % \;;
#X obj 83 750 * 101;
#X obj 355 753 * 101;
#N canvas 7 50 450 300 filter-notes 0;
#X obj 189 112 unpack;
#X obj 204 173 pack;
#X obj 189 74 inlet;
#X obj 204 195 outlet;
#X obj 162 143 moses 82;
#X connect 0 0 4 0;
#X connect 0 1 1 1;
#X connect 1 0 3 0;
#X connect 2 0 0 0;
#X connect 4 0 1 0;
#X restore 698 218 pd filter-notes;
#X obj 378 652 s~ out;
#N canvas 10 50 450 300 record-loop 0;
#N canvas 224 145 1356 788 auto-recorder 0;
#X msg 241 527 start;
#X msg 220 298 stop;
#X msg 376 466 open \$1;
#X floatatom 376 422 5 0 0 0 - - -, f 5;
#X obj 418 200 textfile;
#X obj 418 100 bng 15 250 50 0 empty empty empty 17 7 0 10 -262144
-1 -1;
#X msg 427 165 rewind;
#X obj 418 133 t b b b;
#X msg 533 334 clear;
#X obj 458 314 + 1;
#X msg 452 340 add \$1;
#X obj 397 254 t b f b;
#X obj 350 383 t b f;
#X obj 269 478 delay 100;
#X obj 221 247 r quitting;
#X obj 75 56 inlet~;
#X text 636 179 files are named incrementally by writing to a conf
file;
#X msg 490 168 read rec-bounces;
#X msg 313 326 write rec-bounces;
#X obj 82 581 writesf~ 1;
#X obj 399 54 inlet;
#X obj 563 50 inlet;
#X text 372 23 record new;
#X text 624 50 stop;
#X obj 376 444 makefilename ./Bounces/Bounces-%d.wav;
#X connect 0 0 19 0;
#X connect 1 0 19 0;
#X connect 2 0 19 0;
#X connect 3 0 24 0;
#X connect 4 0 11 0;
#X connect 5 0 7 0;
#X connect 6 0 4 0;
#X connect 7 0 4 0;
#X connect 7 1 6 0;
#X connect 7 2 17 0;
#X connect 8 0 4 0;
#X connect 9 0 10 0;
#X connect 10 0 4 0;
#X connect 11 0 18 0;
#X connect 11 1 9 0;
#X connect 11 1 12 0;
#X connect 11 2 8 0;
#X connect 12 0 13 0;
#X connect 12 1 3 0;
#X connect 13 0 0 0;
#X connect 14 0 1 0;
#X connect 15 0 19 0;
#X connect 17 0 4 0;
#X connect 18 0 4 0;
#X connect 20 0 5 0;
#X connect 21 0 1 0;
#X connect 24 0 2 0;
#X restore 116 185 pd auto-recorder;
#X obj 171 101 bng 15 250 50 0 empty empty empty 17 7 0 10 -262144
-1 -1;
#X obj 225 101 bng 15 250 50 0 empty empty empty 17 7 0 10 -262144
-1 -1;
#X obj 115 157 *~ 0.5;
#N canvas 11 50 895 703 bang-on-loop 0;
#X obj 155 163 r looped;
#X obj 233 95 r notes;
#X obj 233 117 stripnote;
#X obj 233 139 sel 83;
#X msg 233 165 1;
#X obj 233 191 tgl 15 0 empty empty empty 17 7 0 10 -262144 -1 -1 0
1;
#X obj 194 217 spigot;
#X msg 260 220 0;
#X obj 305 454 outlet;
#X obj 194 248 t b b b;
#X obj 84 283 r looped;
#X msg 162 285 1;
#X obj 162 311 tgl 15 0 empty empty empty 17 7 0 10 -262144 -1 -1 0
1;
#X obj 123 337 spigot;
#X msg 189 340 0;
#X obj 123 368 t b b b;
#X obj 159 451 outlet;
#X msg 329 208 \; led 2 \;;
#X msg 320 287 \; led 6 \;;
#X obj 314 260 delay 101;
#X text 406 267 make sure it happens after the flash;
#X connect 0 0 6 0;
#X connect 1 0 2 0;
#X connect 2 0 3 0;
#X connect 3 0 4 0;
#X connect 3 0 17 0;
#X connect 4 0 5 0;
#X connect 5 0 6 1;
#X connect 6 0 9 0;
#X connect 6 0 19 0;
#X connect 7 0 5 0;
#X connect 9 0 11 0;
#X connect 9 1 8 0;
#X connect 9 2 7 0;
#X connect 10 0 13 0;
#X connect 11 0 12 0;
#X connect 12 0 13 1;
#X connect 13 0 15 0;
#X connect 14 0 12 0;
#X connect 15 1 16 0;
#X connect 15 2 14 0;
#X connect 19 0 18 0;
#X restore 147 37 pd bang-on-loop;
#X obj 115 128 r~ out;
#X connect 1 0 0 1;
#X connect 2 0 0 2;
#X connect 3 0 0 0;
#X connect 4 0 2 0;
#X connect 4 1 1 0;
#X connect 5 0 3 0;
#X restore 692 612 pd record-loop;
#N canvas 378 50 718 980 save-all 1;
#X obj 181 847 soundfiler;
#X obj 198 562 makefilename Loops/sound-%d.wav;
#X obj 241 347 + 1;
#X obj 179 348 f;
#X obj 197 252 t b b;
#X obj 237 122 bng 15 250 50 0 empty empty empty 17 7 0 10 -262144
-1 -1;
#X obj 247 503 tabread lengths;
#X obj 303 623 * 44.1;
#X obj 303 645 i;
#X msg 169 761 write -wave -nframes \$3 \$2 itake-\$1;
#X obj 170 709 pack f s f;
#X obj 184 450 t f f f b;
#X obj 28 556 bng 15 250 50 0 empty empty empty 17 7 0 10 -262144 -1
-1;
#X msg 219 298 1;
#X obj 208 403 moses 23;
#X text 280 404 save 22 files \, unmute when finished;
#X obj 493 538 sel 23;
#X obj 493 562 bng 15 250 50 0 empty empty empty 17 7 0 10 -262144
-1 -1;
#X obj 184 889 bng 15 250 50 0 empty empty empty 17 7 0 10 -262144
-1 -1;
#X obj 489 663 sel 0 1;
#X msg 356 222 \; state 3 \;;
#X msg 484 750 \; state 0 \;;
#X msg 491 827 \; state 1 \;;
#X obj 573 692 bang;
#X text 592 625 restore state;
#X floatatom 424 665 5 0 0 0 - - -, f 5;
#X obj 491 625 v saved-state;
#X obj 237 156 t b b b;
#X obj 445 228 v state;
#X obj 445 250 v saved-state;
#X obj 238 66 stripnote;
#X obj 238 88 sel 82;
#X obj 238 44 r notesRaw;
#X obj 493 592 delay 1000;
#X obj 211 209 delay 1000;
#X connect 0 0 12 0;
#X connect 0 0 18 0;
#X connect 1 0 10 1;
#X connect 2 0 3 1;
#X connect 3 0 2 0;
#X connect 3 0 14 0;
#X connect 4 0 3 0;
#X connect 4 1 13 0;
#X connect 5 0 27 0;
#X connect 6 0 7 0;
#X connect 7 0 8 0;
#X connect 8 0 10 2;
#X connect 9 0 0 0;
#X connect 10 0 9 0;
#X connect 11 0 10 0;
#X connect 11 1 1 0;
#X connect 11 2 6 0;
#X connect 12 0 3 0;
#X connect 13 0 3 1;
#X connect 14 0 11 0;
#X connect 14 1 16 0;
#X connect 16 0 17 0;
#X connect 17 0 33 0;
#X connect 19 0 21 0;
#X connect 19 1 22 0;
#X connect 19 2 23 0;
#X connect 23 0 21 0;
#X connect 26 0 19 0;
#X connect 26 0 25 0;
#X connect 27 0 34 0;
#X connect 27 1 20 0;
#X connect 27 2 28 0;
#X connect 28 0 29 0;
#X connect 30 0 31 0;
#X connect 31 0 5 0;
#X connect 32 0 30 0;
#X connect 33 0 26 0;
#X connect 34 0 4 0;
#X restore 692 569 pd save-all;
#X text 776 571 last 2 keys save sounds;
#X text 804 613 last key \, saves loop as it sounds;
#X obj 396 481 line~;
#X obj 396 512 *~;
#X msg 363 447 0 5;
#X msg 396 447 1 5;
#X obj 371 409 r mute;
#X obj 421 409 r unmute;
#X obj 235 615 *~;
#X obj 10 436 s~ feedback;
#X msg 57 119 \; screenLine1 1: Input Monitor \; screenLine2 2: Output
\; screenLine3 3: Recycle \; screenLine4 4: Decay \; screenLine5 Aux:
Hold to Rec \; unmute bang \; newsamp bang \; bufset 1 \; state 0 \;
;
#X msg 756 436 \; state 0 \;;
#X msg 852 434 \; state 1 \;;
#X obj 570 782 i;
#X obj 570 805 change -1;
#X obj 570 755 * 101;
#X msg 570 833 \; screenLine3 3: Recycle \$1 % \;;
#X obj 570 727 r knob3;
#X msg 83 832 \; screenLine1 1: Input Mon \$1 % \;;
#N canvas 6 50 1483 682 states-indications 0;
#X obj 704 76 r state;
#X msg 806 235 \; led 1;
#X obj 798 274 r bufset;
#X obj 782 348 f;
#X obj 1125 388 f;
#X msg 1129 409 \; screenLine5 Key \$1 Recording \;;
#X obj 607 357 f;
#X msg 582 404 \; screenLine5 Key \$1 Stopped \;;
#X obj 812 141 v state;
#X obj 699 138 sel 0 1 2 3;
#X msg 532 228 \; mute bang \; led 0 \;;
#X obj 808 407 tabread lengths;
#X obj 835 482 f;
#X obj 931 494 f;
#X obj 803 378 t f f f;
#X obj 834 435 sel 0;
#X obj 888 457 bang;
#X msg 1023 526 \; screenLine5 Key \$1 Playing \;;
#X floatatom 782 455 5 0 0 0 - - -, f 5;
#X obj 704 100 t f f;
#X obj 801 299 + 0;
#X msg 820 525 \; screenLine5 Key \$1 Empty \;;
#X msg 655 300 \; unmute bang \; startover bang \; led 3 \;;
#X msg 681 233 \; unmute bang \; led 3 \;;
#X msg 972 205 \; screenLine5 Saving All... \; led 5 \; mute bang \;
save-all bang \;;
#X msg 189 274 \; led 7 \;;
#X obj 216 164 r looped;
#X msg 249 273 \; led 3 \;;
#X obj 216 190 v state;
#X obj 213 216 sel 1;
#X obj 249 242 delay 100;
#X obj 288 164 r state;
#X obj 288 186 bang;
#X msg 288 208 stop;
#X text 170 111 flash on loop but only while playing;
#X obj 119 161 r flash-led;
#X connect 0 0 19 0;
#X connect 2 0 20 0;
#X connect 3 0 14 0;
#X connect 4 0 5 0;
#X connect 6 0 7 0;
#X connect 9 0 6 0;
#X connect 9 0 10 0;
#X connect 9 1 3 0;
#X connect 9 1 23 0;
#X connect 9 2 1 0;
#X connect 9 2 4 0;
#X connect 9 3 24 0;
#X connect 11 0 15 0;
#X connect 11 0 18 0;
#X connect 12 0 21 0;
#X connect 13 0 17 0;
#X connect 14 0 11 0;
#X connect 14 1 12 1;
#X connect 14 2 13 1;
#X connect 15 0 12 0;
#X connect 15 1 16 0;
#X connect 16 0 13 0;
#X connect 19 0 9 0;
#X connect 19 1 8 0;
#X connect 20 0 3 1;
#X connect 20 0 4 1;
#X connect 20 0 6 1;
#X connect 26 0 28 0;
#X connect 28 0 29 0;
#X connect 29 0 25 0;
#X connect 29 0 30 0;
#X connect 30 0 27 0;
#X connect 31 0 32 0;
#X connect 32 0 33 0;
#X connect 33 0 30 0;
#X connect 35 0 30 0;
#X connect 35 0 25 0;
#X restore 663 96 pd states-indications;
#N canvas 465 107 1201 937 save-one 1;
#X msg 330 374 start;
#X msg 333 426 1;
#X obj 201 729 soundfiler;
#X obj 201 654 pack s \$1;
#X text 29 569 load sound on startup \, we'll worry about this later...
;
#X obj 652 432 line~;
#X obj 582 726 writesf~;
#X obj 739 73 r duration;
#X floatatom 637 296 50 0 0 0 - - -, f 50;
#X msg 721 389 0;
#X obj 618 393 pack 0 0;
#X obj 622 359 * 44.1;
#X obj 649 321 t f f;
#X obj 526 107 bng 15 250 50 0 empty empty empty 17 7 0 10 -262144
-1 -1;
#X obj 653 471 tabread~ itake-1;
#X floatatom 201 809 10 0 0 0 - - -, f 10;
#X floatatom 123 809 10 0 0 0 - - -, f 10;
#X msg 197 595 ./Test/thing.wav;
#X obj 813 409 delay;
#X obj 589 233 f;
#X obj 526 134 t b b b b b;
#X msg 813 494 stop;
#X msg 201 699 read \$1 itake-3;
#X obj 201 776 / 44.1;
#X floatatom 571 464 10 0 0 0 - - -, f 10;
#X obj 514 54 inlet;
#X obj 853 686 samplerate~;
#X floatatom 855 717 50 0 0 0 - - -, f 50;
#X obj 845 649 bng 15 250 50 0 empty empty empty 17 7 0 10 -262144
-1 -1;
#X obj 723 620 threshold~;
#X obj 892 448 bng 15 250 50 0 empty empty empty 17 7 0 10 -262144
-1 -1;
#X msg 709 545 set \$1 0 0 0;
#X obj 708 674 bng 15 250 50 0 empty empty empty 17 7 0 10 -262144
-1 -1;
#X obj 571 496 - 64;
#X obj 784 669 bng 15 250 50 0 empty empty empty 17 7 0 10 -262144
-1 -1;
#X obj 853 578 snapshot~;
#X obj 854 554 metro 10;
#X obj 846 531 tgl 15 0 empty empty empty 17 7 0 10 -262144 -1 -1 1
1;
#X floatatom 849 604 50 0 0 0 - - -, f 50;
#X obj 677 730 outlet~;
#X msg 377 374 open -rate 8000 ./Test/thing.wav;
#X obj 105 83 dblock~ 64 1 4;
#X obj 677 357 / 1;
#X connect 0 0 1 0;
#X connect 0 0 6 0;
#X connect 2 0 16 0;
#X connect 2 0 23 0;
#X connect 3 0 22 0;
#X connect 5 0 14 0;
#X connect 5 0 29 0;
#X connect 5 0 35 0;
#X connect 7 0 19 1;
#X connect 7 0 18 1;
#X connect 8 0 12 0;
#X connect 9 0 5 0;
#X connect 9 0 29 1;
#X connect 10 0 5 0;
#X connect 11 0 10 0;
#X connect 11 0 24 0;
#X connect 12 0 11 0;
#X connect 12 1 42 0;
#X connect 13 0 20 0;
#X connect 14 0 6 0;
#X connect 14 0 39 0;
#X connect 17 0 3 0;
#X connect 18 0 21 0;
#X connect 18 0 30 0;
#X connect 19 0 8 0;
#X connect 20 0 19 0;
#X connect 20 1 0 0;
#X connect 20 2 40 0;
#X connect 20 3 9 0;
#X connect 20 4 18 0;
#X connect 21 0 6 0;
#X connect 22 0 2 0;
#X connect 23 0 15 0;
#X connect 24 0 33 0;
#X connect 25 0 13 0;
#X connect 26 0 27 0;
#X connect 28 0 26 0;
#X connect 29 0 32 0;
#X connect 29 1 34 0;
#X connect 31 0 29 0;
#X connect 33 0 31 0;
#X connect 35 0 38 0;
#X connect 36 0 35 0;
#X connect 37 0 36 0;
#X connect 40 0 6 0;
#X connect 42 0 10 1;
#X restore 1225 646 pd save-one;
#X obj 1221 602 bng 15 250 50 0 empty empty empty 17 7 0 10 -262144
-1 -1;
#X obj 1233 698 bng 15 250 50 0 empty empty empty 17 7 0 10 -262144
-1 -1;
#X connect 0 0 53 0;
#X connect 3 0 7 0;
#X connect 4 0 7 0;
#X connect 5 0 6 0;
#X connect 5 0 6 1;
#X connect 6 0 7 1;
#X connect 7 0 51 0;
#X connect 8 0 14 0;
#X connect 10 0 11 0;
#X connect 14 0 54 0;
#X connect 14 1 22 0;
#X connect 15 0 17 0;
#X connect 15 1 8 0;
#X connect 17 0 18 0;
#X connect 20 0 39 0;
#X connect 21 0 27 0;
#X connect 21 0 52 0;
#X connect 22 0 55 0;
#X connect 22 1 19 0;
#X connect 25 0 26 0;
#X connect 25 0 26 1;
#X connect 26 0 27 1;
#X connect 27 0 51 0;
#X connect 28 0 25 0;
#X connect 29 0 5 0;
#X connect 30 0 31 0;
#X connect 31 0 61 0;
#X connect 32 0 37 0;
#X connect 33 0 34 0;
#X connect 34 0 36 0;
#X connect 35 0 38 0;
#X connect 37 0 30 0;
#X connect 38 0 33 0;
#X connect 39 0 15 0;
#X connect 45 0 46 0;
#X connect 45 0 46 1;
#X connect 46 0 51 1;
#X connect 47 0 45 0;
#X connect 48 0 45 0;
#X connect 49 0 47 0;
#X connect 50 0 48 0;
#X connect 51 0 2 0;
#X connect 51 0 1 0;
#X connect 51 0 40 0;
#X connect 56 0 57 0;
#X connect 57 0 59 0;
#X connect 58 0 56 0;
#X connect 60 0 58 0;
#X connect 64 0 63 0;
