#N canvas 267 332 1295 678 10;
#X obj 216 681 throw~ outR;
#X obj 367 680 throw~ outL;
#N canvas 0 50 450 250 (subpatch) 0;
#X array param1 24 float 3;
#A 0 0.0966797 0.0966797 0.164062 0.242188 0.242188 0.341797 0.369141
0.783203 0.615234 0.691406 0.769531 0.915039 0.979492 0.979492 0.69
0 0.75 0.26 0.26 0.26 0.26 0.26 0.26 0.26;
#X coords 0 1 24 0 100 100 1 0 0;
#X restore 582 50 graph;
#N canvas 4 50 450 250 (subpatch) 0;
#X array param2 24 float 3;
#A 0 0.0810547 0.0810547 0.0810547 0.0810547 0.0810547 0.0810547 0.0810547
0.0810547 0.0810547 0.0810547 0.0810547 0.0810547 0.0810547 0.0810547
0.85 0.999023 0.86 0.0419922 0.0419922 0.0419922 0.0419922 0.0419922
0.0419922 0.0419922;
#X coords 0 1 24 0 100 100 1 0 0;
#X restore 583 177 graph;
#N canvas 0 50 450 250 (subpatch) 0;
#X array param3 24 float 3;
#A 0 0 0 0 0 0 0 0 0 0 0 0 0 0 0 0.885 0.86 0.86 0.95 0.95 0.95 0.95
0.95 0.95 0.95;
#X coords 0 1 24 0 100 100 1 0 0;
#X restore 583 297 graph;
#N canvas 0 50 450 250 (subpatch) 0;
#X array param4 24 float 3;
#A 0 0.49707 0.49707 0.49707 0.49707 0.49707 0.49707 0.49707 0.49707
0.49707 0.49707 0.49707 0.49707 0.49707 0.49707 0.255859 0.530273 0.507812
0 0.189453 0.106445 0.142578 0.189453 0.223633 0.272461;
#X coords 0 1 24 0 100 100 1 0 0;
#X restore 584 422 graph;
#N canvas 222 308 1428 651 param-editor 0;
#X obj 94 40 r edit-state;
#X obj 153 113 r edit-note;
#X obj 36 61 r knob1;
#X obj 51 116 spigot 0;
#X floatatom 52 139 5 0 0 0 - - -, f 5;
#X obj 53 167 tabwrite param1;
#X obj 151 137 - 60;
#X obj 357 112 r edit-note;
#X obj 255 115 spigot 0;
#X floatatom 256 138 5 0 0 0 - - -, f 5;
#X obj 355 136 - 60;
#X obj 145 306 r edit-note;
#X obj 43 309 spigot 0;
#X floatatom 44 332 5 0 0 0 - - -, f 5;
#X obj 143 330 - 60;
#X obj 349 305 r edit-note;
#X obj 247 308 spigot 0;
#X floatatom 248 331 5 0 0 0 - - -, f 5;
#X obj 347 329 - 60;
#X obj 257 166 tabwrite param2;
#X obj 45 360 tabwrite param3;
#X obj 249 355 tabwrite param4;
#X obj 50 88 f;
#X obj 95 62 t b f;
#X obj 298 37 r edit-state;
#X obj 254 85 f;
#X obj 299 59 t b f;
#X obj 240 58 r knob2;
#X obj 91 228 r edit-state;
#X obj 47 276 f;
#X obj 92 250 t b f;
#X obj 292 226 r edit-state;
#X obj 248 274 f;
#X obj 293 248 t b f;
#X obj 33 249 r knob3;
#X obj 234 247 r knob4;
#X obj 831 87 r notesRaw;
#X obj 881 201 stripnote;
#X obj 645 415 s edit-note;
#N canvas 4 50 450 300 lock-knobs 0;
#X obj 160 78 s knob1Override;
#X obj 171 101 s knob2Override;
#X obj 188 124 s knob3Override;
#X obj 201 148 s knob4Override;
#X obj 234 17 inlet;
#X connect 4 0 0 0;
#X connect 4 0 1 0;
#X connect 4 0 2 0;
#X connect 4 0 3 0;
#X restore 1020 297 pd lock-knobs;
#X text 656 91 update edit key;
#X obj 928 409 bag;
#X msg 926 366 flush;
#X text 513 97 <-- output them;
#X obj 828 115 t a b a;
#X msg 779 178 clear;
#X obj 925 334 bang;
#X obj 835 492 tabwrite param1;
#X obj 955 301 t f b f;
#X obj 836 461 tabread param1;
#X obj 954 492 tabwrite param2;
#X obj 1069 489 tabwrite param3;
#X obj 1183 489 tabwrite param4;
#X obj 1188 458 tabread param4;
#X obj 1066 462 tabread param3;
#X obj 953 463 tabread param2;
#X obj 847 413 print;
#X obj 1052 373 - 60;
#X obj 928 434 - 60;
#X connect 0 0 23 0;
#X connect 1 0 6 0;
#X connect 2 0 22 0;
#X connect 3 0 4 0;
#X connect 4 0 5 0;
#X connect 6 0 5 1;
#X connect 7 0 10 0;
#X connect 8 0 9 0;
#X connect 9 0 19 0;
#X connect 10 0 19 1;
#X connect 11 0 14 0;
#X connect 12 0 13 0;
#X connect 13 0 20 0;
#X connect 14 0 20 1;
#X connect 15 0 18 0;
#X connect 16 0 17 0;
#X connect 17 0 21 0;
#X connect 18 0 21 1;
#X connect 22 0 3 0;
#X connect 23 1 3 1;
#X connect 24 0 26 0;
#X connect 25 0 8 0;
#X connect 26 1 8 1;
#X connect 27 0 25 0;
#X connect 28 0 30 0;
#X connect 29 0 12 0;
#X connect 30 1 12 1;
#X connect 31 0 33 0;
#X connect 32 0 16 0;
#X connect 33 1 16 1;
#X connect 34 0 29 0;
#X connect 35 0 32 0;
#X connect 36 0 44 0;
#X connect 37 0 48 0;
#X connect 37 1 39 0;
#X connect 41 0 56 0;
#X connect 41 0 58 0;
#X connect 42 0 41 0;
#X connect 44 0 41 0;
#X connect 44 1 45 0;
#X connect 44 2 37 0;
#X connect 45 0 41 0;
#X connect 46 0 42 0;
#X connect 48 0 38 0;
#X connect 48 1 46 0;
#X connect 48 2 57 0;
#X connect 49 0 47 0;
#X connect 53 0 52 0;
#X connect 54 0 51 0;
#X connect 55 0 50 0;
#X connect 57 0 52 1;
#X connect 57 0 51 1;
#X connect 57 0 50 1;
#X connect 57 0 47 1;
#X connect 58 0 49 0;
#X connect 58 0 55 0;
#X connect 58 0 54 0;
#X connect 58 0 53 0;
#X restore 731 114 pd param-editor;
#N canvas 13 50 1160 286 knob-to-fx 0;
#X obj 68 62 r knob1;
#X obj 72 115 spigot 1;
#X obj 124 68 r edit-state;
#X obj 124 90 ==;
#X obj 71 147 s eparam1;
#X obj 231 119 spigot 1;
#X obj 283 72 r edit-state;
#X obj 283 94 ==;
#X obj 403 116 spigot 1;
#X obj 455 69 r edit-state;
#X obj 455 91 ==;
#X obj 562 120 spigot 1;
#X obj 614 73 r edit-state;
#X obj 614 95 ==;
#X obj 227 66 r knob2;
#X obj 399 63 r knob3;
#X obj 558 67 r knob4;
#X obj 230 151 s eparam2;
#X obj 402 148 s eparam3;
#X obj 561 152 s eparam4;
#X text 221 24 if not in key edit state \, send effect params;
#X connect 0 0 1 0;
#X connect 1 0 4 0;
#X connect 2 0 3 0;
#X connect 3 0 1 1;
#X connect 5 0 17 0;
#X connect 6 0 7 0;
#X connect 7 0 5 1;
#X connect 8 0 18 0;
#X connect 9 0 10 0;
#X connect 10 0 8 1;
#X connect 11 0 19 0;
#X connect 12 0 13 0;
#X connect 13 0 11 1;
#X connect 14 0 5 0;
#X connect 15 0 8 0;
#X connect 16 0 11 0;
#X restore 731 140 pd knob-to-fx;
#X obj 991 575 s~ lfo;
#X obj 990 508 osc~;
#X obj 991 544 *~;
#X obj 990 411 r eparam1;
#X obj 990 435 t f f;
#X obj 990 457 *;
#X obj 990 482 * 1000;
#X obj 1049 476 r eparam2;
#X obj 1049 502 * 1000;
#X text 1063 449 HFO;
#N canvas 83 143 1730 901 states-and-leds 1;
#N canvas 12 50 766 473 check-for-hold 0;
#X obj 149 29 inlet;
#X obj 110 394 outlet;
#X text 270 78 a bang goes out if a note is held alone without any
others being touched;
#X msg 228 233 stop;
#X obj 116 96 unpack;
#X obj 149 288 del 1000;
#X obj 145 172 sel 0;
#X obj 174 199 bang;
#X obj 187 132 t f b;
#X obj 105 344 f;
#X connect 0 0 4 0;
#X connect 3 0 5 0;
#X connect 4 0 9 1;
#X connect 4 1 8 0;
#X connect 5 0 9 0;
#X connect 6 1 7 0;
#X connect 7 0 5 0;
#X connect 8 0 6 0;
#X connect 8 1 3 0;
#X connect 9 0 1 0;
#X restore 246 176 pd check-for-hold;
#X obj 299 273 s edit-note;
#X obj 246 148 r notesRaw;
#N canvas 10 50 1006 722 midi-control 0;
#X obj 95 121 midirealtimein;
#X obj 95 177 sel 248 250 251 252, f 22;
#X obj 260 272 v state;
#X obj 260 239 bng 15 250 50 0 empty empty empty 17 7 0 10 -262144
-1 -1;
#X obj 260 309 sel 1 2 3, f 37;
#X obj 69 276 v state;
#X obj 69 243 bng 15 250 50 0 empty empty empty 17 7 0 10 -262144 -1
-1;
#X obj 69 313 sel 0 1 2 3, f 12;
#X text 78 509 states are: 0 = stopped \, 1 = playing \, 2 = rec enabled
\, 3 = recording, f 70;
#X text 262 143 MIDI 248 = clock \; 250 = start \; 251 = continue \;
252 = stop, f 18;
#X text 23 15 This subpatch handles MIDI commands for starting/stopping
sequencer., f 69;
#X msg 69 357 1;
#X obj 69 394 s state;
#X obj 259 392 s state;
#X obj 345 384 s state;
#X obj 530 409 s state;
#X msg 260 344 0;
#X msg 345 346 0;
#X msg 529 379 0;
#X obj 430 344 t b b;
#X msg 440 381 1;
#X connect 0 0 1 0;
#X connect 1 1 6 0;
#X connect 1 2 6 0;
#X connect 1 3 3 0;
#X connect 2 0 4 0;
#X connect 3 0 2 0;
#X connect 4 0 16 0;
#X connect 4 1 17 0;
#X connect 4 2 19 0;
#X connect 5 0 7 0;
#X connect 6 0 5 0;
#X connect 7 0 11 0;
#X connect 11 0 12 0;
#X connect 16 0 13 0;
#X connect 17 0 14 0;
#X connect 18 0 15 0;
#X connect 19 0 20 0;
#X connect 19 1 18 0;
#X connect 20 0 15 0;
#X restore 1077 44 pd midi-control;
#X obj 863 274 f;
#X obj 863 221 sel 1;
#X obj 770 132 r aux;
#X floatatom 770 246 5 0 0 0 - - -, f 5;
#X obj 770 277 sel 1;
#X obj 770 336 v state;
#X obj 770 303 bng 15 250 50 0 empty empty empty 17 7 0 10 -262144
-1 -1;
#X msg 863 326 2;
#X obj 848 181 t f f;
#X obj 863 300 sel 1;
#X obj 915 274 bng 15 250 50 0 empty empty empty 17 7 0 10 -262144
-1 -1;
#X obj 863 246 del 500;
#N canvas 0 184 1783 760 led-screen 0;
#X obj 824 232 r edit-note;
#X obj 792 268 f;
#X msg 1418 394 \; screenLine1 Press and hold a \; screenLine2 key
to adjust sound. \; screenLine3 Press any key to \; screenLine4 exit
edit mode. \; screenLine5 Press a key to begin... \; led 0 \;;
#X obj 920 84 t b b;
#X msg 920 128 \; led 7;
#X obj 1045 95 v state;
#X obj 1045 119 sel 0 1 2 3, f 33;
#X msg 1045 146 \; led 0;
#X msg 1102 145 \; led 3;
#X msg 1159 146 \; led 6;
#X msg 1216 146 \; led 1;
#X obj 1045 71 delay 100;
#X text 945 185 Flashes LED at loop & sets color after sequence stop
;
#X obj 914 61 r seq-looped;
#X obj 391 136 r state;
#X msg 792 310 \; screenLine5 Editing Key \$1 \; led 7 \;;
#X msg 162 317 \; screenLine5 Seq Playing \; led 3 \;;
#X msg 47 346 \; screenLine5 Seq Sopped \; led 0 \;;
#X msg 361 318 \; screenLine5 Seq Rec Enable \; led 6 \;;
#X msg 578 312 \; screenLine5 Seq Recording \; led 1 \;;
#X obj 283 444 r edit-note;
#X obj 312 512 spigot 0;
#X obj 390 445 r edit-state;
#X msg 313 541 \; screenLine5 Editing Key \$1 \; led 7 \;;
#X obj 391 158 sel 0 1 2 3 4 5;
#X msg 551 423 \; screenLine1 1: x \; screenLine2 2: x \; screenLine3
3: Room Size \; screenLine4 4: Reverb Amt \;;
#N canvas 7 50 610 568 param-disp 0;
#X obj 97 217 tabread param1;
#X floatatom 96 243 5 0 0 0 - - -, f 5;
#X obj 100 114 r edit-note;
#X obj 104 185 f;
#X obj 102 292 spigot 0;
#X obj 35 216 r knob1;
#X obj 320 65 r state;
#X obj 315 101 sel 4;
#X obj 347 172 bang;
#X msg 311 223 0;
#X msg 211 215 1;
#X obj 294 142 t b b;
#X obj 109 148 - 60;
#X text 371 114 state 4 key edit;
#X obj 219 334 r sample-dur;
#X obj 191 366 *;
#X obj 191 394 / 44.1;
#X obj 191 422 i;
#X obj 198 476 outlet;
#X connect 0 0 1 0;
#X connect 1 0 4 0;
#X connect 2 0 12 0;
#X connect 3 0 0 0;
#X connect 4 0 15 0;
#X connect 5 0 4 0;
#X connect 6 0 7 0;
#X connect 7 0 11 0;
#X connect 7 1 8 0;
#X connect 8 0 9 0;
#X connect 9 0 4 1;
#X connect 10 0 4 1;
#X connect 11 0 3 0;
#X connect 11 1 10 0;
#X connect 12 0 3 0;
#X connect 14 0 15 1;
#X connect 15 0 16 0;
#X connect 16 0 17 0;
#X connect 17 0 18 0;
#X restore 756 587 pd param-disp;
#X msg 756 622 \; screenLine1 1: Start \$1 ms \;;
#N canvas 9 50 610 568 param-disp 0;
#X floatatom 96 243 5 0 0 0 - - -, f 5;
#X obj 100 114 r edit-note;
#X obj 104 185 f;
#X obj 102 292 spigot 0;
#X obj 320 65 r state;
#X obj 315 101 sel 4;
#X obj 347 172 bang;
#X msg 311 223 0;
#X msg 211 215 1;
#X obj 294 142 t b b;
#X obj 109 148 - 60;
#X text 371 114 state 4 key edit;
#X obj 219 334 r sample-dur;
#X obj 191 366 *;
#X obj 191 394 / 44.1;
#X obj 191 422 i;
#X obj 191 462 outlet;
#X obj 35 216 r knob2;
#X obj 97 217 tabread param2;
#X connect 0 0 3 0;
#X connect 1 0 10 0;
#X connect 2 0 18 0;
#X connect 3 0 13 0;
#X connect 4 0 5 0;
#X connect 5 0 9 0;
#X connect 5 1 6 0;
#X connect 6 0 7 0;
#X connect 7 0 3 1;
#X connect 8 0 3 1;
#X connect 9 0 2 0;
#X connect 9 1 8 0;
#X connect 10 0 2 0;
#X connect 12 0 13 1;
#X connect 13 0 14 0;
#X connect 14 0 15 0;
#X connect 15 0 16 0;
#X connect 17 0 3 0;
#X connect 18 0 0 0;
#X restore 960 587 pd param-disp;
#N canvas 9 50 610 568 param-disp 0;
#X floatatom 96 243 5 0 0 0 - - -, f 5;
#X obj 100 114 r edit-note;
#X obj 104 185 f;
#X obj 102 292 spigot 0;
#X obj 320 65 r state;
#X obj 315 101 sel 4;
#X obj 347 172 bang;
#X msg 311 223 0;
#X msg 211 215 1;
#X obj 294 142 t b b;
#X obj 109 148 - 60;
#X text 371 114 state 4 key edit;
#X obj 198 476 outlet;
#X obj 35 216 r knob3;
#X obj 97 217 tabread param3;
#X connect 0 0 3 0;
#X connect 1 0 10 0;
#X connect 2 0 14 0;
#X connect 3 0 12 0;
#X connect 4 0 5 0;
#X connect 5 0 9 0;
#X connect 5 1 6 0;
#X connect 6 0 7 0;
#X connect 7 0 3 1;
#X connect 8 0 3 1;
#X connect 9 0 2 0;
#X connect 9 1 8 0;
#X connect 10 0 2 0;
#X connect 14 0 0 0;
#X restore 1191 585 pd param-disp;
#N canvas 8 50 610 568 param-disp 0;
#X floatatom 96 243 5 0 0 0 - - -, f 5;
#X obj 100 114 r edit-note;
#X obj 104 185 f;
#X obj 102 292 spigot 0;
#X obj 320 65 r state;
#X obj 315 101 sel 4;
#X obj 347 172 bang;
#X msg 311 223 0;
#X msg 211 215 1;
#X obj 294 142 t b b;
#X obj 109 148 - 60;
#X text 371 114 state 4 key edit;
#X obj 191 422 i;
#X obj 187 496 outlet;
#X obj 35 216 r knob4;
#X obj 97 217 tabread param4;
#X obj 191 366 * 400;
#X obj 191 394 - 200;
#X connect 0 0 3 0;
#X connect 1 0 10 0;
#X connect 2 0 15 0;
#X connect 3 0 16 0;
#X connect 4 0 5 0;
#X connect 5 0 9 0;
#X connect 5 1 6 0;
#X connect 6 0 7 0;
#X connect 7 0 3 1;
#X connect 8 0 3 1;
#X connect 9 0 2 0;
#X connect 9 1 8 0;
#X connect 10 0 2 0;
#X connect 12 0 13 0;
#X connect 14 0 3 0;
#X connect 15 0 0 0;
#X connect 16 0 17 0;
#X connect 17 0 12 0;
#X restore 1334 586 pd param-disp;
#X text 975 559 display edit params in key edit mode;
#X msg 962 620 \; screenLine2 2: Duration \$1 ms \;;
#X msg 1191 620 \; screenLine3 3: x \;;
#X msg 1334 621 \; screenLine4 4: Speed \$1 % \;;
#X connect 0 0 1 1;
#X connect 1 0 15 0;
#X connect 3 0 4 0;
#X connect 3 1 11 0;
#X connect 5 0 6 0;
#X connect 6 0 7 0;
#X connect 6 1 8 0;
#X connect 6 2 9 0;
#X connect 6 3 10 0;
#X connect 11 0 5 0;
#X connect 13 0 3 0;
#X connect 14 0 24 0;
#X connect 20 0 21 0;
#X connect 21 0 23 0;
#X connect 22 0 21 1;
#X connect 24 0 17 0;
#X connect 24 0 25 0;
#X connect 24 1 16 0;
#X connect 24 1 25 0;
#X connect 24 2 18 0;
#X connect 24 2 25 0;
#X connect 24 3 19 0;
#X connect 24 3 25 0;
#X connect 24 4 1 0;
#X connect 24 5 2 0;
#X connect 26 0 27 0;
#X connect 28 0 32 0;
#X connect 29 0 33 0;
#X connect 30 0 34 0;
#X restore 959 32 pd led-screen;
#X obj 860 25 r state;
#X obj 860 47 v state;
#N canvas 4 50 450 300 lock-knobs 0;
#X obj 160 78 s knob1Override;
#X obj 171 101 s knob2Override;
#X obj 188 124 s knob3Override;
#X obj 201 148 s knob4Override;
#X obj 234 17 inlet;
#X connect 4 0 0 0;
#X connect 4 0 1 0;
#X connect 4 0 2 0;
#X connect 4 0 3 0;
#X restore 778 683 pd lock-knobs;
#X floatatom 814 50 5 0 0 0 - - -, f 5;
#X obj 863 348 s state;
#X obj 437 513 r state;
#X msg 770 407 1;
#X obj 770 431 s state;
#X obj 898 431 s state;
#X msg 898 407 0;
#X obj 1026 430 s state;
#X msg 1026 406 0;
#X obj 573 804 s seq-stop;
#X obj 541 735 t b b;
#X obj 1282 431 s state;
#X msg 1282 407 0;
#X obj 392 687 s seq-stop;
#X obj 478 691 s seq-start;
#X obj 715 837 s edit-state;
#X obj 568 162 r seq-record-start;
#X msg 568 188 3;
#X obj 568 216 s state;
#X obj 541 764 s seq-recenable;
#X msg 236 241 4;
#X obj 236 273 s state;
#X obj 243 206 t b f;
#X msg 732 679 1;
#X msg 675 696 0;
#X obj 732 615 t b b b;
#X obj 891 682 s seq-stop;
#X text 376 30 states: 0 stopped \, 1 playing \, 2 rec enabled \, 3
recording \, 4 key edit \, 5 info screen;
#X obj 770 379 sel 0 1 2 3 4 5, f 92;
#X obj 1355 435 s state;
#X msg 1355 411 0;
#X obj 437 558 sel 0 1 2 3 4 5, f 68;
#X obj 444 168 loadbang;
#X obj 446 226 s state;
#X msg 443 197 5;
#X obj 90 298 v state;
#X obj 88 273 bng 15 250 50 0 empty empty empty 17 7 0 10 -262144 -1
-1;
#X msg 76 208 1;
#X obj 78 147 r notes;
#X obj 82 180 bang;
#X obj 74 236 change -1;
#X msg 88 329 0;
#X obj 88 351 s state;
#X text 820 133 comment;
#X text 50 89 state changing events;
#X text 344 479 dispatch events on state changes;
#X obj 1226 486 s state;
#X msg 1225 456 0;
#X obj 1126 421 t b b;
#X msg 1136 458 1;
#X text 1230 516 comment;
#X connect 0 0 42 0;
#X connect 2 0 0 0;
#X connect 4 0 13 0;
#X connect 5 0 15 0;
#X connect 6 0 7 0;
#X connect 6 0 12 0;
#X connect 7 0 8 0;
#X connect 8 0 10 0;
#X connect 9 0 48 0;
#X connect 10 0 9 0;
#X connect 11 0 21 0;
#X connect 12 0 5 0;
#X connect 12 1 4 1;
#X connect 13 0 11 0;
#X connect 15 0 4 0;
#X connect 15 0 14 0;
#X connect 17 0 18 0;
#X connect 17 0 20 0;
#X connect 22 0 51 0;
#X connect 23 0 24 0;
#X connect 26 0 25 0;
#X connect 28 0 27 0;
#X connect 30 0 39 0;
#X connect 30 1 29 0;
#X connect 32 0 31 0;
#X connect 36 0 37 0;
#X connect 37 0 38 0;
#X connect 40 0 41 0;
#X connect 42 0 40 0;
#X connect 42 1 1 0;
#X connect 43 0 35 0;
#X connect 44 0 35 0;
#X connect 45 0 43 0;
#X connect 45 1 19 0;
#X connect 45 2 46 0;
#X connect 48 0 23 0;
#X connect 48 1 26 0;
#X connect 48 2 28 0;
#X connect 48 3 68 0;
#X connect 48 4 32 0;
#X connect 48 5 50 0;
#X connect 50 0 49 0;
#X connect 51 0 33 0;
#X connect 51 0 44 0;
#X connect 51 1 34 0;
#X connect 51 2 30 0;
#X connect 51 2 44 0;
#X connect 51 3 44 0;
#X connect 51 4 45 0;
#X connect 52 0 54 0;
#X connect 54 0 53 0;
#X connect 55 0 61 0;
#X connect 56 0 55 0;
#X connect 57 0 60 0;
#X connect 58 0 59 0;
#X connect 59 0 57 0;
#X connect 60 0 56 0;
#X connect 61 0 62 0;
#X connect 67 0 66 0;
#X connect 68 0 69 0;
#X connect 68 1 67 0;
#X connect 69 0 66 0;
#X restore 730 196 pd states-and-leds;
#N canvas 737 332 1161 609 record-load-sample 0;
#X msg 247 286 bang;
#X obj 468 5 r aux;
#X obj 306 261 r~ inL;
#X obj 365 260 r~ inR;
#X obj 356 463 tabwrite~ newsample;
#X obj 526 7 r fs;
#X obj 521 306 s led;
#X msg 543 271 0;
#X obj 471 90 sel 1 0;
#X obj 614 261 timer;
#X obj 614 291 * 44.1;
#X obj 355 409 *~;
#X obj 403 377 line~;
#X msg 426 264 1 1;
#X msg 465 265 0 2;
#X msg 506 270 1;
#X text 858 346 time length of recording in samples;
#X text 16 25 records as long as aux button or foot switch are held
down;
#X text 82 46 max 2 seconds;
#X obj 90 198 delay 2;
#X msg 101 269 stop;
#X obj 17 465 soundfiler;
#X obj 67 230 t b b;
#N canvas 0 50 450 300 (subpatch) 0;
#X array newsample 2.646e+06 float 0;
#X coords 0 1.02 2.646e+06 -1.02 200 130 1 0 0;
#X restore 794 32 graph;
#X obj 18 345 i;
#X obj 53 314 r dur;
#X msg 667 191 stop;
#X obj 393 128 t b b b b b;
#X msg 758 193 0;
#X obj 514 128 t b b b b b;
#X obj 470 41 i;
#X obj 470 63 change;
#X text 532 55 don't do things twice;
#X text 728 215 autostopper;
#X obj 685 236 delay 60000;
#X obj 616 356 expr if($f1 < 4410 \, 4410 \, $f1);
#X obj 879 237 loadbang;
#X obj 879 295 soundfiler;
#X text 865 371 it must be at least 4410 cause this;
#X text 874 401 is what the player assumes;
#X obj 616 439 s sample-dur;
#X msg 879 265 read ./sound.wav newsample;
#X msg 19 398 write -nframes \$1 ./sound.wav newsample;
#X connect 0 0 4 0;
#X connect 2 0 11 0;
#X connect 3 0 11 0;
#X connect 7 0 6 0;
#X connect 8 0 27 0;
#X connect 8 1 29 0;
#X connect 9 0 10 0;
#X connect 10 0 35 0;
#X connect 11 0 4 0;
#X connect 12 0 11 1;
#X connect 13 0 12 0;
#X connect 14 0 12 0;
#X connect 15 0 6 0;
#X connect 19 0 22 0;
#X connect 20 0 4 0;
#X connect 22 0 24 0;
#X connect 22 1 20 0;
#X connect 24 0 42 0;
#X connect 25 0 24 1;
#X connect 26 0 34 0;
#X connect 27 0 0 0;
#X connect 27 1 13 0;
#X connect 27 2 15 0;
#X connect 27 3 9 0;
#X connect 27 4 34 0;
#X connect 28 0 30 0;
#X connect 29 0 19 0;
#X connect 29 1 14 0;
#X connect 29 2 7 0;
#X connect 29 3 9 1;
#X connect 29 4 26 0;
#X connect 30 0 31 0;
#X connect 31 0 8 0;
#X connect 34 0 28 0;
#X connect 35 0 40 0;
#X connect 36 0 41 0;
#X connect 37 0 35 0;
#X connect 41 0 37 0;
#X connect 42 0 21 0;
#X restore 132 74 pd record-load-sample;
#X obj 17 360 r notes;
#X obj 103 364 r knob1;
#X obj 127 386 r knob2;
#X obj 149 409 r knob3;
#X obj 730 168 sequencer3;
#X obj 112 212 catch~ samp_voice_out;
#X obj 41 145 sampler-voice 1.wav 0;
#X obj 424 27 r sample-dur;
#X floatatom 424 49 10 0 0 0 - - -, f 10;
#X obj 244 488 *~ 0.5;
#X obj 265 366 bob~;
#X floatatom 298 196 5 0 150 0 - - -, f 5;
#X obj 296 236 mtof;
#X obj 297 281 pack 0 50;
#X obj 297 306 line~;
#X floatatom 296 259 7 0 0 0 - - -, f 7;
#X obj 343 305 sig~ 2;
#X obj 313 120 * 110;
#N canvas 7 50 612 483 crossfade 0;
#X obj 33 48 inlet~;
#X obj 211 67 inlet;
#X obj 39 327 outlet~;
#X obj 49 194 expr cos($f1 * 3.14159 / 2);
#X obj 244 194 expr sin($f1 * 3.14159 / 2);
#X obj 211 143 clip 0 1;
#N canvas 8 50 594 632 pan_core 0;
#X obj 21 106 inlet~;
#X obj 226 126 inlet;
#X obj 59 259 *~;
#X obj 123 303 outlet~;
#X obj 189 258 *~;
#X obj 205 234 line~;
#X obj 75 234 line~;
#X obj 96 127 inlet;
#X obj 179 104 inlet~;
#X text 223 350 comment;
#X obj 75 195 pack f 5;
#X obj 205 195 pack f 5;
#X text 202 346 Hans-Christoph Steiner \, 2004;
#X text 202 332 Adapted from [pan_core~];
#X connect 0 0 2 0;
#X connect 1 0 11 0;
#X connect 2 0 3 0;
#X connect 4 0 3 0;
#X connect 5 0 4 1;
#X connect 6 0 2 1;
#X connect 7 0 10 0;
#X connect 8 0 4 0;
#X connect 10 0 6 0;
#X connect 11 0 5 0;
#X restore 39 266 pd pan_core;
#X text 165 300 Adapted from [equal_power_pan~] \, Hans-Christoph Steiner
\, 2004;
#X text 320 312 comment;
#X obj 128 46 inlet~;
#X connect 0 0 6 0;
#X connect 1 0 5 0;
#X connect 3 0 6 1;
#X connect 4 0 6 3;
#X connect 5 0 3 0;
#X connect 5 0 4 0;
#X connect 6 0 2 0;
#X connect 9 0 6 2;
#X restore 232 437 pd crossfade;
#X obj 271 396 *~ 1.8;
#X obj 319 65 r knob1;
#X obj 377 346 r knob2;
#X obj 306 487 t f f;
#X obj 308 512 *;
#X obj 308 538 * 1000;
#X obj 305 462 r knob3;
#X obj 356 571 r knob4;
#X obj 271 620 delay5sec 5;
#X connect 9 0 10 0;
#X connect 10 0 8 0;
#X connect 11 0 12 0;
#X connect 12 0 13 0;
#X connect 12 1 13 1;
#X connect 13 0 14 0;
#X connect 14 0 9 0;
#X connect 15 0 16 0;
#X connect 16 0 10 1;
#X connect 25 0 38 0;
#X connect 25 0 30 0;
#X connect 27 0 28 0;
#X connect 29 0 47 0;
#X connect 30 0 39 0;
#X connect 31 0 32 0;
#X connect 32 0 35 0;
#X connect 33 0 34 0;
#X connect 34 0 30 1;
#X connect 35 0 33 0;
#X connect 36 0 30 2;
#X connect 37 0 31 0;
#X connect 38 0 29 0;
#X connect 39 0 38 1;
#X connect 40 0 37 0;
#X connect 41 0 38 2;
#X connect 42 0 43 0;
#X connect 42 1 43 1;
#X connect 43 0 44 0;
#X connect 44 0 47 1;
#X connect 45 0 42 0;
#X connect 46 0 47 2;
#X connect 47 0 1 0;
#X connect 47 0 0 0;
