#N canvas 262 50 1654 971 10;
#X obj 164 717 line~;
#X obj 175 838 throw~ samp_voice_out;
#X obj 724 585 t b f;
#X text 456 76 loads and plays sound file;
#X text 457 98 argument 1: soundfile to load;
#X obj 951 630 vline~;
#X obj 941 669 *~;
#X obj 1080 540 *;
#X obj 1080 455 *;
#X obj 1080 433 t f f;
#X obj 1079 401 t f f;
#X text 1271 599 if knob all the way up \, never decay;
#X floatatom 1270 656 5 0 0 0 - - -, f 5;
#X obj 1270 627 expr if($f1 > 0.98 \, 1 \, 0);
#X obj 175 801 hip~ 5;
#X text 240 801 cut DC;
#X obj 1098 508 * 2;
#X obj 739 423 / 100;
#X obj 726 504 mtof;
#X obj 726 526 / 8.1785;
#X obj 739 398 * 2400;
#X obj 724 560 / 2;
#X obj 190 -41 stripnote;
#X obj 178 82 % 24;
#X obj 178 56 abs;
#X obj 187 -11 expr if ($f1 > 59 \, $f1 - 60 \, $f1 - 12);
#X text 471 -11 allow all midi notes to trigger samples...;
#N canvas 6 50 693 312 get-params 0;
#X obj 82 140 tabread param1;
#X floatatom 81 166 5 0 0 0 - - -, f 5;
#X floatatom 187 172 5 0 0 0 - - -, f 5;
#X floatatom 296 164 5 0 0 0 - - -, f 5;
#X floatatom 404 162 5 0 0 0 - - -, f 5;
#X obj 189 140 tabread param2;
#X obj 297 138 tabread param3;
#X obj 406 135 tabread param4;
#X obj 75 45 inlet;
#X obj 82 186 outlet;
#X obj 187 198 outlet;
#X obj 285 194 outlet;
#X obj 398 187 outlet;
#X obj 78 90 t a a a a;
#X connect 0 0 1 0;
#X connect 1 0 9 0;
#X connect 2 0 10 0;
#X connect 3 0 11 0;
#X connect 4 0 12 0;
#X connect 5 0 2 0;
#X connect 6 0 3 0;
#X connect 7 0 4 0;
#X connect 8 0 13 0;
#X connect 13 0 0 0;
#X connect 13 1 5 0;
#X connect 13 2 6 0;
#X connect 13 3 7 0;
#X restore 294 234 pd get-params;
#X text 255 82 argument (key number);
#X obj 230 140 f;
#X obj 199 25 t f f;
#X obj 109 -83 r seq-notes;
#X obj 203 -82 r notes;
#X obj 284 -78 r seq-notes-flush;
#X obj 178 108 sel \$2;
#X obj 724 616 f;
#X obj 738 648 / 1;
#X obj 252 355 *;
#X floatatom 219 466 10 0 0 0 - - -, f 10;
#X obj 1201 17 print;
#X obj 235 167 t f b;
#X obj 1084 577 pack 0 0 0;
#X obj 165 744 tabread4~ newsample;
#X obj 296 321 r sample-dur;
#X obj 1098 483 r sample-dur;
#X obj 371 400 *;
#X floatatom 361 440 10 0 0 0 - - -, f 10;
#X obj 322 593 +;
#X floatatom 313 628 10 0 0 0 - - -, f 10;
#X obj 449 560 / 44.1;
#X obj 242 539 t f f;
#X floatatom 438 588 10 0 0 0 - - -, f 10;
#X obj 362 503 t f f;
#X obj 353 665 pack 0 0;
#X obj 554 434 f;
#X obj 469 610 t b f;
#X obj 174 774 *~;
#X msg 908 575 0 2 \, 1 1 2;
#X obj 281 192 delay 2;
#X obj 185 222 f;
#X obj 723 458 i;
#X connect 0 0 42 0;
#X connect 2 0 35 0;
#X connect 2 1 36 1;
#X connect 5 0 6 1;
#X connect 5 0 6 0;
#X connect 6 0 56 1;
#X connect 7 0 41 0;
#X connect 8 0 7 0;
#X connect 9 0 8 0;
#X connect 9 1 8 1;
#X connect 10 0 9 0;
#X connect 10 1 13 0;
#X connect 13 0 12 0;
#X connect 14 0 1 0;
#X connect 16 0 7 1;
#X connect 17 0 60 0;
#X connect 18 0 19 0;
#X connect 19 0 21 0;
#X connect 20 0 17 0;
#X connect 21 0 2 0;
#X connect 22 0 25 0;
#X connect 23 0 34 0;
#X connect 24 0 23 0;
#X connect 25 0 30 0;
#X connect 27 0 37 0;
#X connect 27 1 45 0;
#X connect 27 3 54 1;
#X connect 29 0 40 0;
#X connect 30 0 24 0;
#X connect 30 0 29 0;
#X connect 30 1 29 1;
#X connect 31 0 22 0;
#X connect 32 0 22 0;
#X connect 33 0 22 0;
#X connect 35 0 36 0;
#X connect 36 0 53 1;
#X connect 37 0 38 0;
#X connect 38 0 50 0;
#X connect 40 0 59 1;
#X connect 40 1 58 0;
#X connect 40 1 57 0;
#X connect 42 0 56 0;
#X connect 43 0 37 1;
#X connect 43 0 45 1;
#X connect 44 0 16 0;
#X connect 45 0 46 0;
#X connect 46 0 52 0;
#X connect 47 0 48 0;
#X connect 48 0 53 0;
#X connect 49 0 51 0;
#X connect 49 0 55 0;
#X connect 50 0 47 0;
#X connect 50 1 0 0;
#X connect 52 0 47 1;
#X connect 52 1 49 0;
#X connect 53 0 0 0;
#X connect 54 0 20 0;
#X connect 55 0 54 0;
#X connect 55 1 35 1;
#X connect 56 0 14 0;
#X connect 57 0 5 0;
#X connect 58 0 59 0;
#X connect 59 0 27 0;
#X connect 60 0 18 0;
