#N canvas 129 278 1450 853 10;
#X obj 506 338 bng 15 250 50 0 empty empty empty 17 7 0 10 -262144
-1 -1;
#X obj 506 438 qlist;
#X obj 564 338 bng 15 250 50 0 empty empty empty 17 7 0 10 -262144
-1 -1;
#X msg 564 377 rewind;
#X obj 574 439 bng 15 250 50 0 empty empty empty 17 7 0 10 -262144
-1 -1;
#X obj 776 96 r notes;
#X obj 712 391 timer;
#X obj 752 265 unpack;
#X obj 689 514 pack s 0 s 0 0;
#X msg 674 441 add;
#X obj 689 553 route list;
#X msg 758 425 symbol notes_seq;
#X obj 712 309 t b b b b f;
#X obj 776 182 spigot 0;
#X obj 859 96 r recenable;
#X obj 859 152 tgl 15 0 empty empty empty 17 7 0 10 -262144 -1 -1 0
1;
#X msg 623 391 clear;
#X obj 909 259 f;
#X obj 1007 263 + 1;
#X obj 889 224 bng 15 250 50 0 empty empty empty 17 7 0 10 -262144
-1 -1;
#X floatatom 909 303 5 0 0 0 - - -, f 5;
#X obj 927 194 sel 1;
#X msg 927 219 0;
#X obj 909 338 sel 0;
#X obj 812 309 t f b;
#X obj 691 153 bng 15 250 50 0 empty empty empty 17 7 0 10 -262144
-1 -1;
#X msg 691 178 0 0;
#X obj 504 234 r start;
#X obj 564 300 r stop;
#X obj 671 88 r end_seq;
#X obj 966 422 v state;
#X msg 966 400 3;
#X obj 940 456 s record;
#X msg 859 123 1;
#X obj 1034 62 r start;
#X obj 1102 60 r stop;
#X msg 1056 96 0;
#X obj 177 589 r notes_seq;
#X obj 177 656 bag;
#X msg 191 628 flush;
#X obj 177 680 pack 0 0;
#X obj 177 706 s zero_notes;
#X obj 275 589 r stop;
#X text 95 10 uses the aux button to start / stop / record a sequence.
;
#X text 528 11 states are: 0 = stopped \, 1 = playing \, 2 = rec enabled
\, 3 = recording, f 70;
#X text 660 68 Record Notes To List. First note starts recording.;
#X text 159 570 Kills notes left on by sequence.;
#X obj 909 370 t b b b;
#X msg 910 499 1;
#X obj 504 278 spigot 0;
#X obj 911 532 s something-recorded;
#X obj 565 234 r something-recorded;
#X text 509 208 avoid playing 0 len seq;
#X obj 360 333 r tempo;
#X msg 359 364 tempo \$1;
#X obj 656 122 t b b;
#X obj 146 286 loadbang;
#X obj 146 313 t b b;
#X msg 146 380 1;
#X obj 146 402 s something-recorded;
#N canvas 6 50 450 300 midi-out 0;
#X obj 99 100 r notes_seq;
#X obj 114 172 noteout 1;
#X obj 114 132 unpack;
#X obj 195 104 r zero_notes;
#X text 120 22 send the sequence out ch 1;
#X connect 0 0 2 0;
#X connect 2 0 1 0;
#X connect 2 1 1 1;
#X connect 3 0 2 0;
#X restore 57 92 pd midi-out;
#X obj 328 590 r quitting;
#X msg 188 350 read ./layer1.txt;
#X msg 347 236 write ./layer1.txt;
#X obj 471 510 s seq-looped;
#X connect 0 0 1 0;
#X connect 1 1 4 0;
#X connect 2 0 3 0;
#X connect 3 0 1 0;
#X connect 4 0 0 0;
#X connect 4 0 64 0;
#X connect 5 0 13 0;
#X connect 6 0 8 1;
#X connect 7 0 12 0;
#X connect 7 1 24 0;
#X connect 8 0 10 0;
#X connect 9 0 8 0;
#X connect 10 0 1 0;
#X connect 11 0 8 2;
#X connect 12 0 6 0;
#X connect 12 1 9 0;
#X connect 12 2 6 1;
#X connect 12 3 11 0;
#X connect 12 4 8 3;
#X connect 13 0 7 0;
#X connect 14 0 33 0;
#X connect 15 0 13 1;
#X connect 15 0 21 0;
#X connect 16 0 1 0;
#X connect 17 0 18 0;
#X connect 17 0 20 0;
#X connect 18 0 17 1;
#X connect 19 0 17 0;
#X connect 20 0 23 0;
#X connect 21 0 22 0;
#X connect 22 0 17 1;
#X connect 23 0 6 0;
#X connect 23 0 16 0;
#X connect 23 0 47 0;
#X connect 24 0 8 4;
#X connect 24 1 19 0;
#X connect 25 0 26 0;
#X connect 26 0 7 0;
#X connect 27 0 49 0;
#X connect 28 0 2 0;
#X connect 29 0 55 0;
#X connect 31 0 30 0;
#X connect 33 0 15 0;
#X connect 34 0 36 0;
#X connect 35 0 36 0;
#X connect 36 0 15 0;
#X connect 37 0 38 0;
#X connect 38 0 40 0;
#X connect 39 0 38 0;
#X connect 40 0 41 0;
#X connect 42 0 39 0;
#X connect 47 0 48 0;
#X connect 47 1 32 0;
#X connect 47 2 31 0;
#X connect 48 0 50 0;
#X connect 49 0 0 0;
#X connect 51 0 49 1;
#X connect 53 0 54 0;
#X connect 54 0 1 0;
#X connect 55 0 63 0;
#X connect 55 1 25 0;
#X connect 56 0 57 0;
#X connect 57 0 58 0;
#X connect 57 1 62 0;
#X connect 58 0 59 0;
#X connect 61 0 39 0;
#X connect 62 0 1 0;
#X connect 63 0 1 0;
