#N canvas 4 50 640 385 10;
#X obj 81 275 spigot 0;
#X obj 149 274 spigot 0;
#X obj 214 278 spigot 0;
#X obj 279 275 spigot 0;
#X obj 489 138 r disable-all;
#X msg 489 160 0;
#X obj 363 46 r enable;
#X obj 363 90 t b b;
#X msg 363 112 1;
#X obj 49 220 r param1;
#X obj 119 221 r param2;
#X obj 189 221 r param3;
#X obj 260 221 r param4;
#X msg 395 114 1;
#X obj 363 68 sel \$1;
#X obj 65 304 outlet;
#X obj 143 301 outlet;
#X obj 206 305 outlet;
#X obj 282 310 outlet;
#X obj 419 309 outlet;
#X connect 0 0 15 0;
#X connect 1 0 16 0;
#X connect 2 0 17 0;
#X connect 3 0 18 0;
#X connect 4 0 5 0;
#X connect 5 0 0 1;
#X connect 5 0 1 1;
#X connect 5 0 2 1;
#X connect 5 0 3 1;
#X connect 5 0 19 0;
#X connect 6 0 14 0;
#X connect 7 0 8 0;
#X connect 7 1 13 0;
#X connect 8 0 0 1;
#X connect 8 0 1 1;
#X connect 8 0 2 1;
#X connect 8 0 3 1;
#X connect 9 0 0 0;
#X connect 10 0 1 0;
#X connect 11 0 2 0;
#X connect 12 0 3 0;
#X connect 13 0 19 0;
#X connect 14 0 7 0;
