#N canvas 670 176 1147 752 10;
#X obj 489 569 switch~;
#X obj 300 592 *~;
#X obj 375 96 r param1;
#X obj 455 95 r param2;
#X obj 372 502 r disable-all;
#X obj 195 27 r~ fx-in;
#X obj 473 479 r enable;
#X obj 473 501 sel \$1;
#N canvas 7 50 526 600 switcher 0;
#X obj 113 261 t b b;
#X obj 113 295 delay 5;
#X obj 263 387 line~;
#X msg 176 296 0 4;
#X obj 133 476 *~;
#X msg 113 327 0;
#X obj 113 220 bang;
#X msg 406 229 1;
#X msg 359 193 1 4;
#X obj 352 143 t b b b;
#X msg 209 196 \; screenLine1 1: x \; screenLine2 2: x \; screenLine3
3: x \; screenLine4 4: x \;;
#X obj 139 506 outlet~;
#X obj 371 507 outlet;
#X obj 112 48 inlet;
#X obj 353 50 inlet;
#X obj 37 37;
#X obj 132 20;
#X connect 0 0 1 0;
#X connect 0 1 3 0;
#X connect 1 0 5 0;
#X connect 2 0 4 0;
#X connect 2 0 4 1;
#X connect 3 0 2 0;
#X connect 4 0 11 0;
#X connect 5 0 12 0;
#X connect 6 0 0 0;
#X connect 7 0 12 0;
#X connect 8 0 2 0;
#X connect 9 0 10 0;
#X connect 9 1 8 0;
#X connect 9 2 7 0;
#X connect 13 0 6 0;
#X connect 14 0 9 0;
#X restore 415 538 pd switcher;
#X obj 464 572 tgl 15 0 empty empty empty 17 7 0 10 -262144 -1 -1 1
1;
#X obj 259 690 throw~ fx-outL;
#X obj 385 694 throw~ fx-outR;
#X obj 532 96 r param3;
#X obj 612 96 r param4;
#X connect 1 0 10 0;
#X connect 1 0 11 0;
#X connect 4 0 8 0;
#X connect 5 0 1 0;
#X connect 6 0 7 0;
#X connect 7 0 8 1;
#X connect 8 0 1 1;
#X connect 8 1 0 0;
#X connect 8 1 9 0;
