#N canvas 27 50 1301 972 10;
#X obj 458 860 switch~;
#X obj 163 895 *~;
#N canvas 11 50 526 600 switcher 0;
#X obj 113 261 t b b;
#X obj 113 295 delay 5;
#X obj 263 387 line~;
#X msg 176 296 0 4;
#X obj 133 476 *~;
#X msg 113 327 0;
#X obj 113 220 bang;
#X msg 406 229 1;
#X msg 359 193 1 4;
#X obj 352 143 t b b b;
#X msg 209 196 \; screenLine1 1: x \; screenLine2 2: x \; screenLine3
3: x \; screenLine4 4: x \;;
#X obj 139 506 outlet~;
#X obj 371 507 outlet;
#X obj 112 48 inlet;
#X obj 353 50 inlet;
#X obj 37 37;
#X obj 132 20;
#X connect 0 0 1 0;
#X connect 0 1 3 0;
#X connect 1 0 5 0;
#X connect 2 0 4 0;
#X connect 2 0 4 1;
#X connect 3 0 2 0;
#X connect 4 0 11 0;
#X connect 5 0 12 0;
#X connect 6 0 0 0;
#X connect 7 0 12 0;
#X connect 8 0 2 0;
#X connect 9 0 10 0;
#X connect 9 1 8 0;
#X connect 9 2 7 0;
#X connect 13 0 6 0;
#X connect 14 0 9 0;
#X restore 384 836 pd switcher;
#X obj 316 884 *~;
#X obj 316 923 outlet~;
#X obj 162 924 outlet~;
#X obj 176 5 inlet~;
#X obj 263 4 inlet;
#X obj 343 5 inlet;
#X obj 412 4 inlet;
#X obj 545 3 inlet;
#X obj 384 807 sel 0 1;
#X obj 705 912 outlet;
#X obj 660 781 i;
#X obj 660 803 / 10;
#X obj 818 809 i;
#X msg 818 831 2 2: Mod \$1 %;
#X msg 660 832 1 1: Freq \$1 Hz;
#X obj 818 787 * 101;
#X obj 937 815 i;
#X obj 936 792 * 101;
#X msg 939 838 3 3: Dry / Wet \$1 %;
#X msg 565 792 0 Chorus;
#X obj 565 744 r \$0-onoff;
#X obj 384 785 r \$0-onoff;
#X obj 565 767 sel 1;
#X obj 545 26 s \$0-onoff;
#X obj 818 761 r \$0-p2;
#X obj 339 36 s \$0-p2;
#X obj 936 767 r \$0-p3;
#X obj 660 712 t f f;
#X obj 660 734 *;
#X obj 660 757 * 50;
#X obj 660 687 r \$0-p1;
#X obj 263 29 s \$0-p1;
#X obj 412 28 s \$0-p3;
#X connect 1 0 5 0;
#X connect 2 0 1 1;
#X connect 2 0 3 1;
#X connect 2 1 0 0;
#X connect 3 0 4 0;
#X connect 6 0 1 0;
#X connect 6 0 3 0;
#X connect 7 0 34 0;
#X connect 8 0 28 0;
#X connect 9 0 35 0;
#X connect 10 0 26 0;
#X connect 11 0 2 0;
#X connect 11 1 2 1;
#X connect 13 0 14 0;
#X connect 14 0 17 0;
#X connect 15 0 16 0;
#X connect 16 0 12 0;
#X connect 17 0 12 0;
#X connect 18 0 15 0;
#X connect 19 0 21 0;
#X connect 20 0 19 0;
#X connect 21 0 12 0;
#X connect 22 0 12 0;
#X connect 23 0 25 0;
#X connect 24 0 11 0;
#X connect 25 0 22 0;
#X connect 27 0 18 0;
#X connect 29 0 20 0;
#X connect 30 0 31 0;
#X connect 30 1 31 1;
#X connect 31 0 32 0;
#X connect 32 0 13 0;
#X connect 33 0 30 0;
