#N canvas 408 83 1284 961 10;
#X obj 458 860 switch~;
#X obj 163 895 *~;
#N canvas 11 50 526 600 switcher 0;
#X obj 113 261 t b b;
#X obj 113 295 delay 5;
#X obj 263 387 line~;
#X msg 176 296 0 4;
#X obj 133 476 *~;
#X msg 113 327 0;
#X obj 113 220 bang;
#X msg 406 229 1;
#X msg 359 193 1 4;
#X obj 352 143 t b b b;
#X msg 209 196 \; screenLine1 1: x \; screenLine2 2: x \; screenLine3
3: x \; screenLine4 4: x \;;
#X obj 139 506 outlet~;
#X obj 371 507 outlet;
#X obj 112 48 inlet;
#X obj 353 50 inlet;
#X obj 37 37;
#X obj 132 20;
#X connect 0 0 1 0;
#X connect 0 1 3 0;
#X connect 1 0 5 0;
#X connect 2 0 4 0;
#X connect 2 0 4 1;
#X connect 3 0 2 0;
#X connect 4 0 11 0;
#X connect 5 0 12 0;
#X connect 6 0 0 0;
#X connect 7 0 12 0;
#X connect 8 0 2 0;
#X connect 9 0 10 0;
#X connect 9 1 8 0;
#X connect 9 2 7 0;
#X connect 13 0 6 0;
#X connect 14 0 9 0;
#X restore 384 836 pd switcher;
#X obj 316 884 *~;
#X obj 316 923 outlet~;
#X obj 162 924 outlet~;
#X obj 34 37 inlet~;
#X obj 226 5 inlet;
#X obj 316 5 inlet;
#X obj 399 4 inlet;
#X obj 545 3 inlet;
#X obj 384 807 sel 0 1;
#X obj 742 920 outlet;
#X obj 552 768 r \$0-onoff;
#X obj 384 785 r \$0-onoff;
#X obj 552 791 sel 1;
#X obj 545 26 s \$0-onoff;
#X obj 788 712 r \$0-p2;
#X obj 316 28 s \$0-p2;
#X obj 698 695 r \$0-p1;
#X obj 226 30 s \$0-p1;
#X obj 399 28 s \$0-p3;
#X obj 480 5 inlet;
#X obj 480 28 s \$0-p4;
#X obj 1077 741 r \$0-p4;
#X obj 973 732 r \$0-p3;
#X msg 1051 240 \$1 40;
#X obj 1051 268 line 0 1;
#X obj 1051 173 r \$0-p3;
#X msg 1049 308 damping \$1;
#X obj 698 721 * 100;
#X msg 551 816 0 Flanger;
#X obj 75 263 +~ 1;
#X obj 75 290 *~ 0.5;
#X obj 73 166 delwrite~ \$0-delay1 5000;
#X obj 75 586 vd~ \$0-delay1, f 16;
#N canvas 0 50 450 300 rep 0;
#X obj 119 16 inlet~;
#X obj 164 96 tgl 15 0 empty empty empty 17 7 0 10 -262144 -1 -1 1
1;
#X obj 164 45 loadbang;
#X obj 164 70 f 1;
#X obj 119 149 tabwrite~ \$0-LFO1;
#X obj 164 119 metro 100;
#X obj 236 15 block~ 4096 1 0.125;
#X connect 0 0 4 0;
#X connect 1 0 5 0;
#X connect 2 0 3 0;
#X connect 3 0 1 0;
#X connect 5 0 4 0;
#X restore 75 320 pd rep;
#N canvas 0 50 450 300 (subpatch) 0;
#X array \$0-LFO1 4096 float 0;
#X coords 0 1 4095 0 150 98 2 0 0;
#X restore 89 449 graph;
#X text 71 190 Low Frequency Oscillator;
#X text 211 586 x[n-t];
#X text 149 424 t (ms);
#X text 203 318 Depth (ms);
#X text 10 626 x[n];
#X obj 491 454 *~ 1;
#X text 88 684 y[n] = x[n] + ax[n-t];
#X text 600 360 Feedback (0-1);
#X obj 75 236 osc~ 1;
#X text 141 656 ax[n-t];
#X text 131 211 Rate (Hz);
#X text 220 358 Shift (ms);
#X obj 46 683 +~, f 4;
#X obj 75 214 nbx 5 14 -1e+37 1e+37 0 0 empty \$0-rate empty 0 -8 0
10 -262144 -1 -1 0.269165 256;
#X obj 144 322 nbx 5 14 0 1e+37 0 0 empty \$0-depth empty 0 -8 0 10
-262144 -1 -1 0.999023 256;
#X obj 306 278 nbx 5 14 0 1e+37 0 0 empty \$0-shift empty 0 -8 0 10
-262144 -1 -1 2.7832 256;
#X obj 563 367 nbx 5 14 0 1 0 0 empty \$0-feedback empty 0 -8 0 10
-262144 -1 -1 0.848633 256;
#X obj 75 349 *~ 1, f 9;
#X obj 560 332 r \$0-p4;
#X obj 432 178 r \$0-p3;
#X obj 268 211 r \$0-p2;
#X obj 100 72 r \$0-p1;
#X obj 101 98 t f f;
#X obj 100 116 *;
#X obj 100 138 * 10;
#X obj 75 389 +~, f 11;
#X obj 322 306 sig~;
#X obj 322 328 lop~ 10;
#X obj 165 359 +~ 1;
#X obj 414 209 * 10;
#X obj 557 394 * 0.9;
#X connect 1 0 5 0;
#X connect 2 0 1 1;
#X connect 2 0 3 1;
#X connect 2 1 0 0;
#X connect 3 0 4 0;
#X connect 6 0 34 0;
#X connect 6 0 50 0;
#X connect 7 0 20 0;
#X connect 8 0 18 0;
#X connect 9 0 21 0;
#X connect 10 0 16 0;
#X connect 11 0 2 0;
#X connect 11 1 2 1;
#X connect 13 0 15 0;
#X connect 14 0 11 0;
#X connect 15 0 31 0;
#X connect 19 0 30 0;
#X connect 22 0 23 0;
#X connect 26 0 27 0;
#X connect 27 0 29 0;
#X connect 28 0 26 0;
#X connect 31 0 12 0;
#X connect 32 0 33 0;
#X connect 33 0 36 0;
#X connect 33 0 55 0;
#X connect 35 0 43 0;
#X connect 35 0 50 1;
#X connect 43 0 34 0;
#X connect 46 0 32 0;
#X connect 50 0 1 0;
#X connect 50 0 3 0;
#X connect 51 0 46 0;
#X connect 52 0 55 1;
#X connect 53 0 64 0;
#X connect 54 0 43 1;
#X connect 55 0 63 0;
#X connect 56 0 54 0;
#X connect 57 0 67 0;
#X connect 58 0 52 0;
#X connect 59 0 60 0;
#X connect 60 0 61 0;
#X connect 60 1 61 1;
#X connect 61 0 62 0;
#X connect 62 0 51 0;
#X connect 63 0 35 0;
#X connect 64 0 65 0;
#X connect 65 0 66 0;
#X connect 66 0 63 1;
#X connect 67 0 53 0;
