#N canvas 9 50 1353 871 10;
#X obj 367 706 switch~;
#X obj 154 754 *~;
#N canvas 11 50 526 600 switcher 0;
#X obj 113 261 t b b;
#X obj 113 295 delay 5;
#X obj 263 387 line~;
#X msg 176 296 0 4;
#X obj 133 476 *~;
#X msg 113 327 0;
#X obj 113 220 bang;
#X msg 406 229 1;
#X msg 359 193 1 4;
#X obj 352 143 t b b b;
#X msg 209 196 \; screenLine1 1: x \; screenLine2 2: x \; screenLine3
3: x \; screenLine4 4: x \;;
#X obj 139 506 outlet~;
#X obj 371 507 outlet;
#X obj 112 48 inlet;
#X obj 353 50 inlet;
#X obj 37 37;
#X obj 132 20;
#X connect 0 0 1 0;
#X connect 0 1 3 0;
#X connect 1 0 5 0;
#X connect 2 0 4 0;
#X connect 2 0 4 1;
#X connect 3 0 2 0;
#X connect 4 0 11 0;
#X connect 5 0 12 0;
#X connect 6 0 0 0;
#X connect 7 0 12 0;
#X connect 8 0 2 0;
#X connect 9 0 10 0;
#X connect 9 1 8 0;
#X connect 9 2 7 0;
#X connect 13 0 6 0;
#X connect 14 0 9 0;
#X restore 293 675 pd switcher;
#X obj 307 743 *~;
#X obj 307 782 outlet~;
#X obj 153 783 outlet~;
#X obj 190 29 inlet~;
#X obj 303 26 inlet;
#X obj 373 27 inlet;
#X obj 439 21 inlet;
#X obj 564 24 inlet;
#X obj 293 650 sel 0 1;
#X obj 689 825 outlet;
#X obj 189 577 bob~;
#X obj 256 193 pack 0 50;
#X obj 254 220 line~;
#X obj 302 516 line~;
#X obj 302 492 pack 0 50;
#X obj 302 466 * 3.8;
#X obj 259 159 mtof;
#X obj 259 134 * 120;
#X obj 551 601 i;
#X obj 551 572 mtof;
#X obj 551 548 * 120;
#X obj 683 589 * 101;
#X msg 551 650 1 1: Cutoff \$1 Hz \;;
#X msg 684 653 2 2: Resonance \$1 % \;;
#X obj 683 610 i;
#X msg 1148 662 0 Moog Style Oscillate;
#X obj 1003 633 i;
#X obj 1002 610 * 101;
#X msg 1005 656 4 4: Depth \$1 %;
#X obj 509 23 inlet;
#X obj 358 302 osc~;
#X obj 334 342 *~;
#X obj 370 252 line~;
#X obj 368 228 pack 0 50;
#X obj 380 181 *;
#X obj 383 154 t f f;
#X msg 834 653 3 3: Rate \$1 Hz;
#X obj 231 391 +~;
#X obj 454 241 line~;
#X obj 452 217 pack 0 50;
#X obj 421 302 *~;
#X obj 565 51 s \$0-onoff;
#X obj 302 50 s \$0-p1;
#X obj 1144 585 r \$0-onoff;
#X obj 293 626 r \$0-onoff;
#X obj 551 519 r \$0-p1;
#X obj 683 551 r \$0-p2;
#X obj 832 479 r \$0-p3;
#X obj 833 532 *;
#X obj 836 505 t f f;
#X obj 834 577 i;
#X obj 834 599 / 10;
#X obj 302 441 r \$0-p2;
#X obj 260 109 r \$0-p1;
#X obj 372 52 s \$0-p2;
#X obj 379 125 r \$0-p3;
#X obj 438 49 s \$0-p3;
#X obj 381 203 * 10;
#X obj 833 554 * 100;
#X obj 506 47 s \$0-p4;
#X obj 461 177 r \$0-p4;
#X obj 1002 578 r \$0-p4;
#X obj 1147 625 sel 1;
#X connect 1 0 5 0;
#X connect 2 0 1 1;
#X connect 2 0 3 1;
#X connect 2 1 0 0;
#X connect 3 0 4 0;
#X connect 6 0 13 0;
#X connect 7 0 45 0;
#X connect 8 0 57 0;
#X connect 9 0 59 0;
#X connect 10 0 44 0;
#X connect 11 0 2 0;
#X connect 11 1 2 1;
#X connect 13 0 1 0;
#X connect 13 0 3 0;
#X connect 14 0 15 0;
#X connect 15 0 40 0;
#X connect 15 0 43 0;
#X connect 16 0 13 2;
#X connect 17 0 16 0;
#X connect 18 0 17 0;
#X connect 19 0 14 0;
#X connect 20 0 19 0;
#X connect 21 0 25 0;
#X connect 22 0 21 0;
#X connect 23 0 22 0;
#X connect 24 0 27 0;
#X connect 25 0 12 0;
#X connect 26 0 12 0;
#X connect 27 0 26 0;
#X connect 28 0 12 0;
#X connect 29 0 31 0;
#X connect 30 0 29 0;
#X connect 31 0 12 0;
#X connect 32 0 62 0;
#X connect 33 0 34 0;
#X connect 34 0 40 1;
#X connect 35 0 33 0;
#X connect 36 0 35 0;
#X connect 37 0 60 0;
#X connect 38 0 37 0;
#X connect 38 1 37 1;
#X connect 39 0 12 0;
#X connect 40 0 13 1;
#X connect 41 0 43 1;
#X connect 42 0 41 0;
#X connect 43 0 34 1;
#X connect 46 0 65 0;
#X connect 47 0 11 0;
#X connect 48 0 23 0;
#X connect 49 0 24 0;
#X connect 50 0 52 0;
#X connect 51 0 61 0;
#X connect 52 0 51 0;
#X connect 52 1 51 1;
#X connect 53 0 54 0;
#X connect 54 0 39 0;
#X connect 55 0 18 0;
#X connect 56 0 20 0;
#X connect 58 0 38 0;
#X connect 60 0 36 0;
#X connect 61 0 53 0;
#X connect 63 0 42 0;
#X connect 64 0 30 0;
#X connect 65 0 28 0;
