#N canvas 417 99 1147 752 10;
#X obj 366 313 bob~;
#X obj 365 190 pack 0 50;
#X obj 372 232 line~;
#X obj 456 234 line~;
#X obj 497 148 pack 0 50;
#X obj 301 427 *~ 1;
#X obj 497 122 * 3.8;
#N canvas 6 50 612 483 crossfade 0;
#X obj 33 48 inlet~;
#X obj 211 67 inlet;
#X obj 39 327 outlet~;
#X obj 49 194 expr cos($f1 * 3.14159 / 2);
#X obj 244 194 expr sin($f1 * 3.14159 / 2);
#X obj 211 143 clip 0 1;
#N canvas 7 50 594 632 pan_core 0;
#X obj 21 106 inlet~;
#X obj 226 126 inlet;
#X obj 59 259 *~;
#X obj 123 303 outlet~;
#X obj 189 258 *~;
#X obj 205 234 line~;
#X obj 75 234 line~;
#X obj 96 127 inlet;
#X obj 179 104 inlet~;
#X text 223 350 comment;
#X obj 75 195 pack f 5;
#X obj 205 195 pack f 5;
#X text 202 346 Hans-Christoph Steiner \, 2004;
#X text 202 332 Adapted from [pan_core~];
#X connect 0 0 2 0;
#X connect 1 0 11 0;
#X connect 2 0 3 0;
#X connect 4 0 3 0;
#X connect 5 0 4 1;
#X connect 6 0 2 1;
#X connect 7 0 10 0;
#X connect 8 0 4 0;
#X connect 10 0 6 0;
#X connect 11 0 5 0;
#X restore 39 266 pd pan_core;
#X text 165 300 Adapted from [equal_power_pan~] \, Hans-Christoph Steiner
\, 2004;
#X text 320 312 comment;
#X obj 128 46 inlet~;
#X connect 0 0 6 0;
#X connect 1 0 5 0;
#X connect 3 0 6 1;
#X connect 4 0 6 3;
#X connect 5 0 3 0;
#X connect 5 0 4 0;
#X connect 6 0 2 0;
#X connect 9 0 6 2;
#X restore 307 381 pd crossfade;
#X obj 352 158 mtof;
#X obj 352 133 * 120;
#X obj 30 496 switch~;
#X obj 641 422 i;
#X obj 641 445 change -1;
#X obj 874 413 i;
#X obj 874 436 change -1;
#X obj 641 544 i;
#X obj 641 565 change -1;
#X obj 641 521 * 101;
#X obj 641 393 mtof;
#X obj 641 369 * 120;
#X obj 874 392 * 101;
#X obj 317 583 *~;
#X obj 30 395 t b b;
#X obj 30 429 delay 5;
#X obj 205 461 line~;
#X msg 93 430 0 4;
#X obj 336 557 *~;
#X msg 30 461 0;
#X obj 350 99 r param1;
#X obj 497 99 r param2;
#X obj 410 344 r param3;
#X msg 641 469 \; screenLine1 1: Cutoff \$1 Hz \;;
#X msg 641 589 \; screenLine3 3: Wet/Dry \$1 % \;;
#X msg 875 456 \; screenLine2 2: Resonance \$1 % \;;
#X obj 30 310 r disable-all;
#X obj 30 354 bang;
#X obj 190 76 r~ fx-in;
#X obj 163 281 r enable;
#X obj 163 303 sel \$1;
#X msg 217 416 1;
#X msg 170 380 1 4;
#X obj 163 330 t b b b;
#X msg 84 574 \; screenLine1 1: x \; screenLine2 2: x \; screenLine3
3: x \; screenLine4 4: x \;;
#X obj 261 690 throw~ fx-outL;
#X obj 386 696 throw~ fx-outR;
#X connect 0 0 7 1;
#X connect 1 0 2 0;
#X connect 2 0 0 1;
#X connect 3 0 0 2;
#X connect 4 0 3 0;
#X connect 5 0 21 0;
#X connect 6 0 4 0;
#X connect 7 0 5 0;
#X connect 8 0 1 0;
#X connect 9 0 8 0;
#X connect 11 0 12 0;
#X connect 12 0 31 0;
#X connect 13 0 14 0;
#X connect 14 0 33 0;
#X connect 15 0 16 0;
#X connect 16 0 32 0;
#X connect 17 0 15 0;
#X connect 18 0 11 0;
#X connect 19 0 18 0;
#X connect 20 0 13 0;
#X connect 21 0 43 0;
#X connect 21 0 44 0;
#X connect 22 0 23 0;
#X connect 22 1 25 0;
#X connect 23 0 27 0;
#X connect 24 0 26 0;
#X connect 24 0 26 1;
#X connect 25 0 24 0;
#X connect 26 0 21 1;
#X connect 27 0 10 0;
#X connect 28 0 9 0;
#X connect 28 0 19 0;
#X connect 29 0 6 0;
#X connect 29 0 20 0;
#X connect 30 0 7 2;
#X connect 30 0 17 0;
#X connect 34 0 35 0;
#X connect 35 0 22 0;
#X connect 36 0 7 0;
#X connect 36 0 0 0;
#X connect 37 0 38 0;
#X connect 38 0 41 0;
#X connect 39 0 10 0;
#X connect 40 0 24 0;
#X connect 41 0 42 0;
#X connect 41 1 40 0;
#X connect 41 2 39 0;
