#N canvas 22 50 1353 871 10;
#X obj 373 700 switch~;
#X obj 154 754 *~;
#N canvas 11 50 526 600 switcher 0;
#X obj 113 261 t b b;
#X obj 113 295 delay 5;
#X obj 263 387 line~;
#X msg 176 296 0 4;
#X obj 133 476 *~;
#X msg 113 327 0;
#X obj 113 220 bang;
#X msg 406 229 1;
#X msg 359 193 1 4;
#X obj 352 143 t b b b;
#X msg 209 196 \; screenLine1 1: x \; screenLine2 2: x \; screenLine3
3: x \; screenLine4 4: x \;;
#X obj 139 506 outlet~;
#X obj 371 507 outlet;
#X obj 112 48 inlet;
#X obj 353 50 inlet;
#X obj 37 37;
#X obj 132 20;
#X connect 0 0 1 0;
#X connect 0 1 3 0;
#X connect 1 0 5 0;
#X connect 2 0 4 0;
#X connect 2 0 4 1;
#X connect 3 0 2 0;
#X connect 4 0 11 0;
#X connect 5 0 12 0;
#X connect 6 0 0 0;
#X connect 7 0 12 0;
#X connect 8 0 2 0;
#X connect 9 0 10 0;
#X connect 9 1 8 0;
#X connect 9 2 7 0;
#X connect 13 0 6 0;
#X connect 14 0 9 0;
#X restore 299 669 pd switcher;
#X obj 307 743 *~;
#X obj 307 782 outlet~;
#X obj 153 783 outlet~;
#X obj 190 29 inlet~;
#X obj 303 26 inlet;
#X obj 373 27 inlet;
#X obj 439 21 inlet;
#X obj 564 24 inlet;
#X obj 299 644 sel 0 1;
#X obj 689 825 outlet;
#X obj 189 577 bob~;
#X obj 214 498 line~;
#X obj 352 403 line~;
#X obj 352 379 pack 0 50;
#X obj 352 353 * 3.8;
#X obj 217 392 mtof;
#X obj 551 601 i;
#X obj 551 572 mtof;
#X obj 551 548 * 120;
#X obj 683 589 * 101;
#X msg 551 650 1 1: Cutoff \$1 Hz \;;
#X msg 684 653 2 2: Resonance \$1 % \;;
#X obj 683 610 i;
#X obj 509 23 inlet;
#X obj 565 51 s \$0-onoff;
#X obj 302 50 s \$0-p1;
#X obj 1149 610 r \$0-onoff;
#X obj 299 620 r \$0-onoff;
#X obj 551 519 r \$0-p1;
#X obj 683 551 r \$0-p2;
#X obj 834 462 r \$0-p3;
#X obj 352 328 r \$0-p2;
#X obj 263 346 r \$0-p1;
#X obj 372 52 s \$0-p2;
#X obj 438 49 s \$0-p3;
#X obj 506 47 s \$0-p4;
#X obj 1011 609 r \$0-p4;
#X msg 368 211 dry \$1;
#X msg 443 237 depth \$1;
#X floatatom 445 217 5 0 0 1 depth_(min=1) - -, f 5;
#X obj 375 163 - 1;
#X obj 375 185 abs;
#X obj 206 271 e_bitcrusher \$0-bcwhatever 128;
#X obj 448 152 t f f;
#X obj 448 174 *;
#X obj 447 194 * 128;
#X obj 447 129 r \$0-p3;
#X msg 834 653 3 3: Bits \$1;
#X obj 840 495 * 128;
#X obj 840 517 i;
#X msg 1005 656 4 4: x;
#X obj 1149 635 sel 1;
#X msg 1148 661 0 Envy Crushed Bits;
#X obj 109 231 env~;
#X floatatom 115 260 5 0 0 0 - - -, f 5;
#X obj 254 413 * 3;
#X obj 216 465 pack 0 20;
#X connect 1 0 5 0;
#X connect 2 0 1 1;
#X connect 2 0 3 1;
#X connect 2 1 0 0;
#X connect 3 0 4 0;
#X connect 6 0 45 0;
#X connect 6 0 56 0;
#X connect 7 0 28 0;
#X connect 8 0 36 0;
#X connect 9 0 37 0;
#X connect 10 0 27 0;
#X connect 11 0 2 0;
#X connect 11 1 2 1;
#X connect 13 0 1 0;
#X connect 13 0 3 0;
#X connect 14 0 13 1;
#X connect 15 0 13 2;
#X connect 16 0 15 0;
#X connect 17 0 16 0;
#X connect 18 0 58 0;
#X connect 19 0 23 0;
#X connect 20 0 19 0;
#X connect 21 0 20 0;
#X connect 22 0 25 0;
#X connect 23 0 12 0;
#X connect 24 0 12 0;
#X connect 25 0 24 0;
#X connect 26 0 38 0;
#X connect 29 0 54 0;
#X connect 30 0 11 0;
#X connect 31 0 21 0;
#X connect 32 0 22 0;
#X connect 33 0 51 0;
#X connect 34 0 17 0;
#X connect 35 0 58 1;
#X connect 40 0 45 1;
#X connect 41 0 45 1;
#X connect 42 0 41 0;
#X connect 43 0 44 0;
#X connect 44 0 40 0;
#X connect 45 0 13 0;
#X connect 46 0 47 0;
#X connect 46 1 47 1;
#X connect 47 0 48 0;
#X connect 48 0 42 0;
#X connect 49 0 46 0;
#X connect 50 0 12 0;
#X connect 51 0 52 0;
#X connect 52 0 50 0;
#X connect 53 0 12 0;
#X connect 54 0 55 0;
#X connect 55 0 12 0;
#X connect 56 0 57 0;
#X connect 57 0 18 0;
#X connect 58 0 59 0;
#X connect 59 0 14 0;
