#N canvas 41 50 1142 811 10;
#X obj 692 506 switch~;
#X obj 170 678 *~;
#X obj 667 509 tgl 15 0 empty empty empty 17 7 0 10 -262144 -1 -1 0
1;
#X obj 323 667 *~;
#X obj 323 706 outlet~;
#X obj 169 707 outlet~;
#X obj 195 29 inlet~;
#X obj 354 37 inlet;
#X obj 457 37 inlet;
#X obj 825 41 inlet;
#X obj 633 448 sel 0 1;
#X obj 348 93 t f f;
#X obj 348 115 *;
#X msg 328 202 freq \$1;
#X msg 401 188 depth \$1;
#X obj 247 325 e_phaser \$0-ph0;
#X obj 618 475 switcher;
#X obj 714 762 outlet;
#X msg 562 668 1 1: Freq \$1 Hz;
#X obj 562 622 i;
#X text 606 601 jus to knock off some decimal places, f 15;
#X obj 562 600 * 10;
#X obj 562 644 / 10;
#X obj 347 145 * 8;
#X obj 739 626 i;
#X obj 740 600 * 101;
#X obj 425 118 t f f;
#X obj 425 140 *;
#X msg 739 653 2 2: Depth \$1 %;
#X msg 912 644 0 Phaser;
#X connect 1 0 5 0;
#X connect 3 0 4 0;
#X connect 6 0 15 0;
#X connect 7 0 11 0;
#X connect 8 0 26 0;
#X connect 8 0 25 0;
#X connect 9 0 10 0;
#X connect 10 0 16 0;
#X connect 10 1 16 1;
#X connect 10 1 29 0;
#X connect 11 0 12 0;
#X connect 11 1 12 1;
#X connect 12 0 23 0;
#X connect 13 0 15 1;
#X connect 14 0 15 1;
#X connect 15 0 1 0;
#X connect 15 0 3 0;
#X connect 16 0 1 1;
#X connect 16 0 3 1;
#X connect 16 1 0 0;
#X connect 16 1 2 0;
#X connect 18 0 17 0;
#X connect 19 0 22 0;
#X connect 21 0 19 0;
#X connect 22 0 18 0;
#X connect 23 0 13 0;
#X connect 23 0 21 0;
#X connect 24 0 28 0;
#X connect 25 0 24 0;
#X connect 26 0 27 0;
#X connect 26 1 27 1;
#X connect 27 0 14 0;
#X connect 28 0 17 0;
#X connect 29 0 17 0;
