#N canvas 399 83 1284 961 10;
#X obj 458 860 switch~;
#X obj 163 895 *~;
#N canvas 11 50 526 600 switcher 0;
#X obj 113 261 t b b;
#X obj 113 295 delay 5;
#X obj 263 387 line~;
#X msg 176 296 0 4;
#X obj 133 476 *~;
#X msg 113 327 0;
#X obj 113 220 bang;
#X msg 406 229 1;
#X msg 359 193 1 4;
#X obj 352 143 t b b b;
#X msg 209 196 \; screenLine1 1: x \; screenLine2 2: x \; screenLine3
3: x \; screenLine4 4: x \;;
#X obj 139 506 outlet~;
#X obj 371 507 outlet;
#X obj 112 48 inlet;
#X obj 353 50 inlet;
#X obj 37 37;
#X obj 132 20;
#X connect 0 0 1 0;
#X connect 0 1 3 0;
#X connect 1 0 5 0;
#X connect 2 0 4 0;
#X connect 2 0 4 1;
#X connect 3 0 2 0;
#X connect 4 0 11 0;
#X connect 5 0 12 0;
#X connect 6 0 0 0;
#X connect 7 0 12 0;
#X connect 8 0 2 0;
#X connect 9 0 10 0;
#X connect 9 1 8 0;
#X connect 9 2 7 0;
#X connect 13 0 6 0;
#X connect 14 0 9 0;
#X restore 384 836 pd switcher;
#X obj 316 884 *~;
#X obj 316 923 outlet~;
#X obj 162 924 outlet~;
#X obj 125 5 inlet~;
#X obj 226 5 inlet;
#X obj 316 5 inlet;
#X obj 399 4 inlet;
#X obj 545 3 inlet;
#X obj 384 807 sel 0 1;
#X obj 742 920 outlet;
#X obj 552 768 r \$0-onoff;
#X obj 384 785 r \$0-onoff;
#X obj 552 791 sel 1;
#X obj 545 26 s \$0-onoff;
#X obj 788 712 r \$0-p2;
#X obj 316 28 s \$0-p2;
#X obj 698 695 r \$0-p1;
#X obj 226 30 s \$0-p1;
#X obj 399 28 s \$0-p3;
#X obj 480 5 inlet;
#X obj 480 28 s \$0-p4;
#X obj 702 793 i;
#X obj 788 737 * 100;
#X obj 788 765 i;
#X obj 1077 741 r \$0-p4;
#X obj 975 752 * 101;
#X obj 975 784 i;
#X obj 973 732 r \$0-p3;
#X msg 551 816 0 Reverb;
#X msg 382 336 wet \$1;
#X msg 489 327 dry \$1;
#X obj 130 492 freeverb~;
#X msg 382 276 \$1 40;
#X msg 489 266 \$1 40;
#X obj 489 296 line 0 1;
#X obj 382 304 line 0 1;
#X obj 489 206 - 1;
#X obj 489 233 abs;
#X obj 489 173 * 0.5;
#X msg 267 266 \$1 40;
#X obj 267 294 line 0 1;
#X msg 268 333 roomsize \$1;
#X obj 266 238 * 0.9;
#X obj 267 199 r \$0-p1;
#X msg 613 308 \$1 40;
#X obj 613 336 line 0 1;
#X obj 613 241 r \$0-p3;
#X obj 489 141 r \$0-p2;
#X msg 611 376 damping \$1;
#X obj 696 751 + 1;
#X msg 703 818 1 1: Room Size \$1;
#X obj 698 721 * 100;
#X msg 788 795 2 2: Dry / Wet \$1 %;
#X msg 1082 826 4 4: x;
#X msg 970 814 3 3: Damping \$1 %;
#X connect 1 0 5 0;
#X connect 2 0 1 1;
#X connect 2 0 3 1;
#X connect 2 1 0 0;
#X connect 3 0 4 0;
#X connect 6 0 34 0;
#X connect 6 0 34 1;
#X connect 7 0 20 0;
#X connect 8 0 18 0;
#X connect 9 0 21 0;
#X connect 10 0 16 0;
#X connect 11 0 2 0;
#X connect 11 1 2 1;
#X connect 13 0 15 0;
#X connect 14 0 11 0;
#X connect 15 0 31 0;
#X connect 15 0 56 0;
#X connect 17 0 25 0;
#X connect 19 0 54 0;
#X connect 22 0 23 0;
#X connect 24 0 53 0;
#X connect 25 0 26 0;
#X connect 26 0 55 0;
#X connect 28 0 29 0;
#X connect 29 0 57 0;
#X connect 30 0 28 0;
#X connect 31 0 12 0;
#X connect 32 0 34 0;
#X connect 33 0 34 0;
#X connect 34 0 1 0;
#X connect 34 1 3 0;
#X connect 35 0 38 0;
#X connect 36 0 37 0;
#X connect 37 0 33 0;
#X connect 38 0 32 0;
#X connect 39 0 40 0;
#X connect 40 0 36 0;
#X connect 41 0 39 0;
#X connect 41 0 35 0;
#X connect 42 0 43 0;
#X connect 43 0 44 0;
#X connect 44 0 34 0;
#X connect 45 0 42 0;
#X connect 46 0 45 0;
#X connect 47 0 48 0;
#X connect 48 0 51 0;
#X connect 49 0 47 0;
#X connect 50 0 41 0;
#X connect 51 0 34 0;
#X connect 52 0 24 0;
#X connect 53 0 12 0;
#X connect 54 0 52 0;
#X connect 55 0 12 0;
#X connect 56 0 12 0;
#X connect 57 0 12 0;
