#N canvas 35 50 1142 811 10;
#X obj 692 506 switch~;
#X obj 170 678 *~;
#N canvas 13 50 526 600 switcher 1;
#X obj 113 261 t b b;
#X obj 113 295 delay 5;
#X obj 263 387 line~;
#X msg 176 296 0 4;
#X obj 133 476 *~;
#X msg 113 327 0;
#X obj 113 220 bang;
#X msg 406 229 1;
#X msg 359 193 1 4;
#X obj 139 506 outlet~;
#X obj 371 507 outlet;
#X obj 112 48 inlet;
#X obj 353 50 inlet;
#X obj 353 143 t b b;
#X connect 0 0 1 0;
#X connect 0 1 3 0;
#X connect 1 0 5 0;
#X connect 2 0 4 0;
#X connect 2 0 4 1;
#X connect 3 0 2 0;
#X connect 4 0 9 0;
#X connect 5 0 10 0;
#X connect 6 0 0 0;
#X connect 7 0 10 0;
#X connect 8 0 2 0;
#X connect 11 0 6 0;
#X connect 12 0 13 0;
#X connect 13 0 8 0;
#X connect 13 1 7 0;
#X restore 618 475 pd switcher;
#X obj 667 509 tgl 15 0 empty empty empty 17 7 0 10 -262144 -1 -1 1
1;
#X obj 323 667 *~;
#X obj 323 706 outlet~;
#X obj 169 707 outlet~;
#X obj 195 29 inlet~;
#X obj 354 37 inlet;
#X obj 457 37 inlet;
#X obj 599 36 inlet;
#X obj 696 46 inlet;
#X obj 825 41 inlet;
#X obj 633 448 sel 0 1;
#N canvas 6 50 612 483 crossfade 0;
#X obj 33 48 inlet~;
#X obj 211 67 inlet;
#X obj 39 327 outlet~;
#X obj 49 194 expr cos($f1 * 3.14159 / 2);
#X obj 244 194 expr sin($f1 * 3.14159 / 2);
#X obj 211 143 clip 0 1;
#N canvas 7 50 594 632 pan_core 0;
#X obj 21 106 inlet~;
#X obj 226 126 inlet;
#X obj 59 259 *~;
#X obj 123 303 outlet~;
#X obj 189 258 *~;
#X obj 205 234 line~;
#X obj 75 234 line~;
#X obj 96 127 inlet;
#X obj 179 104 inlet~;
#X text 223 350 comment;
#X obj 75 195 pack f 5;
#X obj 205 195 pack f 5;
#X text 202 346 Hans-Christoph Steiner \, 2004;
#X text 202 332 Adapted from [pan_core~];
#X connect 0 0 2 0;
#X connect 1 0 11 0;
#X connect 2 0 3 0;
#X connect 4 0 3 0;
#X connect 5 0 4 1;
#X connect 6 0 2 1;
#X connect 7 0 10 0;
#X connect 8 0 4 0;
#X connect 10 0 6 0;
#X connect 11 0 5 0;
#X restore 39 266 pd pan_core;
#X text 165 300 Adapted from [equal_power_pan~] \, Hans-Christoph Steiner
\, 2004;
#X text 320 312 comment;
#X obj 128 46 inlet~;
#X connect 0 0 6 0;
#X connect 1 0 5 0;
#X connect 3 0 6 1;
#X connect 4 0 6 3;
#X connect 5 0 3 0;
#X connect 5 0 4 0;
#X connect 6 0 2 0;
#X connect 9 0 6 2;
#X restore 209 564 pd crossfade;
#X floatatom 425 150 5 0 1000 0 - - -, f 5;
#X msg 431 202 feedback 1;
#X obj 425 130 bng 15 250 50 0 empty empty empty 17 7 0 10 -262144
-1 -1;
#X text 438 182 feedback level. If 1 the chunk gets repeated endlessly.
;
#X msg 513 243 dry 1;
#X msg 560 251 dry 0.5;
#X msg 622 251 dry 0;
#X text 513 223 dry signal (1) - wet signal (0);
#X msg 594 331 num 4;
#X msg 547 331 num 0;
#X msg 641 331 num 16;
#X msg 513 202 feedback 0.9;
#X text 541 309 number of repetitions (default (0) is endless);
#X obj 303 376 e_repeater repea;
#X obj 452 125 hsl 128 15 0 1000 0 0 empty empty empty -2 -8 0 10 -262144
-1 -1 7200 1;
#X text 468 149 length of the chunk repeated in ms triggers new recording.
Max 1000!;
#X connect 1 0 6 0;
#X connect 2 0 1 1;
#X connect 2 0 4 1;
#X connect 2 1 0 0;
#X connect 2 1 3 0;
#X connect 4 0 5 0;
#X connect 7 0 14 0;
#X connect 7 0 28 0;
#X connect 10 0 14 2;
#X connect 12 0 13 0;
#X connect 13 0 2 0;
#X connect 13 1 2 1;
#X connect 14 0 4 0;
#X connect 14 0 1 0;
#X connect 15 0 28 1;
#X connect 16 0 28 1;
#X connect 17 0 15 0;
#X connect 19 0 28 1;
#X connect 20 0 28 1;
#X connect 21 0 28 1;
#X connect 23 0 28 1;
#X connect 24 0 28 1;
#X connect 25 0 28 1;
#X connect 26 0 28 1;
#X connect 28 0 14 1;
#X connect 29 0 15 0;
