#N canvas 393 72 1284 961 10;
#X obj 458 860 switch~;
#X obj 163 895 *~;
#N canvas 11 50 526 600 switcher 0;
#X obj 113 261 t b b;
#X obj 113 295 delay 5;
#X obj 263 387 line~;
#X msg 176 296 0 4;
#X obj 133 476 *~;
#X msg 113 327 0;
#X obj 113 220 bang;
#X msg 406 229 1;
#X msg 359 193 1 4;
#X obj 352 143 t b b b;
#X msg 209 196 \; screenLine1 1: x \; screenLine2 2: x \; screenLine3
3: x \; screenLine4 4: x \;;
#X obj 139 506 outlet~;
#X obj 371 507 outlet;
#X obj 112 48 inlet;
#X obj 353 50 inlet;
#X obj 37 37;
#X obj 132 20;
#X connect 0 0 1 0;
#X connect 0 1 3 0;
#X connect 1 0 5 0;
#X connect 2 0 4 0;
#X connect 2 0 4 1;
#X connect 3 0 2 0;
#X connect 4 0 11 0;
#X connect 5 0 12 0;
#X connect 6 0 0 0;
#X connect 7 0 12 0;
#X connect 8 0 2 0;
#X connect 9 0 10 0;
#X connect 9 1 8 0;
#X connect 9 2 7 0;
#X connect 13 0 6 0;
#X connect 14 0 9 0;
#X restore 384 836 pd switcher;
#X obj 316 884 *~;
#X obj 316 923 outlet~;
#X obj 162 924 outlet~;
#X obj 101 66 inlet~;
#X obj 263 4 inlet;
#X obj 343 5 inlet;
#X obj 412 4 inlet;
#X obj 545 3 inlet;
#X obj 384 807 sel 0 1;
#X obj 742 920 outlet;
#X obj 552 768 r \$0-onoff;
#X obj 384 785 r \$0-onoff;
#X obj 552 791 sel 1;
#X obj 545 26 s \$0-onoff;
#X obj 788 712 r \$0-p2;
#X obj 339 36 s \$0-p2;
#X obj 702 739 r \$0-p1;
#X obj 263 29 s \$0-p1;
#X obj 412 28 s \$0-p3;
#N canvas 0 50 612 483 equal_power_crossfade 0;
#X obj 33 48 inlet~;
#X obj 244 58 inlet;
#X obj 33 332 outlet~;
#X obj 319 54 loadbang;
#X msg 319 74 0.5;
#X obj 49 194 expr cos($f1 * 3.14159 / 2);
#X obj 244 194 expr sin($f1 * 3.14159 / 2);
#X obj 244 134 clip 0 1;
#N canvas 0 50 450 300 pan_core 0;
#X obj 21 106 inlet~;
#X obj 226 126 inlet;
#X obj 80 453 *~;
#X obj 144 497 outlet~;
#X obj 210 452 *~;
#X obj 226 428 line~;
#X obj 96 428 line~;
#X obj 96 127 inlet;
#X obj 179 104 inlet~;
#X text 244 544 comment;
#X obj 96 389 pack f 5;
#X obj 226 389 pack f 5;
#X text 223 540 Hans-Christoph Steiner \, 2004;
#X text 223 526 Adapted from [pan_core~];
#X connect 0 0 2 0;
#X connect 1 0 11 0;
#X connect 2 0 3 0;
#X connect 4 0 3 0;
#X connect 5 0 4 1;
#X connect 6 0 2 1;
#X connect 7 0 10 0;
#X connect 8 0 4 0;
#X connect 10 0 6 0;
#X connect 11 0 5 0;
#X restore 39 266 pd pan_core;
#X text 256 437 Adapted from [equal_power_pan~] \, Hans-Christoph Steiner
\, 2004;
#X text 411 449 comment;
#X obj 128 46 inlet~;
#X connect 0 0 8 0;
#X connect 1 0 7 0;
#X connect 3 0 4 0;
#X connect 4 0 7 0;
#X connect 5 0 8 1;
#X connect 6 0 8 3;
#X connect 7 0 5 0;
#X connect 7 0 6 0;
#X connect 8 0 2 0;
#X connect 11 0 8 2;
#X restore 126 640 pd equal_power_crossfade;
#X obj 270 592 hsl 128 25 0 1 0 0 empty crossfade Dry_---_Wet_(crossfade)
-2 -8 0 10 -4034 -1 -1 9984 1;
#X obj 183 206 Guitar_specdelay~;
#X obj 182 593 *~ 10;
#N canvas 8 50 450 300 init 0;
#X obj 214 41 loadbang;
#X msg 217 77 \; del-sin 1 \; fb-sin 1 \; gain-flat 1 \; lp-freq 220
\; slope -0.04 \; crossfade 0.5 \;;
#X connect 0 0 1 0;
#X restore 678 100 pd init;
#X obj 793 393 *;
#X obj 793 367 t f f;
#X obj 793 420 * 127;
#X obj 793 442 s del-sin;
#X obj 898 389 *;
#X obj 898 363 t f f;
#X obj 898 416 * 127;
#X obj 890 494 s fb-sin;
#X obj 1051 385 s crossfade;
#X obj 1009 447 s fbscale;
#X obj 793 345 r \$0-p1;
#X obj 897 341 r \$0-p2;
#X msg 552 816 0 Spectral Delay;
#X obj 480 6 inlet;
#X obj 480 29 s \$0-p4;
#X obj 890 467 f;
#X obj 977 421 t b f;
#X obj 702 765 * 100;
#X obj 702 793 i;
#X msg 703 818 1 1: Dly Spectrum \$1;
#X msg 775 789 2 2: Fbk Spectrum \$1;
#X obj 788 737 * 100;
#X obj 788 765 i;
#X obj 1077 763 * 101;
#X obj 1077 785 i;
#X obj 1077 741 r \$0-p4;
#X msg 1082 826 4 4: Dry / Wet \$1 %;
#X obj 969 370 r \$0-p3;
#X obj 1051 363 r \$0-p4;
#X obj 930 760 * 101;
#X obj 930 792 i;
#X obj 928 740 r \$0-p3;
#X msg 935 823 3 3: Fbk Scale \$1;
#X connect 1 0 5 0;
#X connect 2 0 1 1;
#X connect 2 0 3 1;
#X connect 2 1 0 0;
#X connect 3 0 4 0;
#X connect 6 0 24 0;
#X connect 6 0 22 0;
#X connect 7 0 20 0;
#X connect 8 0 18 0;
#X connect 9 0 21 0;
#X connect 10 0 16 0;
#X connect 11 0 2 0;
#X connect 11 1 2 1;
#X connect 13 0 15 0;
#X connect 14 0 11 0;
#X connect 15 0 39 0;
#X connect 17 0 48 0;
#X connect 19 0 44 0;
#X connect 22 0 1 0;
#X connect 22 0 3 0;
#X connect 23 0 22 2;
#X connect 24 0 25 0;
#X connect 25 0 22 1;
#X connect 27 0 29 0;
#X connect 28 0 27 0;
#X connect 28 1 27 1;
#X connect 29 0 30 0;
#X connect 31 0 33 0;
#X connect 32 0 31 0;
#X connect 32 1 31 1;
#X connect 33 0 42 0;
#X connect 37 0 28 0;
#X connect 38 0 32 0;
#X connect 39 0 12 0;
#X connect 40 0 41 0;
#X connect 42 0 34 0;
#X connect 43 0 42 0;
#X connect 43 1 36 0;
#X connect 44 0 45 0;
#X connect 45 0 46 0;
#X connect 46 0 12 0;
#X connect 47 0 12 0;
#X connect 48 0 49 0;
#X connect 49 0 47 0;
#X connect 50 0 51 0;
#X connect 51 0 53 0;
#X connect 52 0 50 0;
#X connect 53 0 12 0;
#X connect 54 0 43 0;
#X connect 55 0 35 0;
#X connect 56 0 57 0;
#X connect 57 0 59 0;
#X connect 58 0 56 0;
#X connect 59 0 12 0;
