#N canvas 345 80 1517 870 10;
#X declare -path ./rj;
#N canvas 7 50 811 846 testsound 0;
#X text 396 415 offset cause we waited a little;
#X msg 153 383 start;
#X obj 185 255 delay 5;
#X msg 66 332 0;
#X obj 336 414 line~;
#X obj 336 436 *~;
#X obj 147 554 *~;
#X msg 328 389 0 5;
#X obj 197 213 t b b;
#X msg 265 334 1 5;
#X obj 57 225 delay 5;
#X obj 57 195 t b b;
#X msg 124 290 0 5;
#X obj 150 92 sel 0 1;
#X obj 557 42 inlet;
#X text 612 41 mute;
#X obj 244 505 s looped;
#X obj 290 555 *~;
#X obj 153 463 readsf~ 2;
#X msg 205 417 open ./test.wav;
#X obj 189 292 t b b b;
#X obj 145 29 loadbang;
#X msg 145 51 1;
#X obj 218 159 r looped;
#X obj 255 663 outlet~;
#X obj 112 669 outlet~;
#X obj 137 615 *~;
#X obj 273 614 *~;
#X obj 420 528 *~;
#X obj 441 479 line~;
#X msg 465 440 \$1 5;
#X obj 540 112 sel 0 1;
#X msg 540 134 0;
#X msg 557 161 1;
#X connect 1 0 18 0;
#X connect 2 0 20 0;
#X connect 3 0 18 0;
#X connect 4 0 5 0;
#X connect 4 0 5 1;
#X connect 5 0 6 1;
#X connect 5 0 17 1;
#X connect 6 0 26 0;
#X connect 7 0 4 0;
#X connect 8 0 2 0;
#X connect 8 1 7 0;
#X connect 9 0 4 0;
#X connect 10 0 3 0;
#X connect 11 0 10 0;
#X connect 11 1 12 0;
#X connect 12 0 4 0;
#X connect 13 0 11 0;
#X connect 13 1 8 0;
#X connect 14 0 31 0;
#X connect 17 0 27 0;
#X connect 18 0 6 0;
#X connect 18 1 17 0;
#X connect 18 2 16 0;
#X connect 19 0 18 0;
#X connect 20 0 9 0;
#X connect 20 1 1 0;
#X connect 20 2 19 0;
#X connect 21 0 22 0;
#X connect 22 0 13 0;
#X connect 23 0 8 0;
#X connect 26 0 25 0;
#X connect 27 0 24 0;
#X connect 28 0 26 1;
#X connect 28 0 27 1;
#X connect 29 0 28 1;
#X connect 29 0 28 0;
#X connect 30 0 29 0;
#X connect 31 0 32 0;
#X connect 31 1 33 0;
#X connect 32 0 30 0;
#X connect 33 0 30 0;
#X restore 68 121 pd testsound;
#X obj 67 164 throw~ testL;
#X obj 89 425 throw~ outL;
#X obj 68 94 tgl 15 0 empty empty empty 17 7 0 10 -262144 -1 -1 1 1
;
#X obj 550 114 r knob2;
#X obj 625 116 r knob3;
#X obj 700 113 r knob4;
#X obj 372 116 catch~ testL;
#X obj 205 425 throw~ outR;
#X obj 373 140 s~ fx-in;
#X obj 1267 64 r notes;
#X obj 1267 86 stripnote;
#X obj 1350 240 s disable-all;
#X obj 480 117 r knob1;
#X obj 480 142 s param1;
#X obj 550 143 s param2;
#X obj 625 142 s param3;
#X obj 700 143 s param4;
#X obj 1267 116 - 59;
#X obj 1325 371 s enable;
#X obj 1269 302 i;
#X obj 1218 243 delay 10;
#X obj 1267 149 spigot 1;
#X msg 1385 186 0;
#X obj 1169 303 delay 10;
#X msg 1194 204 1;
#X obj 1203 369 s recall;
#X obj 1218 270 t b b;
#X obj 910 543 textfile;
#X obj 1267 206 t b f b b b;
#X obj 1311 267 s save-current;
#X obj 64 195 r enable;
#X floatatom 64 217 5 0 0 0 - - -, f 5;
#X text 132 210 currently playing fx;
#N canvas 9 50 839 514 save 0;
#X floatatom 378 168 5 0 0 0 - - -, f 5;
#X floatatom 448 170 5 0 0 0 - - -, f 5;
#X floatatom 518 169 5 0 0 0 - - -, f 5;
#X floatatom 589 169 5 0 0 0 - - -, f 5;
#X obj 353 211 f;
#X obj 343 250 pack 0 0 0 0;
#X msg 280 270 clear;
#X obj 255 174 t f b b;
#X floatatom 273 116 5 0 0 0 - - -, f 5;
#X obj 255 142 i;
#X obj 255 116 bng 15 250 50 0 empty empty empty 17 7 0 10 -262144
-1 -1;
#X msg 96 233 write ./Settings/\$1.txt;
#X obj 273 90 r enable;
#X obj 255 66 r save-current;
#X msg 327 322 add \$1 \$2 \$3 \$4;
#X obj 305 368 outlet;
#X text 428 75 saves the 4 knobs in a file;
#X obj 378 146 r param1;
#X obj 448 147 r param2;
#X obj 518 147 r param3;
#X obj 589 147 r param4;
#X connect 0 0 4 1;
#X connect 1 0 5 1;
#X connect 2 0 5 2;
#X connect 3 0 5 3;
#X connect 4 0 5 0;
#X connect 5 0 14 0;
#X connect 6 0 15 0;
#X connect 7 0 11 0;
#X connect 7 1 4 0;
#X connect 7 2 6 0;
#X connect 8 0 9 1;
#X connect 9 0 7 0;
#X connect 10 0 9 0;
#X connect 11 0 15 0;
#X connect 12 0 8 0;
#X connect 13 0 10 0;
#X connect 14 0 15 0;
#X connect 17 0 0 0;
#X connect 18 0 1 0;
#X connect 19 0 2 0;
#X connect 20 0 3 0;
#X restore 850 516 pd save;
#X obj 910 613 unpack 0 0 0 0;
#X obj 910 572 t a b;
#N canvas 5 50 450 300 recall 0;
#X msg 260 198 read ./Settings/\$1.txt;
#X floatatom 230 92 5 0 0 0 - - -, f 5;
#X obj 212 118 i;
#X obj 212 92 bng 15 250 50 0 empty empty empty 17 7 0 10 -262144 -1
-1;
#X obj 230 66 r enable;
#X obj 212 42 r recall;
#X msg 199 197 rewind;
#X obj 188 149 t b b a;
#X obj 171 255 outlet;
#X connect 0 0 8 0;
#X connect 1 0 2 1;
#X connect 2 0 7 0;
#X connect 3 0 2 0;
#X connect 4 0 1 0;
#X connect 5 0 3 0;
#X connect 6 0 8 0;
#X connect 7 0 8 0;
#X connect 7 1 6 0;
#X connect 7 2 0 0;
#X restore 910 516 pd recall;
#X floatatom 907 653 5 0 0 0 - - -, f 5;
#X floatatom 954 652 5 0 0 0 - - -, f 5;
#X floatatom 1004 660 5 0 0 0 - - -, f 5;
#X floatatom 1051 658 5 0 0 0 - - -, f 5;
#N canvas 6 50 450 300 lock-knobs 0;
#X obj 160 78 s knob1Override;
#X obj 171 101 s knob2Override;
#X obj 188 124 s knob3Override;
#X obj 201 148 s knob4Override;
#X obj 234 17 inlet;
#X connect 4 0 0 0;
#X connect 4 0 1 0;
#X connect 4 0 2 0;
#X connect 4 0 3 0;
#X restore 1030 614 pd lock-knobs;
#X obj 873 689 s param1;
#X obj 950 692 s param2;
#X obj 1020 690 s param3;
#X obj 1099 690 s param4;
#X obj 1051 29 declare -path ./rj;
#X obj 90 372 r~ fx-in;
#X obj 319 424 s fx-info;
#X obj 1278 545 r fx-info;
#X obj 1320 602 s screenLine1;
#X obj 1339 623 s screenLine2;
#X obj 1361 648 s screenLine3;
#X obj 1381 672 s screenLine4;
#X obj 90 399 fx-chorus, f 33;
#X obj 1269 329 t f b f;
#X obj 159 372 enabler 1;
#X msg 1278 406 \; screenLine1 1: x \; screenLine2 2: x \; screenLine3
3: x \; screenLine4 4: x \;;
#X obj 1278 567 route 0 1 2 3 4;
#X obj 1277 672 s screenLine5;
#X obj 92 512 throw~ outL;
#X obj 208 512 throw~ outR;
#X obj 93 459 r~ fx-in;
#X obj 321 512 s fx-info;
#X obj 91 597 throw~ outL;
#X obj 207 597 throw~ outR;
#X obj 90 544 r~ fx-in;
#X obj 320 597 s fx-info;
#X obj 90 695 throw~ outL;
#X obj 206 695 throw~ outR;
#X obj 91 642 r~ fx-in;
#X obj 319 695 s fx-info;
#X obj 93 486 fx-phaser, f 33;
#X obj 90 570 fx-bitcrusher, f 33;
#X obj 169 459 enabler 2;
#X obj 166 542 enabler 3;
#X obj 91 669 fx-moog-filter, f 33;
#X obj 167 641 enabler 4;
#X obj 417 420 throw~ outL;
#X obj 533 420 throw~ outR;
#X obj 418 367 r~ fx-in;
#X obj 646 420 s fx-info;
#X obj 418 394 fx-moog-filter-oscil, f 33;
#X obj 494 366 enabler 5;
#X obj 418 509 throw~ outL;
#X obj 534 509 throw~ outR;
#X obj 419 456 r~ fx-in;
#X obj 647 509 s fx-info;
#X obj 418 483 fx-moog-crushed-bits, f 33;
#X obj 495 455 enabler 6;
#X obj 416 595 throw~ outL;
#X obj 532 595 throw~ outR;
#X obj 417 542 r~ fx-in;
#X obj 645 595 s fx-info;
#X obj 489 544 enabler 7;
#X obj 416 570 fx-spectral-delay, f 33;
#X obj 419 696 throw~ outL;
#X obj 535 696 throw~ outR;
#X obj 420 643 r~ fx-in;
#X obj 648 696 s fx-info;
#X obj 419 671 fx-reverb, f 33;
#X obj 1228 622 print;
#X obj 492 645 enabler 8;
#X obj 758 423 throw~ outL;
#X obj 874 423 throw~ outR;
#X obj 759 370 r~ fx-in;
#X obj 987 423 s fx-info;
#X obj 831 372 enabler 9;
#X obj 758 398 fx-flanger, f 33;
#X obj 354 87 r~ inL;
#X connect 0 0 1 0;
#X connect 0 1 1 0;
#X connect 3 0 0 0;
#X connect 4 0 15 0;
#X connect 5 0 16 0;
#X connect 6 0 17 0;
#X connect 7 0 9 0;
#X connect 10 0 11 0;
#X connect 11 0 18 0;
#X connect 13 0 14 0;
#X connect 18 0 22 0;
#X connect 20 0 56 0;
#X connect 21 0 27 0;
#X connect 22 0 29 0;
#X connect 23 0 22 1;
#X connect 24 0 25 0;
#X connect 25 0 22 1;
#X connect 27 0 24 0;
#X connect 27 1 20 0;
#X connect 28 0 36 0;
#X connect 29 0 21 0;
#X connect 29 1 20 1;
#X connect 29 2 30 0;
#X connect 29 3 12 0;
#X connect 29 4 23 0;
#X connect 31 0 32 0;
#X connect 34 0 28 0;
#X connect 35 0 38 0;
#X connect 35 1 39 0;
#X connect 35 2 40 0;
#X connect 35 3 41 0;
#X connect 36 0 35 0;
#X connect 36 1 42 0;
#X connect 37 0 28 0;
#X connect 38 0 43 0;
#X connect 39 0 44 0;
#X connect 40 0 45 0;
#X connect 41 0 46 0;
#X connect 48 0 55 0;
#X connect 50 0 59 0;
#X connect 55 0 2 0;
#X connect 55 1 8 0;
#X connect 55 2 49 0;
#X connect 56 0 26 0;
#X connect 56 1 58 0;
#X connect 56 2 19 0;
#X connect 57 0 55 1;
#X connect 57 1 55 2;
#X connect 57 2 55 3;
#X connect 57 4 55 4;
#X connect 59 0 60 0;
#X connect 59 0 102 0;
#X connect 59 1 51 0;
#X connect 59 2 52 0;
#X connect 59 3 53 0;
#X connect 59 4 54 0;
#X connect 63 0 73 0;
#X connect 67 0 74 0;
#X connect 71 0 77 0;
#X connect 73 0 61 0;
#X connect 73 1 62 0;
#X connect 73 2 64 0;
#X connect 74 0 65 0;
#X connect 74 1 66 0;
#X connect 74 2 68 0;
#X connect 75 0 73 1;
#X connect 75 1 73 2;
#X connect 75 4 73 3;
#X connect 76 0 74 1;
#X connect 76 1 74 2;
#X connect 76 4 74 3;
#X connect 77 0 69 0;
#X connect 77 1 70 0;
#X connect 77 2 72 0;
#X connect 78 0 77 1;
#X connect 78 1 77 2;
#X connect 78 2 77 3;
#X connect 78 4 77 4;
#X connect 81 0 83 0;
#X connect 83 0 79 0;
#X connect 83 1 80 0;
#X connect 83 2 82 0;
#X connect 84 0 83 1;
#X connect 84 1 83 2;
#X connect 84 2 83 3;
#X connect 84 3 83 4;
#X connect 84 4 83 5;
#X connect 87 0 89 0;
#X connect 89 0 85 0;
#X connect 89 1 86 0;
#X connect 89 2 88 0;
#X connect 90 0 89 1;
#X connect 90 1 89 2;
#X connect 90 2 89 3;
#X connect 90 3 89 4;
#X connect 90 4 89 5;
#X connect 93 0 96 0;
#X connect 95 0 96 1;
#X connect 95 1 96 2;
#X connect 95 2 96 3;
#X connect 95 3 96 4;
#X connect 95 4 96 5;
#X connect 96 0 91 0;
#X connect 96 1 92 0;
#X connect 96 2 94 0;
#X connect 99 0 101 0;
#X connect 101 0 97 0;
#X connect 101 1 98 0;
#X connect 101 2 100 0;
#X connect 103 0 101 1;
#X connect 103 1 101 2;
#X connect 103 2 101 3;
#X connect 103 3 101 4;
#X connect 103 4 101 5;
#X connect 106 0 109 0;
#X connect 108 0 109 1;
#X connect 108 1 109 2;
#X connect 108 2 109 3;
#X connect 108 3 109 4;
#X connect 108 4 109 5;
#X connect 109 0 104 0;
#X connect 109 1 105 0;
#X connect 109 2 107 0;
#X connect 110 0 9 0;
