#N canvas 6 103 1395 577 10;
#X declare -path ./Rhodey/rj;
#X declare -path ./Rhodey/rj;
#X declare -path ./Rhodey/rj;
#X declare -path ./Rhodey/rj;
#X declare -path ./Rhodey/rj;
#X declare -path ./Rhodey/rj;
#X declare -path ./Rhodey/rj;
#X declare -path ./Rhodey/rj;
#X obj 57 225 pack 0 0 0, f 11;
#X obj 57 251 route 1 2 3 4 5 6 7 8, f 91;
#X obj 788 172 i;
#X obj 788 134 + 5;
#X obj 788 112 * 2000;
#X obj 411 149 i;
#X obj 604 123 * 100;
#X obj 604 148 i;
#X obj 411 116 * 100;
#X obj 650 124 * 4;
#X obj 973 133 i;
#X obj 89 171 + 0;
#X obj 973 111 * 24;
#X obj 973 155 - 12;
#X obj 88 193 - 12;
#X text 510 24 Fender Rhodes style voice using rjdj rhodey abstraction
\, which is itself based on the STK Rhodey code;
#X obj 57 389 *~ 0.3;
#X obj 57 129 poly 8 1, f 11;
#X msg 604 183 Modulation \$1 %;
#X msg 411 185 Tone \$1 %;
#X msg 788 205 Decay Time \$1 ms;
#X msg 973 216 Transpose \$1;
#X obj 57 84 r \$1-\$2-notes-in;
#X obj 57 443 s~ \$1-\$2-outL;
#X obj 182 443 s~ \$1-\$2-outR;
#X obj 411 209 s \$1-\$2-tone-label;
#X obj 604 213 s \$1-\$2-mod-label;
#X obj 788 232 s \$1-\$2-decay-label;
#X obj 973 248 s \$1-\$2-trans-label;
#X obj 973 78 r \$1-\$2-trans;
#X obj 788 83 r \$1-\$2-decay;
#X obj 604 80 r \$1-\$2-mod;
#X obj 412 83 r \$1-\$2-tone;
#X obj 995 190 s \$1-\$2-trans-local;
#X obj 826 172 s \$1-\$2-decay-local;
#X obj 650 150 s \$1-\$2-mod-local;
#X obj 459 116 s \$1-\$2-tone-local;
#X text 56 24 basic polyphonic Sytnh Module with 8 voices;
#X obj 145 129 r \$1-\$2-trans-local;
#X obj 603 296 voice \$1 \$2;
#X obj 345 295 voice \$1 \$2;
#X obj 57 297 voice \$1 \$2;
#X obj 153 297 voice \$1 \$2;
#X obj 255 297 voice \$1 \$2;
#X obj 433 296 voice \$1 \$2;
#X obj 517 296 voice \$1 \$2;
#X obj 696 296 voice \$1 \$2;
#X connect 0 0 1 0;
#X connect 1 0 41 0;
#X connect 1 1 42 0;
#X connect 1 2 43 0;
#X connect 1 3 40 0;
#X connect 1 4 44 0;
#X connect 1 5 45 0;
#X connect 1 6 39 0;
#X connect 1 7 46 0;
#X connect 2 0 20 0;
#X connect 3 0 2 0;
#X connect 3 0 34 0;
#X connect 4 0 3 0;
#X connect 5 0 19 0;
#X connect 6 0 7 0;
#X connect 7 0 18 0;
#X connect 8 0 5 0;
#X connect 9 0 35 0;
#X connect 10 0 13 0;
#X connect 11 0 14 0;
#X connect 12 0 10 0;
#X connect 13 0 21 0;
#X connect 13 0 33 0;
#X connect 14 0 0 1;
#X connect 16 0 23 0;
#X connect 16 0 24 0;
#X connect 17 0 0 0;
#X connect 17 1 11 0;
#X connect 17 2 0 2;
#X connect 18 0 26 0;
#X connect 19 0 25 0;
#X connect 20 0 27 0;
#X connect 21 0 28 0;
#X connect 22 0 17 0;
#X connect 29 0 12 0;
#X connect 30 0 4 0;
#X connect 31 0 6 0;
#X connect 31 0 9 0;
#X connect 32 0 8 0;
#X connect 32 0 36 0;
#X connect 38 0 11 1;
#X connect 39 0 16 0;
#X connect 40 0 16 0;
#X connect 41 0 16 0;
#X connect 42 0 16 0;
#X connect 43 0 16 0;
#X connect 44 0 16 0;
#X connect 45 0 16 0;
#X connect 46 0 16 0;
