#N canvas 503 249 1043 795 10;
#X declare -path ./Rhodey/rj;
#X text 136 42 Inlet 0: midi note/velocity pairs;
#X text 137 616 It's a clone of the STK Rhodey.;
#X obj 423 397 s \$0-in1;
#X msg 421 361 tone \$1;
#X obj 432 535 s \$0-in1;
#X obj 544 534 s \$0-in1;
#X obj 433 633 s \$0-in1;
#X msg 433 610 mod \$1;
#X msg 432 511 vib-freq \$1;
#X msg 544 511 vib-depth \$1;
#X text 198 83 tone: float from 0...1 \, default is 0.5);
#X text 198 124 vib-freq: vibrato frequency (try 11);
#X text 199 144 vib-depth: vibrato depth (try 1);
#X text 136 63 Inlet 1 accepts various methods:;
#X obj 547 631 s \$0-in1;
#X msg 547 608 adsr24 \$1;
#X text 199 189 adsr24: depth of the modulating operator's (2 and 4)
envelopes (0-127 \, default 127) (this is an exotic parameter...);
#X text 199 168 mod: modulation index for first operator pair (default
1);
#X obj 592 397 s \$0-in1;
#X msg 592 374 decay \$1;
#X text 198 101 decay: decay of note in msec (default: 1500);
#X obj 63 258 inlet;
#X obj 139 518 outlet~;
#X obj 256 407 r \$0-in1;
#X obj 147 434 s_rhodey mypiano;
#X obj 418 309 * 0.9;
#X obj 569 77 declare -path ./Rhodey/rj;
#X obj 432 580 r \$1-\$2-mod-local;
#X obj 417 274 r \$1-\$2-tone-local;
#X obj 595 296 r \$1-\$2-decay-local;
#X obj 413 447 loadbang;
#X msg 413 469 11;
#X obj 542 447 loadbang;
#X msg 543 468 1;
#X obj 700 557 loadbang;
#X obj 414 337 hsl 128 15 0 1 0 0 empty empty tone_(0...1) 20 7 1 10
-262144 -1 -1 0 1;
#X msg 699 579 120;
#X connect 3 0 2 0;
#X connect 7 0 6 0;
#X connect 8 0 4 0;
#X connect 9 0 5 0;
#X connect 15 0 14 0;
#X connect 19 0 18 0;
#X connect 21 0 24 0;
#X connect 23 0 24 1;
#X connect 24 0 22 0;
#X connect 25 0 35 0;
#X connect 27 0 7 0;
#X connect 28 0 25 0;
#X connect 29 0 19 0;
#X connect 30 0 31 0;
#X connect 31 0 8 0;
#X connect 32 0 33 0;
#X connect 33 0 9 0;
#X connect 34 0 36 0;
#X connect 35 0 3 0;
#X connect 36 0 15 0;
