#N canvas 59 50 1571 887 10;
#X declare -path ./effects;
#X obj 66 141 loadbang;
#X obj 193 689 throw~ outL;
#X obj 281 689 throw~ outR;
#X obj 441 415 r~ inR;
#X obj 389 415 r~ inL;
#X obj 392 684 throw~ outL;
#X obj 478 684 throw~ outR;
#X obj 490 470 lop~ 5;
#X obj 471 516 *~;
#X obj 428 561 *~;
#X obj 812 112 stripnote;
#X obj 304 127 declare -path ./effects;
#X obj 1156 171 r duration;
#X floatatom 1156 193 15 0 0 0 - - -, f 15;
#N canvas 824 281 729 423 arrays 1;
#X obj 90 30 20secbuf 0;
#X obj 87 60 20secbuf 1;
#X obj 89 87 20secbuf 2;
#X obj 88 116 20secbuf 3;
#X obj 86 145 20secbuf 4;
#X obj 170 30 20secbuf 5;
#X obj 167 60 20secbuf 6;
#X obj 169 87 20secbuf 7;
#X obj 168 116 20secbuf 8;
#X obj 166 145 20secbuf 9;
#X obj 259 30 20secbuf 10;
#X obj 256 60 20secbuf 11;
#X obj 257 84 20secbuf 12;
#X obj 262 119 20secbuf 13;
#X obj 255 143 20secbuf 14;
#X obj 346 32 20secbuf 15;
#X obj 346 62 20secbuf 16;
#X obj 347 88 20secbuf 17;
#X obj 345 116 20secbuf 18;
#X obj 344 144 20secbuf 19;
#X obj 444 33 20secbuf 20;
#X obj 442 63 20secbuf 21;
#X obj 443 87 20secbuf 22;
#X obj 122 212 loadbang;
#X msg 180 277 \; lengths const 0 \;;
#X obj 144 246 t b b;
#X obj 73 307 s loadsamps;
#X connect 23 0 25 0;
#X connect 25 0 26 0;
#X connect 25 1 24 0;
#X restore 63 90 pd arrays;
#N canvas 0 50 450 250 (subpatch) 0;
#X array lengths 23 float 3;
#A 0 812.336 944.399 961.814 902.313 0 0 0 2878.91 0 0 1729.52 0 0
0 0 0 0 0 0 0 0 0 0;
#X coords 0 20000 23 0 200 140 1 0 0;
#X restore 1155 16 graph;
#X obj 812 145 toggle-keys;
#X obj 710 58 t a a;
#X text 64 119 init;
#N canvas 5 50 766 473 check-for-hold 0;
#X obj 149 29 inlet;
#X obj 141 408 outlet;
#X text 270 78 a bang goes out if a note is held alone without any
others being touched;
#X obj 146 306 f;
#X msg 228 233 stop;
#X obj 159 100 unpack;
#X obj 146 278 del 1000;
#X obj 145 172 sel 0;
#X obj 174 199 bang;
#X obj 152 227 t b f;
#X obj 187 132 t f b;
#X obj 141 331 bng 15 250 50 0 empty empty empty 17 7 0 10 -262144
-1 -1;
#X connect 0 0 5 0;
#X connect 3 0 11 0;
#X connect 4 0 6 0;
#X connect 5 1 10 0;
#X connect 6 0 3 0;
#X connect 7 1 8 0;
#X connect 8 0 9 0;
#X connect 9 0 6 0;
#X connect 9 1 3 1;
#X connect 10 0 7 0;
#X connect 10 1 4 0;
#X connect 11 0 1 0;
#X restore 622 127 pd check-for-hold;
#N canvas 10 50 817 498 save-and-zero 0;
#N canvas 297 58 1121 746 saveit 0;
#X obj 418 200 textfile;
#X obj 402 97 bng 15 250 50 0 empty empty empty 17 7 0 10 -262144 -1
-1;
#X msg 427 165 rewind;
#X obj 402 130 t b b b;
#X msg 533 334 clear;
#X obj 458 314 + 1;
#X msg 452 340 add \$1;
#X obj 397 254 t b f b;
#X text 646 139 records on startup;
#X text 636 179 files are named incrementally by writing to a conf
file;
#X obj 395 60 inlet;
#X floatatom 398 422 5 0 0 0 - - -, f 5;
#X obj 398 655 soundfiler;
#X obj 398 539 i;
#X obj 398 500 t b s;
#X obj 667 405 r duration;
#X obj 673 428 * 44.1;
#X obj 756 470 r bufset;
#X msg 398 610 write -nframes \$1 \$2 itake-\$3;
#X obj 398 571 pack f s f;
#X msg 486 165 read rec-info;
#X obj 350 383 t f;
#X obj 573 667 print;
#X floatatom 752 508 5 0 0 0 - - -, f 5;
#X msg 323 327 write rec-info;
#X obj 398 450 makefilename Archive/sound-%d.wav;
#X connect 0 0 7 0;
#X connect 1 0 3 0;
#X connect 2 0 0 0;
#X connect 3 0 0 0;
#X connect 3 1 2 0;
#X connect 3 2 20 0;
#X connect 4 0 0 0;
#X connect 5 0 6 0;
#X connect 6 0 0 0;
#X connect 7 0 24 0;
#X connect 7 1 5 0;
#X connect 7 1 21 0;
#X connect 7 2 4 0;
#X connect 10 0 1 0;
#X connect 11 0 25 0;
#X connect 13 0 19 0;
#X connect 14 0 13 0;
#X connect 14 1 19 1;
#X connect 15 0 16 0;
#X connect 16 0 13 1;
#X connect 17 0 19 2;
#X connect 17 0 23 0;
#X connect 18 0 12 0;
#X connect 18 0 22 0;
#X connect 19 0 18 0;
#X connect 20 0 0 0;
#X connect 21 0 11 0;
#X connect 24 0 0 0;
#X connect 25 0 14 0;
#X restore 329 150 pd saveit;
#X msg 179 199 \; duration 0 \;;
#X obj 280 217 tabwrite lengths;
#X msg 287 152 0;
#X obj 329 174 r bufset;
#X msg 82 198 \; newsamp bang \;;
#X obj 261 61 inlet;
#X obj 268 106 t b b b b b;
#X obj 532 273 s led;
#X msg 532 247 7;
#X obj 464 164 bng 15 250 50 0 empty empty empty 17 7 0 10 -262144
-1 -1;
#X obj 438 243 delay 200;
#X obj 438 296 s state;
#X msg 438 271 0;
#X obj 465 195 t b b;
#X connect 3 0 2 0;
#X connect 4 0 2 1;
#X connect 6 0 7 0;
#X connect 7 0 5 0;
#X connect 7 1 1 0;
#X connect 7 2 3 0;
#X connect 7 3 0 0;
#X connect 7 4 10 0;
#X connect 9 0 8 0;
#X connect 10 0 14 0;
#X connect 11 0 13 0;
#X connect 13 0 12 0;
#X connect 14 0 11 0;
#X connect 14 1 9 0;
#X restore 622 161 pd save-and-zero;
#N canvas 7 50 601 606 set-buf 0;
#X floatatom 140 172 5 0 0 0 - - -, f 5;
#X floatatom 225 273 5 0 0 0 - - -, f 5;
#X text 271 273 sample num;
#X obj 210 336 r duration;
#X obj 210 363 tabwrite lengths;
#X obj 377 349 s bufset;
#X obj 117 395 f;
#X obj 117 360 bng 15 250 50 0 empty empty empty 17 7 0 10 -262144
-1 -1;
#X obj 117 422 tabread lengths;
#X obj 117 450 s duration;
#X obj 73 316 s newsamp;
#X obj 73 291 bng 15 250 50 0 empty empty empty 17 7 0 10 -262144 -1
-1;
#X text 200 272 2;
#X text 143 359 3;
#X text 95 288 4;
#X floatatom 377 326 5 0 0 0 - - -, f 5;
#X obj 140 224 t b b f f, f 22;
#X obj 140 104 - 60;
#X obj 140 148 moses 0;
#X obj 140 196 change 0;
#X obj 140 127 moses 22;
#X obj 141 63 inlet;
#X connect 0 0 19 0;
#X connect 1 0 4 1;
#X connect 1 0 6 1;
#X connect 3 0 4 0;
#X connect 6 0 8 0;
#X connect 7 0 6 0;
#X connect 8 0 9 0;
#X connect 11 0 10 0;
#X connect 15 0 5 0;
#X connect 16 0 11 0;
#X connect 16 1 7 0;
#X connect 16 2 1 0;
#X connect 16 3 15 0;
#X connect 17 0 20 0;
#X connect 18 1 0 0;
#X connect 19 0 16 0;
#X connect 20 0 18 0;
#X connect 21 0 17 0;
#X restore 986 300 pd set-buf;
#X obj 710 -16 r notes;
#N canvas 309 163 1008 689 player 0;
#X obj 414 314 r duration;
#X obj 310 382 *~ 44100;
#X obj 282 95 r duration;
#X obj 282 117 / 1000;
#X floatatom 282 139 5 0 0 0 - - -, f 5;
#X obj 414 337 * 44.1;
#X obj 310 329 phasor~ 0.5;
#X floatatom 310 266 5 0 0 0 - - -, f 5;
#X obj 310 235 expr $f2 / $f1;
#X obj 310 210 pack 0 0;
#X obj 346 177 bng 15 250 50 0 empty empty empty 17 7 0 10 -262144
-1 -1;
#X floatatom 419 115 5 0 0 0 - - -, f 5;
#X obj 704 351 line~;
#X obj 704 382 *~;
#X obj 310 480 *~;
#X msg 671 317 0 5;
#X msg 704 317 1 5;
#X obj 310 577 *~ 1;
#X obj 311 417 tabread4~ itake-1;
#X obj 457 223 r bufset;
#X msg 457 272 set itake-\$1;
#X floatatom 457 249 5 0 0 0 - - -, f 5;
#X floatatom 436 376 15 0 0 0 - - -, f 15;
#X msg 384 291 0;
#X obj 669 239 r mute;
#X obj 719 239 r unmute;
#X obj 457 172 r startover;
#X obj 310 612 outlet~;
#X obj 420 24 r knob4-detent;
#X obj 418 62 * 4;
#X obj 418 86 - 2;
#X obj 129 377 threshold~ 0.9 1 0.5 1;
#X obj 198 488 bng 15 250 50 0 empty empty empty 17 7 0 10 -262144
-1 -1;
#X obj 198 512 s looped;
#X obj 396 149 t b f;
#X connect 0 0 5 0;
#X connect 1 0 18 0;
#X connect 2 0 3 0;
#X connect 3 0 4 0;
#X connect 4 0 9 0;
#X connect 5 0 1 1;
#X connect 5 0 22 0;
#X connect 6 0 1 0;
#X connect 6 0 31 0;
#X connect 7 0 6 0;
#X connect 8 0 7 0;
#X connect 9 0 8 0;
#X connect 10 0 9 0;
#X connect 11 0 34 0;
#X connect 12 0 13 0;
#X connect 12 0 13 1;
#X connect 13 0 14 1;
#X connect 14 0 17 0;
#X connect 15 0 12 0;
#X connect 16 0 12 0;
#X connect 17 0 27 0;
#X connect 18 0 14 0;
#X connect 19 0 21 0;
#X connect 20 0 18 0;
#X connect 21 0 20 0;
#X connect 23 0 6 1;
#X connect 24 0 15 0;
#X connect 25 0 16 0;
#X connect 26 0 23 0;
#X connect 28 0 29 0;
#X connect 29 0 30 0;
#X connect 30 0 11 0;
#X connect 31 1 32 0;
#X connect 32 0 33 0;
#X connect 34 0 10 0;
#X connect 34 1 9 1;
#X restore 243 406 pd player;
#X obj 884 201 t b a;
#X msg 836 270 \; unmute bang \; startover bang \; state 1 \;;
#N canvas 274 64 689 720 recorder 0;
#X obj 156 416 r~ inL;
#X obj 205 416 r~ inR;
#X msg 86 376 start \$1;
#X msg 107 428 stop;
#X obj 476 456 timer;
#X floatatom 476 478 5 0 0 0 - - -, f 5;
#X obj 476 584 +, f 5;
#X floatatom 547 519 5 0 0 0 - - -, f 5;
#X msg 549 469 0, f 5;
#X obj 529 549 f;
#X floatatom 476 627 10 0 0 0 - - -, f 10;
#X obj 251 45 r aux;
#X obj 284 141 sel 1 0;
#X obj 89 350 f;
#X obj 549 443 bng 15 250 50 0 empty empty empty 17 7 0 10 -262144
-1 -1;
#X obj 590 576 bng 15 250 50 0 empty empty empty 17 7 0 10 -262144
-1 -1;
#X obj 476 659 s duration;
#X obj 107 251 r duration;
#X obj 107 276 * 44.1;
#X obj 268 437 line~;
#X obj 155 518 *~;
#X obj 297 45 r fs;
#X obj 156 438 *~ 1;
#X obj 205 438 *~ 1;
#X obj 469 408 t b b;
#X obj 385 545 s done-rec;
#X obj 356 193 t b b;
#X msg 298 366 0;
#X obj 245 472 *~;
#X obj 266 176 t b b;
#X obj 241 227 delay 1;
#X obj 332 231 delay 5;
#X msg 247 369 1 5;
#X msg 335 396 0 5;
#X obj 241 249 t b b b;
#X obj 325 262 t b b;
#X obj 461 229 delay 5;
#X obj 126 680 tabwrite~ itake-1;
#X obj 547 328 r duration;
#X obj 529 350 f;
#X obj 529 301 r newsamp;
#X obj 476 510 t f b, f 8;
#X obj 212 536 r bufset;
#X msg 212 585 set itake-\$1;
#X floatatom 212 562 5 0 0 0 - - -, f 5;
#X obj 46 487 bang;
#X obj 400 229 s mute;
#X obj 461 261 s unmute;
#X msg 49 542 \; state 2 \;;
#X msg 44 602 \; state 1 \;;
#X connect 0 0 22 0;
#X connect 1 0 23 0;
#X connect 2 0 37 0;
#X connect 2 0 45 0;
#X connect 3 0 37 0;
#X connect 3 0 49 0;
#X connect 4 0 5 0;
#X connect 5 0 41 0;
#X connect 6 0 7 0;
#X connect 6 0 10 0;
#X connect 7 0 9 1;
#X connect 8 0 9 0;
#X connect 8 0 6 0;
#X connect 9 0 6 1;
#X connect 10 0 16 0;
#X connect 11 0 12 0;
#X connect 12 0 29 0;
#X connect 12 1 26 0;
#X connect 13 0 2 0;
#X connect 14 0 8 0;
#X connect 15 0 10 0;
#X connect 17 0 18 0;
#X connect 18 0 13 1;
#X connect 19 0 28 1;
#X connect 19 0 28 0;
#X connect 20 0 37 0;
#X connect 21 0 12 0;
#X connect 22 0 20 0;
#X connect 23 0 20 0;
#X connect 24 0 25 0;
#X connect 24 1 4 1;
#X connect 26 0 31 0;
#X connect 26 1 33 0;
#X connect 26 1 36 0;
#X connect 26 1 46 0;
#X connect 27 0 19 0;
#X connect 28 0 20 1;
#X connect 29 0 30 0;
#X connect 29 1 27 0;
#X connect 30 0 34 0;
#X connect 31 0 35 0;
#X connect 32 0 19 0;
#X connect 33 0 19 0;
#X connect 34 0 4 0;
#X connect 34 1 13 0;
#X connect 34 2 32 0;
#X connect 35 0 24 0;
#X connect 35 1 3 0;
#X connect 36 0 47 0;
#X connect 38 0 39 1;
#X connect 39 0 9 0;
#X connect 40 0 39 0;
#X connect 41 0 6 0;
#X connect 41 1 9 0;
#X connect 42 0 44 0;
#X connect 43 0 37 0;
#X connect 44 0 43 0;
#X connect 45 0 48 0;
#X restore 241 371 pd recorder;
#X msg 732 225 \; mute bang \; state 0 \;;
#X obj 1013 450 r state;
#X obj 1013 472 sel 0 1 2;
#X msg 939 530 \; led 0;
#X msg 1015 527 \; led 3;
#X msg 1086 527 \; led 1;
#X obj 1093 591 r bufset;
#X msg 1083 692 \; screenLine5 Key \$1 Playing \;;
#X obj 1092 662 f;
#X obj 1096 616 + 1;
#X obj 1288 666 f;
#X msg 1292 687 \; screenLine5 Key \$1 Recording \;;
#X obj 934 669 f;
#X msg 934 738 \; screenLine5 Key \$1 Stopped \;;
#N canvas 8 50 1297 753 detent-knob-4 0;
#X obj 683 215 bang;
#X obj 751 360 i;
#X obj 610 400 i;
#X obj 610 428 abs;
#X obj 748 289 - 0.75;
#X obj 674 143 detent 0.075;
#X obj 245 248 bang;
#X obj 172 433 i;
#X obj 172 461 abs;
#X obj 435 48 moses 0.5;
#X obj 422 72 - 1;
#X obj 422 94 abs;
#X obj 317 388 i;
#X obj 314 317 - 0.75;
#X obj 314 344 * 400;
#X obj 319 366 + 100;
#X obj 748 316 * 400;
#X obj 753 338 + 101;
#X floatatom 973 133 5 0 0 0 - - -, f 5;
#X obj 245 152 detent 0.075;
#X obj 610 350 - 0.5;
#X obj 610 371 * 400;
#X obj 172 383 - 0.5;
#X obj 172 404 * 400;
#X obj 432 196 - 1;
#X obj 432 218 abs;
#X obj 973 111 r knob4-detent;
#X obj 439 16 r knob4;
#X msg 238 274 \; screenLine4 4: Samp Speed: ORIG \;;
#X obj 433 241 s knob4-detent;
#X msg 314 421 \; screenLine4 4: Samp Speed: \$1 % \;;
#X msg 172 496 \; screenLine4 4: Samp Speed: \$1 % \;;
#X obj 712 189 s knob4-detent;
#X msg 676 241 \; screenLine4 4: Samp Speed: ORIG \;;
#X msg 752 388 \; screenLine4 4: Samp Speed: \$1 % \;;
#X msg 610 463 \; screenLine4 4: Samp Speed: \$1 % \;;
#X connect 0 0 33 0;
#X connect 1 0 34 0;
#X connect 2 0 3 0;
#X connect 3 0 35 0;
#X connect 4 0 16 0;
#X connect 5 0 20 0;
#X connect 5 0 32 0;
#X connect 5 1 0 0;
#X connect 5 1 32 0;
#X connect 5 2 4 0;
#X connect 5 2 32 0;
#X connect 6 0 28 0;
#X connect 7 0 8 0;
#X connect 8 0 31 0;
#X connect 9 0 10 0;
#X connect 9 1 5 0;
#X connect 10 0 11 0;
#X connect 11 0 19 0;
#X connect 12 0 30 0;
#X connect 13 0 14 0;
#X connect 14 0 15 0;
#X connect 15 0 12 0;
#X connect 16 0 17 0;
#X connect 17 0 1 0;
#X connect 19 0 22 0;
#X connect 19 0 24 0;
#X connect 19 1 6 0;
#X connect 19 1 24 0;
#X connect 19 2 13 0;
#X connect 19 2 24 0;
#X connect 20 0 21 0;
#X connect 21 0 2 0;
#X connect 22 0 23 0;
#X connect 23 0 7 0;
#X connect 24 0 25 0;
#X connect 25 0 29 0;
#X connect 26 0 18 0;
#X connect 27 0 9 0;
#X restore 525 378 pd detent-knob-4;
#X obj 302 481 lop~ 5;
#X obj 283 527 *~;
#X obj 240 572 *~;
#X obj 302 456 r knob2;
#X obj 490 445 r knob1;
#X obj 207 781 i;
#X obj 207 804 change -1;
#X obj 207 726 r knob1;
#X obj 441 782 i;
#X obj 441 805 change -1;
#X obj 441 727 r knob2;
#X msg 441 833 \; screenLine2 2: Output \$1 % \;;
#X obj 207 754 * 101;
#X obj 441 755 * 101;
#X msg 676 583 \; led 7 \;;
#X obj 703 473 r looped;
#X msg 736 582 \; led 3 \;;
#X obj 941 477 v state;
#X obj 703 499 v state;
#X obj 700 525 sel 1;
#X obj 736 551 delay 100;
#X obj 775 473 r state;
#X obj 775 495 bang;
#X msg 775 517 stop;
#X text 651 452 flash on loop but only while playing;
#N canvas 5 50 450 300 filter-notes 0;
#X obj 189 112 unpack;
#X obj 204 173 pack;
#X obj 189 74 inlet;
#X obj 204 195 outlet;
#X obj 162 143 moses 82;
#X connect 0 0 4 0;
#X connect 0 1 1 1;
#X connect 1 0 3 0;
#X connect 2 0 0 0;
#X connect 4 0 1 0;
#X restore 707 27 pd filter-notes;
#X msg 189 833 \; screenLine1 1: Input Monitor \$1 % \;;
#X obj 84 403;
#X obj 329 627 s~ out;
#N canvas 5 50 450 300 record-loop 0;
#N canvas 223 148 1356 788 auto-recorder 0;
#X msg 241 527 start;
#X msg 220 298 stop;
#X msg 376 466 open \$1;
#X floatatom 376 422 5 0 0 0 - - -, f 5;
#X obj 418 200 textfile;
#X obj 418 100 bng 15 250 50 0 empty empty empty 17 7 0 10 -262144
-1 -1;
#X msg 427 165 rewind;
#X obj 418 133 t b b b;
#X msg 533 334 clear;
#X obj 458 314 + 1;
#X msg 452 340 add \$1;
#X obj 397 254 t b f b;
#X obj 350 383 t b f;
#X obj 269 478 delay 100;
#X obj 221 247 r quitting;
#X obj 75 56 inlet~;
#X text 636 179 files are named incrementally by writing to a conf
file;
#X msg 490 168 read rec-bounces;
#X msg 313 326 write rec-bounces;
#X obj 82 581 writesf~ 1;
#X obj 399 54 inlet;
#X obj 563 50 inlet;
#X text 372 23 record new;
#X text 624 50 stop;
#X obj 376 444 makefilename ./Bounces/Bounces-%d.wav;
#X connect 0 0 19 0;
#X connect 1 0 19 0;
#X connect 2 0 19 0;
#X connect 3 0 24 0;
#X connect 4 0 11 0;
#X connect 5 0 7 0;
#X connect 6 0 4 0;
#X connect 7 0 4 0;
#X connect 7 1 6 0;
#X connect 7 2 17 0;
#X connect 8 0 4 0;
#X connect 9 0 10 0;
#X connect 10 0 4 0;
#X connect 11 0 18 0;
#X connect 11 1 9 0;
#X connect 11 1 12 0;
#X connect 11 2 8 0;
#X connect 12 0 13 0;
#X connect 12 1 3 0;
#X connect 13 0 0 0;
#X connect 14 0 1 0;
#X connect 15 0 19 0;
#X connect 17 0 4 0;
#X connect 18 0 4 0;
#X connect 20 0 5 0;
#X connect 21 0 1 0;
#X connect 24 0 2 0;
#X restore 116 185 pd auto-recorder;
#X obj 171 101 bng 15 250 50 0 empty empty empty 17 7 0 10 -262144
-1 -1;
#X obj 225 101 bng 15 250 50 0 empty empty empty 17 7 0 10 -262144
-1 -1;
#X obj 115 157 *~ 0.5;
#N canvas 8 50 895 703 bang-on-loop 0;
#X obj 155 163 r looped;
#X obj 233 95 r notes;
#X obj 233 117 stripnote;
#X obj 233 139 sel 83;
#X msg 233 165 1;
#X obj 233 191 tgl 15 0 empty empty empty 17 7 0 10 -262144 -1 -1 0
1;
#X obj 194 217 spigot;
#X msg 260 220 0;
#X obj 305 454 outlet;
#X obj 194 248 t b b b;
#X obj 84 283 r looped;
#X msg 162 285 1;
#X obj 162 311 tgl 15 0 empty empty empty 17 7 0 10 -262144 -1 -1 0
1;
#X obj 123 337 spigot;
#X msg 189 340 0;
#X obj 123 368 t b b b;
#X obj 159 451 outlet;
#X msg 329 208 \; led 2 \;;
#X msg 320 287 \; led 6 \;;
#X obj 314 260 delay 101;
#X text 406 267 make sure it happens after the flash;
#X connect 0 0 6 0;
#X connect 1 0 2 0;
#X connect 2 0 3 0;
#X connect 3 0 4 0;
#X connect 3 0 17 0;
#X connect 4 0 5 0;
#X connect 5 0 6 1;
#X connect 6 0 9 0;
#X connect 6 0 19 0;
#X connect 7 0 5 0;
#X connect 9 0 11 0;
#X connect 9 1 8 0;
#X connect 9 2 7 0;
#X connect 10 0 13 0;
#X connect 11 0 12 0;
#X connect 12 0 13 1;
#X connect 13 0 15 0;
#X connect 14 0 12 0;
#X connect 15 1 16 0;
#X connect 15 2 14 0;
#X connect 19 0 18 0;
#X restore 147 37 pd bang-on-loop;
#X obj 115 128 r~ out;
#X connect 1 0 0 1;
#X connect 2 0 0 2;
#X connect 3 0 0 0;
#X connect 4 0 2 0;
#X connect 4 1 1 0;
#X connect 5 0 3 0;
#X restore 1179 269 pd record-loop;
#N canvas 979 202 798 618 save-all 1;
#X obj 169 160 until;
#X obj 161 576 soundfiler;
#X obj 144 420 makefilename Loops/sound-%d.wav;
#X msg 169 117 22;
#X obj 280 199 + 1;
#X obj 169 206 f;
#X obj 167 72 t b b;
#X msg 279 120 0;
#X obj 170 35 bng 15 250 50 0 empty empty empty 17 7 0 10 -262144 -1
-1;
#X obj 217 323 tabread lengths;
#X obj 401 391 * 44.1;
#X obj 401 413 i;
#X msg 117 520 write -wave -nframes \$3 \$2 itake-\$1;
#X obj 128 476 pack f s f;
#X obj 179 -46 r notes;
#X obj 179 -24 stripnote;
#X obj 179 -2 sel 82;
#X obj 145 262 t f f f b;
#X obj 202 39 t b b b;
#X obj 362 75 s mute;
#X obj 59 98 s unmute;
#X obj 276 75 delay 10;
#X connect 0 0 5 0;
#X connect 2 0 13 1;
#X connect 3 0 0 0;
#X connect 4 0 5 1;
#X connect 5 0 4 0;
#X connect 5 0 17 0;
#X connect 6 0 3 0;
#X connect 6 1 7 0;
#X connect 7 0 5 1;
#X connect 8 0 18 0;
#X connect 9 0 10 0;
#X connect 10 0 11 0;
#X connect 11 0 13 2;
#X connect 12 0 1 0;
#X connect 13 0 12 0;
#X connect 14 0 15 0;
#X connect 15 0 16 0;
#X connect 16 0 8 0;
#X connect 17 0 13 0;
#X connect 17 1 2 0;
#X connect 17 2 9 0;
#X connect 18 0 20 0;
#X connect 18 1 21 0;
#X connect 18 2 19 0;
#X connect 21 0 6 0;
#X restore 1195 367 pd save-all;
#X msg 66 168 \; screenLine1 1: Input Monitor \; screenLine2 2: Output
\; screenLine3 3: x \; screenLine4 4: Decay \; screenLine5 Aux: Hold
to Rec \; unmute bang \; newsamp bang \; bufset 0 \; state 0 \;;
#X connect 0 0 73 0;
#X connect 3 0 9 0;
#X connect 4 0 9 0;
#X connect 7 0 8 0;
#X connect 7 0 8 1;
#X connect 8 0 9 1;
#X connect 9 0 6 0;
#X connect 9 0 5 0;
#X connect 9 0 70 0;
#X connect 10 0 16 0;
#X connect 12 0 13 0;
#X connect 16 0 27 0;
#X connect 16 1 24 0;
#X connect 17 0 19 0;
#X connect 17 1 10 0;
#X connect 19 0 20 0;
#X connect 22 0 67 0;
#X connect 23 0 44 0;
#X connect 24 0 25 0;
#X connect 24 1 21 0;
#X connect 28 0 29 0;
#X connect 28 0 59 0;
#X connect 29 0 30 0;
#X connect 29 0 39 0;
#X connect 29 1 31 0;
#X connect 29 1 35 0;
#X connect 29 2 32 0;
#X connect 29 2 37 0;
#X connect 33 0 36 0;
#X connect 35 0 34 0;
#X connect 36 0 35 1;
#X connect 36 0 37 1;
#X connect 36 0 39 1;
#X connect 37 0 38 0;
#X connect 39 0 40 0;
#X connect 42 0 43 0;
#X connect 42 0 43 1;
#X connect 43 0 44 1;
#X connect 44 0 2 0;
#X connect 44 0 1 0;
#X connect 44 0 70 0;
#X connect 45 0 42 0;
#X connect 46 0 7 0;
#X connect 47 0 48 0;
#X connect 48 0 68 0;
#X connect 49 0 54 0;
#X connect 50 0 51 0;
#X connect 51 0 53 0;
#X connect 52 0 55 0;
#X connect 54 0 47 0;
#X connect 55 0 50 0;
#X connect 57 0 60 0;
#X connect 60 0 61 0;
#X connect 61 0 56 0;
#X connect 61 0 62 0;
#X connect 62 0 58 0;
#X connect 63 0 64 0;
#X connect 64 0 65 0;
#X connect 65 0 62 0;
#X connect 67 0 17 0;
