#N canvas 144 131 1537 811 10;
#X obj 57 19 catch~ sampout;
#X obj 34 564 throw~ outL;
#X obj 134 559 throw~ outR;
#X floatatom 880 194 5 0 0 0 - - -, f 5;
#X obj 880 218 s numSounds;
#N canvas 17 67 450 300 getNumSounds 0;
#X obj 121 100 folder_list;
#X msg 120 58 symbol ./Sounds/*.wav;
#X obj 121 149 i 0;
#X obj 122 171 + 1;
#X obj 119 127 bang;
#X obj 124 -1 loadbang;
#X obj 124 21 t b b;
#X msg 183 132 0;
#X obj 121 208 outlet;
#X connect 0 0 4 0;
#X connect 1 0 0 0;
#X connect 2 0 3 0;
#X connect 3 0 2 1;
#X connect 3 0 8 0;
#X connect 4 0 2 0;
#X connect 5 0 6 0;
#X connect 6 0 1 0;
#X connect 6 1 7 0;
#X connect 7 0 2 1;
#X restore 880 159 pd getNumSounds;
#X obj 620 576 i;
#X obj 620 599 change -1;
#X obj 879 568 i;
#X obj 879 591 change -1;
#X obj 364 583 i;
#X obj 364 604 change -1;
#X obj 104 407 bob~;
#X obj 125 180 pack 0 50;
#X obj 146 228 line~;
#X obj 236 199 line~;
#X obj 232 162 pack 0 50;
#X obj 1172 430 r knob4;
#X obj 1133 597 change -1;
#X obj 1150 645 s screenLine4;
#X obj 1132 572 i;
#X obj 77 509 *~ 1;
#N canvas 9 50 862 740 recorder-player 0;
#X obj 261 414 tgl 50 0 empty empty empty 17 7 0 100 -262144 -1 -1
0 1;
#X floatatom 328 495 5 0 0 0 - - -, f 5;
#X obj 462 522 player 0;
#X floatatom 534 498 5 0 0 0 - - -, f 5;
#X obj 464 422 tgl 50 0 empty empty empty 17 7 0 100 -262144 -1 -1
1 1;
#X obj 309 198 tgl 50 0 empty empty empty 17 7 0 100 -262144 -1 -1
0 1;
#X obj 389 401 + 1, f 4;
#X msg 268 374 1;
#X obj 297 278 sel 1 0;
#X msg 307 374 0;
#X msg 507 382 0;
#X msg 471 382 1;
#X obj 331 308 t b b b b;
#X obj 330 85 r aux;
#X obj 318 156 sel 1;
#X obj 343 113 r fs, f 5;
#X obj 514 209 - 59;
#X floatatom 492 307 5 0 0 0 - - -, f 5;
#X obj 488 330 t b b f;
#X obj 548 536 - 24;
#X obj 592 537 moses 0;
#X obj 512 278 + 0;
#X obj 396 60 r notes;
#X obj 445 176 toggle-keys;
#X obj 413 87 stripnote;
#X obj 412 113 moses 60;
#X obj 445 145 moses 84;
#X obj 402 554 sel 0 1;
#X obj 203 533 sel 1;
#X msg 193 592 \; led 1;
#X msg 442 586 \; led 3;
#X msg 388 585 \; led 0;
#X obj 390 145 t b b;
#X obj 349 396 i 1;
#X obj 514 253 abs;
#X obj 514 231 - 25;
#X obj 364 347 r numSounds;
#X obj 364 369 t b f;
#X obj 392 478 ==;
#X obj 261 518 recorder 1;
#X obj 394 524 spigot 1;
#X obj 295 547 r looped;
#X obj 252 620 delay 100;
#X msg 235 564 stop;
#X msg 324 612 \; led 7;
#X obj 319 581 spigot 1;
#X msg 490 608 \; screenLine5 Playing \$1.wav \;;
#X obj 489 584 f;
#X obj 160 614 f;
#X msg 163 645 \; screenLine5 Recording \$1.wav \;;
#X msg 381 645 \; screenLine5 Stopped \;;
#X obj 528 580 print;
#X msg 406 178 60;
#X obj 278 324 t b b;
#X msg 705 381 \; screenLine5 Stopped \;;
#X obj 707 334 loadbang;
#X obj 664 112 r~ inL;
#X obj 641 191 s~ recorderin;
#X obj 615 111 r~ inR;
#X obj 641 159 *~ 1;
#X connect 0 0 28 0;
#X connect 0 0 38 0;
#X connect 0 0 39 0;
#X connect 1 0 39 1;
#X connect 1 0 48 1;
#X connect 3 0 2 1;
#X connect 3 0 47 1;
#X connect 3 0 51 0;
#X connect 4 0 2 0;
#X connect 4 0 40 0;
#X connect 5 0 8 0;
#X connect 6 0 1 0;
#X connect 6 0 33 1;
#X connect 7 0 0 0;
#X connect 8 0 53 0;
#X connect 8 1 12 0;
#X connect 9 0 0 0;
#X connect 10 0 4 0;
#X connect 11 0 4 0;
#X connect 12 0 32 0;
#X connect 12 1 33 0;
#X connect 12 2 10 0;
#X connect 12 3 9 0;
#X connect 13 0 14 0;
#X connect 14 0 5 0;
#X connect 15 0 14 0;
#X connect 16 0 35 0;
#X connect 17 0 18 0;
#X connect 18 0 11 0;
#X connect 18 1 10 0;
#X connect 18 2 3 0;
#X connect 19 0 20 0;
#X connect 20 1 21 1;
#X connect 21 0 17 0;
#X connect 22 0 24 0;
#X connect 23 0 10 0;
#X connect 23 1 16 0;
#X connect 24 0 25 0;
#X connect 25 1 26 0;
#X connect 26 0 23 0;
#X connect 27 0 31 0;
#X connect 27 0 50 0;
#X connect 27 1 30 0;
#X connect 27 1 47 0;
#X connect 28 0 29 0;
#X connect 28 0 43 0;
#X connect 28 0 48 0;
#X connect 32 0 52 0;
#X connect 32 1 23 1;
#X connect 33 0 6 0;
#X connect 33 0 19 0;
#X connect 34 0 21 0;
#X connect 35 0 34 0;
#X connect 36 0 37 0;
#X connect 37 0 33 0;
#X connect 37 1 33 1;
#X connect 38 0 40 1;
#X connect 38 0 45 1;
#X connect 40 0 27 0;
#X connect 41 0 45 0;
#X connect 42 0 30 0;
#X connect 43 0 42 0;
#X connect 45 0 44 0;
#X connect 45 0 42 0;
#X connect 47 0 46 0;
#X connect 48 0 49 0;
#X connect 52 0 23 0;
#X connect 53 0 7 0;
#X connect 53 1 10 0;
#X connect 55 0 54 0;
#X connect 56 0 59 0;
#X connect 58 0 59 0;
#X connect 59 0 57 0;
#X restore 873 100 pd recorder-player;
#X obj 364 560 * 101;
#X obj 604 544 mtof;
#X obj 554 599 s cutoff;
#X obj 122 96 r cutoff;
#X obj 257 114 * 3.8;
#X obj 151 437 r wetdry;
#N canvas 6 50 612 483 crossfade 0;
#X obj 33 48 inlet~;
#X obj 211 67 inlet;
#X obj 39 327 outlet~;
#X obj 49 194 expr cos($f1 * 3.14159 / 2);
#X obj 244 194 expr sin($f1 * 3.14159 / 2);
#X obj 211 143 clip 0 1;
#N canvas 7 50 594 632 pan_core 0;
#X obj 21 106 inlet~;
#X obj 226 126 inlet;
#X obj 59 259 *~;
#X obj 123 303 outlet~;
#X obj 189 258 *~;
#X obj 205 234 line~;
#X obj 75 234 line~;
#X obj 96 127 inlet;
#X obj 179 104 inlet~;
#X text 223 350 comment;
#X obj 75 195 pack f 5;
#X obj 205 195 pack f 5;
#X text 202 346 Hans-Christoph Steiner \, 2004;
#X text 202 332 Adapted from [pan_core~];
#X connect 0 0 2 0;
#X connect 1 0 11 0;
#X connect 2 0 3 0;
#X connect 4 0 3 0;
#X connect 5 0 4 1;
#X connect 6 0 2 1;
#X connect 7 0 10 0;
#X connect 8 0 4 0;
#X connect 10 0 6 0;
#X connect 11 0 5 0;
#X restore 39 266 pd pan_core;
#X text 165 300 Adapted from [equal_power_pan~] \, Hans-Christoph Steiner
\, 2004;
#X text 320 312 comment;
#X obj 128 46 inlet~;
#X connect 0 0 6 0;
#X connect 1 0 5 0;
#X connect 3 0 6 1;
#X connect 4 0 6 3;
#X connect 5 0 3 0;
#X connect 5 0 4 0;
#X connect 6 0 2 0;
#X connect 9 0 6 2;
#X restore 45 475 pd crossfade;
#X obj 436 569 s wetdry;
#X obj 605 524 * 120;
#X obj 349 262 osc~ 0.5;
#X obj 366 515 r knob1;
#X msg 364 633 \; screenLine1 1: Wet/Dry \$1 % \;;
#X msg 880 611 \; screenLine3 3: Resonance \$1 % \;;
#X obj 878 524 r knob3;
#X obj 604 503 r knob2;
#X msg 622 620 \; screenLine2 2: Cutoff \$1 Hz \;;
#X obj 408 87 t f f;
#X obj 381 219 line~;
#X obj 377 182 pack 0 50;
#X obj 201 343 +~;
#X obj 319 317 *~;
#X obj 413 127 * 20;
#X obj 262 281 *~ 0.3;
#X obj 1172 455 moses 0.5;
#X obj 1175 485 * 2;
#X obj 1135 552 * 20;
#X msg 1151 623 4: Mod Low \$1 Hz;
#X obj 1280 668 change -1;
#X obj 1280 722 s screenLine4;
#X obj 1279 643 i;
#X msg 1281 700 4: Mod High \$1 Hz;
#X obj 1282 622 * 20;
#X obj 1252 474 - 0.5;
#X obj 1252 500 * 2;
#X msg 1216 695 0.6;
#X obj 1135 524 t f f b;
#X obj 1236 532 t f f b;
#X msg 1166 700 0.2;
#X obj 879 547 * 101;
#X text 812 25 recroder with Filter Effect;
#X obj 810 569 s reson;
#X obj 1175 564 s mfreq;
#X obj 1283 591 s mfreq;
#X obj 1159 729 s mdepth;
#X obj 257 91 r reson;
#X floatatom 301 262 5 0 0 0 - - -, f 5;
#X obj 286 240 r mdepth;
#X obj 407 55 r mfreq;
#X obj 480 53 r mfreq;
#X connect 0 0 29 0;
#X connect 0 0 12 0;
#X connect 3 0 4 0;
#X connect 5 0 3 0;
#X connect 6 0 7 0;
#X connect 7 0 38 0;
#X connect 8 0 9 0;
#X connect 9 0 35 0;
#X connect 10 0 11 0;
#X connect 11 0 34 0;
#X connect 12 0 29 1;
#X connect 13 0 14 0;
#X connect 14 0 42 0;
#X connect 14 0 45 0;
#X connect 15 0 12 2;
#X connect 16 0 15 0;
#X connect 17 0 46 0;
#X connect 18 0 49 0;
#X connect 20 0 18 0;
#X connect 21 0 1 0;
#X connect 21 0 2 0;
#X connect 23 0 10 0;
#X connect 24 0 6 0;
#X connect 24 0 25 0;
#X connect 26 0 13 0;
#X connect 27 0 16 0;
#X connect 28 0 29 2;
#X connect 29 0 21 0;
#X connect 31 0 24 0;
#X connect 32 0 43 1;
#X connect 33 0 23 0;
#X connect 33 0 30 0;
#X connect 36 0 61 0;
#X connect 36 0 63 0;
#X connect 37 0 31 0;
#X connect 39 0 44 0;
#X connect 40 0 32 0;
#X connect 41 0 40 0;
#X connect 42 0 12 1;
#X connect 43 0 42 1;
#X connect 44 0 41 0;
#X connect 45 0 43 0;
#X connect 46 0 47 0;
#X connect 46 1 55 0;
#X connect 47 0 58 0;
#X connect 48 0 20 0;
#X connect 49 0 19 0;
#X connect 50 0 53 0;
#X connect 52 0 50 0;
#X connect 53 0 51 0;
#X connect 54 0 52 0;
#X connect 55 0 56 0;
#X connect 56 0 59 0;
#X connect 57 0 66 0;
#X connect 58 0 48 0;
#X connect 58 1 64 0;
#X connect 58 2 60 0;
#X connect 59 0 54 0;
#X connect 59 1 65 0;
#X connect 59 2 57 0;
#X connect 60 0 66 0;
#X connect 61 0 8 0;
#X connect 67 0 27 0;
#X connect 69 0 45 1;
#X connect 69 0 68 0;
#X connect 70 0 39 0;
#X connect 71 0 39 0;
