#N canvas 133 50 1371 914 10;
#X obj 197 603 phasor~;
#X obj 197 359 expr 1000 / $f1;
#X obj 197 437 *, f 6;
#X obj 209 410 t b f;
#X obj 75 255 array size;
#X msg 75 153 \$1.wav-array-\$2;
#X obj 75 129 pack 0 \$1;
#X obj 142 232 route list;
#X obj 75 17 inlet;
#X obj 75 81 unpack 0 0, f 54;
#X obj 432 131 sel 0, f 17;
#X obj 548 361 vline~;
#X obj 547 391 *~;
#X obj 548 294 * 0.00787402;
#X obj 196 766 *~, f 27;
#X text 663 9 plays a sound file;
#X text 661 31 arg1: Module Number;
#X obj 196 652 *~ 140688;
#X obj 196 739 *~, f 20;
#X obj 332 701 tabread4~ crown;
#X obj 331 652 *~ 22016;
#X text 222 741 clickless window;
#X obj 196 701 tabread4~;
#X text 313 767 envelope;
#X msg 548 324 \$1 4;
#X obj 734 594 switch~;
#X msg 478 289 0 \$1;
#X obj 478 262 f;
#X obj 432 264 del;
#X obj 450 237 + 4;
#X obj 432 153 t b b, f 7;
#X msg 734 179 1;
#X msg 432 286 0;
#X obj 197 816 hip~ 5;
#X text 246 815 cut DC;
#X text 772 179 turn on dsp;
#X text 530 266 Velocity Relative Trigger;
#X text 414 310 turn dsp off;
#X obj 548 153 t f b b, f 27;
#X obj 197 844 throw~ s24-\$1-voice-out;
#X obj 209 384 r \$1-playback;
#X obj 496 206 r \$1-release;
#X obj 243 547 f;
#X text 155 258 get size of chosen array;
#X text 32 526 point to new array;
#X obj 75 178 t b a a, f 12;
#X obj 142 210 list prepend symbol;
#X obj 51 554 list prepend set;
#X obj 51 576 route list;
#X obj 197 337 / 44.1;
#X obj 261 479 r \$1-start-point, f 17;
#X obj 261 501 * 0.01;
#X text 597 172 reset phasor;
#X obj 159 292 t b;
#X obj 432 108 f;
#X obj 197 525 vline~;
#X msg 197 489 \$1 40;
#X obj 152 467 f;
#X msg 152 489 \$1 0;
#X obj 258 424 t b b;
#X connect 0 0 17 0;
#X connect 0 0 20 0;
#X connect 1 0 2 0;
#X connect 2 0 56 0;
#X connect 2 0 57 1;
#X connect 3 0 2 0;
#X connect 3 1 2 1;
#X connect 4 0 49 0;
#X connect 4 0 17 1;
#X connect 4 0 53 0;
#X connect 5 0 45 0;
#X connect 6 0 5 0;
#X connect 7 0 4 1;
#X connect 8 0 9 0;
#X connect 9 0 6 0;
#X connect 9 1 54 1;
#X connect 10 0 30 0;
#X connect 10 1 38 0;
#X connect 11 0 12 1;
#X connect 11 0 12 0;
#X connect 12 0 14 1;
#X connect 13 0 24 0;
#X connect 14 0 33 0;
#X connect 17 0 22 0;
#X connect 18 0 14 0;
#X connect 19 0 18 1;
#X connect 20 0 19 0;
#X connect 22 0 18 0;
#X connect 24 0 11 0;
#X connect 26 0 11 0;
#X connect 27 0 26 0;
#X connect 28 0 32 0;
#X connect 29 0 28 1;
#X connect 30 0 28 0;
#X connect 30 1 27 0;
#X connect 31 0 25 0;
#X connect 32 0 25 0;
#X connect 33 0 39 0;
#X connect 38 0 13 0;
#X connect 38 1 59 0;
#X connect 38 2 31 0;
#X connect 40 0 3 0;
#X connect 41 0 29 0;
#X connect 41 0 27 1;
#X connect 42 0 0 1;
#X connect 45 0 4 0;
#X connect 45 1 46 0;
#X connect 45 2 47 0;
#X connect 46 0 7 0;
#X connect 47 0 48 0;
#X connect 48 0 22 0;
#X connect 49 0 1 0;
#X connect 50 0 51 0;
#X connect 51 0 42 1;
#X connect 53 0 54 0;
#X connect 54 0 10 0;
#X connect 55 0 0 0;
#X connect 56 0 55 0;
#X connect 57 0 58 0;
#X connect 58 0 55 0;
#X connect 59 0 57 0;
#X connect 59 1 42 0;
