#N canvas 402 171 1185 798 10;
#X declare -path sounds;
#X obj 725 284 f;
#X obj 725 404 int;
#X obj 862 380 int;
#X obj 862 336 * 4.48;
#X obj 862 358 * 100;
#X obj 725 354 * -1;
#X obj 725 384 * 100;
#X obj 725 332 * 4.46;
#X obj 612 462 f;
#X msg 762 435 Samp Speed 0%;
#X msg 861 472 Samp Speed \$1%;
#X obj 725 310 detent 0.05;
#N canvas 1088 542 301 289 load 0;
#X obj 8 31 load-24 2.wav 1;
#X obj 8 11 load-24 1.wav 1;
#X obj 8 51 load-24 3.wav 1;
#X obj 8 71 load-24 4.wav 1;
#X obj 8 91 load-24 5.wav 1;
#X obj 8 111 load-24 6.wav 1;
#X obj 8 131 load-24 7.wav 1;
#X obj 8 151 load-24 8.wav 1;
#X obj 8 171 load-24 9.wav 1;
#X obj 8 191 load-24 10.wav 1;
#X obj 8 211 load-24 11.wav 1;
#X obj 8 231 load-24 12.wav 1;
#X obj 138 11 load-24 13.wav 1;
#X obj 138 31 load-24 14.wav 1;
#X obj 138 51 load-24 15.wav 1;
#X obj 138 71 load-24 16.wav 1;
#X obj 138 91 load-24 17.wav 1;
#X obj 138 111 load-24 18.wav 1;
#X obj 138 131 load-24 19.wav 1;
#X obj 138 151 load-24 20.wav 1;
#X obj 138 171 load-24 21.wav 1;
#X obj 138 191 load-24 22.wav 1;
#X obj 138 211 load-24 23.wav 1;
#X obj 138 231 load-24 24.wav 1;
#X restore 4 33 pd load sounds;
#X obj 4 11 declare -path sounds;
#X obj 4 260 % 24;
#X obj 4 234 abs;
#X obj 4 193 expr if ($f1 > 59 \, $f1 - 60 \, $f1 - 12);
#X text 10 213 allow all midi notes to trigger samples...;
#X obj 4 312 pack 0 0, f 10;
#X obj 4 151 unpack 0 0;
#N canvas 653 309 569 137 crown 0;
#X obj 5 96 table crown 22050;
#X msg 5 46 \; crown read window.txt;
#X obj 5 21 loadbang;
#X text 82 10 a window for clickless looping;
#X text 194 52 do not delete window.txt in this patch folder :);
#X connect 2 0 1 0;
#X restore 4 79 pd crown window;
#X text 122 78 clickless looping;
#X obj 4 124 r s24-\$1-notes-in;
#X text 99 294 Notes in to Sampler Player;
#X text 116 33 Loads samples to Ram;
#X obj 13 594 catch~ s24-\$1-voice-out;
#X obj 13 646 s~ s24-\$1-outL;
#X obj 123 646 s~ s24-\$1-outR;
#X obj 612 513 s \$1-playback;
#X obj 725 217 r s24-\$1-speed;
#X obj 725 513 s s24-\$1-speed-label;
#X obj 12 440 int;
#X msg 105 485 Release \$1 ms;
#X obj 105 510 s s24-\$1-release-label;
#X obj 12 396 r s24-\$1-release;
#X obj 12 510 s \$1-release;
#X obj 306 441 int;
#X obj 306 372 t f f;
#X obj 306 394 *;
#X obj 306 511 s \$1-start-point;
#X obj 306 350 r s24-\$1-start;
#X obj 439 511 s s24-\$1-start-label;
#X obj 4 282 + 1;
#X msg 725 471 Samp Speed \$1%;
#X msg 439 486 Start \$1 %;
#X obj 306 419 * 101;
#N canvas 81 79 1328 517 Battleship 0;
#X obj 84 173 poly 24 1, f 10;
#X obj 84 195 pack 0 0 0;
#X obj 84 226 route 1 2 3 4 5 6 7 8 9 10 11 12 13 14 15 16 17 18 19
20 21 22 23 24, f 149;
#X obj 84 122 inlet;
#X obj 84 251 s24-voice 1;
#X obj 462 271 s24-voice 1;
#X obj 552 271 s24-voice 1;
#X obj 372 271 s24-voice 1;
#X obj 192 271 s24-voice 1;
#X obj 642 271 s24-voice 1;
#X obj 732 271 s24-voice 1;
#X obj 624 251 s24-voice 1;
#X obj 102 271 s24-voice 1;
#X obj 174 251 s24-voice 1;
#X obj 264 251 s24-voice 1;
#X obj 282 271 s24-voice 1;
#X obj 354 251 s24-voice 1;
#X obj 444 251 s24-voice 1;
#X obj 534 251 s24-voice 1;
#X obj 714 251 s24-voice 1;
#X obj 804 251 s24-voice 1;
#X obj 822 271 s24-voice 1;
#X obj 894 251 s24-voice 1;
#X obj 912 271 s24-voice 1;
#X obj 984 251 s24-voice 1;
#X obj 1002 271 s24-voice 1;
#X obj 1074 251 s24-voice 1;
#X obj 1092 271 s24-voice 1;
#X connect 0 0 1 0;
#X connect 0 1 1 1;
#X connect 0 2 1 2;
#X connect 1 0 2 0;
#X connect 2 0 4 0;
#X connect 2 1 12 0;
#X connect 2 2 13 0;
#X connect 2 3 8 0;
#X connect 2 4 14 0;
#X connect 2 5 15 0;
#X connect 2 6 16 0;
#X connect 2 7 7 0;
#X connect 2 8 17 0;
#X connect 2 9 5 0;
#X connect 2 10 18 0;
#X connect 2 11 6 0;
#X connect 2 12 11 0;
#X connect 2 13 9 0;
#X connect 2 14 19 0;
#X connect 2 15 10 0;
#X connect 2 16 20 0;
#X connect 2 17 21 0;
#X connect 2 18 22 0;
#X connect 2 19 23 0;
#X connect 2 20 24 0;
#X connect 2 21 25 0;
#X connect 2 22 26 0;
#X connect 2 23 27 0;
#X connect 3 0 0 0;
#X restore 4 342 pd Battleship;
#X obj 12 418 * 1002;
#X connect 0 0 11 0;
#X connect 1 0 43 0;
#X connect 2 0 10 0;
#X connect 3 0 4 0;
#X connect 3 0 8 0;
#X connect 4 0 2 0;
#X connect 5 0 6 0;
#X connect 5 0 8 0;
#X connect 6 0 1 0;
#X connect 7 0 5 0;
#X connect 8 0 28 0;
#X connect 9 0 30 0;
#X connect 10 0 30 0;
#X connect 11 0 7 0;
#X connect 11 1 9 0;
#X connect 11 1 8 0;
#X connect 11 2 3 0;
#X connect 14 0 42 0;
#X connect 15 0 14 0;
#X connect 16 0 15 0;
#X connect 18 0 46 0;
#X connect 19 0 16 0;
#X connect 19 1 18 1;
#X connect 22 0 19 0;
#X connect 25 0 26 0;
#X connect 25 0 27 0;
#X connect 29 0 0 0;
#X connect 31 0 32 0;
#X connect 31 0 35 0;
#X connect 32 0 33 0;
#X connect 34 0 47 0;
#X connect 36 0 44 0;
#X connect 36 0 39 0;
#X connect 37 0 38 0;
#X connect 37 1 38 1;
#X connect 38 0 45 0;
#X connect 40 0 37 0;
#X connect 42 0 18 0;
#X connect 43 0 30 0;
#X connect 44 0 41 0;
#X connect 45 0 36 0;
#X connect 47 0 31 0;
