#N canvas 179 25 1244 695 10;
#X obj 53 17 loadbang;
#X obj 841 183 master-metronome;
#X obj 841 148 tgl 15 0 empty empty empty 17 7 0 10 -262144 -1 -1 1
1;
#X obj 841 81 loadbang;
#X msg 841 113 1;
#X obj 950 119 * 250;
#X obj 950 147 + 10;
#X obj 1042 235 i;
#X obj 1042 257 change -1;
#X obj 784 235 i;
#X obj 784 257 change -1;
#X msg 1042 281 \; screenLine1 1: Tempo \$1 BPM \;;
#X msg 784 281 \; screenLine1 1: Tempo \$1 BPM MIDI \;;
#X floatatom 157 183 5 0 0 0 - - -, f 5;
#X floatatom 249 269 5 0 0 0 - - -, f 5;
#X msg 1031 84 120;
#X text 398 26 1 \, 1/2 \, 1/3 \, 1/4 \, 1/5 \, 1/6 \, 1/7 \, 1/8;
#X floatatom 986 180 5 0 0 0 - - -, f 5;
#X obj 450 56 r 24ppq;
#X obj 653 122 s phasor-reset;
#X obj 517 122 s base-rhythm-freq;
#X obj 61 265 s base-harmonic-freq;
#X obj 157 207 s tone;
#X obj 249 297 s decay;
#N canvas 0 22 703 371 24-pulses-to-phasor 0;
#X floatatom 160 65 5 0 0 0 - - -, f 5;
#X obj 127 173 timer;
#X obj 160 90 sel 0;
#X obj 160 118 t b b b;
#X msg 260 199 0;
#X floatatom 120 225 5 0 0 0 - - -, f 5;
#X obj 120 203 expr 1/($f1 / 1000);
#X obj 166 29 inlet;
#X obj 143 293 phasor~;
#X obj 143 333 outlet~;
#X obj 266 319 outlet;
#X obj 330 321 outlet;
#X text 300 112 input 24 pulses per quarter note count (0-23) \, output
a phasor \, frequency \, rollover.;
#X connect 0 0 2 0;
#X connect 1 0 6 0;
#X connect 2 0 3 0;
#X connect 3 0 1 0;
#X connect 3 1 1 1;
#X connect 3 2 4 0;
#X connect 4 0 8 1;
#X connect 4 0 11 0;
#X connect 5 0 8 0;
#X connect 5 0 10 0;
#X connect 6 0 5 0;
#X connect 7 0 0 0;
#X connect 8 0 9 0;
#X restore 450 85 pd 24-pulses-to-phasor;
#X obj 383 123 s~ base-rhythm-phasor;
#X obj 68 583 catch~ voice-out;
#X obj 508 252 s rhythmicon-notes;
#X msg 513 211 60 100;
#X msg 565 214 60 0;
#X obj 88 376 rhythmicon-voice 1 60;
#X obj 87 401 rhythmicon-voice 2 61;
#X obj 86 429 rhythmicon-voice 3 62;
#X obj 85 454 rhythmicon-voice 4 63;
#X obj 87 483 rhythmicon-voice 5 64;
#X obj 86 508 rhythmicon-voice 6 65;
#X obj 236 374 rhythmicon-voice 7 66;
#X obj 235 399 rhythmicon-voice 8 67;
#X obj 234 427 rhythmicon-voice 9 68;
#X obj 233 452 rhythmicon-voice 10 69;
#X obj 235 481 rhythmicon-voice 11 70;
#X obj 234 506 rhythmicon-voice 12 71;
#X obj 384 372 rhythmicon-voice 13 72;
#X obj 383 397 rhythmicon-voice 14 73;
#X obj 382 425 rhythmicon-voice 15 74;
#X obj 381 450 rhythmicon-voice 16 75;
#X obj 383 479 rhythmicon-voice 17 76;
#X obj 382 504 rhythmicon-voice 18 77;
#X obj 534 373 rhythmicon-voice 19 78;
#X obj 533 398 rhythmicon-voice 20 79;
#X obj 532 426 rhythmicon-voice 21 80;
#X obj 531 451 rhythmicon-voice 22 81;
#X obj 533 480 rhythmicon-voice 23 82;
#X obj 532 505 rhythmicon-voice 24 83;
#X obj 70 623 *~ 0.1;
#X obj 467 180 r notes;
#X msg 53 48 \; screenLine1 1: x \; screenLine2 2: x \; screenLine3
3: x \; screenLine4 4: x \; screenLine5 Aux / FS: x \;;
#X obj 61 153 r knob1;
#X obj 61 219 mtof;
#X floatatom 61 241 5 0 0 0 - - -, f 5;
#X obj 61 197 + 20;
#X obj 61 175 * 48;
#X obj 950 97 r knob2;
#X obj 157 157 r knob3;
#X obj 254 154 r knob4;
#X obj 254 180 t f f;
#X obj 254 202 *;
#X obj 61 658 throw~ outL;
#X obj 151 654 throw~ outR;
#X obj 218 626 dac~;
#X obj 253 230 * 1000;
#X connect 0 0 56 0;
#X connect 2 0 1 0;
#X connect 3 0 4 0;
#X connect 4 0 2 0;
#X connect 5 0 6 0;
#X connect 6 0 1 1;
#X connect 6 0 17 0;
#X connect 7 0 8 0;
#X connect 8 0 11 0;
#X connect 9 0 10 0;
#X connect 10 0 12 0;
#X connect 13 0 22 0;
#X connect 14 0 23 0;
#X connect 18 0 24 0;
#X connect 24 0 25 0;
#X connect 24 1 20 0;
#X connect 24 2 19 0;
#X connect 26 0 54 0;
#X connect 26 0 69 0;
#X connect 26 0 69 1;
#X connect 28 0 27 0;
#X connect 29 0 27 0;
#X connect 54 0 67 0;
#X connect 54 0 68 0;
#X connect 55 0 27 0;
#X connect 57 0 61 0;
#X connect 58 0 59 0;
#X connect 59 0 21 0;
#X connect 60 0 58 0;
#X connect 61 0 60 0;
#X connect 62 0 5 0;
#X connect 63 0 13 0;
#X connect 64 0 65 0;
#X connect 65 0 66 0;
#X connect 65 1 66 1;
#X connect 66 0 70 0;
#X connect 70 0 14 0;
