#N canvas 0 22 534 393 10;
#X obj 130 128 bng 15 250 50 0 empty empty empty 17 7 0 10 -262144
-1 -1;
#X obj 204 148 r tone;
#X obj 167 125 r base-harmonic-freq;
#X obj 265 153 r decay;
#X obj 118 47 r~ base-rhythm-phasor;
#X obj 131 362 throw~ voice-out;
#X obj 151 335 *~;
#X obj 131 89 phasebang \$1;
#X obj 130 188 voice \$1, f 21;
#X obj 191 299 line~;
#X obj 298 48 r rhythmicon-notes;
#X obj 343 143 sel \$2;
#X obj 349 104 unpack;
#X obj 393 175 f;
#X obj 305 213 sel 0;
#X obj 332 237 bang;
#X msg 332 259 1 10;
#X msg 285 254 0 10;
#X connect 0 0 8 0;
#X connect 1 0 8 2;
#X connect 2 0 8 1;
#X connect 3 0 8 3;
#X connect 4 0 7 0;
#X connect 6 0 5 0;
#X connect 7 0 0 0;
#X connect 8 0 6 0;
#X connect 9 0 6 1;
#X connect 10 0 12 0;
#X connect 11 0 13 0;
#X connect 12 0 11 0;
#X connect 12 1 13 1;
#X connect 13 0 14 0;
#X connect 14 0 17 0;
#X connect 14 1 15 0;
#X connect 15 0 16 0;
#X connect 16 0 9 0;
#X connect 17 0 9 0;
