#N canvas 421 22 1336 799 10;
#X obj 592 539 f;
#X obj 575 419 bng 15 250 50 0 empty empty empty 17 7 0 10 -262144
-1 -1;
#X obj 308 696 *~;
#X obj 308 748 outlet~;
#X obj 309 595 s_buzz;
#X obj 591 659 *~;
#X obj 350 385 -~ 1;
#X obj 350 407 abs~;
#X obj 349 451 *~;
#X obj 347 533 *~;
#X obj 349 324 /~ 5000;
#X obj 349 355 clip~ 0 5000;
#X text 412 312 sorta arbitrary scale of harmonic content amount to
avoid aliasing... assumes 44.1k sampling rate .....;
#X obj 426 469 *~ 0.8;
#X obj 592 596 vline~;
#X msg 592 566 0 2 \, 1 5 1 \, 0 \$1 6;
#X obj 307 30 inlet;
#X obj 489 32 inlet;
#X obj 823 24 inlet;
#X text 534 32 freq;
#X text 352 30 go!;
#X text 863 28 decay;
#X obj 659 31 inlet;
#X obj 317 222 line~;
#X msg 321 168 \$1 10;
#X text 704 31 tone;
#X obj 438 433 line~;
#X msg 442 400 \$1 10;
#X obj 308 285 *~ \$1;
#X text 158 44 Oneshot Synth Voice;
#X text 206 278 freq scale;
#X connect 0 0 15 0;
#X connect 1 0 0 0;
#X connect 2 0 3 0;
#X connect 4 0 2 0;
#X connect 5 0 2 1;
#X connect 6 0 7 0;
#X connect 7 0 8 1;
#X connect 7 0 8 0;
#X connect 8 0 9 0;
#X connect 9 0 4 1;
#X connect 10 0 11 0;
#X connect 11 0 6 0;
#X connect 13 0 9 1;
#X connect 14 0 5 1;
#X connect 14 0 5 0;
#X connect 15 0 14 0;
#X connect 16 0 1 0;
#X connect 17 0 24 0;
#X connect 18 0 0 1;
#X connect 22 0 27 0;
#X connect 23 0 28 0;
#X connect 24 0 23 0;
#X connect 26 0 13 0;
#X connect 27 0 26 0;
#X connect 28 0 4 0;
#X connect 28 0 10 0;
