#N canvas 281 248 1268 796 10;
#X obj 14 111 soundfiler;
#X obj 17 7 loadbang;
#X obj 231 113 table vloop-\$1-sound;
#X obj 14 202 array-waveform-print vloop-\$1-sound;
#X obj 14 57 f \$1;
#X obj 102 3 bng 15 250 50 0 empty empty empty 17 7 0 10 -262144 -1
-1;
#X msg 14 84 read -resize 1.wav vloop-\$1-sound;
#X obj 46 178 s vloop-\$1-sound-length;
#X obj 725 362 s vloop-\$1-end-local;
#X obj 496 362 s vloop-\$1-start-local;
#X obj 26 647 s vloop-\$1-speed-local;
#X obj 16 308 crown-window vloop \$1;
#X text 170 309 clickless loop table;
#X obj 14 133 t b f;
#X obj 725 293 *;
#X obj 743 250 r vloop-\$1-sound-length, f 21;
#X obj 46 155 / 44.1;
#X obj 725 315 i;
#X obj 725 337 + 5;
#X obj 26 579 r vloop-\$1-speed;
#X obj 22 489 vloop-voice \$1;
#X obj 208 647 s vloop-\$1-release-local;
#X obj 208 598 loadbang;
#X obj 22 398 r vloop-\$1-notes-in;
#X obj 22 442 pack 0 0 0;
#X msg 208 620 200;
#X obj 689 651 s oscOut;
#X obj 683 423 t b f;
#X obj 683 455 pack 0 0;
#X msg 689 591 /oled/gInvertArea 0 \$1 0 \$2 64 1;
#X obj 496 293 *;
#X obj 514 250 r vloop-\$1-sound-length, f 21;
#X obj 496 315 i;
#X obj 683 232 * 128;
#X obj 448 223 * 128;
#X obj 725 65 r vloop-\$1-end;
#X obj 496 64 r vloop-\$1-start;
#X obj 496 136 max 0;
#X obj 725 137 max 0;
#X obj 496 158 min;
#X obj 725 159 min;
#X obj 496 180 t f f;
#X obj 725 181 t f f;
#X obj 528 203 expr 1 - $f1;
#X obj 757 204 expr 1 - $f1;
#X obj 448 245 i;
#X obj 683 254 i;
#X obj 683 276 + 1;
#X obj 735 536 list;
#X obj 689 618 t a a, f 18;
#X obj 735 558 route list;
#X obj 754 450 loadbang;
#X msg 760 509 0;
#X obj 22 464 route 1 2, f 43;
#X obj 22 420 poly 2 1, f 10;
#X obj 171 490 vloop-voice \$1;
#X obj 26 603 * 4;
#X obj 26 625 - 2;
#X text 205 419 loop voices;
#X text 811 636 previous area to invert(erase);
#X text 794 510 erase old session list;
#X obj 496 86 m_speedlimit 50;
#X obj 725 88 m_speedlimit 50;
#X text 94 112 read soundfile;
#X text 14 227 than print to screen;
#X msg 564 587 /oled/gFlip 3;
#X obj 689 514 t l b, f 7;
#X obj 659 543 t b l;
#X msg 272 171 /oled/gShowInfoBar 3 0;
#X obj 14 36 t b b;
#X connect 0 0 13 0;
#X connect 1 0 69 0;
#X connect 4 0 6 0;
#X connect 5 0 69 0;
#X connect 6 0 0 0;
#X connect 13 0 3 0;
#X connect 13 1 16 0;
#X connect 14 0 17 0;
#X connect 15 0 14 1;
#X connect 16 0 7 0;
#X connect 17 0 18 0;
#X connect 18 0 8 0;
#X connect 19 0 56 0;
#X connect 22 0 25 0;
#X connect 23 0 54 0;
#X connect 24 0 53 0;
#X connect 25 0 21 0;
#X connect 27 0 28 0;
#X connect 27 1 28 1;
#X connect 28 0 66 0;
#X connect 29 0 49 0;
#X connect 30 0 32 0;
#X connect 31 0 30 1;
#X connect 32 0 9 0;
#X connect 33 0 46 0;
#X connect 34 0 45 0;
#X connect 35 0 62 0;
#X connect 36 0 61 0;
#X connect 37 0 39 0;
#X connect 38 0 40 0;
#X connect 39 0 41 0;
#X connect 40 0 42 0;
#X connect 41 0 30 0;
#X connect 41 0 34 0;
#X connect 41 1 43 0;
#X connect 42 0 14 0;
#X connect 42 0 33 0;
#X connect 42 1 44 0;
#X connect 43 0 40 1;
#X connect 44 0 39 1;
#X connect 45 0 28 0;
#X connect 46 0 47 0;
#X connect 47 0 27 0;
#X connect 48 0 50 0;
#X connect 49 0 26 0;
#X connect 49 1 48 1;
#X connect 50 0 26 0;
#X connect 51 0 52 0;
#X connect 52 0 48 1;
#X connect 53 0 20 0;
#X connect 53 1 55 0;
#X connect 54 0 24 0;
#X connect 54 1 24 1;
#X connect 54 2 24 2;
#X connect 56 0 57 0;
#X connect 57 0 10 0;
#X connect 61 0 37 0;
#X connect 62 0 38 0;
#X connect 65 0 26 0;
#X connect 66 0 67 0;
#X connect 66 1 48 0;
#X connect 67 0 65 0;
#X connect 67 1 29 0;
#X connect 68 0 26 0;
#X connect 69 0 4 0;
#X connect 69 1 68 0;
