#N canvas 16 50 1763 904 10;
#X obj 177 91 expr 1000 / $f1;
#X obj 177 211 *, f 6;
#X obj 189 152 t b f;
#X obj 509 66 sel 0, f 17;
#X obj 625 309 vline~;
#X obj 625 339 *~;
#X obj 625 242 * 0.00787402;
#X obj 126 752 *~, f 35;
#X obj 126 725 *~, f 27;
#X obj 311 602 *~ 22016;
#X text 152 727 clickless window;
#X msg 555 234 0 \$1;
#X obj 555 207 f;
#X obj 509 209 del;
#X obj 527 183 + 4;
#X obj 509 108 t b b, f 7;
#X msg 811 157 1;
#X msg 509 231 0;
#X obj 127 792 hip~ 5;
#X text 176 791 cut DC;
#X text 849 154 turn on dsp;
#X text 717 240 Velocity Relative Trigger;
#X text 498 255 turn dsp off;
#X obj 625 111 t f b b, f 27;
#X text 674 130 reset phasor;
#X text 195 753 release envelope;
#X msg 625 272 \$1 4;
#X obj 177 320 s_vphasor;
#X obj 237 294 0;
#X obj 311 660 *~;
#X obj 125 700 tabread4~ vloop-\$1-sound;
#X obj 145 457 samphold~, f 10;
#X obj 127 480 *~;
#X obj 127 502 +~ 1;
#X obj 145 641 samphold~, f 14;
#X obj 126 672 +~;
#X obj 127 820 throw~ vloop-\$1-voice-out;
#X obj 189 126 r vloop-\$1-speed-local;
#X obj 177 183 f;
#X obj 311 628 tabread4~ vloop-\$1-crown;
#X obj 145 432 * 44.1;
#X obj 145 569 * 44.1;
#X obj 145 527 r vloop-\$1-start-local;
#X obj 145 45 r vloop-\$1-end-local;
#X obj 176 356 s~ \$0-phase;
#X obj 211 424 r~ \$0-phase;
#X obj 311 574 r~ \$0-phase;
#X obj 625 361 s~ \$0-release;
#X obj 367 729 r~ \$0-release;
#X obj 573 157 r vloop-\$1-release-local;
#X obj 442 8 inlet;
#X obj 442 30 unpack 0 0;
#X obj 145 67 t f f;
#X msg 145 593 \$1 100;
#X obj 145 615 line~;
#X connect 0 0 38 0;
#X connect 1 0 27 0;
#X connect 2 0 38 0;
#X connect 2 1 1 1;
#X connect 3 0 15 0;
#X connect 3 1 23 0;
#X connect 4 0 5 1;
#X connect 4 0 5 0;
#X connect 5 0 47 0;
#X connect 6 0 26 0;
#X connect 7 0 18 0;
#X connect 8 0 7 0;
#X connect 9 0 39 0;
#X connect 11 0 4 0;
#X connect 12 0 11 0;
#X connect 13 0 17 0;
#X connect 14 0 13 1;
#X connect 15 0 13 0;
#X connect 15 1 12 0;
#X connect 18 0 36 0;
#X connect 23 0 6 0;
#X connect 23 1 28 0;
#X connect 23 2 16 0;
#X connect 26 0 4 0;
#X connect 27 0 44 0;
#X connect 28 0 27 1;
#X connect 29 0 8 1;
#X connect 30 0 8 0;
#X connect 31 0 32 1;
#X connect 32 0 33 0;
#X connect 33 0 35 0;
#X connect 34 0 35 1;
#X connect 35 0 30 0;
#X connect 37 0 2 0;
#X connect 38 0 1 0;
#X connect 39 0 29 0;
#X connect 39 0 29 1;
#X connect 40 0 31 0;
#X connect 41 0 53 0;
#X connect 42 0 41 0;
#X connect 43 0 52 0;
#X connect 45 0 31 1;
#X connect 45 0 32 0;
#X connect 46 0 9 0;
#X connect 46 0 34 1;
#X connect 48 0 7 1;
#X connect 49 0 14 0;
#X connect 49 0 12 1;
#X connect 50 0 51 0;
#X connect 51 1 3 0;
#X connect 52 0 40 0;
#X connect 52 1 0 0;
#X connect 53 0 54 0;
#X connect 54 0 34 0;
