#N canvas 27 94 1187 525 10;
#X declare -path patchmenu;
#X declare -path ./Rhodey;
#X declare -path ./Rhodey/rj;
#X declare -path ./Rhodey/rj;
#X declare -path ./Rhodey/rj;
#X declare -path ./Rhodey/rj;
#X declare -path ./Rhodey/rj;
#X declare -path ./Rhodey/rj;
#X declare -path ./Rhodey/rj;
#X declare -path ./Rhodey/rj;
#X declare -path ./MasterMetro;
#X obj 75 49 declare -path patchmenu;
#X obj 75 230 patchmenu;
#X obj 107 143 s enableSubMenu;
#X obj 75 71 loadbang;
#X msg 75 143 0;
#X obj 75 120 t b b;
#X obj 41 50 bng 15 250 50 0 empty empty empty 17 7 0 10 -262144 -1
-1;
#N canvas 19 68 884 546 mapping 0;
#X obj 417 348 throw~ outL;
#X obj 551 348 throw~ outR;
#X text 411 66 MIDI (keys) Routing;
#X text 424 13 control routing;
#X text 420 202 Audio Routing (Serial);
#X text 84 87 Page 1 - FX-13;
#X text 88 222 Page 2 -;
#X obj 88 258 map-knob 2 1 rhd-1-tone;
#X obj 85 286 map-knob 2 2 rhd-1-mod;
#X obj 88 309 map-knob 2 3 rhd-1-decay;
#X obj 86 332 map-knob 2 4 rhd-1-trans;
#X obj 472 87 r notes;
#X obj 474 117 s rhd-1-notes-in;
#X obj 418 227 r~ rhd-1-outL;
#X obj 85 149 map-knob 1 2 asdf;
#X obj 80 172 map-knob 1 3 asdf;
#X obj 84 195 map-knob 1 4 asdf;
#X obj 85 121 map-knob 1 1 mm-bpmDial;
#X connect 11 0 12 0;
#X connect 13 0 0 0;
#X connect 13 0 1 0;
#X restore 485 208 pd mapping;
#X msg 33 201 1;
#X obj 33 169 delay 3000;
#X text 381 21 delcare and load modules;
#X text 490 181 routing;
#X obj 75 95 versioncheck 2;
#X obj 333 91 declare -path ./Rhodey;
#X obj 531 91 Rhodey rhd 1;
#X msg 75 259 \; screenLine1 1) Metronome \; screenLine2 2) Rhodey
\; screenLine3 3) x \; screenLine4 4) x \; screenLine5 <-- HOME \;
;
#X obj 332 119 declare -path ./MasterMetro;
#X obj 536 119 MasterMetro 1;
#X obj 349 193 r master-ticks;
#X floatatom 349 215 5 0 0 0 - - -, f 5;
#X obj 349 237 sel 0;
#X obj 356 287 f;
#X obj 356 313 makenote 100 100;
#X obj 446 253 r notes;
#X obj 446 275 stripnote;
#X obj 356 339 pack 0 0;
#X obj 356 364 s notes;
#X msg 928 193 tempo \$1;
#X msg 717 194 resolution \$1;
#X msg 820 214 reset \$1 \$2;
#X obj 820 193 pack f f;
#X floatatom 839 314 5 0 0 1 beat_time - -, f 5;
#X floatatom 832 349 5 0 0 1 phase - -, f 5;
#X msg 649 303 \; pd dsp 1;
#X floatatom 753 352 5 0 0 1 step - -, f 5;
#X floatatom 864 291 5 0 0 1 tempo - -, f 5;
#X obj 632 172 tgl 15 0 empty empty empty 17 7 0 10 -262144 -1 -1 1
1;
#X obj 753 266 abl_link~ 1 0 4 134;
#X floatatom 928 174 5 0 0 2 tempo - -, f 5;
#X floatatom 865 174 5 0 0 2 quantum - -, f 5;
#X floatatom 820 174 5 0 0 2 beat - -, f 5;
#X floatatom 717 174 5 0 0 2 resolution - -, f 5;
#X msg 632 192 connect \$1;
#X floatatom 991 283 5 0 0 0 - - -, f 5;
#X obj 991 261 r #abl_link_num_peers;
#X obj 804 423 -;
#X floatatom 804 452 5 0 0 0 - - -, f 5;
#X obj 702 377 t b;
#X obj 700 93 loadbang;
#X obj 700 115 delay 100;
#X obj 261 434 print \$0-thing-\$0;
#X connect 1 0 15 0;
#X connect 3 0 12 0;
#X connect 4 0 1 0;
#X connect 5 0 4 0;
#X connect 5 0 9 0;
#X connect 5 1 2 0;
#X connect 6 0 5 0;
#X connect 8 0 1 0;
#X connect 9 0 8 0;
#X connect 12 0 5 0;
#X connect 18 0 19 0;
#X connect 19 0 20 0;
#X connect 21 0 22 0;
#X connect 22 0 25 0;
#X connect 22 1 25 1;
#X connect 23 0 24 0;
#X connect 24 0 21 1;
#X connect 25 0 26 0;
#X connect 27 0 37 0;
#X connect 28 0 37 0;
#X connect 29 0 37 0;
#X connect 30 0 29 0;
#X connect 32 0 45 0;
#X connect 34 0 45 1;
#X connect 34 0 47 0;
#X connect 36 0 42 0;
#X connect 37 0 34 0;
#X connect 37 1 32 0;
#X connect 37 2 31 0;
#X connect 37 3 35 0;
#X connect 38 0 27 0;
#X connect 39 0 30 1;
#X connect 40 0 30 0;
#X connect 41 0 28 0;
#X connect 42 0 37 0;
#X connect 44 0 43 0;
#X connect 45 0 46 0;
#X connect 47 0 21 0;
#X connect 48 0 49 0;
#X connect 49 0 36 0;
