#N canvas 117 76 1667 968 10;
#X obj 8 139 throw~ outL;
#X obj 108 138 throw~ outR;
#X obj 576 171 sig~;
#X obj 575 204 lop~ 5;
#X obj 575 229 s~ cutoff;
#X obj 555 116 * 2000;
#X obj 555 141 + 100;
#X obj 1411 67 loadbang;
#X obj 216 137 i;
#X obj 555 260 i;
#X obj 555 284 change -1;
#X obj 216 159 change -1;
#X obj 216 210 s screenLine1;
#X msg 555 308 4: Cutoff \$1 Hz;
#X obj 555 332 s screenLine4;
#X obj 555 90 r knob4;
#X msg 216 185 1: Mix \$1 %;
#N canvas 554 101 1278 993 FFT 0;
#X obj 518 736 r knob1;
#X obj 478 29 r~ inL;
#N canvas 10 50 612 483 crossfade 0;
#X obj 33 48 inlet~;
#X obj 211 67 inlet;
#X obj 39 327 outlet~;
#X obj 49 194 expr cos($f1 * 3.14159 / 2);
#X obj 244 194 expr sin($f1 * 3.14159 / 2);
#X obj 211 143 clip 0 1;
#N canvas 7 50 594 632 pan_core 0;
#X obj 21 106 inlet~;
#X obj 226 126 inlet;
#X obj 59 259 *~;
#X obj 123 303 outlet~;
#X obj 189 258 *~;
#X obj 205 234 line~;
#X obj 75 234 line~;
#X obj 96 127 inlet;
#X obj 179 104 inlet~;
#X text 223 350 comment;
#X obj 75 195 pack f 5;
#X obj 205 195 pack f 5;
#X text 202 346 Hans-Christoph Steiner \, 2004;
#X text 202 332 Adapted from [pan_core~];
#X connect 0 0 2 0;
#X connect 1 0 11 0;
#X connect 2 0 3 0;
#X connect 4 0 3 0;
#X connect 5 0 4 1;
#X connect 6 0 2 1;
#X connect 7 0 10 0;
#X connect 8 0 4 0;
#X connect 10 0 6 0;
#X connect 11 0 5 0;
#X restore 39 266 pd pan_core;
#X text 165 300 Adapted from [equal_power_pan~] \, Hans-Christoph Steiner
\, 2004;
#X text 320 312 comment;
#X obj 128 46 inlet~;
#X connect 0 0 6 0;
#X connect 1 0 5 0;
#X connect 3 0 6 1;
#X connect 4 0 6 3;
#X connect 5 0 3 0;
#X connect 5 0 4 0;
#X connect 6 0 2 0;
#X connect 9 0 6 2;
#X restore 437 824 pd crossfade;
#X obj 518 761 * -1;
#X obj 518 785 + 1;
#X obj 437 858 outlet~;
#X obj 285 584 *~ 1;
#X obj 219 583 *~ 1;
#X obj 89 162 r transpose;
#X obj 223 685 *~, f 24;
#X obj 223 341 fft-sig, f 21;
#X obj 134 472 +~ 0;
#X obj 259 496 +~ 0;
#X obj 222 315 *~ 1;
#X obj 517 350 * 2500;
#X obj 397 364 r knob4;
#X obj 397 388 * 3.6;
#X obj 517 372 + 200;
#X obj 517 416 vline~;
#X msg 517 394 \$1 20;
#X obj 247 733 *~;
#X obj 175 162 r keytrans;
#X obj 89 344 +;
#X obj 89 260 f;
#X obj 98 233 t b f;
#X obj 477 82 e_softclip;
#X obj 476 654 *~ 0.5;
#X floatatom 89 386 5 0 0 0 - - -, f 5;
#X obj 63 472 sig~ 0.01;
#X obj 131 384 - 12;
#X obj 517 328 f 0.5;
#X obj 517 300 loadbang;
#X obj 218 558 simple 1;
#X obj 285 558 simple 2;
#X obj 808 552 snapshot~;
#X floatatom 808 581 5 0 0 0 - - -, f 5;
#X obj 907 520 metro 100;
#X obj 962 488 tgl 15 0 empty empty empty 17 7 0 10 -262144 -1 -1 1
1;
#X connect 0 0 3 0;
#X connect 1 0 25 0;
#X connect 2 0 5 0;
#X connect 3 0 4 0;
#X connect 4 0 2 2;
#X connect 6 0 9 0;
#X connect 7 0 9 0;
#X connect 8 0 23 0;
#X connect 9 0 20 0;
#X connect 10 0 11 0;
#X connect 10 0 12 0;
#X connect 10 1 9 1;
#X connect 10 2 20 1;
#X connect 10 2 32 1;
#X connect 10 2 33 1;
#X connect 11 0 32 0;
#X connect 12 0 33 0;
#X connect 13 0 10 0;
#X connect 14 0 17 0;
#X connect 15 0 16 0;
#X connect 16 0 32 3;
#X connect 16 0 33 3;
#X connect 17 0 19 0;
#X connect 18 0 32 2;
#X connect 18 0 33 2;
#X connect 19 0 18 0;
#X connect 20 0 2 0;
#X connect 21 0 24 0;
#X connect 22 0 27 0;
#X connect 22 0 29 0;
#X connect 23 0 22 0;
#X connect 24 0 23 0;
#X connect 24 1 22 1;
#X connect 25 0 13 0;
#X connect 25 0 26 0;
#X connect 26 0 2 1;
#X connect 27 0 11 1;
#X connect 28 0 32 0;
#X connect 29 0 12 1;
#X connect 30 0 14 0;
#X connect 31 0 30 0;
#X connect 32 0 7 0;
#X connect 33 0 6 0;
#X connect 34 0 35 0;
#X connect 36 0 34 0;
#X connect 37 0 36 0;
#X restore 7 92 pd FFT;
#X obj 216 90 r knob1;
#X obj 216 112 * 100;
#X text 117 38 monophonic pitch tracker to control subtractive synth
;
#X obj 207 927 s transpose;
#X obj 171 784 f;
#X obj 207 785 + 1;
#X obj 207 829 array get arper;
#N canvas 4 50 450 250 (subpatch) 0;
#X array arper 5 float 3;
#A 0 0 21 21 17 15;
#X coords 0 32 5 -32 400 200 1 0 0;
#X restore 807 82 graph;
#X floatatom 207 875 5 0 0 0 - - -, f 5;
#X obj 207 851 int;
#X obj 171 720 tgl 15 0 empty empty empty 17 7 0 10 -262144 -1 -1 0
1;
#X obj 171 756 metro 125;
#X obj 207 901 +;
#X obj 207 806 % 8;
#X obj 527 883 array set arper;
#X obj 571 857 array size arper;
#X floatatom 334 692 5 0 0 0 - - -, f 5;
#X obj 337 221 s keytrans;
#X obj 337 131 - 0.5;
#X obj 337 153 * 50;
#X obj 337 175 int;
#X floatatom 337 197 5 0 0 0 - - -, f 5;
#X floatatom 455 184 5 0 0 0 - - -, f 5;
#X obj 455 139 + 10;
#X text 450 64 BPM;
#X obj 455 161 i;
#X obj 455 203 change;
#X obj 455 113 * 450;
#X obj 455 90 r knob3;
#X obj 455 231 metroMIDi;
#X floatatom 231 731 5 0 0 0 - - -, f 5;
#X obj 231 709 r tempO;
#X obj 171 672 r fs;
#X obj 171 694 sel 1;
#X obj 214 672 r aux;
#X obj 527 405 r notes;
#X obj 105 753 s led;
#X obj 369 800 bng 15 250 50 0 empty empty empty 17 7 0 10 -262144
-1 -1;
#X obj 527 430 stripnote;
#X obj 527 451 - 60;
#X text 348 67 transpose;
#X text 219 68 wet/dry;
#X text 556 68 cutoff freq;
#X obj 390 502 array get arper;
#X obj 390 480 bng 15 250 50 0 empty empty empty 17 7 0 10 -262144
-1 -1;
#X msg 1409 217 \; arper ylabel -0.05 -32 0 32;
#X obj 1409 190 loadbang;
#X obj 390 775 t b list;
#X obj 369 831 pack 0 list;
#X obj 1331 551 text define arps;
#X obj 527 533 text get arps;
#X msg 1331 478 write arpPatts.txt;
#X msg 1383 514 read arpPatts.txt;
#X floatatom 527 480 5 0 0 0 - - -, f 5;
#X obj 571 838 list length;
#X obj 503 926 s screenLine5;
#X obj 527 498 moses 20, f 17;
#X obj 643 529 - 20;
#X obj 643 551 + 1;
#X obj 1414 411 loadbang;
#X msg 794 497 0;
#X obj 866 405 bng 15 250 50 0 empty empty empty 17 7 0 10 -262144
-1 -1;
#X obj 794 522 list append;
#X obj 820 551 list append;
#X obj 849 573 list append;
#X obj 877 605 list append;
#X obj 629 778 print ohshitwaddup;
#X msg 153 872 0;
#X obj 527 803 t list list;
#X obj 643 707 route;
#X obj 142 818 sel 0;
#X obj 708 603 list prepend 1;
#X obj 729 622 list prepend 2;
#X obj 758 642 list prepend 3;
#X obj 782 662 list prepend 4;
#X obj 890 470 random 64;
#X obj 925 496 random 64;
#X obj 965 518 random 64;
#X obj 1004 554 random 64;
#X obj 1004 576 - 32;
#X obj 965 540 - 32;
#X obj 925 518 - 32;
#X obj 890 492 - 32;
#X obj 1345 714 bang;
#X obj 1331 785 - 0.5;
#X obj 1331 835 i;
#X obj 1250 794 - 0.5;
#X obj 1250 844 i;
#X obj 1250 872 abs;
#X obj 1353 684 s knob1-detent;
#X obj 1250 637 detent 0.075;
#X obj 1250 603 r knob2;
#X msg 1345 740 \; screenLine2 2: Scale ORIG \;;
#X obj 337 87 r knob1-detent;
#X floatatom 337 109 5 0 0 0 - - -, f 5;
#X obj 1250 816 * 50;
#X obj 1331 810 * 50;
#X msg 1249 900 \; screenLine2 2: Scale -\$1 \;;
#X msg 1331 863 \; screenLine2 2: Scale +\$1 \;;
#X obj 643 573 t b 0;
#X obj 866 426 t 0 b b;
#X msg 1411 90 \; screenLine1 1: Mix \; screenLine2 2: Scale \; screenLine3
3: Resonance \; screenLine4 4: Cutoff \; screenLine5 0;
#X connect 2 0 3 0;
#X connect 3 0 4 0;
#X connect 5 0 6 0;
#X connect 6 0 2 0;
#X connect 6 0 9 0;
#X connect 7 0 119 0;
#X connect 8 0 11 0;
#X connect 9 0 10 0;
#X connect 10 0 13 0;
#X connect 11 0 16 0;
#X connect 13 0 14 0;
#X connect 15 0 5 0;
#X connect 16 0 12 0;
#X connect 17 0 0 0;
#X connect 17 0 1 0;
#X connect 18 0 19 0;
#X connect 19 0 8 0;
#X connect 22 0 23 0;
#X connect 23 0 22 1;
#X connect 23 0 31 0;
#X connect 24 0 27 0;
#X connect 26 0 30 0;
#X connect 27 0 26 0;
#X connect 28 0 29 0;
#X connect 28 0 54 0;
#X connect 28 0 66 0;
#X connect 28 0 88 0;
#X connect 29 0 22 0;
#X connect 30 0 21 0;
#X connect 31 0 24 0;
#X connect 34 0 31 1;
#X connect 36 0 37 0;
#X connect 37 0 38 0;
#X connect 38 0 39 0;
#X connect 39 0 35 0;
#X connect 40 0 44 0;
#X connect 41 0 43 0;
#X connect 43 0 40 0;
#X connect 44 0 47 0;
#X connect 45 0 41 0;
#X connect 46 0 45 0;
#X connect 48 0 29 1;
#X connect 49 0 48 0;
#X connect 50 0 51 0;
#X connect 51 0 28 0;
#X connect 52 0 51 0;
#X connect 53 0 56 0;
#X connect 55 0 66 0;
#X connect 56 0 57 0;
#X connect 56 0 62 0;
#X connect 57 0 71 0;
#X connect 61 0 65 0;
#X connect 62 0 61 0;
#X connect 64 0 63 0;
#X connect 65 0 55 0;
#X connect 65 1 66 1;
#X connect 68 0 86 0;
#X connect 69 0 67 0;
#X connect 70 0 67 0;
#X connect 71 0 74 0;
#X connect 72 0 33 0;
#X connect 72 0 34 0;
#X connect 74 0 68 0;
#X connect 74 1 75 0;
#X connect 75 0 76 0;
#X connect 76 0 117 0;
#X connect 77 0 70 0;
#X connect 78 0 80 0;
#X connect 79 0 118 0;
#X connect 80 0 81 0;
#X connect 80 0 89 0;
#X connect 81 0 82 0;
#X connect 81 0 90 0;
#X connect 82 0 83 0;
#X connect 82 0 91 0;
#X connect 83 0 92 0;
#X connect 85 0 21 0;
#X connect 86 0 32 0;
#X connect 86 0 73 0;
#X connect 86 1 72 0;
#X connect 86 1 84 0;
#X connect 87 0 86 0;
#X connect 88 0 85 0;
#X connect 89 0 87 0;
#X connect 90 0 87 0;
#X connect 91 0 87 0;
#X connect 92 0 87 0;
#X connect 93 0 100 0;
#X connect 94 0 99 0;
#X connect 95 0 98 0;
#X connect 96 0 97 0;
#X connect 97 0 83 1;
#X connect 98 0 82 1;
#X connect 99 0 81 1;
#X connect 100 0 80 1;
#X connect 101 0 110 0;
#X connect 102 0 114 0;
#X connect 103 0 116 0;
#X connect 104 0 113 0;
#X connect 105 0 106 0;
#X connect 106 0 115 0;
#X connect 108 0 104 0;
#X connect 108 0 107 0;
#X connect 108 1 101 0;
#X connect 108 1 107 0;
#X connect 108 2 102 0;
#X connect 108 2 107 0;
#X connect 109 0 108 0;
#X connect 111 0 112 0;
#X connect 112 0 36 0;
#X connect 113 0 105 0;
#X connect 114 0 103 0;
#X connect 117 0 79 0;
#X connect 117 1 87 1;
#X connect 118 1 78 0;
#X connect 118 2 93 0;
#X connect 118 2 94 0;
#X connect 118 2 95 0;
#X connect 118 2 96 0;
