#N canvas 374 208 1227 669 10;
#X obj 334 171 tgl 15 0 empty empty empty 17 7 0 10 -262144 -1 -1 1
1;
#X floatatom 537 172 5 0 0 0 - - -, f 5;
#X text 593 144 dial in bpm;
#N canvas 285 312 405 435 mstobpm 0;
#X obj 37 15 inlet;
#X obj 37 121 timer;
#X obj 37 211 outlet;
#X obj 37 148 expr 60000 / $f1;
#X obj 37 75 sel 0 1;
#X obj 37 99 bng 15 250 50 0 empty empty empty 17 7 0 10 -262144 -1
-1;
#X obj 60 99 bng 15 250 50 0 empty empty empty 17 7 0 10 -262144 -1
-1;
#X obj 37 175 / 4;
#X obj 117 211 outlet;
#X connect 0 0 4 0;
#X connect 1 0 3 0;
#X connect 1 0 8 0;
#X connect 3 0 7 0;
#X connect 4 0 5 0;
#X connect 4 1 6 0;
#X connect 5 0 1 0;
#X connect 6 0 1 1;
#X connect 7 0 2 0;
#X restore 334 404 pd mstobpm;
#X floatatom 334 431 5 0 0 0 - - -, f 5;
#X text 371 426 tempo in bpm;
#N canvas 744 375 1016 559 mainmetro 0;
#X obj 248 49 inlet;
#X obj 347 49 inlet;
#X obj 389 438 + 1, f 5;
#X obj 280 512 f;
#X floatatom 280 581 5 0 0 0 - - -, f 5;
#X obj 280 607 outlet;
#X msg 525 466 0;
#X obj 320 566 sel 1;
#X obj 406 73 midirealtimein;
#X obj 280 387 spigot 1;
#X obj 415 388 spigot 0;
#X obj 423 300 tgl 15 0 empty empty empty 17 7 0 10 -262144 -1 -1 0
1;
#X obj 333 323 ==;
#X obj 333 349 tgl 15 0 empty empty empty 17 7 0 10 -262144 -1 -1 1
1;
#X obj 468 350 tgl 15 0 empty empty empty 17 7 0 10 -262144 -1 -1 0
1;
#X obj 587 243 delay 1000;
#X msg 423 241 1;
#X obj 415 180 t b b b b, f 25;
#X msg 587 218 stop;
#X msg 587 267 0;
#X text 67 12 autoswitch between internal and MIDI clock;
#X text 561 117 MIDI 248 = clock \; 250 = start \; 251 = continue.
;
#X obj 578 348 s midi-clock-present;
#X obj 325 207 loadbang;
#X msg 325 229 0;
#X obj 224 157 sel 0;
#X obj 248 91 t f f;
#X text 7 115 reset back to 0 when metro stops;
#X obj 140 196 s reset-metronome;
#X obj 579 415 r reset-metronome;
#X obj 280 119 change;
#X obj 406 113 sel 248 250 251 252;
#X obj 503 157 s midi-stop;
#X obj 280 156 metro 1000;
#X obj 320 536 >= 15;
#X connect 0 0 26 0;
#X connect 1 0 33 1;
#X connect 2 0 3 1;
#X connect 3 0 2 0;
#X connect 3 0 4 0;
#X connect 3 0 34 0;
#X connect 4 0 5 0;
#X connect 6 0 3 1;
#X connect 7 0 6 0;
#X connect 8 0 31 0;
#X connect 9 0 3 0;
#X connect 10 0 3 0;
#X connect 11 0 12 0;
#X connect 11 0 14 0;
#X connect 11 0 22 0;
#X connect 12 0 13 0;
#X connect 13 0 9 1;
#X connect 14 0 10 1;
#X connect 15 0 19 0;
#X connect 16 0 11 0;
#X connect 17 0 10 0;
#X connect 17 1 15 0;
#X connect 17 2 16 0;
#X connect 17 3 18 0;
#X connect 18 0 15 0;
#X connect 19 0 11 0;
#X connect 23 0 24 0;
#X connect 24 0 11 0;
#X connect 25 0 28 0;
#X connect 26 0 25 0;
#X connect 26 1 30 0;
#X connect 29 0 6 0;
#X connect 30 0 33 0;
#X connect 31 0 17 0;
#X connect 31 1 6 0;
#X connect 31 2 6 0;
#X connect 31 3 32 0;
#X connect 33 0 9 0;
#X connect 34 0 7 0;
#X restore 334 242 pd mainmetro;
#X obj 537 112 inlet;
#X obj 537 503 i;
#X obj 334 501 i;
#X obj 334 523 change -1;
#X obj 537 465 spigot 1;
#X obj 334 461 spigot 0;
#X obj 590 374 r midi-clock-present;
#X obj 590 398 ==;
#X obj 428 324 s beAts;
#X obj 334 125 loadbang;
#X msg 334 147 1;
#X floatatom 415 218 5 0 0 0 - - -, f 5;
#X floatatom 367 336 5 0 0 0 - - -, f 5;
#X obj 554 222 expr 60000 / $f1;
#X obj 554 244 / 4;
#X obj 442 272 s tempO;
#X floatatom 413 408 5 0 0 0 - - -, f 5;
#X obj 454 406 s tempO;
#X msg 537 546 3: Tempo \$1 BPM;
#X msg 334 551 3: Tempo \$1 BPM MIDI;
#X obj 334 580 s screenLine3;
#X obj 537 578 s screenLine3;
#X connect 0 0 6 0;
#X connect 1 0 11 0;
#X connect 1 0 20 0;
#X connect 3 0 4 0;
#X connect 3 1 23 0;
#X connect 4 0 12 0;
#X connect 4 0 11 0;
#X connect 6 0 15 0;
#X connect 6 0 19 0;
#X connect 6 0 3 0;
#X connect 7 0 1 0;
#X connect 8 0 25 0;
#X connect 9 0 10 0;
#X connect 10 0 26 0;
#X connect 11 0 8 0;
#X connect 12 0 9 0;
#X connect 13 0 12 1;
#X connect 13 0 14 0;
#X connect 14 0 11 1;
#X connect 16 0 17 0;
#X connect 17 0 0 0;
#X connect 18 0 6 1;
#X connect 18 0 22 0;
#X connect 20 0 21 0;
#X connect 21 0 18 0;
#X connect 23 0 24 0;
#X connect 25 0 28 0;
#X connect 26 0 27 0;
