#N canvas 214 51 1077 908 10;
#X obj 396 60 r notes;
#X obj 465 272 shell;
#X obj 499 308 bng 15 250 50 0 empty empty empty 17 7 0 10 -262144
-1 -1;
#X obj 396 83 stripnote;
#X obj 398 151 spigot 1;
#X obj 368 114 t b f;
#X msg 358 152 0;
#X obj 426 318 print;
#X msg 562 271 1;
#X obj 345 197 bng 15 250 50 0 empty empty empty 17 7 0 10 -262144
-1 -1;
#X obj 621 300 shell;
#X msg 621 274 date;
#X obj 621 327 print;
#X obj 340 783 s oscOut;
#X msg 480 529 /oled/gFlip 3;
#X msg 481 479 /oled/gClear 3 1;
#X msg 782 533 /oled/gFlip 3;
#X msg 783 483 /oled/gClear 3 1;
#X msg 192 527 /oled/gFlip 3;
#X msg 193 477 /oled/gClear 3 1;
#X obj 189 433 t b b b;
#X msg 482 503 /oled/gPrintln 3 8 24 16 1 TWEETING;
#X msg 784 507 /oled/gPrintln 3 8 24 16 1 DONE;
#X obj 465 447 t b b b;
#X obj 772 451 t b b b;
#X obj 189 408 loadbang;
#X msg 196 501 /oled/gPrintln 3 8 24 16 1 READY;
#X msg 459 215 python2 /tmp/patch/twitter.py "Owens Organelle Played
Note \$1 cool";
#X connect 0 0 3 0;
#X connect 1 0 7 0;
#X connect 1 1 2 0;
#X connect 2 0 8 0;
#X connect 2 0 24 0;
#X connect 3 0 5 0;
#X connect 4 0 27 0;
#X connect 4 0 9 0;
#X connect 4 0 27 0;
#X connect 5 0 6 0;
#X connect 5 1 4 0;
#X connect 6 0 4 1;
#X connect 8 0 4 1;
#X connect 9 0 23 0;
#X connect 10 0 12 0;
#X connect 11 0 10 0;
#X connect 14 0 13 0;
#X connect 15 0 13 0;
#X connect 16 0 13 0;
#X connect 17 0 13 0;
#X connect 18 0 13 0;
#X connect 19 0 13 0;
#X connect 20 0 18 0;
#X connect 20 1 26 0;
#X connect 20 2 19 0;
#X connect 21 0 13 0;
#X connect 22 0 13 0;
#X connect 23 0 14 0;
#X connect 23 1 21 0;
#X connect 23 2 15 0;
#X connect 24 0 16 0;
#X connect 24 1 22 0;
#X connect 24 2 17 0;
#X connect 25 0 20 0;
#X connect 26 0 13 0;
#X connect 27 0 1 0;
#X connect 27 0 1 0;
