#N canvas 97 50 1804 906 10;
#X obj 243 818 throw~ outL;
#X obj 346 823 throw~ outR;
#X obj 90 638 pack 0 0 0, f 11;
#X obj 90 664 route 1 2 3 4 5 6 7 8, f 81;
#X obj 1630 151 r knob4;
#X obj 1629 228 i;
#X obj 1629 304 s screenLine4;
#X msg 1629 277 4: Decay Time \$1 ms;
#X obj 1630 184 * 2000;
#X obj 1629 251 change -1;
#X obj 1331 345 send~ f;
#X obj 1331 280 sig~;
#X obj 1330 311 lop~ 5;
#X obj 1331 209 / 100;
#X obj 1331 231 mtof;
#X obj 1331 253 / 8.1785;
#X obj 1331 182 * 2400;
#X obj 1237 444 loadbang;
#X obj 1206 285 change -1;
#X obj 1206 259 i;
#X obj 1630 206 + 10;
#N canvas 4 50 450 278 (subpatch) 0;
#X array seqvel 33 float 3;
#A 0 126.876 0 75.1582 126.876 126.876 0 0 63.5 63.5 99.5908 109.761
27.9053 119.311 58.167 126.876 47.501 97.2344 59.7793 101.823 52.0898
107.28 61.6396 115.59 37.8271 101.699 117.698 126.876 48.9893 48.9893
48.9893 48.9893 48.9893 2;
#X coords 0 128 33 0 200 140 1 0 0;
#X restore 756 286 graph;
#X floatatom 279 401 5 0 0 0 - - -, f 5;
#X obj 647 178 r notes;
#X obj 253 124 r notes;
#X obj 563 223 tgl 15 0 empty empty empty 17 7 0 10 -262144 -1 -1 0
1;
#X msg 620 332 0;
#N canvas 377 50 1126 994 seqplayer 0;
#X floatatom 130 231 5 0 0 0 - - -, f 5;
#X floatatom 366 664 5 0 0 0 - - -, f 5;
#X obj 165 768 delay;
#X obj 180 442 tgl 15 0 empty empty empty 17 7 0 10 -262144 -1 -1 1
1;
#X msg 179 393 1;
#X obj 220 445 bng 15 250 50 0 empty empty empty 17 7 0 10 -262144
-1 -1;
#X obj 283 584 ==;
#X obj 252 520 t b f;
#X obj 185 724 spigot 0;
#X obj 137 -9 stripnote;
#X obj 130 191 spigot;
#X obj 39 128 tgl 15 0 empty empty empty 17 7 0 10 -262144 -1 -1 1
1;
#X obj 236 488 counter-up 16;
#X obj 283 562 == 15;
#X obj 496 795 + 60;
#X obj 480 861 pack 0 100;
#X obj 141 -63 inlet;
#X obj 39 73 inlet;
#X obj 341 74 inlet;
#X obj 365 418 - 1;
#X obj 479 892 outlet;
#X obj 680 73 inlet;
#X text 36 39 enable;
#X text 141 -85 note;
#X text 328 47 length;
#X text 689 41 speed;
#X obj 255 15 unpack;
#X obj 299 181 tgl 15 0 empty empty empty 17 7 0 10 -262144 -1 -1 0
1;
#X obj 299 214 ==;
#X obj 294 626 spigot 1;
#X obj 680 252 moses 10;
#X obj 287 712 tgl 15 0 empty empty empty 17 7 0 10 -262144 -1 -1 0
1;
#X obj 240 804 s is-playing;
#N canvas 1231 512 450 297 switch 0;
#X obj 145 49 inlet;
#X obj 147 184 outlet;
#X obj 266 178 outlet;
#X obj 320 50 inlet;
#X obj 281 84 ==;
#X obj 150 128 spigot 1;
#X obj 258 124 spigot 0;
#X obj 230 49 inlet;
#X connect 0 0 5 0;
#X connect 3 0 4 0;
#X connect 3 0 6 1;
#X connect 4 0 5 1;
#X connect 5 0 1 0;
#X connect 6 0 2 0;
#X connect 7 0 6 0;
#X restore 149 289 pd switch;
#X obj 192 231 r is-playing;
#N canvas 233 116 450 297 switch 0;
#X obj 145 49 inlet;
#X obj 147 184 outlet;
#X obj 266 178 outlet;
#X obj 320 50 inlet;
#X obj 249 81 ==;
#X obj 150 128 spigot 1;
#X obj 258 124 spigot 0;
#X connect 0 0 5 0;
#X connect 0 0 6 0;
#X connect 3 0 4 0;
#X connect 3 0 6 1;
#X connect 4 0 5 1;
#X connect 5 0 1 0;
#X connect 6 0 2 0;
#X restore 67 553 pd switch;
#X obj 164 359 t b b b f b;
#X obj 224 309 t f b;
#X msg 120 511 0;
#X msg 157 513 1;
#X obj 204 335 f;
#X obj 242 273 tgl 15 0 empty empty empty 17 7 0 10 -262144 -1 -1 0
1;
#X obj 143 257 t a a;
#X obj 204 134 f;
#X obj 274 78 sel 0;
#X obj 303 100 bang;
#X msg 304 123 1;
#X obj 143 -40 t a a;
#X obj 260 44 swap;
#X obj 259 128 f;
#X obj 229 105 t b b;
#X obj 227 158 ==;
#X obj 225 182 sel 1;
#X msg 225 204 0;
#X obj 495 820 - 60;
#X text 515 759 filter out notes that are 0;
#X obj 504 710 tabread seqvel;
#X obj 365 684 t f f;
#X obj 437 753 r from_seq;
#X obj 364 713 sel 0;
#X msg 370 788 rewind;
#X obj 388 821 bang;
#X obj 374 864 s to_seq;
#X obj 351 751 t b b;
#X connect 0 0 42 0;
#X connect 1 0 57 0;
#X connect 2 0 35 0;
#X connect 3 0 8 1;
#X connect 3 0 31 0;
#X connect 4 0 3 0;
#X connect 5 0 12 0;
#X connect 6 0 29 0;
#X connect 7 0 8 0;
#X connect 7 1 1 0;
#X connect 7 1 13 0;
#X connect 8 0 2 0;
#X connect 9 0 10 0;
#X connect 9 0 43 1;
#X connect 10 0 0 0;
#X connect 11 0 10 1;
#X connect 12 0 7 0;
#X connect 13 0 6 0;
#X connect 14 0 54 0;
#X connect 15 0 20 0;
#X connect 16 0 47 0;
#X connect 17 0 11 0;
#X connect 18 0 12 2;
#X connect 18 0 19 0;
#X connect 19 0 13 1;
#X connect 21 0 30 0;
#X connect 26 0 48 0;
#X connect 26 1 48 1;
#X connect 27 0 28 0;
#X connect 28 0 29 1;
#X connect 29 0 8 1;
#X connect 29 0 31 0;
#X connect 30 1 2 1;
#X connect 31 0 32 0;
#X connect 33 0 36 0;
#X connect 33 1 37 0;
#X connect 34 0 33 2;
#X connect 34 0 41 0;
#X connect 35 0 5 0;
#X connect 35 1 40 0;
#X connect 36 0 5 0;
#X connect 36 1 4 0;
#X connect 36 2 12 1;
#X connect 36 3 14 1;
#X connect 36 4 38 0;
#X connect 37 0 40 1;
#X connect 37 1 39 0;
#X connect 38 0 35 1;
#X connect 39 0 35 1;
#X connect 40 0 36 0;
#X connect 42 0 33 0;
#X connect 42 1 33 1;
#X connect 43 0 51 0;
#X connect 44 0 50 0;
#X connect 44 1 45 0;
#X connect 45 0 46 0;
#X connect 46 0 27 0;
#X connect 47 0 9 0;
#X connect 47 1 26 0;
#X connect 48 0 44 0;
#X connect 48 1 49 1;
#X connect 49 0 51 1;
#X connect 50 0 43 0;
#X connect 50 1 49 0;
#X connect 51 0 52 0;
#X connect 52 0 53 0;
#X connect 53 0 27 0;
#X connect 54 0 15 0;
#X connect 56 0 15 1;
#X connect 57 0 59 0;
#X connect 57 1 56 0;
#X connect 58 0 14 0;
#X connect 59 0 63 0;
#X connect 59 1 61 0;
#X connect 60 0 62 0;
#X connect 61 0 62 0;
#X connect 63 0 62 0;
#X connect 63 1 60 0;
#X restore 117 427 pd seqplayer;
#X obj 116 218 tgl 15 0 empty empty empty 17 7 0 10 -262144 -1 -1 1
1;
#N canvas 49 152 1572 720 states 0;
#X obj 357 299 f;
#X obj 357 246 sel 1;
#X obj 183 97 r aux;
#X floatatom 131 265 5 0 0 0 - - -, f 5;
#X obj 131 296 sel 1;
#X obj 131 355 v state;
#X obj 131 322 bng 15 250 50 0 empty empty empty 17 7 0 10 -262144
-1 -1;
#X obj 342 206 t f f;
#X obj 357 325 sel 1;
#X obj 960 468 send screenLine5;
#X obj 1078 338 s led;
#X obj 922 325 s led;
#X text 863 163 Controls LED & Screen Infomation:;
#X obj 357 271 del 500;
#X text 104 74 Controls State With Aux Button;
#X text 95 10 uses the aux button to control states;
#X msg 1078 313 1;
#X obj 89 568 s state;
#X obj 186 570 s state;
#X msg 182 525 0;
#X obj 913 211 r state;
#X obj 728 279 r state;
#X obj 728 301 v state;
#X obj 737 158 loadbang;
#X msg 737 180 0;
#X obj 103 480 sel 0 1 2, f 27;
#X text 528 11 states are: 0 = play mode \, 1 = punch in \, 2 = play
w latch, f 70;
#X obj 1245 333 s led;
#X obj 913 253 sel 0 1 2;
#X msg 91 533 2;
#X obj 256 566 s state;
#X msg 258 531 0;
#X msg 922 301 0;
#X msg 1245 308 2;
#X obj 735 210 s state;
#X msg 856 382 Aux: Play Mode;
#X msg 1040 374 Aux: Punch Mode;
#X msg 1220 384 Aux: Play Mode Latch;
#X msg 71 170 1;
#X obj 49 212 spigot;
#X obj 63 130 sel 0 1 2;
#X obj 63 102 r state;
#X msg 107 171 0;
#X text 151 156 when in punch mode \, only way out is to press and
hold;
#X obj 357 378 v state;
#X obj 357 353 bng 15 250 50 0 empty empty empty 17 7 0 10 -262144
-1 -1;
#X obj 365 542 s state;
#X obj 462 544 s state;
#X msg 458 499 0;
#X obj 379 454 sel 0 1 2, f 27;
#X obj 532 540 s state;
#X text 419 299 press and hold;
#X text 378 415 if playing go to punch mode \, if punching \, go to
play;
#X msg 367 507 1;
#X msg 534 505 1;
#X connect 0 0 8 0;
#X connect 1 0 13 0;
#X connect 2 0 7 0;
#X connect 2 0 39 0;
#X connect 3 0 4 0;
#X connect 4 0 6 0;
#X connect 5 0 25 0;
#X connect 6 0 5 0;
#X connect 7 0 1 0;
#X connect 7 1 0 1;
#X connect 8 0 45 0;
#X connect 13 0 0 0;
#X connect 16 0 10 0;
#X connect 19 0 18 0;
#X connect 20 0 28 0;
#X connect 21 0 22 0;
#X connect 23 0 24 0;
#X connect 24 0 34 0;
#X connect 25 0 29 0;
#X connect 25 1 19 0;
#X connect 25 2 31 0;
#X connect 28 0 32 0;
#X connect 28 0 35 0;
#X connect 28 1 16 0;
#X connect 28 1 36 0;
#X connect 28 2 33 0;
#X connect 28 2 37 0;
#X connect 29 0 17 0;
#X connect 31 0 30 0;
#X connect 32 0 11 0;
#X connect 33 0 27 0;
#X connect 35 0 9 0;
#X connect 36 0 9 0;
#X connect 37 0 9 0;
#X connect 38 0 39 1;
#X connect 39 0 3 0;
#X connect 40 0 38 0;
#X connect 40 1 42 0;
#X connect 40 2 38 0;
#X connect 41 0 40 0;
#X connect 42 0 39 1;
#X connect 44 0 49 0;
#X connect 45 0 44 0;
#X connect 48 0 47 0;
#X connect 49 0 53 0;
#X connect 49 1 48 0;
#X connect 49 2 54 0;
#X connect 53 0 46 0;
#X connect 54 0 50 0;
#X restore 796 44 pd states;
#X obj 563 74 r state;
#X obj 620 361 s state;
#X obj 126 60 r state;
#X msg 563 148 0;
#X msg 599 149 1;
#X msg 111 115 1;
#X msg 157 116 0;
#X floatatom 692 332 5 0 0 0 - - -, f 5;
#X obj 208 362 r len;
#X obj 684 382 s len;
#N canvas 126 240 634 688 latch 0;
#X obj 43 405 latch-notes;
#X obj 263 232 tgl 15 0 empty empty empty 17 7 0 10 -262144 -1 -1 0
1;
#X obj 173 298 spigot 1;
#X obj 43 298 spigot 0;
#X obj 263 258 == 0;
#X obj 309 312 bng 15 250 50 0 empty empty empty 17 7 0 10 -262144
-1 -1;
#X obj 263 134 inlet;
#X obj 43 626 outlet;
#X obj 43 106 inlet;
#X text 44 53 incoming notes get sent through latch if enabled \, or
directly to output if disabled;
#X text 311 135 enable;
#X obj 264 161 t f b, f 7;
#X connect 0 0 7 0;
#X connect 1 0 4 0;
#X connect 1 0 3 1;
#X connect 2 0 7 0;
#X connect 3 0 0 0;
#X connect 4 0 2 1;
#X connect 5 0 0 1;
#X connect 6 0 11 0;
#X connect 8 0 3 0;
#X connect 8 0 2 0;
#X connect 11 0 1 0;
#X connect 11 1 5 0;
#X restore 267 176 pd latch;
#X obj 563 105 sel 0 1 2;
#X obj 126 82 sel 0 1 2;
#X msg 201 115 1;
#X msg 633 143 0;
#X obj 359 30 r state;
#X msg 390 86 0;
#X obj 359 52 sel 0 1 2;
#X msg 434 85 1;
#X msg 344 85 0;
#X obj 330 137 tgl 15 0 empty empty empty 17 7 0 10 -262144 -1 -1 0
1;
#X msg 1023 789 \; seq write seq.txt \;;
#X msg 852 728 \; seq read seq.txt \;;
#X obj 803 667 loadbang;
#X obj 1284 792 tabwrite seq;
#X msg 1378 746 32;
#X obj 1359 666 r len;
#X obj 1360 692 t f b;
#X obj 814 697 t b b;
#X msg 740 756 32;
#X obj 739 810 s len;
#X floatatom 1293 706 5 0 0 0 - - -, f 5;
#X obj 739 783 tabread seq;
#X obj 1005 649 r state;
#X obj 1005 677 t f b;
#X obj 1017 712 f;
#X obj 1017 735 == 1;
#X obj 1022 759 sel 1;
#X obj 404 614 noteout 2;
#X obj 325 574 makenote 100 100;
#X obj 1605 333 s decay;
#X obj 434 537 r decay;
#X obj 1511 194 sig~;
#X obj 1511 216 lop~ 5;
#X obj 1443 268 i;
#X obj 1443 290 change -1;
#X obj 1443 240 * 100;
#X msg 1443 317 3: Tone \$1;
#X text 528 11 states are: 0 = play mode \, 1 = punch in \, 2 = play
w latch, f 70;
#N canvas 34 162 1665 898 seqpuncher 0;
#X obj 207 62 tgl 15 0 empty empty empty 17 7 0 10 -262144 -1 -1 0
1;
#X obj 328 199 spigot 0;
#X obj 528 688 sel 1;
#X obj 528 749 outlet;
#X obj 311 50 inlet;
#X obj 206 30 inlet;
#X text 589 695 bang at end, f 12;
#X obj 758 747 outlet;
#X text 816 746 len, f 4;
#X obj 483 602 counter-up 32;
#X obj 528 662 == 31;
#X obj 22 433 * 127;
#X obj 187 666 f;
#X obj 92 746 tabwrite seqvel;
#X obj 45 806 outlet;
#X obj 22 378 r knob1;
#X obj 42 495 spigot;
#X obj 66 255 r state;
#X obj 66 292 == 1;
#X obj 22 404 f;
#X msg 26 555 \; screenLine1 1: Note Vel \$1 \;;
#X obj 46 334 t b f;
#X obj 40 523 i;
#X obj 464 848 send screenLine5;
#X obj 475 750 + 1;
#X msg 470 808 Aux: Punching \$1;
#X obj 232 160 r aux;
#X obj 357 384 bag;
#X msg 334 340 flush;
#X obj 292 261 sel 1;
#X msg 357 458 add2 \$1;
#X obj 349 425 t a b;
#X msg 292 443 add;
#X msg 432 458 clear, f 7;
#X obj 253 521 t b b;
#X obj 292 283 t b b b;
#X obj 383 145 t f f b;
#X obj 398 239 sel 1;
#X obj 755 711 + 0;
#X obj 391 554 s to_seq;
#X obj 243 205 spigot 0;
#X connect 0 0 36 0;
#X connect 1 0 27 0;
#X connect 1 0 14 0;
#X connect 2 0 3 0;
#X connect 4 0 1 0;
#X connect 5 0 0 0;
#X connect 9 0 10 0;
#X connect 9 0 13 1;
#X connect 9 0 24 0;
#X connect 9 0 38 0;
#X connect 10 0 2 0;
#X connect 11 0 12 1;
#X connect 11 0 16 0;
#X connect 12 0 13 0;
#X connect 15 0 19 0;
#X connect 16 0 22 0;
#X connect 17 0 18 0;
#X connect 18 0 21 0;
#X connect 19 0 11 0;
#X connect 21 0 19 0;
#X connect 21 1 16 1;
#X connect 22 0 20 0;
#X connect 24 0 25 0;
#X connect 25 0 23 0;
#X connect 26 0 40 0;
#X connect 27 0 31 0;
#X connect 28 0 27 0;
#X connect 29 0 35 0;
#X connect 30 0 39 0;
#X connect 31 0 30 0;
#X connect 32 0 39 0;
#X connect 33 0 39 0;
#X connect 34 0 12 0;
#X connect 34 1 9 0;
#X connect 35 0 34 0;
#X connect 35 1 32 0;
#X connect 35 2 28 0;
#X connect 36 0 1 1;
#X connect 36 0 40 1;
#X connect 36 1 37 0;
#X connect 36 2 9 1;
#X connect 37 0 33 0;
#X connect 38 0 7 0;
#X connect 40 0 29 0;
#X restore 612 263 pd seqpuncher;
#X text 953 598 seq saving and recalling;
#X text 763 85 up to 32 notes long \, len is stashed as last entry
;
#X text 1247 634 stash length as last entry;
#X msg 1237 473 \; screenLine1 1: Tune \; screenLine2 2: Tone \; screenLine3
3: Sequence Speed \; screenLine4 4: Decay \; screenLine5 Aux: Hold
to Punch \;;
#X obj 283 338 expr 1000/($f1/60);
#X obj 282 370 / 4;
#X obj 1443 153 r knob3, f 8;
#X obj 1443 351 s screenLine3;
#X obj 1511 239 s~ tone;
#X obj 284 310 r bpm;
#X obj 1331 155 r knob2;
#X msg 1206 311 2: Tune \$1 cents;
#X obj 1206 339 s screenLine2;
#X text 453 574 send the seq out on midi ch 2;
#X obj 1035 276 master-metronome;
#X obj 1035 245 tgl 15 0 empty empty empty 17 7 0 10 -262144 -1 -1
1 1;
#X obj 1035 178 loadbang;
#X msg 1035 210 1;
#X obj 1143 189 r knob1;
#X obj 1144 217 * 250;
#X obj 1144 243 + 10;
#X obj 316 778 *~ 0.25;
#N canvas 9 50 881 531 display-tempo 0;
#X obj 117 52 inlet;
#X obj 346 43 inlet;
#X obj 317 129 i;
#X obj 130 148 i;
#X msg 479 631 \; screenLine1 1: Tempo \$1 BPM \;;
#X msg 167 638 \; screenLine1 1: Tempo \$1 BPM MIDI \;;
#X obj 191 460 spigot;
#X obj 428 450 spigot;
#X obj 474 122 r state;
#X obj 481 182 sel 1;
#X msg 419 248 0;
#X msg 501 247 1;
#X obj 516 214 t b b;
#X obj 567 331 s get-bpm;
#X connect 0 0 3 0;
#X connect 1 0 2 0;
#X connect 2 0 7 0;
#X connect 3 0 6 0;
#X connect 6 0 5 0;
#X connect 7 0 4 0;
#X connect 8 0 9 0;
#X connect 9 0 10 0;
#X connect 9 1 12 0;
#X connect 10 0 7 1;
#X connect 10 0 6 1;
#X connect 11 0 6 1;
#X connect 11 0 7 1;
#X connect 12 0 13 0;
#X connect 12 1 11 0;
#X restore 1035 314 pd display-tempo;
#X obj 90 703 voice;
#X obj 583 705 voice;
#X obj 301 704 voice;
#X obj 231 704 voice;
#X obj 372 705 voice;
#X obj 160 704 voice;
#X obj 442 706 voice;
#X obj 513 704 voice;
#X msg 837 785 \; seqvel read seqvel.txt \;;
#X msg 1011 835 \; seqvel write seqvel.txt \;;
#X obj 90 611 poly 8 1, f 11;
#X obj 340 536 unpack;
#X text 1063 708 when done punching;
#X obj 782 142 r to_seq;
#X obj 782 170 textfile;
#X obj 779 241 s from_seq;
#X obj 827 545 list;
#N canvas 4 50 631 413 unpack 0;
#X obj 74 213 list split 1;
#X obj 74 304 print;
#X obj 74 130 until;
#X obj 74 168 list append;
#X obj 100 97 t b l;
#X obj 204 213 bang;
#X msg 100 74 1 2 3 4 a b c;
#X text 233 73 <- click to test;
#X text 156 97 First store list \, then start the loop;
#X text 173 125 "until" bangs its output until told to stop by a "bang"
to its right inlet.;
#X text 192 167 Store the remaining list.;
#X text 249 212 third outlet of "split" tells us to stop.;
#X text 122 244 Second outlet of "split" becomes the new list for "list
append" above.;
#X text 130 303 First outlet is the output.;
#X obj 131 26 inlet;
#X obj 52 360 outlet;
#X text 331 19 from the list help patch;
#X connect 0 0 1 0;
#X connect 0 0 15 0;
#X connect 0 1 3 1;
#X connect 0 2 5 0;
#X connect 2 0 3 0;
#X connect 3 0 0 0;
#X connect 4 0 2 0;
#X connect 4 1 3 1;
#X connect 5 0 2 1;
#X connect 6 0 4 0;
#X connect 14 0 4 0;
#X restore 780 202 pd unpack;
#X connect 2 0 3 0;
#X connect 3 0 103 0;
#X connect 3 1 108 0;
#X connect 3 2 106 0;
#X connect 3 3 105 0;
#X connect 3 4 107 0;
#X connect 3 5 109 0;
#X connect 3 6 110 0;
#X connect 3 7 104 0;
#X connect 4 0 8 0;
#X connect 5 0 9 0;
#X connect 7 0 6 0;
#X connect 8 0 20 0;
#X connect 9 0 7 0;
#X connect 11 0 12 0;
#X connect 12 0 10 0;
#X connect 13 0 14 0;
#X connect 14 0 15 0;
#X connect 15 0 11 0;
#X connect 16 0 13 0;
#X connect 16 0 19 0;
#X connect 17 0 83 0;
#X connect 18 0 91 0;
#X connect 19 0 18 0;
#X connect 20 0 5 0;
#X connect 20 0 70 0;
#X connect 22 0 27 3;
#X connect 23 0 79 1;
#X connect 24 0 40 0;
#X connect 25 0 79 0;
#X connect 26 0 31 0;
#X connect 27 0 113 0;
#X connect 27 0 114 0;
#X connect 28 0 27 0;
#X connect 30 0 41 0;
#X connect 32 0 42 0;
#X connect 33 0 25 0;
#X connect 34 0 25 0;
#X connect 35 0 28 0;
#X connect 36 0 28 0;
#X connect 37 0 39 0;
#X connect 38 0 27 2;
#X connect 40 0 27 1;
#X connect 41 0 33 0;
#X connect 41 1 34 0;
#X connect 41 2 44 0;
#X connect 42 0 35 0;
#X connect 42 1 36 0;
#X connect 42 2 43 0;
#X connect 43 0 28 0;
#X connect 44 0 25 0;
#X connect 45 0 47 0;
#X connect 46 0 50 0;
#X connect 47 0 49 0;
#X connect 47 1 46 0;
#X connect 47 2 48 0;
#X connect 48 0 50 0;
#X connect 49 0 50 0;
#X connect 50 0 40 1;
#X connect 53 0 58 0;
#X connect 55 0 54 1;
#X connect 56 0 57 0;
#X connect 56 0 61 0;
#X connect 57 0 54 0;
#X connect 57 1 55 0;
#X connect 58 0 59 0;
#X connect 58 1 52 0;
#X connect 58 1 111 0;
#X connect 59 0 62 0;
#X connect 62 0 60 0;
#X connect 63 0 64 0;
#X connect 64 0 65 1;
#X connect 64 1 65 0;
#X connect 65 0 66 0;
#X connect 66 0 67 0;
#X connect 67 0 51 0;
#X connect 67 0 112 0;
#X connect 69 0 68 0;
#X connect 69 1 68 1;
#X connect 71 0 69 2;
#X connect 72 0 73 0;
#X connect 73 0 88 0;
#X connect 74 0 75 0;
#X connect 75 0 77 0;
#X connect 76 0 74 0;
#X connect 77 0 87 0;
#X connect 79 0 113 0;
#X connect 79 0 114 0;
#X connect 79 1 26 0;
#X connect 79 2 37 0;
#X connect 84 0 85 0;
#X connect 85 0 22 0;
#X connect 86 0 72 0;
#X connect 86 0 76 0;
#X connect 89 0 84 0;
#X connect 90 0 16 0;
#X connect 91 0 92 0;
#X connect 94 0 102 0;
#X connect 94 1 102 1;
#X connect 95 0 94 0;
#X connect 96 0 97 0;
#X connect 97 0 95 0;
#X connect 98 0 99 0;
#X connect 99 0 100 0;
#X connect 100 0 94 1;
#X connect 101 0 0 0;
#X connect 101 0 1 0;
#X connect 103 0 101 0;
#X connect 104 0 101 0;
#X connect 105 0 101 0;
#X connect 106 0 101 0;
#X connect 107 0 101 0;
#X connect 108 0 101 0;
#X connect 109 0 101 0;
#X connect 110 0 101 0;
#X connect 113 0 2 0;
#X connect 113 1 2 1;
#X connect 113 2 2 2;
#X connect 114 0 69 0;
#X connect 114 1 69 1;
#X connect 116 0 117 0;
#X connect 117 0 120 0;
#X connect 120 0 118 0;
