#N canvas 30 70 639 696 10;
#X msg 236 277 mod \$1;
#X msg 157 279 freq \$1;
#N canvas 6 50 612 483 crossfade 0;
#X obj 33 48 inlet~;
#X obj 211 67 inlet;
#X obj 39 327 outlet~;
#X obj 49 194 expr cos($f1 * 3.14159 / 2);
#X obj 244 194 expr sin($f1 * 3.14159 / 2);
#X obj 211 143 clip 0 1;
#N canvas 7 50 594 632 pan_core 0;
#X obj 21 106 inlet~;
#X obj 226 126 inlet;
#X obj 59 259 *~;
#X obj 123 303 outlet~;
#X obj 189 258 *~;
#X obj 205 234 line~;
#X obj 75 234 line~;
#X obj 96 127 inlet;
#X obj 179 104 inlet~;
#X text 223 350 comment;
#X obj 75 195 pack f 5;
#X obj 205 195 pack f 5;
#X text 202 346 Hans-Christoph Steiner \, 2004;
#X text 202 332 Adapted from [pan_core~];
#X connect 0 0 2 0;
#X connect 1 0 11 0;
#X connect 2 0 3 0;
#X connect 4 0 3 0;
#X connect 5 0 4 1;
#X connect 6 0 2 1;
#X connect 7 0 10 0;
#X connect 8 0 4 0;
#X connect 10 0 6 0;
#X connect 11 0 5 0;
#X restore 39 266 pd pan_core;
#X text 165 300 Adapted from [equal_power_pan~] \, Hans-Christoph Steiner
\, 2004;
#X text 320 312 comment;
#X obj 128 46 inlet~;
#X connect 0 0 6 0;
#X connect 1 0 5 0;
#X connect 3 0 6 1;
#X connect 4 0 6 3;
#X connect 5 0 3 0;
#X connect 5 0 4 0;
#X connect 6 0 2 0;
#X connect 9 0 6 2;
#X restore 141 515 pd crossfade;
#N canvas 6 50 612 483 crossfade 0;
#X obj 33 48 inlet~;
#X obj 211 67 inlet;
#X obj 39 327 outlet~;
#X obj 49 194 expr cos($f1 * 3.14159 / 2);
#X obj 244 194 expr sin($f1 * 3.14159 / 2);
#X obj 211 143 clip 0 1;
#N canvas 7 50 594 632 pan_core 0;
#X obj 21 106 inlet~;
#X obj 226 126 inlet;
#X obj 59 259 *~;
#X obj 123 303 outlet~;
#X obj 189 258 *~;
#X obj 205 234 line~;
#X obj 75 234 line~;
#X obj 96 127 inlet;
#X obj 179 104 inlet~;
#X text 223 350 comment;
#X obj 75 195 pack f 5;
#X obj 205 195 pack f 5;
#X text 202 346 Hans-Christoph Steiner \, 2004;
#X text 202 332 Adapted from [pan_core~];
#X connect 0 0 2 0;
#X connect 1 0 11 0;
#X connect 2 0 3 0;
#X connect 4 0 3 0;
#X connect 5 0 4 1;
#X connect 6 0 2 1;
#X connect 7 0 10 0;
#X connect 8 0 4 0;
#X connect 10 0 6 0;
#X connect 11 0 5 0;
#X restore 39 266 pd pan_core;
#X text 165 300 Adapted from [equal_power_pan~] \, Hans-Christoph Steiner
\, 2004;
#X text 320 312 comment;
#X obj 128 46 inlet~;
#X connect 0 0 6 0;
#X connect 1 0 5 0;
#X connect 3 0 6 1;
#X connect 4 0 6 3;
#X connect 5 0 3 0;
#X connect 5 0 4 0;
#X connect 6 0 2 0;
#X connect 9 0 6 2;
#X restore 27 517 pd crossfade;
#X floatatom 157 250 5 0 0 0 - - -, f 5;
#X floatatom 236 248 5 0 0 0 - - -, f 5;
#X obj 157 181 t f f;
#X obj 157 203 *;
#X obj 157 226 * 5;
#X obj 236 211 * 5;
#X obj 347 364 i;
#X obj 347 386 / 10;
#X obj 507 385 i;
#X obj 507 363 * 101;
#X obj 301 542 i;
#X obj 301 519 * 101;
#X obj 347 340 * 50;
#X obj 66 387 e_chorus mychorus;
#X obj 157 150 r chor-freq;
#X obj 236 184 r chor-mod;
#X msg 347 415 Freq \$1 Hz;
#X obj 347 437 s chor-freq-label;
#X obj 506 437 s chor-mod-label;
#X msg 506 408 Mod \$1 %;
#X obj 27 630 *~ 1;
#X obj 141 620 *~ 1;
#X obj 222 447 r chor-dw;
#X obj 28 41 r~ chor-in;
#X obj 27 659 s~ chor-outL;
#X obj 141 659 s~ chor-outR;
#X obj 301 587 s chor-dw-label;
#X text 413 110 chorus effect module;
#X msg 301 567 Dry / Wet \$1 %;
#X connect 0 0 17 1;
#X connect 1 0 17 1;
#X connect 2 0 25 0;
#X connect 3 0 24 0;
#X connect 4 0 1 0;
#X connect 5 0 0 0;
#X connect 6 0 7 0;
#X connect 6 1 7 1;
#X connect 7 0 8 0;
#X connect 7 0 16 0;
#X connect 8 0 4 0;
#X connect 9 0 5 0;
#X connect 10 0 11 0;
#X connect 11 0 20 0;
#X connect 12 0 23 0;
#X connect 13 0 12 0;
#X connect 14 0 32 0;
#X connect 15 0 14 0;
#X connect 16 0 10 0;
#X connect 17 0 3 1;
#X connect 17 1 2 1;
#X connect 18 0 6 0;
#X connect 19 0 9 0;
#X connect 19 0 13 0;
#X connect 20 0 21 0;
#X connect 23 0 22 0;
#X connect 24 0 28 0;
#X connect 25 0 29 0;
#X connect 26 0 2 2;
#X connect 26 0 3 2;
#X connect 26 0 15 0;
#X connect 27 0 3 0;
#X connect 27 0 17 0;
#X connect 27 0 2 0;
#X connect 32 0 30 0;
