#N canvas 311 83 1348 924 10;
#X obj 515 282 shell;
#X obj 135 58 loadbang;
#X obj 494 139 sel 1;
#X obj 494 62 r aux;
#X obj 494 161 t b b;
#X obj 539 189 s clear-oled;
#X obj 515 220 delay 1000;
#X obj 304 708 shell;
#X obj 345 565 t b b;
#X obj 304 646 delay 1000;
#X msg 474 602 \; screenLine2 Sutting Down... \;;
#X msg 305 675 /root/scripts/shutdown.sh;
#N canvas 8 50 450 300 clear-oled 0;
#X msg 91 123 \; oscOut send /oled/line/1 \; oscOut send /oled/line/2
\; oscOut send /oled/line/3 \; oscOut send /oled/line/4 \; oscOut send
/oled/line/5 \;;
#X obj 91 47 r clear-oled;
#X obj 91 83 bng 15 250 50 0 empty empty empty 17 7 0 10 -262144 -1
-1;
#X connect 1 0 2 0;
#X connect 2 0 0 0;
#X restore 139 206 pd clear-oled;
#X msg 129 91 \; screenLine1 Press Aux to begin. \; screenLine2 When
the install is \; screenLine3 complete the \; screenLine4 Organelle
will \; screenLine5 shutdown. \;;
#X msg 515 250 /usbdrive/Patches/Install-FluidSynth/deploy.sh;
#X msg 217 260 \; screenLine2 Installing... \;;
#X obj 456 525 bng 15 250 50 0 empty empty empty 17 7 0 10 -262144
-1 -1;
#X obj 367 526 bng 15 250 50 0 empty empty empty 17 7 0 10 -262144
-1 -1;
#X obj 370 488 route Sucess error;
#X obj 303 372 print;
#X msg 709 595 \; screenLine2 File Problem. Try \; screenLine3 Downloading
this \; screenLine4 patch again. \;;
#X connect 0 0 18 0;
#X connect 0 0 19 0;
#X connect 1 0 13 0;
#X connect 2 0 4 0;
#X connect 3 0 2 0;
#X connect 4 0 15 0;
#X connect 4 0 6 0;
#X connect 4 1 5 0;
#X connect 6 0 14 0;
#X connect 8 0 9 0;
#X connect 8 1 10 0;
#X connect 9 0 11 0;
#X connect 11 0 7 0;
#X connect 14 0 0 0;
#X connect 16 0 20 0;
#X connect 17 0 8 0;
#X connect 18 0 17 0;
#X connect 18 1 16 0;
