#N canvas 12 50 1131 925 10;
#X obj 321 523 vd~ del;
#X obj 404 242 phasor~ 1;
#X obj 512 532 tabread4~ hanning;
#X obj 513 498 *~ 256;
#X obj 389 714 *~;
#X obj 360 377 samphold~;
#X obj 262 263 sig~ 200;
#X obj 322 419 *~;
#X floatatom 446 65 5 0 0 0 - - -, f 5;
#X obj 442 186 expr 1 / ($f1 / 1000);
#X obj 362 184 / 1000;
#X floatatom 362 206 5 0 0 0 - - -, f 5;
#X obj 295 300 *~;
#X obj 261 228 * -1;
#X obj 261 196 - 1000;
#X floatatom 260 118 5 0 0 0 - - -, f 5;
#X obj 261 169 * 1000;
#X obj 501 263 noise~;
#X obj 501 291 *~ 0.5;
#X obj 501 320 +~ 0.5;
#X obj 501 348 *~ 4000;
#X obj 501 407 samphold~;
#X obj 321 488 +~;
#X text 557 306 location;
#X text 470 42 grain size;
#X text 209 145 speed;
#X obj 438 21 r grain-size;
#X obj 245 32 inlet;
#X obj 393 873 outlet~;
#X obj 446 94 t f b;
#X obj 454 118 +;
#X obj 503 93 random 25;
#X obj 671 307 r loc;
#X obj 501 377 +~ 0;
#X text 561 384 comment;
#X obj 58 600 noise~;
#X obj 58 628 *~ 0.5;
#X obj 57 657 +~ 0.5;
#X obj 58 684 samphold~;
#X obj 357 804 *~, f 6;
#X text 46 574 density control;
#X obj 227 655 sig~;
#X obj 228 681 samphold~;
#X obj 57 713 expr~ if($v1 < $v2 \, 1 \, 0);
#X obj 227 628 + 0.01;
#X obj 227 601 r density;
#X obj 452 144 clip 10 8000;
#X obj 261 142 clip 0.25 2;
#X connect 0 0 4 0;
#X connect 1 0 3 0;
#X connect 1 0 5 1;
#X connect 1 0 7 0;
#X connect 1 0 21 1;
#X connect 1 0 38 1;
#X connect 1 0 42 1;
#X connect 2 0 4 1;
#X connect 3 0 2 0;
#X connect 4 0 39 1;
#X connect 5 0 7 1;
#X connect 6 0 12 0;
#X connect 7 0 22 0;
#X connect 8 0 29 0;
#X connect 9 0 1 0;
#X connect 10 0 11 0;
#X connect 11 0 12 1;
#X connect 12 0 5 0;
#X connect 13 0 6 0;
#X connect 14 0 13 0;
#X connect 15 0 47 0;
#X connect 16 0 14 0;
#X connect 17 0 18 0;
#X connect 18 0 19 0;
#X connect 19 0 20 0;
#X connect 20 0 33 0;
#X connect 21 0 22 1;
#X connect 22 0 0 0;
#X connect 26 0 8 0;
#X connect 27 0 15 0;
#X connect 29 0 30 0;
#X connect 29 1 31 0;
#X connect 30 0 46 0;
#X connect 31 0 30 1;
#X connect 32 0 20 1;
#X connect 33 0 21 0;
#X connect 35 0 36 0;
#X connect 36 0 37 0;
#X connect 37 0 38 0;
#X connect 38 0 43 0;
#X connect 39 0 28 0;
#X connect 41 0 42 0;
#X connect 42 0 43 1;
#X connect 43 0 39 0;
#X connect 44 0 41 0;
#X connect 45 0 44 0;
#X connect 46 0 9 0;
#X connect 46 0 10 0;
#X connect 47 0 16 0;
