#N canvas 95 165 1604 818 10;
#X obj 93 552 throw~ outR;
#X obj 202 18 r notes;
#X obj 206 550 throw~ outL;
#X obj 202 49 stripnote;
#N canvas 0 50 450 250 (subpatch) 0;
#X array param1 24 float 3;
#A 0 0.046875 0.290039 0.0458984 0.143555 0.108398 0 0.251953 0.200195
0.631836 0.825195 0.357422 0.251953 0.240234 0.939453 0 0.308594 0
0.389648 0.380003 0.290001 0.209999 0.209999 0.199999 0.392578;
#X coords 0 1 24 0 100 100 1 0 0;
#X restore 866 193 graph;
#N canvas 4 50 450 250 (subpatch) 0;
#X array param2 24 float 3;
#A 0 0.366211 0.999023 0.167969 0.165039 0.264648 0 0.0810547 0.959961
0.291016 0.999023 0.959961 0.0810547 0.0185547 0.0634766 0 0.844727
0 0.844727 1.025 1.0025 0.979999 0.944999 0.909999 0.869999;
#X coords 0 1 24 0 100 100 1 0 0;
#X restore 867 315 graph;
#N canvas 0 50 450 250 (subpatch) 0;
#X array param3 24 float 3;
#A 0 0.273438 0.273438 0 0.212891 0.273438 0.420898 0.432617 0.601562
0.436523 0.999023 0.601562 0.431641 0.516602 0.737305 0.738281 0.212891
0.420898 0.212891 0.890018 1.05002 1.23003 0.870017 0.480008 0.0899993
;
#X coords 0 1 24 0 100 100 1 0 0;
#X restore 867 440 graph;
#N canvas 0 50 450 250 (subpatch) 0;
#X array param4 24 float 3;
#A 0 0.1875 0.999023 0.441406 0.966797 0.999023 0.394531 0.233398 0.0712891
0.542969 0.189453 0.0712891 0.232422 0.999023 0.628906 0 0.0234375
0.394531 0.0224609 0.0800033 0.160001 0.649989 0.639989 0.60999 0.0700211
;
#X coords 0 1 24 0 100 100 1 0 0;
#X restore 868 565 graph;
#N canvas 11 50 766 473 check-for-hold 0;
#X obj 149 29 inlet;
#X obj 110 394 outlet;
#X text 270 78 a bang goes out if a note is held alone without any
others being touched;
#X msg 228 233 stop;
#X obj 116 96 unpack;
#X obj 149 288 del 1000;
#X obj 145 172 sel 0;
#X obj 174 199 bang;
#X obj 187 132 t f b;
#X obj 105 344 f;
#X connect 0 0 4 0;
#X connect 3 0 5 0;
#X connect 4 0 9 1;
#X connect 4 1 8 0;
#X connect 5 0 9 0;
#X connect 6 1 7 0;
#X connect 7 0 5 0;
#X connect 8 0 6 0;
#X connect 8 1 3 0;
#X connect 9 0 1 0;
#X restore 518 439 pd check-for-hold;
#X obj 485 503 bang;
#X msg 485 532 1;
#X obj 624 688 tgl 15 0 empty empty empty 17 7 0 10 -262144 -1 -1 0
1;
#X obj 495 598 s edit-state;
#X obj 348 39 r edit-note;
#X obj 547 544 s edit-note;
#X obj 226 80 ==;
#X obj 249 111 sel 0;
#X msg 270 141 0;
#X obj 280 166 s edit-state;
#X obj 624 656 r edit-state;
#X obj 518 406 r notesRaw;
#X obj 502 85 sequencer2;
#X obj 108 16 r notes_seq;
#X obj 664 252 loadbang;
#X msg 664 274 0;
#X obj 664 296 s edit-state;
#X obj 526 468 t b f b;
#X obj 689 522 t b b;
#X obj 721 579 v state;
#X obj 662 584 s stop;
#X msg 721 557 0;
#N canvas 9 50 838 433 screen-n-led 0;
#X obj 302 72 r edit-state;
#X obj 302 136 sel 0 1;
#X obj 493 186 r edit-note;
#X obj 461 222 f;
#X obj 302 106 change -1;
#X msg 461 264 \; screenLine1 1: Start Freq \; screenLine2 2: Ramp
Time \; screenLine3 3: Noise \; screenLine4 4: Decay \; screenLine5
Editing Key \$1 \; led 7 \;;
#X msg 184 255 \; screenLine1 1: HFO Rate \; screenLine2 2: HFO Amt
\; screenLine3 3: Room Size \; screenLine4 4: Reverb Amt \; screenLine5
Aux: Sequencer \; led \$1 \;;
#X connect 0 0 4 0;
#X connect 1 0 6 0;
#X connect 1 1 3 0;
#X connect 2 0 3 1;
#X connect 3 0 5 0;
#X connect 4 0 1 0;
#X restore 1036 189 pd screen-n-led;
#X obj 41 199 voice 0;
#X obj 134 366 catch~ voice-out;
#N canvas 5 50 530 480 param-editor 0;
#X obj 94 40 r edit-state;
#X obj 153 113 r edit-note;
#X obj 36 61 r knob1;
#X obj 51 116 spigot 0;
#X floatatom 52 139 5 0 0 0 - - -, f 5;
#X obj 53 167 tabwrite param1;
#X obj 151 137 - 60;
#X obj 357 112 r edit-note;
#X obj 255 115 spigot 0;
#X floatatom 256 138 5 0 0 0 - - -, f 5;
#X obj 355 136 - 60;
#X obj 145 306 r edit-note;
#X obj 43 309 spigot 0;
#X floatatom 44 332 5 0 0 0 - - -, f 5;
#X obj 143 330 - 60;
#X obj 349 305 r edit-note;
#X obj 247 308 spigot 0;
#X floatatom 248 331 5 0 0 0 - - -, f 5;
#X obj 347 329 - 60;
#X obj 257 166 tabwrite param2;
#X obj 45 360 tabwrite param3;
#X obj 249 355 tabwrite param4;
#X obj 50 88 f;
#X obj 95 62 t b f;
#X obj 298 37 r edit-state;
#X obj 254 85 f;
#X obj 299 59 t b f;
#X obj 240 58 r knob2;
#X obj 91 228 r edit-state;
#X obj 47 276 f;
#X obj 92 250 t b f;
#X obj 292 226 r edit-state;
#X obj 248 274 f;
#X obj 293 248 t b f;
#X obj 33 249 r knob3;
#X obj 234 247 r knob4;
#X connect 0 0 23 0;
#X connect 1 0 6 0;
#X connect 2 0 22 0;
#X connect 3 0 4 0;
#X connect 4 0 5 0;
#X connect 6 0 5 1;
#X connect 7 0 10 0;
#X connect 8 0 9 0;
#X connect 9 0 19 0;
#X connect 10 0 19 1;
#X connect 11 0 14 0;
#X connect 12 0 13 0;
#X connect 13 0 20 0;
#X connect 14 0 20 1;
#X connect 15 0 18 0;
#X connect 16 0 17 0;
#X connect 17 0 21 0;
#X connect 18 0 21 1;
#X connect 22 0 3 0;
#X connect 23 0 22 0;
#X connect 23 1 3 1;
#X connect 24 0 26 0;
#X connect 25 0 8 0;
#X connect 26 0 25 0;
#X connect 26 1 8 1;
#X connect 27 0 25 0;
#X connect 28 0 30 0;
#X connect 29 0 12 0;
#X connect 30 0 29 0;
#X connect 30 1 12 1;
#X connect 31 0 33 0;
#X connect 32 0 16 0;
#X connect 33 0 32 0;
#X connect 33 1 16 1;
#X connect 34 0 29 0;
#X connect 35 0 32 0;
#X restore 1035 217 pd param-editor;
#N canvas 5 50 1160 286 knob-to-fx 0;
#X obj 68 62 r knob1;
#X obj 72 115 spigot 1;
#X obj 124 68 r edit-state;
#X obj 124 90 ==;
#X obj 71 147 s eparam1;
#X obj 231 119 spigot 1;
#X obj 283 72 r edit-state;
#X obj 283 94 ==;
#X obj 403 116 spigot 1;
#X obj 455 69 r edit-state;
#X obj 455 91 ==;
#X obj 562 120 spigot 1;
#X obj 614 73 r edit-state;
#X obj 614 95 ==;
#X obj 227 66 r knob2;
#X obj 399 63 r knob3;
#X obj 558 67 r knob4;
#X obj 230 151 s eparam2;
#X obj 402 148 s eparam3;
#X obj 561 152 s eparam4;
#X connect 0 0 1 0;
#X connect 1 0 4 0;
#X connect 2 0 3 0;
#X connect 3 0 1 1;
#X connect 5 0 17 0;
#X connect 6 0 7 0;
#X connect 7 0 5 1;
#X connect 8 0 18 0;
#X connect 9 0 10 0;
#X connect 10 0 8 1;
#X connect 11 0 19 0;
#X connect 12 0 13 0;
#X connect 13 0 11 1;
#X connect 14 0 5 0;
#X connect 15 0 8 0;
#X connect 16 0 11 0;
#X restore 1038 245 pd knob-to-fx;
#N canvas 4 50 825 527 reverb 0;
#X msg 231 207 wet \$1;
#X msg 327 204 dry \$1;
#X obj 181 321 freeverb~;
#X obj 231 124 r rwet;
#X obj 327 123 r rdry;
#X msg 231 151 \$1 40;
#X msg 327 149 \$1 40;
#X obj 327 177 line 0 1;
#X obj 231 179 line 0 1;
#X obj 399 206 - 1;
#X obj 399 233 abs;
#X obj 399 260 s rdry;
#X obj 442 192 s rwet;
#X obj 442 160 * 0.5;
#X obj 419 113 r eparam4;
#X obj 177 109 *~ 0.5;
#X obj 62 95 r eparam3;
#X floatatom 73 241 5 0 0 0 - - -, f 5;
#X msg 82 187 roomsize \$1;
#X obj 75 158 * 0.8;
#X obj 189 44 inlet~;
#X obj 164 387 outlet~;
#X obj 245 389 outlet~;
#X connect 0 0 2 0;
#X connect 1 0 2 0;
#X connect 2 0 21 0;
#X connect 2 1 22 0;
#X connect 3 0 5 0;
#X connect 4 0 6 0;
#X connect 5 0 8 0;
#X connect 6 0 7 0;
#X connect 7 0 1 0;
#X connect 8 0 0 0;
#X connect 9 0 10 0;
#X connect 10 0 11 0;
#X connect 13 0 12 0;
#X connect 13 0 9 0;
#X connect 14 0 13 0;
#X connect 15 0 2 1;
#X connect 15 0 2 0;
#X connect 16 0 19 0;
#X connect 18 0 2 0;
#X connect 19 0 18 0;
#X connect 19 0 17 0;
#X connect 20 0 15 0;
#X restore 143 461 pd reverb;
#X obj 41 222 voice 1;
#X obj 41 245 voice 2;
#X obj 41 268 voice 3;
#X obj 41 291 voice 4;
#X obj 42 314 voice 5;
#X obj 120 197 voice 6;
#X obj 120 220 voice 7;
#X obj 120 243 voice 8;
#X obj 120 266 voice 9;
#X obj 120 289 voice 10;
#X obj 121 312 voice 11;
#X obj 196 196 voice 12;
#X obj 196 220 voice 13;
#X obj 196 243 voice 14;
#X obj 196 266 voice 15;
#X obj 196 289 voice 16;
#X obj 197 312 voice 17;
#X obj 275 195 voice 18;
#X obj 275 218 voice 19;
#X obj 275 241 voice 20;
#X obj 275 264 voice 21;
#X obj 275 287 voice 22;
#X obj 276 310 voice 23;
#X obj 1141 549 s~ lfo;
#X obj 1143 423 osc~;
#X obj 1141 485 *~;
#X obj 1225 259 r eparam1;
#X obj 1221 289 t f f;
#X obj 1221 311 *;
#X obj 1213 341 * 1000;
#X obj 1209 415 r eparam2;
#X obj 1205 446 * 1000;
#X connect 1 0 3 0;
#X connect 3 0 15 0;
#X connect 8 0 26 0;
#X connect 9 0 10 0;
#X connect 10 0 12 0;
#X connect 13 0 15 1;
#X connect 15 0 16 0;
#X connect 16 0 17 0;
#X connect 17 0 18 0;
#X connect 19 0 11 0;
#X connect 20 0 8 0;
#X connect 22 0 3 0;
#X connect 23 0 24 0;
#X connect 24 0 25 0;
#X connect 26 0 9 0;
#X connect 26 1 14 0;
#X connect 26 2 27 0;
#X connect 27 0 29 0;
#X connect 27 1 30 0;
#X connect 30 0 28 0;
#X connect 33 0 36 0;
#X connect 36 0 0 0;
#X connect 36 1 2 0;
#X connect 61 0 62 0;
#X connect 62 0 60 0;
#X connect 63 0 64 0;
#X connect 64 0 65 0;
#X connect 64 1 65 1;
#X connect 65 0 66 0;
#X connect 66 0 61 0;
#X connect 67 0 68 0;
#X connect 68 0 62 1;
