#N canvas 211 200 1611 990 10;
#X obj 67 958 s oscOut;
#N canvas 315 134 781 753 display-waveform 0;
#X obj 244 121 soundfiler;
#X obj 451 81 table s1;
#X obj 368 256 / 128;
#X obj 347 314 + 1;
#X obj 310 317 f 0;
#X floatatom 391 290 5 0 0 0 - - -;
#X obj 311 353 i;
#X obj 269 257 until;
#X msg 275 232 128;
#X msg 336 245 0;
#X obj 312 387 tabread s1;
#X obj 314 409 * 0.5;
#X obj 314 431 + 0.5;
#X obj 314 460 * 64;
#X obj 314 505 i;
#X obj 173 36 inlet;
#X obj 371 553 t l;
#X obj 230 642 list append;
#X obj 233 672 list trim;
#X obj 274 549 list prepend;
#X obj 199 99 bng 15 250 50 0 empty empty empty 17 7 0 10 -262144 -1
-1;
#X obj 242 148 i;
#X obj 258 51 loadbang;
#X msg 249 82 read -resize ./1.wav s1;
#X text 444 289 step through table at duration / 128;
#X obj 261 171 t b b b f b b;
#X msg 54 547 sendtyped /oled/gWaveform ib 3;
#X obj 237 709 outlet;
#X connect 0 0 21 1;
#X connect 2 0 5 0;
#X connect 3 0 4 1;
#X connect 4 0 3 0;
#X connect 4 0 6 0;
#X connect 5 0 3 1;
#X connect 6 0 10 0;
#X connect 7 0 4 0;
#X connect 8 0 7 0;
#X connect 9 0 4 1;
#X connect 10 0 11 0;
#X connect 11 0 12 0;
#X connect 12 0 13 0;
#X connect 13 0 14 0;
#X connect 14 0 19 0;
#X connect 15 0 20 0;
#X connect 16 0 19 1;
#X connect 17 0 18 0;
#X connect 18 0 27 0;
#X connect 19 0 17 1;
#X connect 19 0 16 0;
#X connect 20 0 21 0;
#X connect 21 0 25 0;
#X connect 22 0 23 0;
#X connect 23 0 0 0;
#X connect 25 0 26 0;
#X connect 25 1 8 0;
#X connect 25 2 9 0;
#X connect 25 3 2 0;
#X connect 25 4 19 0;
#X connect 25 5 19 1;
#X connect 26 0 17 0;
#X restore 377 843 pd display-waveform;
#X text 517 381 Invert the screen;
#X text 1016 94 Drawing on Organelle OLED.;
#X text 1015 207 The OLED is 128 x 64 pixels. Each one is on or off
(0 or 1);
#X text 1016 230 Point 0 \, 0 is top left of screen.;
#X text 821 671 Graph 128 amplitude points. A line is drawn between
each point. Must be an OSC blob with exactly 128 bytes. Each byte is
a number 0 - 64 \, the larger numbers just roll over. This command
is used to display waveforms.;
#X msg 376 176 /oled/gCircle 3 64 32 20 1;
#X text 1016 253 The internal update rate is around 20 frames per second
\, so you shouldn't send commands (or groups of commands e.g. to draw
a frame) faster than 50 ms \, it will only eat CPU.;
#X text 569 98 disable vu meter display;
#X msg 377 96 /oled/gShowInfoBar 3 0;
#X msg 377 120 /oled/gClear 3 1;
#X text 520 122 for some reason this requires a '1';
#X text 499 317 update display;
#X msg 378 316 /oled/gFlip 3;
#X msg 377 151 /oled/gSetPixel 3 120 50 1;
#X text 1015 116 The message format is: command \, screen number \,
[x \, y \, other stuff];
#X text 1015 172 The x and y coordinates and other stuff is optional
depending on message.;
#X text 582 149 Pixel \, x \, y \, color (0 or 1);
#X text 580 177 Circle \, x \, y \, radius \, color (0 or 1);
#X msg 379 206 /oled/gLine 3 20 30 115 78 1;
#X text 1016 150 The screen number is always 3;
#X text 585 205 Line \, start x \, y \, end x \, y \, color (0 or 1)
;
#X text 581 243 Box \, x \, y \, width \, height \, color (0 or 1)
;
#X msg 379 240 /oled/gBox 3 10 10 10 50 1;
#X text 607 272 Filled area \, x \, y \, width \, height \, color (0
or 1);
#X msg 377 270 /oled/gFillArea 3 30 10 50 3 1;
#X text 645 485 Print line \, x \, y \, size \, color \, stuff to print
;
#X text 662 504 4 font sizes available: 8 \, 16 \, 24 \, 32;
#X msg 389 513 /oled/gPrintln 3 0 10 16 1 Bigger;
#X msg 388 538 /oled/gPrintln 3 0 28 24 1 Big;
#X msg 387 562 /oled/gPrintln 3 50 28 32 1 Huge;
#X msg 386 488 /oled/gPrintln 3 0 0 8 1 Small;
#X msg 380 655 sendtyped /oled/gWaveform ib 3 0 1 2 3 4 5 6 7 8 9 10
11 12 13 14 15 16 17 18 19 20 21 22 23 24 25 26 27 28 29 30 31 32 33
34 35 36 37 38 39 40 41 42 43 44 45 46 47 48 49 50 51 52 53 54 55 56
57 58 59 60 61 62 63 64 65 66 67 68 69 70 71 72 73 74 75 76 77 78 79
80 81 82 83 84 85 86 87 88 89 90 91 92 93 94 95 96 97 98 99 100 101
102 103 104 105 106 107 108 109 110 111 112 113 114 115 116 117 118
119 120 121 122 123 124 125 126 127;
#X msg 379 379 /oled/gInvert 3 1;
#X text 618 294 Invert area \, x \, y \, width \, height;
#X msg 376 293 /oled/gInvertArea 3 0 25 128 10;
#X text 510 587 update display;
#X msg 389 586 /oled/gFlip 3;
#X msg 385 464 /oled/gClear 3 1;
#X text 500 404 update display;
#X msg 379 403 /oled/gFlip 3;
#X msg 379 633 /oled/gClear 3 1;
#X text 501 775 update display;
#X msg 380 774 /oled/gFlip 3;
#X msg 375 821 /oled/gClear 3 1;
#X msg 378 867 /oled/gFlip 3;
#X obj 359 844 bng 15 250 50 0 empty empty empty 17 7 0 10 -262144
-1 -1;
#X obj 191 50 t b b b b b b b b b b;
#X obj 190 204 t b b b;
#X obj 165 338 t b b b b b b b;
#X obj 142 483 t b b b b;
#X obj 83 658 t b b b b;
#X obj 190 182 delay 1000;
#X obj 165 316 delay 1000;
#X obj 142 461 delay 1000;
#X obj 83 635 delay 1000;
#X obj 108 51 delay 1000;
#X obj 191 -1 loadbang;
#X obj 191 21 delay 100;
#X text 1018 311 All drawing messages must be followed by a gFlip to
update the display.;
#X connect 1 0 0 0;
#X connect 7 0 0 0;
#X connect 10 0 0 0;
#X connect 11 0 0 0;
#X connect 14 0 0 0;
#X connect 15 0 0 0;
#X connect 20 0 0 0;
#X connect 24 0 0 0;
#X connect 26 0 0 0;
#X connect 29 0 0 0;
#X connect 30 0 0 0;
#X connect 31 0 0 0;
#X connect 32 0 0 0;
#X connect 33 0 0 0;
#X connect 34 0 0 0;
#X connect 36 0 0 0;
#X connect 38 0 0 0;
#X connect 39 0 0 0;
#X connect 41 0 0 0;
#X connect 42 0 0 0;
#X connect 44 0 0 0;
#X connect 45 0 0 0;
#X connect 46 0 0 0;
#X connect 47 0 1 0;
#X connect 48 0 53 0;
#X connect 48 1 14 0;
#X connect 48 2 36 0;
#X connect 48 3 26 0;
#X connect 48 4 24 0;
#X connect 48 5 20 0;
#X connect 48 6 7 0;
#X connect 48 7 15 0;
#X connect 48 8 11 0;
#X connect 48 9 10 0;
#X connect 49 0 54 0;
#X connect 49 1 41 0;
#X connect 49 2 34 0;
#X connect 50 0 55 0;
#X connect 50 1 38 0;
#X connect 50 2 31 0;
#X connect 50 3 30 0;
#X connect 50 4 29 0;
#X connect 50 5 32 0;
#X connect 50 6 39 0;
#X connect 51 0 56 0;
#X connect 51 1 44 0;
#X connect 51 2 33 0;
#X connect 51 3 42 0;
#X connect 52 0 57 0;
#X connect 52 1 46 0;
#X connect 52 2 47 0;
#X connect 52 3 45 0;
#X connect 53 0 49 0;
#X connect 54 0 50 0;
#X connect 55 0 51 0;
#X connect 56 0 52 0;
#X connect 57 0 48 0;
#X connect 58 0 59 0;
#X connect 59 0 48 0;
