#N canvas 229 222 1633 855 10;
#X obj 341 374 throw~ outL;
#X obj 239 374 throw~ outR;
#X obj 6 275 loadbang;
#X obj 1416 117 i;
#X obj 1416 38 r knob4;
#X obj 1416 88 * 100;
#X obj 1416 216 s screenLine4;
#X obj 1416 139 change -1;
#X obj 774 227 master-metronome, f 36;
#X floatatom 898 168 5 0 0 0 - - -, f 5;
#X obj 898 116 * 250;
#X obj 898 142 + 10;
#X obj 505 190 + 1;
#X obj 505 215 i;
#X floatatom 505 246 5 0 0 0 - - -, f 5;
#X obj 579 281 s num-sixteenths;
#X obj 505 281 change -1;
#X obj 781 14 r aux;
#X obj 781 40 sel 1;
#X obj 781 74 s cancel;
#X obj 744 185 tgl 15 0 empty empty empty 17 7 0 10 -262144 -1 -1 0
1;
#X msg 744 116 0;
#X obj 787 111 r start-metro;
#X msg 787 145 1;
#X obj 1236 495 r quarters;
#X obj 1320 494 r reset-metronome;
#X obj 1338 632 bng 15 250 50 0 empty empty empty 17 7 0 10 -262144
-1 -1;
#X msg 1372 671 \; led 7;
#X msg 1296 700 \; led 0;
#X obj 1296 677 delay 100;
#X msg 1171 690 \; led 0;
#X obj 1171 667 delay 100;
#X msg 1247 661 \; led 6;
#X obj 1236 586 sel 0 1 2 3;
#X obj 1236 632 bng 15 250 50 0 empty empty empty 17 7 0 10 -262144
-1 -1;
#X text 828 16 aux kills the jam;
#X text 1331 537 flash led on quarter and half notes;
#X obj 1317 559 s halfnotes;
#X obj 60 572 s are-you-playing;
#X obj 233 536 r i-am-playing;
#X text 111 494 check every quater note how many sounding;
#X msg 162 676 \; screenLine5 Aux: Cancel \$1 voices \;;
#X msg 187 537 0;
#X obj 233 611 + 1;
#X obj 162 650 i, f 4;
#X obj 233 583 i 0;
#X obj 37 508 t b b b;
#X obj 37 484 metro 300;
#X obj 37 460 loadbang;
#X obj 505 168 * 16;
#X obj 1236 532 counter-up 4;
#X obj 898 57 r knob2;
#X obj 505 138 r knob1;
#X msg 505 309 \; screenLine1 1: Div \$1 Sixteenths \;;
#X obj 1186 29 r knob3;
#X obj 853 544 s midiOutGate;
#X obj 853 464 loadbang;
#X obj 853 490 delay 20;
#X msg 853 516 0;
#X text 784 368 because this patch sends its own notes out;
#X text 784 350 disable keyboard sending MIDI notes from mother.pd
;
#X obj 238 321 *~ 1;
#X obj 1023 263 i;
#X obj 1023 285 change -1;
#X obj 774 263 i;
#X obj 774 285 change -1;
#X msg 774 309 \; screenLine2 2: Tempo \$1 BPM MIDI \;;
#X msg 1023 309 \; screenLine2 2: Tempo \$1 BPM \;;
#X obj 774 201 change;
#X obj 420 284 r~ inL;
#X obj 1187 226 s screenLine3;
#X obj 1186 71 *;
#X text 114 14 Effects Manager;
#X obj 218 269 catch~ delay_voice_out;
#X obj 239 294 catch~ distort_voice_out;
#X obj 1186 165 int;
#X msg 6 297 \; screenLine1 1: Div \; screenLine2 2: Tempo \; screenLine3
3: Time \; screenLine4 4: Feedback \; screenLine5 Aux: Cancel \;;
#X msg 1416 194 4: Fb/Dst level \$1 %;
#X obj 1186 121 * 100;
#X obj 9 52 delay-voice 0;
#X obj 1186 143 + 2;
#X obj 116 122 distortion-voice 12;
#X obj 419 318 *~ 0.2;
#X msg 1186 203 3: Dl/Dst time \$1 ms;
#X obj 115 97 delay-voice 11;
#X obj 115 51 delay-voice 9;
#X obj 7 74 delay-voice 1;
#X obj 9 98 delay-voice 2;
#X obj 10 121 delay-voice 3;
#X obj 9 145 delay-voice 4;
#X obj 9 169 delay-voice 5;
#X obj 9 192 delay-voice 6;
#X obj 12 215 delay-voice 7;
#X obj 10 238 delay-voice 8;
#X obj 115 75 delay-voice 10;
#X obj 262 187 distortion-voice 24;
#X obj 264 118 distortion-voice 21;
#X obj 114 145 distortion-voice 13;
#X obj 114 169 distortion-voice 14;
#X obj 115 191 distortion-voice 15;
#X obj 116 213 distortion-voice 16;
#X obj 117 237 distortion-voice 17;
#X obj 266 49 distortion-voice 18;
#X obj 267 73 distortion-voice 19;
#X obj 265 96 distortion-voice 20;
#X obj 262 141 distortion-voice 22;
#X obj 262 163 distortion-voice 23;
#X connect 2 0 76 0;
#X connect 3 0 7 0;
#X connect 4 0 5 0;
#X connect 5 0 3 0;
#X connect 7 0 77 0;
#X connect 8 0 64 0;
#X connect 8 1 62 0;
#X connect 9 0 8 1;
#X connect 10 0 11 0;
#X connect 11 0 9 0;
#X connect 12 0 13 0;
#X connect 13 0 14 0;
#X connect 14 0 15 0;
#X connect 14 0 16 0;
#X connect 16 0 53 0;
#X connect 17 0 18 0;
#X connect 18 0 19 0;
#X connect 18 0 21 0;
#X connect 20 0 68 0;
#X connect 21 0 20 0;
#X connect 22 0 23 0;
#X connect 23 0 20 0;
#X connect 24 0 50 0;
#X connect 25 0 50 1;
#X connect 26 0 27 0;
#X connect 26 0 29 0;
#X connect 29 0 28 0;
#X connect 31 0 30 0;
#X connect 33 0 34 0;
#X connect 33 1 26 0;
#X connect 33 2 26 0;
#X connect 33 3 26 0;
#X connect 34 0 31 0;
#X connect 34 0 32 0;
#X connect 39 0 45 0;
#X connect 42 0 45 1;
#X connect 42 0 44 1;
#X connect 43 0 45 1;
#X connect 43 0 44 1;
#X connect 44 0 41 0;
#X connect 45 0 43 0;
#X connect 46 0 44 0;
#X connect 46 1 38 0;
#X connect 46 2 42 0;
#X connect 47 0 46 0;
#X connect 48 0 47 0;
#X connect 49 0 12 0;
#X connect 50 0 33 0;
#X connect 50 1 37 0;
#X connect 51 0 10 0;
#X connect 52 0 49 0;
#X connect 54 0 71 0;
#X connect 54 0 71 1;
#X connect 56 0 57 0;
#X connect 57 0 58 0;
#X connect 58 0 55 0;
#X connect 61 0 0 0;
#X connect 61 0 1 0;
#X connect 62 0 63 0;
#X connect 63 0 67 0;
#X connect 64 0 65 0;
#X connect 65 0 66 0;
#X connect 68 0 8 0;
#X connect 69 0 82 0;
#X connect 71 0 78 0;
#X connect 73 0 61 0;
#X connect 74 0 61 0;
#X connect 75 0 83 0;
#X connect 77 0 6 0;
#X connect 78 0 80 0;
#X connect 80 0 75 0;
#X connect 82 0 1 0;
#X connect 82 0 0 0;
#X connect 83 0 70 0;
