#N canvas 244 23 867 849 12;
#X floatatom 162 533 0 0 0 0 - - -;
#X floatatom 387 644 0 0 0 0 - - -;
#X text 462 208 START;
#X floatatom 190 303 0 0 0 0 - - -;
#X obj 190 280 r incr;
#X obj 168 255 metro 50;
#X floatatom 168 373 5 0 0 0 - - -, f 5;
#X obj 168 394 s phase;
#X obj 168 350 +;
#X obj 387 667 s dropoff+;
#X obj 169 622 s interval+;
#X floatatom 169 599 0 0 0 0 - - -;
#X obj 162 556 s pitch+;
#X obj 379 599 r dropoff;
#X obj 313 530 r pitch;
#X obj 169 576 r interval;
#X obj 168 212 r metro;
#X obj 228 345 f;
#X obj 12 212 shepvoice 0;
#X obj 228 368 mod 10000;
#X obj 168 327 f;
#X obj 168 235 tgl 15 0 empty empty empty 0 -6 0 8 -262144 -1 -1 1
1;
#X text 27 7 SHEPARD TONE;
#X text 220 732 updated for Pd version 0.37;
#X obj 12 235 shepvoice 500;
#X obj 12 258 shepvoice 1000;
#X obj 12 281 shepvoice 1500;
#X obj 12 304 shepvoice 2000;
#X obj 12 327 shepvoice 2500;
#X obj 12 350 shepvoice 3000;
#X obj 12 373 shepvoice 3500;
#X obj 12 396 shepvoice 4000;
#X obj 12 419 shepvoice 4500;
#X obj 12 442 shepvoice 5000;
#X obj 12 465 shepvoice 5500;
#X obj 12 488 shepvoice 6000;
#X obj 12 511 shepvoice 6500;
#X obj 12 534 shepvoice 7000;
#X obj 12 557 shepvoice 7500;
#X obj 12 580 shepvoice 8000;
#X obj 12 603 shepvoice 8500;
#X obj 12 626 shepvoice 9000;
#X obj 12 653 shepvoice 9500;
#X text 30 28 This patch is a bank of 20 sinusoids \, arranged so that
their frequencies sweep upward or downward in parallel \, and their
amplitudes fade in and out so that each one is quiet when it wraps
around from one end to the other. The overall "phase" computed here
is added to each voice's relative phase (its creation argument). The
"incr" parameter controlls how fast the phase changes \, "dropoff"
the slope at which the amplitudes fall off at the ends \, "pitch" the
center pitch of the cluster \, "interval" the number of (tenths of
halftones) between successive voices \, and "rev" and "revtime" the
reverberator at bottom.;
#X obj 348 242 loadbang;
#X obj 359 291 delay 100;
#X obj 471 601 * 100;
#X obj 145 485 * 100;
#X msg 446 225 \; dropoff 20 \; pitch 60 \; interval 120 \; metro 1
\; rev 84 \; revtime 87 \; incr -2 \;;
#X obj 263 260 - 0.5;
#X obj 12 682 *~ 0.25;
#X obj 263 232 r knob1;
#X obj 425 440 - 1;
#X obj 425 465 t f f;
#X obj 425 490 *;
#X obj 420 517 * 100;
#X obj 407 559 + 5;
#X obj 148 428 r knob2;
#X obj 425 409 r knob3;
#X obj 263 285 * 50;
#X obj 615 470 *~ 1;
#X obj 690 734 throw~ outR;
#X obj 581 731 throw~ outL;
#X msg 650 585 wet \$1;
#X msg 664 635 dry \$1;
#X obj 619 682 freeverb~;
#X obj 677 486 r rwet;
#X obj 749 519 r rdry;
#X msg 669 512 \$1 40;
#X msg 770 551 \$1 40;
#X obj 767 581 line 0 1;
#X obj 666 542 line 0 1;
#X obj 552 559 loadbang;
#X msg 553 596 roomsize 0.6;
#X obj 702 156 r knob4;
#X obj 702 373 change -1;
#X obj 702 427 s screenLine4;
#X obj 702 324 * 100;
#X obj 702 346 i;
#X msg 702 405 4: Reverb \$1 %;
#X obj 650 294 - 1;
#X obj 650 321 abs;
#X obj 650 348 s rdry;
#X obj 725 235 s rwet;
#X obj 725 203 * 0.5;
#X obj 297 417 r notes;
#X obj 148 454 f;
#X obj 211 489 + 0;
#X obj 277 468 - 60;
#X obj 297 442 stripnote;
#X obj 265 503 t b f;
#X connect 0 0 12 0;
#X connect 1 0 9 0;
#X connect 3 0 20 1;
#X connect 4 0 3 0;
#X connect 5 0 20 0;
#X connect 6 0 7 0;
#X connect 8 0 17 0;
#X connect 8 0 6 0;
#X connect 11 0 10 0;
#X connect 13 0 1 0;
#X connect 14 0 0 0;
#X connect 15 0 11 0;
#X connect 16 0 21 0;
#X connect 17 0 19 0;
#X connect 18 0 24 0;
#X connect 19 0 8 1;
#X connect 20 0 8 0;
#X connect 21 0 5 0;
#X connect 24 0 25 0;
#X connect 25 0 26 0;
#X connect 26 0 27 0;
#X connect 27 0 28 0;
#X connect 28 0 29 0;
#X connect 29 0 30 0;
#X connect 30 0 31 0;
#X connect 31 0 32 0;
#X connect 32 0 33 0;
#X connect 33 0 34 0;
#X connect 34 0 35 0;
#X connect 35 0 36 0;
#X connect 36 0 37 0;
#X connect 37 0 38 0;
#X connect 38 0 39 0;
#X connect 39 0 40 0;
#X connect 40 0 41 0;
#X connect 41 0 42 0;
#X connect 42 0 50 0;
#X connect 44 0 45 0;
#X connect 45 0 48 0;
#X connect 46 0 1 0;
#X connect 47 0 87 0;
#X connect 49 0 59 0;
#X connect 50 0 60 0;
#X connect 51 0 49 0;
#X connect 52 0 53 0;
#X connect 53 0 54 0;
#X connect 53 1 54 1;
#X connect 54 0 55 0;
#X connect 55 0 56 0;
#X connect 56 0 1 0;
#X connect 57 0 86 0;
#X connect 58 0 52 0;
#X connect 59 0 20 1;
#X connect 60 0 65 1;
#X connect 60 0 65 0;
#X connect 63 0 65 0;
#X connect 64 0 65 0;
#X connect 65 0 62 0;
#X connect 65 1 61 0;
#X connect 66 0 68 0;
#X connect 67 0 69 0;
#X connect 68 0 71 0;
#X connect 69 0 70 0;
#X connect 70 0 64 0;
#X connect 71 0 63 0;
#X connect 72 0 73 0;
#X connect 73 0 65 0;
#X connect 74 0 77 0;
#X connect 74 0 84 0;
#X connect 75 0 79 0;
#X connect 77 0 78 0;
#X connect 78 0 75 0;
#X connect 79 0 76 0;
#X connect 80 0 81 0;
#X connect 81 0 82 0;
#X connect 84 0 83 0;
#X connect 84 0 80 0;
#X connect 85 0 89 0;
#X connect 86 0 47 0;
#X connect 87 0 0 0;
#X connect 88 0 90 0;
#X connect 89 0 88 0;
#X connect 90 0 86 0;
#X connect 90 1 87 1;
