#N canvas 1203 98 481 812 10;
#X obj 120 277 bng 30 250 50 0 empty empty empty 17 7 0 10 -204800
-1 -1;
#X obj 97 141 sel \$1;
#X obj 97 99 r beAts;
#X obj 159 36 unpack 0 0;
#X obj 159 176 tgl 15 0 empty empty empty 17 7 0 10 -262144 -1 -1 0
1;
#X obj 237 104 loadbang;
#X msg 237 157 1;
#X obj 120 221 spigot;
#X obj 300 114 r reset;
#X obj 159 62 - 60;
#X obj 159 84 pack 0 0;
#X obj 159 128 sel 0;
#X obj 297 156 symbol tog\$1;
#X obj 272 210 send;
#X obj 237 126 del 50;
#X obj 159 12 r OGnotes;
#X obj 191 154 bng 15 250 50 0 empty empty empty 17 7 0 10 -262144
-1 -1;
#X obj 120 312 s BANG;
#X obj 159 196 ==;
#X obj 159 106 route \$2;
#X text 81 401 \$1: voice number \$2: OG key number;
#X connect 0 0 17 0;
#X connect 1 0 7 0;
#X connect 2 0 1 0;
#X connect 3 0 9 0;
#X connect 3 1 10 1;
#X connect 4 0 13 0;
#X connect 4 0 18 0;
#X connect 5 0 12 0;
#X connect 5 0 14 0;
#X connect 6 0 4 0;
#X connect 7 0 0 0;
#X connect 8 0 6 0;
#X connect 9 0 10 0;
#X connect 10 0 19 0;
#X connect 11 1 16 0;
#X connect 12 0 13 1;
#X connect 14 0 6 0;
#X connect 15 0 3 0;
#X connect 16 0 4 0;
#X connect 18 0 7 1;
#X connect 19 0 11 0;
