#N canvas 167 58 1683 939 10;
#X obj 14 304 loadbang;
#X obj 1008 69 r aux;
#X obj 1008 91 sel 1;
#X obj 961 92 s led;
#X obj 1017 340 s rAmp;
#X floatatom 1017 316 5 0 0 0 - - -, f 5;
#X obj 1017 229 change;
#X obj 1017 207 r knob3;
#X obj 1008 113 s reset;
#X obj 1017 251 * 200;
#X obj 61 579 tgl 15 0 empty empty empty 17 7 0 10 -262144 -1 -1 0
1;
#X obj 14 436 OGnotes;
#X obj 1179 388 metroMIDi;
#X floatatom 1179 341 5 0 0 0 - - -, f 5;
#X obj 1179 296 + 10;
#X obj 1179 247 r knob4;
#X text 1174 221 BPM;
#X obj 1179 318 i;
#X text 995 185 adjust ramp in and out time;
#X text 998 43 reset button;
#X floatatom 1093 241 5 0 0 0 - - -, f 5;
#X obj 1093 219 r tempO;
#X obj 1093 272 bng 15 250 50 0 empty empty empty 17 7 0 10 -262144
-1 -1;
#X obj 1017 273 + 2;
#X obj 252 437 throw~ outL;
#X obj 342 437 throw~ outR;
#X obj 435 326 vd~ del1 125;
#X obj 436 414 *~;
#X floatatom 531 337 5 0 0 0 - - -, f 5;
#X obj 531 314 change;
#X obj 531 292 r knob2;
#X obj 437 437 delwrite~ del1 500;
#X obj 1179 360 change;
#X obj 700 344 change;
#X obj 700 276 r knob1;
#X obj 700 320 i;
#X obj 700 391 s screenLine1;
#X msg 991 366 3: Ramp Time: \$1 ms;
#X obj 991 390 s screenLine3;
#X obj 1017 295 i;
#X obj 855 299 * 100;
#X obj 855 321 i;
#X obj 855 343 change;
#X obj 855 391 s screenLine2;
#X msg 855 367 2: Feedback: \$1 %;
#X obj 436 167 r knob1;
#X obj 436 189 * 1000;
#X obj 436 211 i;
#X obj 436 233 change;
#X msg 700 367 1: Delay Time: \$1 ms;
#X obj 700 298 * 1000;
#X obj 254 162 int;
#X obj 303 162 int;
#X floatatom 321 50 5 0 0 0 - - -, f 5;
#X obj 254 138 bng 15 250 50 0 empty empty empty 17 7 0 10 -204786
-1 -1;
#X obj 303 138 bng 15 250 50 0 empty empty empty 17 7 0 10 -261234
-1 -1;
#X obj 303 109 del 125;
#X obj 254 58 bng 30 250 50 0 empty empty empty 17 7 0 10 -204800 -1
-1;
#X obj 349 70 r tempO;
#X obj 321 25 r rAmp;
#X obj 254 232 *~;
#X msg 303 184 1 \$1;
#X msg 254 184 0 \$1;
#X obj 293 240 r~ inL;
#X obj 253 285 *~;
#X obj 254 210 vline~;
#X obj 335 162 loadbang;
#X obj 254 29 r BANG;
#X obj 855 276 r knob2;
#X text 775 238 delay controls;
#X text 73 439 filters OGnote from MIDI;
#X floatatom 349 92 5 0 0 0 - - -, f 5;
#X msg 13 337 \; screenLine1 1: Tempo \; screenLine2 2: Div \; screenLine3
3: Ramp Time \; screenLine4 4: Tempo \; screenLine5 ########## \;;
#X obj 156 806 step-view, f 13;
#X obj 156 828 s screenLine5;
#X obj 156 787 bng 15 250 50 0 empty empty empty 17 7 0 10 -262144
-1 -1;
#X obj 156 764 r BANG!;
#X obj 435 269 lop~ 5;
#X obj 1052 69 r fs;
#X obj 61 555 r tog0;
#X obj 61 599 t b f;
#X obj 61 646 s BANG!;
#X obj 141 579 tgl 15 0 empty empty empty 17 7 0 10 -262144 -1 -1 1
1;
#X obj 141 599 t b f;
#X obj 141 646 s BANG!;
#X obj 93 624 s vb1;
#X obj 173 624 s vb2;
#X obj 141 555 r tog1;
#X obj 221 579 tgl 15 0 empty empty empty 17 7 0 10 -262144 -1 -1 0
1;
#X obj 221 599 t b f;
#X obj 221 646 s BANG!;
#X obj 301 579 tgl 15 0 empty empty empty 17 7 0 10 -262144 -1 -1 1
1;
#X obj 301 599 t b f;
#X obj 301 646 s BANG!;
#X obj 221 555 r tog2;
#X obj 301 555 r tog3;
#X obj 381 579 tgl 15 0 empty empty empty 17 7 0 10 -262144 -1 -1 0
1;
#X obj 381 599 t b f;
#X obj 381 646 s BANG!;
#X obj 461 579 tgl 15 0 empty empty empty 17 7 0 10 -262144 -1 -1 1
1;
#X obj 461 599 t b f;
#X obj 461 646 s BANG!;
#X obj 541 579 tgl 15 0 empty empty empty 17 7 0 10 -262144 -1 -1 1
1;
#X obj 541 599 t b f;
#X obj 541 646 s BANG!;
#X obj 621 579 tgl 15 0 empty empty empty 17 7 0 10 -262144 -1 -1 0
1;
#X obj 621 599 t b f;
#X obj 621 646 s BANG!;
#X obj 381 555 r tog4;
#X obj 461 555 r tog5;
#X obj 541 555 r tog6;
#X obj 621 555 r tog7;
#X obj 251 621 s vb3;
#X obj 333 624 s vb4;
#X obj 413 624 s vb5;
#X obj 493 624 s vb6;
#X obj 573 624 s vb7;
#X obj 653 624 s vb8;
#X obj 14 20 gateSUB 0 6;
#X obj 14 40 gateSUB 1 8;
#X obj 16 60 gateSUB 2 10;
#X obj 14 80 gateSUB 3 13;
#X obj 14 100 gateSUB 4 15;
#X obj 14 120 gateSUB 5 18;
#X obj 14 140 gateSUB 6 20;
#X obj 13 160 gateSUB 7 22;
#X text 525 71 !!!!use the 8 top right black keys on the organelle!!!!
;
#X obj 1179 270 * 470;
#X connect 0 0 72 0;
#X connect 1 0 2 0;
#X connect 1 0 3 0;
#X connect 2 0 8 0;
#X connect 5 0 4 0;
#X connect 5 0 37 0;
#X connect 6 0 9 0;
#X connect 7 0 6 0;
#X connect 9 0 23 0;
#X connect 10 0 80 0;
#X connect 13 0 32 0;
#X connect 14 0 17 0;
#X connect 15 0 127 0;
#X connect 17 0 13 0;
#X connect 20 0 9 1;
#X connect 20 0 22 0;
#X connect 21 0 20 0;
#X connect 22 0 6 0;
#X connect 23 0 39 0;
#X connect 26 0 27 0;
#X connect 26 0 24 0;
#X connect 26 0 25 0;
#X connect 27 0 31 0;
#X connect 28 0 27 1;
#X connect 29 0 28 0;
#X connect 30 0 29 0;
#X connect 32 0 12 0;
#X connect 33 0 49 0;
#X connect 34 0 50 0;
#X connect 35 0 33 0;
#X connect 37 0 38 0;
#X connect 39 0 5 0;
#X connect 40 0 41 0;
#X connect 41 0 42 0;
#X connect 42 0 44 0;
#X connect 44 0 43 0;
#X connect 45 0 46 0;
#X connect 46 0 47 0;
#X connect 47 0 48 0;
#X connect 48 0 77 0;
#X connect 49 0 36 0;
#X connect 50 0 35 0;
#X connect 51 0 62 0;
#X connect 52 0 61 0;
#X connect 53 0 51 1;
#X connect 53 0 52 1;
#X connect 54 0 51 0;
#X connect 55 0 52 0;
#X connect 56 0 55 0;
#X connect 57 0 54 0;
#X connect 57 0 56 0;
#X connect 58 0 71 0;
#X connect 59 0 53 0;
#X connect 60 0 64 0;
#X connect 61 0 65 0;
#X connect 62 0 65 0;
#X connect 63 0 64 1;
#X connect 64 0 24 0;
#X connect 64 0 25 0;
#X connect 64 0 31 0;
#X connect 65 0 60 0;
#X connect 65 0 60 1;
#X connect 66 0 61 0;
#X connect 67 0 57 0;
#X connect 68 0 40 0;
#X connect 71 0 56 1;
#X connect 73 0 74 0;
#X connect 75 0 73 0;
#X connect 76 0 75 0;
#X connect 77 0 26 0;
#X connect 78 0 2 0;
#X connect 79 0 10 0;
#X connect 80 0 81 0;
#X connect 80 1 85 0;
#X connect 82 0 83 0;
#X connect 83 0 84 0;
#X connect 83 1 86 0;
#X connect 87 0 82 0;
#X connect 88 0 89 0;
#X connect 89 0 90 0;
#X connect 89 1 112 0;
#X connect 91 0 92 0;
#X connect 92 0 93 0;
#X connect 92 1 113 0;
#X connect 94 0 88 0;
#X connect 95 0 91 0;
#X connect 96 0 97 0;
#X connect 97 0 98 0;
#X connect 97 1 114 0;
#X connect 99 0 100 0;
#X connect 100 0 101 0;
#X connect 100 1 115 0;
#X connect 102 0 103 0;
#X connect 103 0 104 0;
#X connect 103 1 116 0;
#X connect 105 0 106 0;
#X connect 106 0 107 0;
#X connect 106 1 117 0;
#X connect 108 0 96 0;
#X connect 109 0 99 0;
#X connect 110 0 102 0;
#X connect 111 0 105 0;
#X connect 127 0 14 0;
