#N canvas 187 61 1614 971 10;
#X obj 31 226 makefilename;
#X msg 31 249 set \$1%s;
#X obj 520 979 outlet;
#X msg 1077 168 0 0 0 1 0 0 0 0 1 0 1 0 1 0 1 0;
#X obj 737 1083 print loloer;
#X obj 1057 263 loadbang;
#X msg 1057 285 0 0 0 0 0 0 0 0 0 0 0 0 0 0 0 0;
#X obj 31 99 makefilename %s%%s;
#X msg 31 119 set \$1;
#X obj 61 24 tgl 15 0 empty empty empty 17 7 0 10 -262144 -1 -1 1 1
;
#X obj 932 386 unpack 0 0 0 0 0 0 0 0 0 0 0 0 0 0 0 0;
#X obj 621 1080 s screenLine5;
#X msg 31 72 symbol #;
#X msg 97 72 symbol _;
#X obj 31 47 sel 0 1;
#X obj 31 24 int;
#X obj 82 150 tgl 15 0 empty empty empty 17 7 0 10 -262144 -1 -1 1
1;
#X msg 52 198 symbol #;
#X msg 118 198 symbol _;
#X obj 52 173 sel 0 1;
#X obj 52 150 int;
#X obj 31 346 makefilename;
#X msg 31 369 set \$1%s;
#X obj 82 270 tgl 15 0 empty empty empty 17 7 0 10 -262144 -1 -1 1
1;
#X msg 52 318 symbol #;
#X msg 118 318 symbol _;
#X obj 52 293 sel 0 1;
#X obj 52 270 int;
#X obj 31 466 makefilename;
#X msg 31 489 set \$1%s;
#X obj 82 390 tgl 15 0 empty empty empty 17 7 0 10 -262144 -1 -1 1
1;
#X msg 52 438 symbol #;
#X msg 118 438 symbol _;
#X obj 52 413 sel 0 1;
#X obj 52 390 int;
#X obj 31 586 makefilename;
#X msg 31 609 set \$1%s;
#X obj 82 510 tgl 15 0 empty empty empty 17 7 0 10 -262144 -1 -1 1
1;
#X msg 52 558 symbol #;
#X msg 118 558 symbol _;
#X obj 52 533 sel 0 1;
#X obj 52 510 int;
#X obj 31 706 makefilename;
#X msg 31 729 set \$1%s;
#X obj 82 630 tgl 15 0 empty empty empty 17 7 0 10 -262144 -1 -1 1
1;
#X msg 52 678 symbol #;
#X msg 118 678 symbol _;
#X obj 52 653 sel 0 1;
#X obj 52 630 int;
#X obj 31 826 makefilename;
#X msg 31 849 set \$1%s;
#X obj 82 750 tgl 15 0 empty empty empty 17 7 0 10 -262144 -1 -1 1
1;
#X msg 52 798 symbol #;
#X msg 118 798 symbol _;
#X obj 52 773 sel 0 1;
#X obj 52 750 int;
#X obj 31 946 makefilename;
#X msg 31 969 set \$1%s;
#X obj 82 870 tgl 15 0 empty empty empty 17 7 0 10 -262144 -1 -1 1
1;
#X msg 52 918 symbol #;
#X msg 118 918 symbol _;
#X obj 52 893 sel 0 1;
#X obj 52 870 int;
#X obj 621 226 makefilename;
#X msg 621 249 set \$1%s;
#X obj 672 150 tgl 15 0 empty empty empty 17 7 0 10 -262144 -1 -1 1
1;
#X msg 642 198 symbol #;
#X msg 708 198 symbol _;
#X obj 642 173 sel 0 1;
#X obj 642 150 int;
#X obj 621 346 makefilename;
#X msg 621 369 set \$1%s;
#X obj 672 270 tgl 15 0 empty empty empty 17 7 0 10 -262144 -1 -1 1
1;
#X msg 642 318 symbol #;
#X msg 708 318 symbol _;
#X obj 642 293 sel 0 1;
#X obj 642 270 int;
#X obj 621 466 makefilename;
#X msg 621 489 set \$1%s;
#X obj 672 390 tgl 15 0 empty empty empty 17 7 0 10 -262144 -1 -1 1
1;
#X msg 642 438 symbol #;
#X msg 708 438 symbol _;
#X obj 642 413 sel 0 1;
#X obj 642 390 int;
#X obj 621 586 makefilename;
#X msg 621 609 set \$1%s;
#X obj 672 510 tgl 15 0 empty empty empty 17 7 0 10 -262144 -1 -1 1
1;
#X msg 642 558 symbol #;
#X msg 708 558 symbol _;
#X obj 642 533 sel 0 1;
#X obj 642 510 int;
#X obj 621 706 makefilename;
#X msg 621 729 set \$1%s;
#X obj 672 630 tgl 15 0 empty empty empty 17 7 0 10 -262144 -1 -1 1
1;
#X msg 642 678 symbol #;
#X msg 708 678 symbol _;
#X obj 642 653 sel 0 1;
#X obj 642 630 int;
#X obj 621 826 makefilename;
#X msg 621 849 set \$1%s;
#X obj 672 750 tgl 15 0 empty empty empty 17 7 0 10 -262144 -1 -1 1
1;
#X msg 642 798 symbol #;
#X msg 708 798 symbol _;
#X obj 642 773 sel 0 1;
#X obj 642 750 int;
#X obj 621 946 makefilename;
#X obj 672 870 tgl 15 0 empty empty empty 17 7 0 10 -262144 -1 -1 1
1;
#X msg 642 918 symbol #;
#X msg 708 918 symbol _;
#X obj 642 893 sel 0 1;
#X obj 642 870 int;
#X obj 621 106 makefilename;
#X msg 621 129 set \$1%s;
#X obj 672 30 tgl 15 0 empty empty empty 17 7 0 10 -262144 -1 -1 1
1;
#X msg 642 78 symbol #;
#X msg 708 78 symbol _;
#X obj 642 53 sel 0 1;
#X obj 642 30 int;
#X obj 258 178 t b b b b b b b b b b b b b b b b, f 42;
#X obj 368 92 bng 15 250 50 0 empty empty empty 17 7 0 10 -262144 -1
-1;
#X connect 0 0 1 0;
#X connect 1 0 21 0;
#X connect 5 0 6 0;
#X connect 7 0 8 0;
#X connect 8 0 0 0;
#X connect 9 0 15 1;
#X connect 12 0 7 0;
#X connect 13 0 7 0;
#X connect 14 0 12 0;
#X connect 14 1 13 0;
#X connect 15 0 14 0;
#X connect 16 0 20 1;
#X connect 17 0 0 0;
#X connect 18 0 0 0;
#X connect 19 0 17 0;
#X connect 19 1 18 0;
#X connect 20 0 19 0;
#X connect 21 0 22 0;
#X connect 22 0 28 0;
#X connect 23 0 27 1;
#X connect 24 0 21 0;
#X connect 25 0 21 0;
#X connect 26 0 24 0;
#X connect 26 1 25 0;
#X connect 27 0 26 0;
#X connect 28 0 29 0;
#X connect 29 0 35 0;
#X connect 30 0 34 1;
#X connect 31 0 28 0;
#X connect 32 0 28 0;
#X connect 33 0 31 0;
#X connect 33 1 32 0;
#X connect 34 0 33 0;
#X connect 35 0 36 0;
#X connect 36 0 42 0;
#X connect 37 0 41 1;
#X connect 38 0 35 0;
#X connect 39 0 35 0;
#X connect 40 0 38 0;
#X connect 40 1 39 0;
#X connect 41 0 40 0;
#X connect 42 0 43 0;
#X connect 43 0 49 0;
#X connect 44 0 48 1;
#X connect 45 0 42 0;
#X connect 46 0 42 0;
#X connect 47 0 45 0;
#X connect 47 1 46 0;
#X connect 48 0 47 0;
#X connect 49 0 50 0;
#X connect 50 0 56 0;
#X connect 51 0 55 1;
#X connect 52 0 49 0;
#X connect 53 0 49 0;
#X connect 54 0 52 0;
#X connect 54 1 53 0;
#X connect 55 0 54 0;
#X connect 56 0 57 0;
#X connect 57 0 111 0;
#X connect 58 0 62 1;
#X connect 59 0 56 0;
#X connect 60 0 56 0;
#X connect 61 0 59 0;
#X connect 61 1 60 0;
#X connect 62 0 61 0;
#X connect 63 0 64 0;
#X connect 64 0 70 0;
#X connect 65 0 69 1;
#X connect 66 0 63 0;
#X connect 67 0 63 0;
#X connect 68 0 66 0;
#X connect 68 1 67 0;
#X connect 69 0 68 0;
#X connect 70 0 71 0;
#X connect 71 0 77 0;
#X connect 72 0 76 1;
#X connect 73 0 70 0;
#X connect 74 0 70 0;
#X connect 75 0 73 0;
#X connect 75 1 74 0;
#X connect 76 0 75 0;
#X connect 77 0 78 0;
#X connect 78 0 84 0;
#X connect 79 0 83 1;
#X connect 80 0 77 0;
#X connect 81 0 77 0;
#X connect 82 0 80 0;
#X connect 82 1 81 0;
#X connect 83 0 82 0;
#X connect 84 0 85 0;
#X connect 85 0 91 0;
#X connect 86 0 90 1;
#X connect 87 0 84 0;
#X connect 88 0 84 0;
#X connect 89 0 87 0;
#X connect 89 1 88 0;
#X connect 90 0 89 0;
#X connect 91 0 92 0;
#X connect 92 0 98 0;
#X connect 93 0 97 1;
#X connect 94 0 91 0;
#X connect 95 0 91 0;
#X connect 96 0 94 0;
#X connect 96 1 95 0;
#X connect 97 0 96 0;
#X connect 98 0 99 0;
#X connect 99 0 105 0;
#X connect 100 0 104 1;
#X connect 101 0 98 0;
#X connect 102 0 98 0;
#X connect 103 0 101 0;
#X connect 103 1 102 0;
#X connect 104 0 103 0;
#X connect 105 0 11 0;
#X connect 105 0 4 0;
#X connect 106 0 110 1;
#X connect 107 0 105 0;
#X connect 108 0 105 0;
#X connect 109 0 107 0;
#X connect 109 1 108 0;
#X connect 110 0 109 0;
#X connect 111 0 112 0;
#X connect 112 0 63 0;
#X connect 113 0 117 1;
#X connect 114 0 111 0;
#X connect 115 0 111 0;
#X connect 116 0 114 0;
#X connect 116 1 115 0;
#X connect 117 0 116 0;
#X connect 118 0 104 0;
#X connect 118 1 97 0;
#X connect 118 2 90 0;
#X connect 118 3 83 0;
#X connect 118 4 76 0;
#X connect 118 5 69 0;
#X connect 118 6 117 0;
#X connect 118 7 62 0;
#X connect 118 8 55 0;
#X connect 118 9 48 0;
#X connect 118 10 41 0;
#X connect 118 11 34 0;
#X connect 118 12 27 0;
#X connect 118 13 20 0;
#X connect 118 14 15 0;
#X connect 118 15 110 0;
#X connect 119 0 118 0;
