#N canvas 333 50 1543 919 10;
#X obj 34 115 makefilename %s%%s;
#X msg 34 135 set \$1;
#X obj 64 40 tgl 15 0 empty empty empty 17 7 0 10 -262144 -1 -1 0 1
;
#X obj 34 63 sel 0 1;
#X obj 34 40 int;
#X msg 34 88 symbol _;
#X msg 103 88 symbol #;
#X obj 34 425 makefilename;
#X obj 85 349 tgl 15 0 empty empty empty 17 7 0 10 -262144 -1 -1 1
1;
#X obj 55 372 sel 0 1;
#X obj 55 349 int;
#X msg 55 397 symbol _;
#X msg 121 397 symbol #;
#X obj 34 484 outlet;
#X obj 34 162 View-Block 2;
#X obj 64 18 r vb1;
#X text 122 61 start the chain like this;
#X text 130 370 end the chain like this;
#X obj 37 21 bng 15 250 50 0 empty empty empty 17 7 0 10 -262144 -1
-1;
#X obj 37 -1 r vbang1;
#X obj 55 321 bng 15 250 50 0 empty empty empty 17 7 0 10 -262144 -1
-1;
#X obj 34 183 View-Block 3;
#X obj 34 205 View-Block 4;
#X obj 34 226 View-Block 5;
#X obj 34 248 View-Block 6;
#X obj 35 270 View-Block 7;
#X obj 573 157 until;
#X obj 574 181 f;
#X obj 608 180 + 1;
#X floatatom 574 225 5 0 0 0 - - -, f 5;
#X obj 574 244 + 1;
#X msg 574 272 \; vbang\$1 bang;
#X obj 573 96 bng 30 250 50 0 empty empty empty 17 7 0 10 -204786 -1
-1;
#X text 608 104 print list;
#X obj 573 57 inlet;
#X text 621 77 bang to print list;
#X msg 573 132 8;
#X obj 574 203 % 8;
#X obj 54 297 r vbang8;
#X obj 83 321 r vb8;
#X text 795 207 this abstraction needs the abstraction 'view-block'
with arguments;
#X connect 0 0 1 0;
#X connect 1 0 14 0;
#X connect 2 0 4 1;
#X connect 3 0 5 0;
#X connect 3 1 6 0;
#X connect 4 0 3 0;
#X connect 5 0 0 0;
#X connect 6 0 0 0;
#X connect 7 0 13 0;
#X connect 8 0 10 1;
#X connect 9 0 11 0;
#X connect 9 1 12 0;
#X connect 10 0 9 0;
#X connect 11 0 7 0;
#X connect 12 0 7 0;
#X connect 14 0 21 0;
#X connect 15 0 2 0;
#X connect 18 0 4 0;
#X connect 19 0 18 0;
#X connect 20 0 10 0;
#X connect 21 0 22 0;
#X connect 22 0 23 0;
#X connect 23 0 24 0;
#X connect 24 0 25 0;
#X connect 25 0 7 0;
#X connect 26 0 27 0;
#X connect 27 0 28 0;
#X connect 27 0 37 0;
#X connect 28 0 27 1;
#X connect 29 0 30 0;
#X connect 30 0 31 0;
#X connect 32 0 36 0;
#X connect 34 0 32 0;
#X connect 36 0 26 0;
#X connect 37 0 29 0;
#X connect 38 0 20 0;
#X connect 39 0 8 0;
