#N canvas 6 50 450 300 10;
#X obj 231 43 r curpage;
#X obj 231 64 t f b b;
#X obj 121 171 spigot;
#X msg 233 110 0;
#X msg 157 136 1;
#X obj 142 109 sel \$1;
#X obj 277 92 s knob\$2Override;
#X obj 118 210 s p\$1k\$2;
#X obj 110 54 r knob\$2;
#X obj 189 205 outlet;
#X connect 0 0 1 0;
#X connect 1 0 5 0;
#X connect 1 1 3 0;
#X connect 1 2 6 0;
#X connect 2 0 7 0;
#X connect 2 0 9 0;
#X connect 3 0 2 1;
#X connect 4 0 2 1;
#X connect 5 0 4 0;
#X connect 8 0 2 0;
