#N canvas 455 59 911 465 10;
#X obj 106 257 r notes;
#X obj 106 279 stripnote;
#X floatatom 106 301 5 0 0 0 - - -, f 5;
#X obj 106 320 mtof;
#X obj 106 343 / 2;
#X obj 106 365 sig~;
#X obj 106 409 s~ basefreq;
#X obj 45 145 partial 1 p1k1;
#X obj 363 146 partial 4 p1k4;
#X obj 152 146 partial 2 p1k2;
#X obj 257 144 partial 3 p1k3;
#X obj 46 168 partial 5 p2k1;
#X obj 258 167 partial 7 p2k3;
#X obj 152 168 partial 6 p2k2;
#X obj 363 168 partial 8 p2k4;
#X obj 47 192 partial 9 p3k1;
#X obj 152 191 partial 10 p3k2;
#X obj 265 189 partial 11 p3k3;
#X obj 378 191 partial 12 p3k4;
#X obj 49 212 partial 13 p4k1;
#X obj 162 211 partial 14 p4k2;
#X obj 275 210 partial 15 p4k3;
#X obj 106 387 lop~ 100;
#X text 76 98 here knob number stands for page X knob Y \, so pXkY
;
#X obj 394 212 partial 15 p4k4;
#X text 66 75 16 little oscillators \, the freq multiplier and knob
number;
#N canvas 7 50 954 585 menu-and-knob-pages 0;
#N canvas 275 122 879 704 menu5 0;
#X obj 260 335 f 0;
#X obj 268 218 sel 0 1;
#X obj 269 277 t b b;
#X msg 305 307 -1;
#X obj 294 336 + 1;
#X obj 314 276 t b b;
#X msg 350 306 1;
#X obj 294 440 f;
#X obj 345 622 s oscOut;
#X msg 345 593 send /oled/invertline \$1;
#X obj 273 132 r enc;
#X obj 239 449 f;
#X obj 204 412 sel 1;
#X obj 239 552 outlet;
#X obj 185 385 spigot 0;
#X obj 288 170 spigot 0;
#X obj 262 17 inlet;
#X obj 262 59 t f f;
#X text 313 17 enable;
#X obj 173 350 r encbut;
#X obj 294 382 expr if($f1 < 0 \, 0 \, $f1);
#X obj 294 408 expr if($f1 > 4 \, 4 \, $f1);
#X obj 345 487 change -1;
#X obj 345 543 t f b;
#X obj 585 28 inlet;
#X obj 585 50 bang;
#X text 647 33 recall;
#X obj 345 515 f 0;
#X obj 631 617 outlet;
#X connect 0 0 4 0;
#X connect 1 0 2 0;
#X connect 1 1 5 0;
#X connect 2 0 0 0;
#X connect 2 1 3 0;
#X connect 3 0 4 1;
#X connect 4 0 20 0;
#X connect 5 0 0 0;
#X connect 5 1 6 0;
#X connect 6 0 4 1;
#X connect 7 0 22 0;
#X connect 9 0 8 0;
#X connect 10 0 15 0;
#X connect 11 0 13 0;
#X connect 12 0 11 0;
#X connect 14 0 12 0;
#X connect 15 0 1 0;
#X connect 16 0 17 0;
#X connect 17 0 14 1;
#X connect 17 1 15 1;
#X connect 19 0 14 0;
#X connect 20 0 21 0;
#X connect 21 0 0 1;
#X connect 21 0 7 0;
#X connect 21 0 11 1;
#X connect 22 0 27 0;
#X connect 23 0 9 0;
#X connect 23 1 28 0;
#X connect 24 0 25 0;
#X connect 25 0 27 0;
#X connect 27 0 23 0;
#X restore 68 149 pd menu5;
#X obj 68 122 tgl 15 0 empty empty empty 17 7 0 10 -262144 -1 -1 1
1;
#X floatatom 68 199 5 0 0 0 - - -, f 5;
#X obj 68 226 s curpage;
#X obj 68 26 loadbang;
#X msg 68 96 1;
#X obj 126 114 bng 15 250 50 0 empty empty empty 17 7 0 10 -262144
-1 -1;
#X obj 68 56 t b b b;
#X obj 165 108 s enableSubMenu;
#X msg 162 208 \; screenLine1 Page 1 \; screenLine2 Page 2 \; screenLine3
Page 3 \; screenLine4 Page 4 \; screenLine5 Main Menu \;;
#X obj 68 174 + 1;
#X obj 385 46 knobpager 1 1;
#X floatatom 385 66 5 0 0 0 - - -, f 5;
#X floatatom 483 66 5 0 0 0 - - -, f 5;
#X floatatom 582 66 5 0 0 0 - - -, f 5;
#X floatatom 680 66 5 0 0 0 - - -, f 5;
#X floatatom 385 107 5 0 0 0 - - -, f 5;
#X floatatom 483 107 5 0 0 0 - - -, f 5;
#X floatatom 582 107 5 0 0 0 - - -, f 5;
#X floatatom 680 107 5 0 0 0 - - -, f 5;
#X floatatom 385 149 5 0 0 0 - - -, f 5;
#X floatatom 483 149 5 0 0 0 - - -, f 5;
#X floatatom 582 149 5 0 0 0 - - -, f 5;
#X floatatom 680 149 5 0 0 0 - - -, f 5;
#X floatatom 385 191 5 0 0 0 - - -, f 5;
#X floatatom 483 191 5 0 0 0 - - -, f 5;
#X floatatom 582 191 5 0 0 0 - - -, f 5;
#X floatatom 680 191 5 0 0 0 - - -, f 5;
#X obj 483 46 knobpager 1 2;
#X obj 582 46 knobpager 1 3;
#X obj 680 46 knobpager 1 4;
#X obj 385 87 knobpager 2 1;
#X obj 483 87 knobpager 2 2;
#X obj 582 87 knobpager 2 3;
#X obj 680 87 knobpager 2 4;
#X obj 385 129 knobpager 3 1;
#X obj 483 129 knobpager 3 2;
#X obj 582 129 knobpager 3 3;
#X obj 680 129 knobpager 3 4;
#X obj 385 170 knobpager 4 1;
#X obj 483 170 knobpager 4 2;
#X obj 582 170 knobpager 4 3;
#X obj 680 170 knobpager 4 4;
#X text 419 278 return to home;
#X obj 531 253 r curpage;
#X obj 531 301 s goHome;
#X obj 531 275 sel 5;
#X obj 66 349 r curpage;
#X floatatom 66 371 5 0 0 0 - - -, f 5;
#X obj 66 396 sel 1 2 3 4;
#X msg 310 441 \; screenLine1 1: Partial 5 \; screenLine2 2: Partial
6 \; screenLine3 3: Partial 7 \; screenLine4 4: Partial 8 \; screenLine5
Aux: x;
#X msg 497 441 \; screenLine1 1: Partial 9 \; screenLine2 2: Partial
10 \; screenLine3 3: Partial 11 \; screenLine4 4: Partial 12 \; screenLine5
Aux: x;
#X msg 695 440 \; screenLine1 1: Partial 13 \; screenLine2 2: Partial
14 \; screenLine3 3: Partial 15 \; screenLine4 4: Partial 16 \; screenLine5
Aux: x;
#X msg 66 441 \; screenLine1 1: Partial 1 \; screenLine2 2: Partial
2 \; screenLine3 3: Partial 3 \; screenLine4 4: Partial 4 \; screenLine5
Aux: x \;;
#X connect 0 0 10 0;
#X connect 0 1 9 0;
#X connect 1 0 0 0;
#X connect 2 0 3 0;
#X connect 4 0 7 0;
#X connect 5 0 1 0;
#X connect 6 0 0 1;
#X connect 7 0 5 0;
#X connect 7 1 6 0;
#X connect 7 2 8 0;
#X connect 10 0 2 0;
#X connect 11 0 12 0;
#X connect 28 0 13 0;
#X connect 29 0 14 0;
#X connect 30 0 15 0;
#X connect 31 0 16 0;
#X connect 32 0 17 0;
#X connect 33 0 18 0;
#X connect 34 0 19 0;
#X connect 35 0 20 0;
#X connect 36 0 21 0;
#X connect 37 0 22 0;
#X connect 38 0 23 0;
#X connect 39 0 24 0;
#X connect 40 0 25 0;
#X connect 41 0 26 0;
#X connect 42 0 27 0;
#X connect 44 0 46 0;
#X connect 46 0 45 0;
#X connect 47 0 48 0;
#X connect 48 0 49 0;
#X connect 49 0 53 0;
#X connect 49 1 50 0;
#X connect 49 2 51 0;
#X connect 49 3 52 0;
#X restore 571 124 pd menu-and-knob-pages;
#X obj 191 263 loadbang;
#X msg 191 285 60;
#X connect 0 0 1 0;
#X connect 1 0 2 0;
#X connect 2 0 3 0;
#X connect 3 0 4 0;
#X connect 4 0 5 0;
#X connect 5 0 22 0;
#X connect 22 0 6 0;
#X connect 27 0 28 0;
#X connect 28 0 3 0;
