#N canvas 8 50 484 412 10;
#X obj 164 233 osc~;
#X obj 135 361 throw~ outL;
#X obj 227 361 throw~ outR;
#X obj 137 57 r~ basefreq;
#X obj 315 95 t f f;
#X obj 315 117 *;
#X obj 315 143 sig~;
#X obj 166 271 *~;
#X obj 315 165 lop~ 20;
#X obj 137 80 *~ \$1;
#X obj 315 73 r \$2;
#X obj 184 301 *~ 0.2;
#X obj 213 98 r~ wobble;
#X obj 144 197 +~;
#X obj 183 159 *~ 10;
#X connect 0 0 7 0;
#X connect 3 0 9 0;
#X connect 4 0 5 0;
#X connect 4 1 5 1;
#X connect 5 0 6 0;
#X connect 6 0 8 0;
#X connect 7 0 11 0;
#X connect 8 0 7 1;
#X connect 9 0 13 0;
#X connect 10 0 4 0;
#X connect 11 0 2 0;
#X connect 11 0 1 0;
#X connect 12 0 14 0;
#X connect 13 0 0 0;
#X connect 14 0 13 1;
