#N canvas 768 285 450 300 10;
#X obj 147 195 readsf~ 2;
#X obj 144 234 throw~ outL;
#X obj 185 260 throw~ outR;
#X obj 156 28 loadbang;
#X obj 147 100 delay 1000;
#X msg 130 147 1, f 4;
#X msg 317 127 0;
#X msg 194 131 open ./song.wav;
#X obj 156 50 delay 100;
#X obj 156 72 t b b;
#X connect 0 0 1 0;
#X connect 0 1 2 0;
#X connect 0 2 8 0;
#X connect 3 0 8 0;
#X connect 4 0 5 0;
#X connect 5 0 0 0;
#X connect 6 0 0 0;
#X connect 7 0 0 0;
#X connect 8 0 9 0;
#X connect 9 0 4 0;
#X connect 9 1 7 0;
