#N canvas 57 56 1368 879 10;
#X obj 69 536 loadbang;
#X obj 104 698 * 100;
#X obj 104 723 i;
#X obj 104 669 r knob4;
#X obj 104 756 change -1;
#X obj 104 812 s screenLine4;
#X obj 111 164 readsf~;
#X obj 109 407 throw~ outL;
#X obj 202 411 throw~ outR;
#X msg 148 102 1;
#X msg 208 115 0;
#X msg 43 44 open ./tick.wav;
#X obj 173 216 t b b;
#X obj 191 354 catch~ alarm;
#X floatatom 775 477 50 0 0 0 - - -, f 50;
#X obj 779 641 % 60;
#X floatatom 780 673 5 0 0 0 - - -, f 5;
#X obj 705 630 / 60;
#X obj 705 652 % 60;
#X floatatom 705 676 5 0 0 0 - - -, f 5;
#X obj 630 633 / 3600;
#X obj 630 655 % 24;
#X floatatom 627 682 5 0 0 0 - - -, f 5;
#X obj 627 712 pack 0 0 0;
#X obj 697 590 t f f f;
#X obj 858 47 r knob1;
#X obj 860 71 * 24;
#X obj 863 128 change -1;
#X obj 863 403 * 3600;
#X obj 944 126 change -1;
#X obj 941 66 * 60;
#X obj 946 398 * 60;
#X obj 1022 129 change -1;
#X obj 1020 71 * 60;
#X obj 941 42 r knob2;
#X obj 1021 46 r knob3;
#X obj 821 444 expr $f1 + $f2 + $f3;
#X obj 761 303 t b b b;
#X obj 761 277 bng 15 250 50 0 empty empty empty 17 7 0 10 -262144
-1 -1;
#X msg 70 562 \; screenLine1 1: Hrs \; screenLine2 2: Min \; screenLine3
3: Sec \; screenLine4 4: Tick Tock \; screenLine5 Aux/FS: Hold to REC
\;;
#X msg 104 783 4: Tick Tock \$1 %;
#X obj 235 199 r knob4;
#X msg 235 221 \$1 45;
#X obj 238 244 line~;
#X obj 103 294 *~;
#X obj 979 447 pack 0 0 0;
#X obj 761 247 spigot 1;
#X obj 861 348 i;
#X obj 840 155 t b f;
#X obj 958 353 i;
#X obj 935 158 t b f;
#X obj 1024 357 i;
#X obj 1003 164 t b f;
#X obj 867 101 i;
#X obj 941 98 i;
#X obj 1020 97 i;
#X msg 1067 564 \; screenLine1 1: \$1 Hrs \; screenLine2 2: \$2 Min
\; screenLine3 3: \$3 Sec \;;
#X obj 601 67 r aux;
#X obj 601 89 sel 1;
#X obj 601 119 tgl 15 0 empty empty empty 17 7 0 10 -262144 -1 -1 0
1;
#X msg 426 267 \; led 3 \;;
#X obj 428 238 sel 1;
#X msg 539 267 \; led 5 \;;
#X obj 541 238 sel 0;
#X obj 501 55 loadbang;
#X msg 501 77 0;
#X obj 757 169 ==;
#X obj 602 392 sel 0 1;
#X obj 629 448 delay 1000;
#X obj 666 497 i;
#X obj 705 498 - 1;
#X obj 603 608 == 0;
#X floatatom 725 530 50 0 0 0 - - -, f 50;
#X obj 571 636 sel 1;
#N canvas 7 50 1390 714 alarms 0;
#X obj 122 459 readsf~;
#X msg 159 397 1;
#X msg 243 393 0;
#X msg 67 378 open ./1.wav;
#X obj 206 494 t b b;
#X obj 214 448 spigot;
#X obj 178 281 bng 15 250 50 0 empty empty empty 17 7 0 10 -262144
-1 -1;
#X msg 204 396 1;
#X obj 162 329 t b b b;
#X obj 238 280 bng 15 250 50 0 empty empty empty 17 7 0 10 -262144
-1 -1;
#X obj 119 521 throw~ alarm;
#X obj 362 458 readsf~;
#X msg 399 396 1;
#X msg 483 392 0;
#X obj 446 493 t b b;
#X obj 454 447 spigot;
#X obj 418 280 bng 15 250 50 0 empty empty empty 17 7 0 10 -262144
-1 -1;
#X msg 444 395 1;
#X obj 402 328 t b b b;
#X obj 478 279 bng 15 250 50 0 empty empty empty 17 7 0 10 -262144
-1 -1;
#X obj 357 545 throw~ alarm;
#X obj 598 453 readsf~;
#X msg 635 391 1;
#X msg 719 387 0;
#X obj 682 488 t b b;
#X obj 690 442 spigot;
#X obj 654 275 bng 15 250 50 0 empty empty empty 17 7 0 10 -262144
-1 -1;
#X msg 680 390 1;
#X obj 638 323 t b b b;
#X obj 714 274 bng 15 250 50 0 empty empty empty 17 7 0 10 -262144
-1 -1;
#X obj 580 527 throw~ alarm;
#X obj 841 446 readsf~;
#X msg 878 384 1;
#X msg 962 380 0;
#X obj 928 481 t b b;
#X obj 933 435 spigot;
#X obj 897 268 bng 15 250 50 0 empty empty empty 17 7 0 10 -262144
-1 -1;
#X msg 923 383 1;
#X obj 881 316 t b b b;
#X obj 957 267 bng 15 250 50 0 empty empty empty 17 7 0 10 -262144
-1 -1;
#X obj 838 508 throw~ alarm;
#X obj 1062 441 readsf~;
#X msg 1099 379 1;
#X msg 1183 375 0;
#X obj 1146 476 t b b;
#X obj 1154 430 spigot;
#X obj 1118 263 bng 15 250 50 0 empty empty empty 17 7 0 10 -262144
-1 -1;
#X msg 1144 378 1;
#X obj 1102 311 t b b b;
#X obj 1178 262 bng 15 250 50 0 empty empty empty 17 7 0 10 -262144
-1 -1;
#X obj 1059 503 throw~ alarm;
#X msg 308 376 open ./2.wav;
#X msg 543 372 open ./3.wav;
#X msg 786 365 open ./4.wav;
#X msg 1007 360 open ./5.wav;
#X obj 1060 476 *~ 0.1;
#X obj 358 514 *~ 0.1;
#X obj 598 86 bng 15 250 50 0 empty empty empty 17 7 0 10 -262144 -1
-1;
#X obj 401 244 delay 2000;
#X obj 614 245 delay 2000;
#X obj 867 241 delay 2000;
#X obj 1072 242 delay 2000;
#X obj 241 180 bng 15 250 50 0 empty empty empty 17 7 0 10 -262144
-1 -1;
#X obj 238 135 r alarm-on;
#X obj 611 55 r alarm-off;
#X msg 592 148 stop;
#X connect 0 0 10 0;
#X connect 0 1 4 0;
#X connect 1 0 0 0;
#X connect 2 0 0 0;
#X connect 2 0 5 1;
#X connect 3 0 0 0;
#X connect 4 0 5 0;
#X connect 4 1 3 0;
#X connect 5 0 1 0;
#X connect 6 0 8 0;
#X connect 7 0 5 1;
#X connect 8 0 1 0;
#X connect 8 1 3 0;
#X connect 8 2 7 0;
#X connect 9 0 2 0;
#X connect 11 0 56 0;
#X connect 11 1 14 0;
#X connect 12 0 11 0;
#X connect 13 0 11 0;
#X connect 13 0 15 1;
#X connect 14 0 15 0;
#X connect 14 1 51 0;
#X connect 15 0 12 0;
#X connect 16 0 18 0;
#X connect 17 0 15 1;
#X connect 18 0 12 0;
#X connect 18 1 51 0;
#X connect 18 2 17 0;
#X connect 19 0 13 0;
#X connect 21 0 30 0;
#X connect 21 1 24 0;
#X connect 22 0 21 0;
#X connect 23 0 21 0;
#X connect 23 0 25 1;
#X connect 24 0 25 0;
#X connect 24 1 52 0;
#X connect 25 0 22 0;
#X connect 26 0 28 0;
#X connect 27 0 25 1;
#X connect 28 0 22 0;
#X connect 28 1 52 0;
#X connect 28 2 27 0;
#X connect 29 0 23 0;
#X connect 31 0 40 0;
#X connect 31 1 34 0;
#X connect 32 0 31 0;
#X connect 33 0 31 0;
#X connect 33 0 35 1;
#X connect 34 0 35 0;
#X connect 34 1 53 0;
#X connect 35 0 32 0;
#X connect 36 0 38 0;
#X connect 37 0 35 1;
#X connect 38 0 32 0;
#X connect 38 1 53 0;
#X connect 38 2 37 0;
#X connect 39 0 33 0;
#X connect 41 0 55 0;
#X connect 41 1 44 0;
#X connect 42 0 41 0;
#X connect 43 0 41 0;
#X connect 43 0 45 1;
#X connect 44 0 45 0;
#X connect 44 1 54 0;
#X connect 45 0 42 0;
#X connect 46 0 48 0;
#X connect 47 0 45 1;
#X connect 48 0 42 0;
#X connect 48 1 54 0;
#X connect 48 2 47 0;
#X connect 49 0 43 0;
#X connect 51 0 11 0;
#X connect 52 0 21 0;
#X connect 53 0 31 0;
#X connect 54 0 41 0;
#X connect 55 0 50 0;
#X connect 56 0 20 0;
#X connect 57 0 9 0;
#X connect 57 0 19 0;
#X connect 57 0 29 0;
#X connect 57 0 39 0;
#X connect 57 0 49 0;
#X connect 57 0 65 0;
#X connect 58 0 16 0;
#X connect 58 0 59 0;
#X connect 59 0 26 0;
#X connect 59 0 60 0;
#X connect 60 0 36 0;
#X connect 60 0 61 0;
#X connect 61 0 46 0;
#X connect 62 0 6 0;
#X connect 62 0 58 0;
#X connect 63 0 62 0;
#X connect 64 0 57 0;
#X connect 65 0 58 0;
#X connect 65 0 59 0;
#X connect 65 0 60 0;
#X connect 65 0 61 0;
#X restore 353 100 pd alarms;
#X obj 521 711 s alarm-on;
#X obj 649 548 t f f b;
#X msg 555 451 stop;
#X obj 548 427 t b b;
#X obj 656 241 sel 0;
#X obj 656 263 s alarm-off;
#X msg 627 743 \; screenLine5 Running \$1 : \$2 : \$3 \;;
#X obj 625 419 t b b;
#X obj 208 52 loadbang;
#X msg 960 695 \; screenLine5 Stopped \$1 : \$2 : \$3 \;;
#X connect 0 0 39 0;
#X connect 1 0 2 0;
#X connect 2 0 4 0;
#X connect 3 0 1 0;
#X connect 4 0 40 0;
#X connect 6 0 44 0;
#X connect 6 1 12 0;
#X connect 9 0 6 0;
#X connect 10 0 6 0;
#X connect 11 0 6 0;
#X connect 12 0 9 0;
#X connect 12 1 11 0;
#X connect 13 0 7 0;
#X connect 13 0 8 0;
#X connect 14 0 69 1;
#X connect 15 0 16 0;
#X connect 16 0 23 2;
#X connect 17 0 18 0;
#X connect 18 0 19 0;
#X connect 19 0 23 1;
#X connect 20 0 21 0;
#X connect 21 0 22 0;
#X connect 22 0 23 0;
#X connect 23 0 81 0;
#X connect 24 0 20 0;
#X connect 24 1 17 0;
#X connect 24 2 15 0;
#X connect 25 0 26 0;
#X connect 26 0 53 0;
#X connect 27 0 48 0;
#X connect 28 0 36 0;
#X connect 29 0 50 0;
#X connect 30 0 54 0;
#X connect 31 0 36 1;
#X connect 32 0 52 0;
#X connect 33 0 55 0;
#X connect 34 0 30 0;
#X connect 35 0 33 0;
#X connect 36 0 14 0;
#X connect 37 0 47 0;
#X connect 37 1 49 0;
#X connect 37 2 51 0;
#X connect 38 0 37 0;
#X connect 40 0 5 0;
#X connect 41 0 42 0;
#X connect 42 0 43 0;
#X connect 43 0 44 1;
#X connect 44 0 7 0;
#X connect 44 0 8 0;
#X connect 45 0 56 0;
#X connect 45 0 84 0;
#X connect 46 0 38 0;
#X connect 47 0 28 0;
#X connect 47 0 45 0;
#X connect 48 0 46 0;
#X connect 48 1 47 1;
#X connect 49 0 31 0;
#X connect 49 0 45 1;
#X connect 50 0 46 0;
#X connect 50 1 49 1;
#X connect 51 0 36 2;
#X connect 51 0 45 2;
#X connect 52 0 46 0;
#X connect 52 1 51 1;
#X connect 53 0 27 0;
#X connect 54 0 29 0;
#X connect 55 0 32 0;
#X connect 57 0 58 0;
#X connect 58 0 59 0;
#X connect 59 0 61 0;
#X connect 59 0 63 0;
#X connect 59 0 66 0;
#X connect 59 0 67 0;
#X connect 59 0 79 0;
#X connect 61 0 60 0;
#X connect 63 0 62 0;
#X connect 64 0 65 0;
#X connect 65 0 59 0;
#X connect 66 0 46 1;
#X connect 67 0 78 0;
#X connect 67 1 82 0;
#X connect 68 0 69 0;
#X connect 69 0 70 0;
#X connect 69 0 72 0;
#X connect 69 0 76 0;
#X connect 70 0 69 1;
#X connect 71 0 73 0;
#X connect 73 0 75 0;
#X connect 73 0 77 0;
#X connect 76 0 71 0;
#X connect 76 1 24 0;
#X connect 76 2 68 0;
#X connect 77 0 68 0;
#X connect 78 0 38 0;
#X connect 78 1 77 0;
#X connect 79 0 80 0;
#X connect 82 0 68 0;
#X connect 82 1 69 0;
#X connect 83 0 12 0;
