#N canvas 25 50 997 848 10;
#X obj 364 212 sig~;
#X obj 532 263 lop~ 5;
#X obj 534 232 sig~;
#X obj 513 371 *~;
#X obj 157 111 inlet~;
#X obj 364 117 inlet;
#X obj 534 134 inlet;
#X obj 363 645 *~ 1;
#X obj 362 712 outlet~;
#X obj 144 510 delwrite~ \$0delay 5000;
#X obj 363 295 vd~ \$0delay 5000;
#X obj 364 264 lop~ 5;
#X connect 0 0 11 0;
#X connect 1 0 3 1;
#X connect 2 0 1 0;
#X connect 3 0 9 0;
#X connect 4 0 9 0;
#X connect 5 0 0 0;
#X connect 6 0 2 0;
#X connect 7 0 8 0;
#X connect 10 0 3 0;
#X connect 10 0 7 0;
#X connect 11 0 10 0;
