#N canvas 6 50 921 584 10;
#X obj 292 392 -;
#X obj 292 420 abs;
#X obj 160 268 spigot;
#X obj 281 270 spigot;
#X obj 288 153 tgl 15 0 empty empty empty 17 7 0 10 -262144 -1 -1 0
1;
#X obj 288 197 - 1;
#X obj 288 221 abs;
#X obj 161 188 t f f;
#X text 363 194 if the knob is locked \, route to check for unlock
;
#X obj 281 316 t f b;
#X obj 161 121 inlet;
#X obj 292 477 sel 1;
#X msg 292 504 0;
#X obj 101 509 outlet;
#X obj 510 515 outlet;
#X obj 288 173 t f f f, f 8;
#X obj 249 35 inlet;
#X obj 292 95 r \$0-lock;
#X obj 292 529 s \$0-lock;
#X msg 249 90 1;
#X obj 377 84 loadbang;
#X msg 377 111 0;
#X obj 249 62 bang;
#X obj 576 63 inlet;
#X obj 324 365 f;
#X obj 292 444 < 0.05;
#X text 614 30 pass thru val;
#X text 236 10 bang to lock;
#X text 112 93 val;
#X text 438 306 TODO: get rid of the line and do proper zero crossing
;
#X connect 0 0 1 0;
#X connect 1 0 25 0;
#X connect 2 0 13 0;
#X connect 3 0 9 0;
#X connect 4 0 15 0;
#X connect 5 0 6 0;
#X connect 6 0 2 1;
#X connect 7 0 2 0;
#X connect 7 1 3 0;
#X connect 9 0 0 0;
#X connect 9 1 24 0;
#X connect 10 0 7 0;
#X connect 11 0 12 0;
#X connect 12 0 18 0;
#X connect 15 0 5 0;
#X connect 15 1 3 1;
#X connect 15 2 14 0;
#X connect 16 0 22 0;
#X connect 17 0 4 0;
#X connect 19 0 4 0;
#X connect 20 0 21 0;
#X connect 21 0 4 0;
#X connect 22 0 19 0;
#X connect 23 0 24 1;
#X connect 24 0 0 1;
#X connect 25 0 11 0;
