#N canvas 51 358 401 379 10;
#X obj 168 81 sel \$1;
#X obj 223 274 s p\$1k\$2;
#X obj 53 18 r knob\$2;
#X obj 88 283 v p\$1k\$2;
#X obj 105 195 knobpassthru;
#X obj 198 161 v p\$1k\$2;
#X obj 76 168 spigot 0;
#X msg 137 137 1;
#X obj 159 51 t f b;
#X msg 120 100 0;
#X obj 168 106 t b b b;
#X obj 158 22 r knob-page-sel;
#X obj 27 54 r disable-all-in;
#X obj 113 232 t f f;
#X connect 0 0 10 0;
#X connect 2 0 6 0;
#X connect 4 0 13 0;
#X connect 5 0 4 2;
#X connect 5 0 1 0;
#X connect 6 0 4 0;
#X connect 7 0 6 1;
#X connect 8 0 0 0;
#X connect 8 1 9 0;
#X connect 9 0 6 1;
#X connect 10 0 7 0;
#X connect 10 1 4 1;
#X connect 10 2 5 0;
#X connect 11 0 8 0;
#X connect 12 0 9 0;
#X connect 13 0 3 0;
#X connect 13 1 1 0;
