#N canvas 236 256 1187 552 10;
#N canvas 113 105 1527 877 menu-and-knob-pages 1;
#N canvas 298 53 879 704 menu5 0;
#X obj 260 335 f 0;
#X obj 268 218 sel 0 1;
#X obj 269 277 t b b;
#X msg 305 307 -1;
#X obj 294 336 + 1;
#X obj 314 276 t b b;
#X msg 350 306 1;
#X obj 329 455 f;
#X obj 268 118 r enc;
#X obj 208 519 f;
#X obj 204 412 sel 1;
#X obj 211 639 outlet;
#X obj 185 385 spigot 0;
#X obj 288 170 spigot 0;
#X obj 262 17 inlet;
#X obj 262 59 t f f;
#X text 313 17 enable;
#X obj 106 107 r encbut;
#X obj 294 382 expr if($f1 < 0 \, 0 \, $f1);
#X obj 345 487 change -1;
#X obj 585 28 inlet;
#X obj 585 50 bang;
#X text 647 33 recall;
#X obj 345 515 f 0;
#X obj 390 646 outlet;
#X msg 320 586 -1;
#X obj 268 139 t f b;
#X obj 294 408 expr if($f1 > 3 \, 3 \, $f1);
#X obj 344 539 t f b;
#X text 142 645 page;
#X text 455 642 selection;
#X connect 0 0 4 0;
#X connect 1 0 2 0;
#X connect 1 1 5 0;
#X connect 2 0 0 0;
#X connect 2 1 3 0;
#X connect 3 0 4 1;
#X connect 4 0 18 0;
#X connect 5 0 0 0;
#X connect 5 1 6 0;
#X connect 6 0 4 1;
#X connect 7 0 19 0;
#X connect 8 0 26 0;
#X connect 9 0 11 0;
#X connect 10 0 9 0;
#X connect 12 0 10 0;
#X connect 13 0 1 0;
#X connect 14 0 15 0;
#X connect 15 0 12 1;
#X connect 15 1 13 1;
#X connect 17 0 12 0;
#X connect 18 0 27 0;
#X connect 19 0 23 0;
#X connect 20 0 21 0;
#X connect 21 0 23 0;
#X connect 23 0 28 0;
#X connect 25 0 11 0;
#X connect 26 0 13 0;
#X connect 27 0 0 1;
#X connect 27 0 7 0;
#X connect 27 0 9 1;
#X connect 28 0 24 0;
#X connect 28 1 25 0;
#X restore 76 185 pd menu5;
#X obj 76 158 tgl 15 0 empty empty empty 17 7 0 10 -262144 -1 -1 1
1;
#X floatatom 76 235 5 0 0 0 - - -, f 5;
#X obj 76 62 loadbang;
#X msg 76 132 1;
#X obj 134 150 bng 15 250 50 0 empty empty empty 17 7 0 10 -262144
-1 -1;
#X obj 154 127 s enableSubMenu;
#X obj 76 210 + 1;
#X obj 133 428 s goHome;
#X obj 166 631 s knob-page-sel;
#X obj 226 608 s screen-page-sel;
#X obj 818 420 screenpager 1 1;
#X text 1002 41 inputs;
#X text 1057 381 outputs;
#N canvas 9 50 450 300 clear-oled 0;
#X msg 91 123 \; oscOut send /oled/line/1 \; oscOut send /oled/line/2
\; oscOut send /oled/line/3 \; oscOut send /oled/line/4 \; oscOut send
/oled/line/5 \;;
#X obj 91 83 bng 15 250 50 0 empty empty empty 17 7 0 10 -262144 -1
-1;
#X obj 91 47 inlet;
#X connect 1 0 0 0;
#X connect 2 0 1 0;
#X restore 246 584 pd clear-oled;
#X obj 844 91 knobpager 1 1;
#X obj 133 402 sel 4;
#X msg 503 365 \; screenLine1 1) Notes and stuff \; screenLine2 2)
Delay \; screenLine3 3) Punch in \; screenLine4 <-- HOME \;;
#X obj 1304 89 auxpager 1;
#X obj 1304 113 auxpager 2;
#X obj 1305 136 auxpager 3;
#X obj 1305 160 auxpager 4;
#X obj 449 254 sel 0;
#X obj 406 639 s page-closing;
#X obj 30 616 s page-ready;
#X obj 345 543 t f b;
#X obj 365 660 v prevpage;
#X obj 937 420 screenpager 1 2;
#X obj 1052 420 screenpager 1 3;
#X obj 1168 420 screenpager 1 4;
#X obj 1284 420 screenpager 1 5;
#X obj 818 445 screenpager 2 1;
#X obj 819 471 screenpager 3 1;
#X obj 818 494 screenpager 4 1;
#X obj 937 494 screenpager 4 2;
#X obj 1052 494 screenpager 4 3;
#X obj 1168 494 screenpager 4 4;
#X obj 1284 494 screenpager 4 5;
#X obj 1285 471 screenpager 3 5;
#X obj 1169 471 screenpager 3 4;
#X obj 1053 471 screenpager 3 3;
#X obj 937 471 screenpager 3 2;
#X obj 937 445 screenpager 2 2;
#X obj 1052 445 screenpager 2 3;
#X obj 1168 445 screenpager 2 4;
#X obj 1284 445 screenpager 2 5;
#X obj 75 369 moses 4;
#X obj 131 495 t f f f b f;
#X obj 135 660 v curpage;
#X obj 367 606 t f f;
#X obj 99 542 t f f;
#X obj 366 579 f 0;
#X obj 314 400 s oscOut;
#X msg 314 375 send /oled/invertline \$1;
#X obj 449 202 r page-ready;
#X obj 449 283 t b b;
#X obj 314 350 f;
#X obj 276 306 t f b;
#X obj 844 116 knobpager 2 1;
#X obj 952 90 knobpager 1 2;
#X obj 1062 90 knobpager 1 3;
#X obj 1176 89 knobpager 1 4;
#X obj 952 115 knobpager 2 2;
#X obj 1062 115 knobpager 2 3;
#X obj 1176 114 knobpager 2 4;
#X obj 844 142 knobpager 3 1;
#X obj 952 141 knobpager 3 2;
#X obj 1062 141 knobpager 3 3;
#X obj 1176 140 knobpager 3 4;
#X obj 844 167 knobpager 4 1;
#X obj 952 166 knobpager 4 2;
#X obj 1062 166 knobpager 4 3;
#X obj 1176 165 knobpager 4 4;
#X obj 111 277 r goto-page;
#X obj 76 92 t b b b b;
#X msg 39 143 1;
#X connect 0 0 7 0;
#X connect 0 1 57 0;
#X connect 1 0 0 0;
#X connect 2 0 46 0;
#X connect 3 0 74 0;
#X connect 4 0 1 0;
#X connect 5 0 0 1;
#X connect 7 0 2 0;
#X connect 16 0 8 0;
#X connect 22 0 55 0;
#X connect 25 0 51 1;
#X connect 25 1 51 0;
#X connect 46 0 47 0;
#X connect 46 1 16 0;
#X connect 47 0 50 0;
#X connect 47 1 9 0;
#X connect 47 2 10 0;
#X connect 47 3 14 0;
#X connect 47 4 25 0;
#X connect 49 0 26 0;
#X connect 49 1 23 0;
#X connect 50 0 24 0;
#X connect 50 1 48 0;
#X connect 51 0 49 0;
#X connect 53 0 52 0;
#X connect 54 0 22 0;
#X connect 55 0 56 0;
#X connect 55 1 17 0;
#X connect 56 0 53 0;
#X connect 57 0 56 0;
#X connect 57 1 17 0;
#X connect 74 0 75 0;
#X connect 74 1 4 0;
#X connect 74 2 5 0;
#X connect 74 3 6 0;
#X connect 75 0 46 0;
#X restore 27 39 pd menu-and-knob-pages;
#X obj 439 45 punchy;
#X obj 935 85 vsl 15 128 0 1 0 0 empty p1k1 empty 0 -9 0 10 -262144
-1 -1 4366 1;
#X obj 954 85 vsl 15 128 0 1 0 0 empty p1k2 empty 0 -9 0 10 -262144
-1 -1 8359 1;
#X obj 974 85 vsl 15 128 0 1 0 0 empty p1k3 empty 0 -9 0 10 -262144
-1 -1 7007 1;
#X obj 994 84 vsl 15 128 0 1 0 0 empty p1k4 empty 0 -9 0 10 -262144
-1 -1 1525 1;
#X obj 974 226 vsl 15 128 0 1 0 0 empty p2k3 empty 0 -9 0 10 -262144
-1 -1 4266 1;
#X obj 994 225 vsl 15 128 0 1 0 0 empty p2k4 empty 0 -9 0 10 -262144
-1 -1 7851 1;
#N canvas 423 50 1421 968 mapping 1;
#X obj 109 709 r p3k1;
#X obj 127 751 s punchvel;
#X obj 109 775 * 127;
#X obj 109 797 i;
#X msg 109 827 \; p3s1 1: Note Vel \$1 \;;
#X obj 949 137 i;
#X msg 949 169 4: Decay Time \$1 ms;
#X obj 949 86 * 2000;
#X obj 579 230 send~ f;
#X obj 579 165 sig~;
#X obj 578 196 lop~ 5;
#X obj 579 94 / 100;
#X obj 579 116 mtof;
#X obj 579 138 / 8.1785;
#X obj 579 67 * 2400;
#X obj 461 150 i;
#X obj 949 108 + 10;
#X obj 1105 168 s decay;
#X obj 806 85 sig~;
#X obj 806 107 lop~ 5;
#X obj 738 159 i;
#X obj 738 131 * 100;
#X msg 738 208 3: Tone \$1;
#X obj 807 131 s~ tone;
#X msg 454 196 2: Tune \$1 cents;
#X obj 55 154 master-metronome;
#X obj 55 126 tgl 15 0 empty empty empty 17 7 0 10 -262144 -1 -1 1
1;
#X obj 55 59 loadbang;
#X msg 55 91 1;
#X obj 163 94 * 250;
#X obj 163 120 + 10;
#X obj 162 62 r p1k1;
#X obj 579 40 r p1k2;
#X obj 738 44 r p1k3, f 8;
#X obj 949 53 r p1k4;
#X msg 37 211 \; p1s1 1: Tempo \$1 BPM MIDI \;;
#X msg 265 212 \; p1s1 1: Tempo \$1 BPM \;;
#X obj 467 232 s p1s2;
#X obj 949 196 s p1s4;
#X obj 738 242 s p1s3;
#X msg 49 270 \; p2s1 1: Tempo \$1 BPM MIDI \;;
#X msg 258 273 \; p2s1 1: Tempo \$1 BPM \;;
#X obj 216 62 r p2k1;
#X obj 262 101 r p1k1;
#X obj 262 124 v p2k1;
#X obj 325 102 r p2k1;
#X obj 325 123 v p1k1;
#X obj 777 451 i;
#X obj 836 470 s dtime;
#X obj 992 442 i;
#X obj 992 417 * 100;
#X obj 1060 455 s feedback;
#X obj 1247 450 i;
#X obj 1246 423 * 100;
#X obj 1174 444 s wetdry;
#X obj 776 396 r p2k2;
#X obj 992 391 r p2k3;
#X obj 1246 393 r p2k4;
#X msg 741 493 \; p2s2 1: Delay Time \$1 ms \;;
#X msg 1211 492 \; p2s4 4: Amount \$1 % \;;
#X msg 955 486 \; p2s3 3: Feedback \$1 % \;;
#X obj 776 424 * 2000;
#X obj 637 612 r page-ready;
#X obj 1054 894 s p3s5;
#X obj 1058 796 r len;
#X obj 637 634 sel 3;
#X obj 942 630 sel 1;
#X obj 773 798 s punchenable;
#X obj 795 755 tgl 15 0 empty empty empty 17 7 0 10 -262144 -1 -1 0
1;
#X obj 942 608 r p3a;
#X msg 833 656 0;
#X obj 833 609 r page-closing;
#X obj 833 631 sel 3;
#X msg 727 696 0;
#X msg 637 687 \; led 6 \;;
#X obj 929 793 sel 0 1;
#X msg 961 862 \; led 1 \;;
#X msg 768 894 \; p3s5 Press Aux to Begin \;;
#X msg 1054 867 \$1 Keys Punched;
#X msg 999 820 0;
#X msg 138 511 1;
#X obj 138 533 s playenable;
#X obj 687 829 s playenable;
#X obj 750 609 r endofseq;
#X msg 750 634 0;
#X text 145 24 tempo on both page 1 and 2;
#X text 52 369 page 1 and 2 enable play mode;
#X obj 67 400 r page-ready;
#X obj 687 798 == 0;
#X msg 890 848 \; led 6 \;;
#X obj 637 658 t b b;
#X obj 602 421 sel 1;
#X obj 632 391 r p2a;
#X obj 590 391 r p1a;
#X msg 355 461 \; led 2 \;;
#X obj 655 748 s latchenable;
#X obj 581 479 v latch-state;
#X obj 607 506 s latchenable;
#X obj 607 443 tgl 15 0 empty empty empty 17 7 0 10 -262144 -1 -1 0
1;
#X obj 67 423 sel 1 2;
#X obj 67 446 v latch-state;
#X obj 67 468 sel 0 1;
#X msg 232 511 1;
#X obj 232 533 s latchenable;
#X obj 37 535 s latchenable;
#X msg 353 516 \; led 3 \;;
#X msg 37 513 0;
#X obj 352 410 r latchenable;
#X obj 352 432 sel 0 1;
#X msg 411 462 \; p1s5 Play Mode Latch \; p2s5 Play Mode Latch \;;
#X msg 409 513 \; p1s5 Play Mode \; p2s5 Play Mode \;;
#X connect 0 0 1 0;
#X connect 0 0 2 0;
#X connect 2 0 3 0;
#X connect 3 0 4 0;
#X connect 5 0 6 0;
#X connect 6 0 38 0;
#X connect 7 0 16 0;
#X connect 9 0 10 0;
#X connect 10 0 8 0;
#X connect 11 0 12 0;
#X connect 12 0 13 0;
#X connect 13 0 9 0;
#X connect 14 0 11 0;
#X connect 14 0 15 0;
#X connect 15 0 24 0;
#X connect 16 0 5 0;
#X connect 16 0 17 0;
#X connect 18 0 19 0;
#X connect 19 0 23 0;
#X connect 20 0 22 0;
#X connect 21 0 20 0;
#X connect 22 0 39 0;
#X connect 24 0 37 0;
#X connect 25 0 35 0;
#X connect 25 0 40 0;
#X connect 25 1 36 0;
#X connect 25 1 41 0;
#X connect 26 0 25 0;
#X connect 27 0 28 0;
#X connect 28 0 26 0;
#X connect 29 0 30 0;
#X connect 30 0 25 1;
#X connect 31 0 29 0;
#X connect 32 0 14 0;
#X connect 33 0 18 0;
#X connect 33 0 21 0;
#X connect 34 0 7 0;
#X connect 42 0 29 0;
#X connect 43 0 44 0;
#X connect 45 0 46 0;
#X connect 47 0 58 0;
#X connect 49 0 60 0;
#X connect 50 0 49 0;
#X connect 52 0 59 0;
#X connect 53 0 52 0;
#X connect 55 0 61 0;
#X connect 56 0 50 0;
#X connect 56 0 51 0;
#X connect 57 0 53 0;
#X connect 57 0 54 0;
#X connect 61 0 47 0;
#X connect 61 0 48 0;
#X connect 62 0 65 0;
#X connect 64 0 78 0;
#X connect 65 0 90 0;
#X connect 66 0 68 0;
#X connect 68 0 67 0;
#X connect 68 0 75 0;
#X connect 68 0 88 0;
#X connect 69 0 66 0;
#X connect 70 0 68 0;
#X connect 71 0 72 0;
#X connect 72 0 70 0;
#X connect 73 0 68 0;
#X connect 73 0 95 0;
#X connect 75 0 89 0;
#X connect 75 0 77 0;
#X connect 75 1 76 0;
#X connect 75 1 79 0;
#X connect 78 0 63 0;
#X connect 79 0 78 0;
#X connect 80 0 81 0;
#X connect 83 0 84 0;
#X connect 84 0 68 0;
#X connect 87 0 99 0;
#X connect 88 0 82 0;
#X connect 90 0 74 0;
#X connect 90 1 73 0;
#X connect 91 0 98 0;
#X connect 92 0 91 0;
#X connect 93 0 91 0;
#X connect 98 0 96 0;
#X connect 98 0 97 0;
#X connect 99 0 100 0;
#X connect 99 1 100 0;
#X connect 100 0 101 0;
#X connect 101 0 106 0;
#X connect 101 0 80 0;
#X connect 101 1 80 0;
#X connect 101 1 102 0;
#X connect 102 0 103 0;
#X connect 106 0 104 0;
#X connect 107 0 108 0;
#X connect 108 0 105 0;
#X connect 108 0 110 0;
#X connect 108 1 94 0;
#X connect 108 1 109 0;
#X restore 25 69 pd mapping;
#X obj 437 487 throw~ outL;
#X obj 474 435 throw~ outR;
#X obj 520 177 delay5sec;
#X obj 579 81 r dtime;
#X obj 652 78 r feedback;
#X obj 936 227 vsl 15 128 0 1 0 0 empty p2k1 empty 0 -9 0 10 -262144
-1 -1 4366 1;
#X obj 955 227 vsl 15 128 0 1 0 0 empty p2k2 empty 0 -9 0 10 -262144
-1 -1 3473 1;
#X floatatom 582 115 5 0 0 0 - - -, f 5;
#X floatatom 657 119 5 0 0 0 - - -, f 5;
#X obj 575 274 lop~ 100;
#X obj 575 201 r wetdry;
#X obj 575 223 t f f;
#X obj 575 249 *;
#X obj 521 303 *~;
#X obj 438 382 +~;
#N canvas 7 50 875 658 recall 0;
#X obj 179 290 textfile;
#X msg 182 113 rewind;
#X obj 145 55 bng 15 250 50 0 empty empty empty 17 7 0 10 -262144 -1
-1;
#X obj 145 77 t b b b;
#X obj 145 29 loadbang;
#X msg 245 105 read pagevals.txt;
#X obj 153 397 v p1k1;
#X obj 153 422 s p1k1;
#X obj 153 366 t b f;
#X obj 183 454 t b f;
#X obj 216 361 t b f;
#X obj 247 448 t b f;
#X obj 183 485 v p1k2;
#X obj 183 510 s p1k2;
#X obj 216 392 v p1k3;
#X obj 216 417 s p1k3;
#X obj 247 479 v p1k4;
#X obj 247 504 s p1k4;
#X obj 153 334 unpack 0 0 0 0 0 0 0 0 0 0 0 0 0 0 0 0, f 66;
#X obj 278 367 t b f;
#X obj 308 455 t b f;
#X obj 341 362 t b f;
#X obj 372 449 t b f;
#X obj 278 398 v p2k1;
#X obj 308 486 v p2k2;
#X obj 308 511 s p2k2;
#X obj 341 393 v p2k3;
#X obj 372 480 v p2k4;
#X obj 372 505 s p2k4;
#X obj 341 418 s p2k3;
#X obj 278 423 s p2k1;
#X obj 407 361 t b f;
#X obj 437 449 t b f;
#X obj 470 356 t b f;
#X obj 501 443 t b f;
#X obj 532 362 t b f;
#X obj 562 450 t b f;
#X obj 595 357 t b f;
#X obj 626 444 t b f;
#X obj 407 392 v p3k1;
#X obj 407 417 s p3k1;
#X obj 437 480 v p3k2;
#X obj 437 505 s p3k2;
#X obj 470 387 v p3k3;
#X obj 470 412 s p3k3;
#X obj 501 474 v p3k4;
#X obj 501 499 s p3k4;
#X obj 532 393 v p4k1;
#X obj 531 417 s p4k1;
#X obj 562 481 v p4k2;
#X obj 562 505 s p4k2;
#X obj 595 388 v p4k3;
#X obj 595 413 s p4k3;
#X obj 626 475 v p4k4;
#X obj 626 500 s p4k4;
#X connect 0 0 18 0;
#X connect 1 0 0 0;
#X connect 2 0 3 0;
#X connect 3 0 0 0;
#X connect 3 1 1 0;
#X connect 3 2 5 0;
#X connect 4 0 2 0;
#X connect 5 0 0 0;
#X connect 6 0 7 0;
#X connect 8 0 6 0;
#X connect 8 1 6 0;
#X connect 9 0 12 0;
#X connect 9 1 12 0;
#X connect 10 0 14 0;
#X connect 10 1 14 0;
#X connect 11 0 16 0;
#X connect 11 1 16 0;
#X connect 12 0 13 0;
#X connect 14 0 15 0;
#X connect 16 0 17 0;
#X connect 18 0 8 0;
#X connect 18 1 9 0;
#X connect 18 2 10 0;
#X connect 18 3 11 0;
#X connect 18 4 19 0;
#X connect 18 5 20 0;
#X connect 18 6 21 0;
#X connect 18 7 22 0;
#X connect 18 8 31 0;
#X connect 18 9 32 0;
#X connect 18 10 33 0;
#X connect 18 11 34 0;
#X connect 18 12 35 0;
#X connect 18 13 36 0;
#X connect 18 14 37 0;
#X connect 18 15 38 0;
#X connect 19 0 23 0;
#X connect 19 1 23 0;
#X connect 20 0 24 0;
#X connect 20 1 24 0;
#X connect 21 0 26 0;
#X connect 21 1 26 0;
#X connect 22 0 27 0;
#X connect 22 1 27 0;
#X connect 23 0 30 0;
#X connect 24 0 25 0;
#X connect 26 0 29 0;
#X connect 27 0 28 0;
#X connect 31 0 39 0;
#X connect 31 1 39 0;
#X connect 32 0 41 0;
#X connect 32 1 41 0;
#X connect 33 0 43 0;
#X connect 33 1 43 0;
#X connect 34 0 45 0;
#X connect 34 1 45 0;
#X connect 35 0 47 0;
#X connect 35 1 47 0;
#X connect 36 0 49 0;
#X connect 36 1 49 0;
#X connect 37 0 51 0;
#X connect 37 1 51 0;
#X connect 38 0 53 0;
#X connect 38 1 53 0;
#X connect 39 0 40 0;
#X connect 41 0 42 0;
#X connect 43 0 44 0;
#X connect 45 0 46 0;
#X connect 47 0 48 0;
#X connect 49 0 50 0;
#X connect 51 0 52 0;
#X connect 53 0 54 0;
#X restore 25 97 pd recall;
#N canvas 6 50 1287 744 save 0;
#X obj 254 300 v p1k1;
#X obj 316 299 v p1k2;
#X obj 375 297 v p1k3;
#X obj 433 296 v p1k4;
#X obj 240 171 bng 15 250 50 0 empty empty empty 17 7 0 10 -262144
-1 -1;
#X msg 228 456 set;
#X obj 242 598 list trim;
#X obj 235 636 textfile;
#X obj 222 200 t b b b;
#X msg 21 302 write /tmp/state/pagevals.txt;
#X obj 263 119 r saveState;
#X obj 242 575 pack s 0 0 0 0 0 0 0 0 0 0 0 0 0 0 0 0;
#X obj 488 299 v p2k1;
#X obj 550 298 v p2k2;
#X obj 609 296 v p2k3;
#X obj 667 295 v p2k4;
#X obj 905 291 v p3k4;
#X obj 847 292 v p3k3;
#X obj 788 294 v p3k2;
#X obj 726 295 v p3k1;
#X obj 964 293 v p4k1;
#X obj 1026 292 v p4k2;
#X obj 1085 290 v p4k3;
#X obj 1143 289 v p4k4;
#X obj 264 223 t b b b b b b b b b b b b b b b b, f 74;
#X connect 0 0 11 1;
#X connect 1 0 11 2;
#X connect 2 0 11 3;
#X connect 3 0 11 4;
#X connect 4 0 8 0;
#X connect 5 0 11 0;
#X connect 6 0 7 0;
#X connect 8 0 9 0;
#X connect 8 1 5 0;
#X connect 8 2 24 0;
#X connect 9 0 7 0;
#X connect 10 0 4 0;
#X connect 11 0 6 0;
#X connect 12 0 11 5;
#X connect 13 0 11 6;
#X connect 14 0 11 7;
#X connect 15 0 11 8;
#X connect 16 0 11 12;
#X connect 17 0 11 11;
#X connect 18 0 11 10;
#X connect 19 0 11 9;
#X connect 20 0 11 13;
#X connect 21 0 11 14;
#X connect 22 0 11 15;
#X connect 23 0 11 16;
#X connect 24 0 0 0;
#X connect 24 1 1 0;
#X connect 24 2 2 0;
#X connect 24 3 3 0;
#X connect 24 4 12 0;
#X connect 24 5 13 0;
#X connect 24 6 14 0;
#X connect 24 7 15 0;
#X connect 24 8 19 0;
#X connect 24 9 18 0;
#X connect 24 10 17 0;
#X connect 24 11 16 0;
#X connect 24 12 20 0;
#X connect 24 13 21 0;
#X connect 24 14 22 0;
#X connect 24 15 23 0;
#X restore 27 122 pd save;
#N canvas 5 50 794 547 simple-synth 0;
#X obj 68 152 pack 0 0 0, f 11;
#X obj 68 180 route 1 2 3 4 5 6 7 8, f 81;
#X obj 294 294 *~ 0.25;
#X obj 68 219 voice;
#X obj 561 221 voice;
#X obj 279 220 voice;
#X obj 209 220 voice;
#X obj 350 221 voice;
#X obj 138 220 voice;
#X obj 420 222 voice;
#X obj 491 220 voice;
#X obj 68 125 poly 8 1, f 11;
#X obj 331 341 outlet~;
#X obj 67 97 inlet;
#X connect 0 0 1 0;
#X connect 1 0 3 0;
#X connect 1 1 8 0;
#X connect 1 2 6 0;
#X connect 1 3 5 0;
#X connect 1 4 7 0;
#X connect 1 5 9 0;
#X connect 1 6 10 0;
#X connect 1 7 4 0;
#X connect 2 0 12 0;
#X connect 3 0 2 0;
#X connect 4 0 2 0;
#X connect 5 0 2 0;
#X connect 6 0 2 0;
#X connect 7 0 2 0;
#X connect 8 0 2 0;
#X connect 9 0 2 0;
#X connect 10 0 2 0;
#X connect 11 0 0 0;
#X connect 11 1 0 1;
#X connect 11 2 0 2;
#X connect 13 0 11 0;
#X restore 439 85 pd simple-synth;
#X obj 106 236 r page-ready;
#X obj 106 258 t b b;
#X obj 180 283 v prevpage;
#X floatatom 180 316 5 0 0 0 - - -, f 5;
#X floatatom 54 325 5 0 0 0 - - -, f 5;
#X obj 46 363 r page-closing;
#X obj 159 364 r page-ready;
#X obj 54 297 v curpage;
#X obj 54 270 bng 15 250 50 0 empty empty empty 17 7 0 10 -262144 -1
-1;
#X connect 1 0 26 0;
#X connect 11 0 22 0;
#X connect 12 0 11 1;
#X connect 12 0 16 0;
#X connect 13 0 11 2;
#X connect 13 0 17 0;
#X connect 18 0 22 1;
#X connect 19 0 20 0;
#X connect 20 0 21 0;
#X connect 20 1 21 1;
#X connect 21 0 18 0;
#X connect 22 0 23 1;
#X connect 23 0 9 0;
#X connect 23 0 10 0;
#X connect 26 0 11 0;
#X connect 26 0 23 0;
#X connect 27 0 28 0;
#X connect 28 0 34 0;
#X connect 28 1 29 0;
#X connect 29 0 30 0;
#X connect 34 0 31 0;
#X connect 35 0 34 0;
