#N canvas 43 50 1142 811 10;
#X obj 323 706 outlet~;
#X obj 169 707 outlet~;
#X obj 195 29 inlet~;
#X obj 354 37 inlet;
#X obj 457 37 inlet;
#X msg 328 202 freq \$1;
#X msg 401 188 depth \$1;
#X obj 247 325 e_phaser \$0-ph0;
#X obj 425 118 t f f;
#X obj 425 140 *;
#X connect 2 0 7 0;
#X connect 3 0 5 0;
#X connect 4 0 8 0;
#X connect 5 0 7 1;
#X connect 6 0 7 1;
#X connect 7 0 1 0;
#X connect 7 0 0 0;
#X connect 8 0 9 0;
#X connect 8 1 9 1;
#X connect 9 0 6 0;
