#N canvas 240 196 1254 690 10;
#X declare -path patchmenu;
#N canvas 258 67 1357 905 mapping 1;
#X text 30 83 Page 1;
#X text 31 313 Page 2;
#X text 32 529 Page 3;
#X text 33 733 Page 4;
#X obj 164 327 * 2000;
#X obj 164 349 i;
#X obj 219 348 s vca-attack;
#X obj 364 325 * 2000;
#X obj 364 347 i;
#X obj 419 346 s vca-decay;
#X obj 563 345 i;
#X obj 771 328 * 2000;
#X obj 771 348 i;
#X obj 563 325 * 100;
#X obj 618 346 s vca-sustain;
#X obj 826 349 s vca-release;
#X obj 162 516 * 2000;
#X obj 162 538 i;
#X obj 362 514 * 2000;
#X obj 362 536 i;
#X obj 561 534 i;
#X obj 769 517 * 2000;
#X obj 769 537 i;
#X obj 561 514 * 100;
#X obj 217 537 s vcf-attack;
#X obj 417 535 s vcf-decay;
#X obj 616 535 s vcf-sustain;
#X obj 824 538 s vcf-release;
#X obj 162 494 r p3k1;
#X obj 363 491 r p3k2;
#X obj 562 491 r p3k3;
#X obj 770 494 r p3k4;
#X msg 162 560 \; p3s1 1: VCF Attack \$1 ms;
#X msg 362 557 \; p3s2 2: VCF Decay \$1 ms;
#X msg 558 557 \; p3s3 3: VCF Sustain \$1 %;
#X msg 769 560 \; p3s4 4: VCF Rel \$1 ms;
#X obj 164 305 r p2k1;
#X obj 365 302 r p2k2;
#X obj 564 302 r p2k3;
#X obj 772 304 r p2k4;
#X msg 164 371 \; p2s1 1: VCA Attack \$1 ms;
#X msg 364 368 \; p2s2 2: VCA Decay \$1 ms;
#X msg 563 368 \; p2s3 3: VCA Sustain \$1 %;
#X msg 771 371 \; p2s4 4: VCA Rel \$1 ms;
#X obj 158 111 i;
#X obj 158 25 r p1k1;
#X msg 158 133 \; p1s1 1: Cutoff \$1 Hz;
#X obj 159 46 t f f;
#X obj 159 68 *;
#X obj 158 89 * 5000;
#X obj 213 110 s cutoff;
#X obj 774 33 r p1k4;
#X obj 356 103 i;
#X obj 356 48 r p1k2;
#X msg 356 125 \; p1s2 2: Resonance \$1 %;
#X obj 356 81 * 100;
#X obj 423 104 s reson;
#X obj 423 80 * 3.7;
#X obj 774 76 i;
#X obj 971 124 s transpose;
#X obj 774 54 * 24;
#X obj 774 98 - 12;
#X msg 774 126 \; p1s4 4: Transpose \$1;
#X obj 574 155 i;
#X obj 622 6 r p1k3;
#X msg 574 191 \; p1s3 3: Osc Ratio \$1 %;
#X obj 625 36 * 24;
#X obj 625 82 mtof;
#X obj 624 58 + 12;
#X obj 622 106 / 65.4064;
#X obj 668 151 s oratio;
#X obj 594 133 * 101;
#X obj 393 701 * 100;
#X obj 393 727 i;
#X obj 605 729 i;
#X obj 806 727 i;
#X obj 803 686 * 2000;
#X obj 857 728 s decay;
#X obj 602 688 * 100;
#X obj 681 693 s damt;
#X obj 178 663 r p4k1;
#X obj 394 667 r p4k2;
#X obj 604 655 r p4k3;
#X obj 805 653 r p4k4;
#X msg 806 756 \; p4s4 4: x;
#X obj 1054 359 r page-ready;
#X obj 1150 358 r seq-display;
#X obj 1144 443 list;
#X obj 1150 383 t b a;
#X obj 1145 412 f;
#X obj 1144 471 route 1 2 3 4;
#X obj 1165 508 s screenLine5;
#X text 1054 305 put the sequencer messages;
#X text 1055 320 on all pages except menu;
#X obj 229 736 s phaserfreq;
#X msg 392 753 \; p4s2 2: Phaser Depth \$1 %;
#X obj 473 705 s phaserdepth;
#X obj 185 702 * 10;
#X msg 172 808 \; p4s1 1: Phaser Freq \$1 Hz;
#X msg 605 758 \; p4s3 3: x;
#X obj 174 735 * 10;
#X obj 174 757 i;
#X obj 174 779 / 10;
#X connect 4 0 5 0;
#X connect 4 0 6 0;
#X connect 5 0 40 0;
#X connect 7 0 8 0;
#X connect 7 0 9 0;
#X connect 8 0 41 0;
#X connect 10 0 42 0;
#X connect 11 0 12 0;
#X connect 11 0 15 0;
#X connect 12 0 43 0;
#X connect 13 0 10 0;
#X connect 13 0 14 0;
#X connect 16 0 17 0;
#X connect 16 0 24 0;
#X connect 17 0 32 0;
#X connect 18 0 19 0;
#X connect 18 0 25 0;
#X connect 19 0 33 0;
#X connect 20 0 34 0;
#X connect 21 0 22 0;
#X connect 21 0 27 0;
#X connect 22 0 35 0;
#X connect 23 0 20 0;
#X connect 23 0 26 0;
#X connect 28 0 16 0;
#X connect 29 0 18 0;
#X connect 30 0 23 0;
#X connect 31 0 21 0;
#X connect 36 0 4 0;
#X connect 37 0 7 0;
#X connect 38 0 13 0;
#X connect 39 0 11 0;
#X connect 44 0 46 0;
#X connect 45 0 47 0;
#X connect 47 0 48 0;
#X connect 47 1 48 1;
#X connect 48 0 49 0;
#X connect 49 0 44 0;
#X connect 49 0 50 0;
#X connect 51 0 60 0;
#X connect 52 0 54 0;
#X connect 53 0 55 0;
#X connect 53 0 57 0;
#X connect 55 0 52 0;
#X connect 57 0 56 0;
#X connect 58 0 61 0;
#X connect 60 0 58 0;
#X connect 61 0 59 0;
#X connect 61 0 62 0;
#X connect 63 0 65 0;
#X connect 64 0 66 0;
#X connect 66 0 68 0;
#X connect 67 0 69 0;
#X connect 68 0 67 0;
#X connect 69 0 70 0;
#X connect 69 0 71 0;
#X connect 71 0 63 0;
#X connect 72 0 73 0;
#X connect 73 0 95 0;
#X connect 74 0 99 0;
#X connect 75 0 84 0;
#X connect 76 0 75 0;
#X connect 76 0 77 0;
#X connect 78 0 74 0;
#X connect 80 0 97 0;
#X connect 81 0 72 0;
#X connect 81 0 96 0;
#X connect 82 0 78 0;
#X connect 82 0 79 0;
#X connect 83 0 76 0;
#X connect 85 0 89 0;
#X connect 86 0 88 0;
#X connect 87 0 90 0;
#X connect 88 0 89 0;
#X connect 88 1 87 1;
#X connect 89 0 87 0;
#X connect 90 0 91 0;
#X connect 90 1 91 0;
#X connect 90 2 91 0;
#X connect 90 3 91 0;
#X connect 97 0 94 0;
#X connect 97 0 100 0;
#X connect 100 0 101 0;
#X connect 101 0 102 0;
#X connect 102 0 98 0;
#X restore 23 269 pd mapping;
#X obj 20 27 declare -path patchmenu;
#X obj 20 143 patchmenu;
#X obj 52 121 s enableSubMenu;
#X obj 20 49 loadbang;
#X msg 20 121 0;
#X obj 20 98 t b b;
#X obj 20 73 versioncheck 2;
#X obj 563 543 throw~ outL;
#X obj 743 553 throw~ outR;
#X obj 645 346 *~ 0.3;
#X obj 588 243 voice;
#X obj 631 163 pack 0 0 0;
#X obj 638 189 route 1 2 3 4;
#X obj 638 83 unpack 0 0;
#X obj 628 45 r notes;
#X obj 782 47 r notes_seq;
#X obj 688 46 r zero_notes;
#X obj 631 107 - 24;
#X obj 630 139 poly 3 1;
#X obj 641 249 voice;
#X obj 690 242 voice;
#X obj 844 228 sequencer2;
#X obj 745 249 voice;
#X obj 656 429 fx-phaser;
#X obj 723 346 r phaserfreq;
#X obj 754 378 r phaserdepth;
#X msg 19 167 \; screenLine1 1) Filt and Oscil \; screenLine2 2) VCA
ADSR \; screenLine3 3) VCF ADSR \; screenLine4 4) Phaser Reverb \;
screenLine5 <-- HOME \;;
#X floatatom 747 407 5 0 0 0 - - -, f 5;
#X floatatom 743 434 5 0 0 0 - - -, f 5;
#X connect 2 0 27 0;
#X connect 4 0 7 0;
#X connect 5 0 2 0;
#X connect 6 0 5 0;
#X connect 6 1 3 0;
#X connect 7 0 6 0;
#X connect 10 0 8 0;
#X connect 10 0 9 0;
#X connect 10 0 24 0;
#X connect 11 0 10 0;
#X connect 12 0 13 0;
#X connect 13 0 11 0;
#X connect 13 1 20 0;
#X connect 13 2 21 0;
#X connect 13 3 23 0;
#X connect 14 0 18 0;
#X connect 14 1 19 1;
#X connect 15 0 14 0;
#X connect 16 0 14 0;
#X connect 17 0 14 0;
#X connect 18 0 19 0;
#X connect 19 0 12 0;
#X connect 19 1 12 1;
#X connect 19 2 12 2;
#X connect 20 0 10 0;
#X connect 21 0 10 0;
#X connect 23 0 10 0;
#X connect 24 0 8 0;
#X connect 24 1 9 0;
#X connect 25 0 24 1;
#X connect 25 0 29 0;
#X connect 26 0 24 2;
#X connect 26 0 28 0;
