#N canvas 70 207 728 510 10;
#X obj 232 14 inlet;
#X obj 349 444 outlet~;
#X obj 275 168 vline~;
#N canvas 1084 392 450 300 adsramp 0;
#X obj 84 15 inlet;
#X obj 176 16 inlet;
#X obj 280 263 outlet;
#X text 136 18 ADS;
#X text 228 17 R;
#X obj 174 68 select 0;
#X obj 230 117 delay 10;
#X obj 245 180 pack 0 0;
#X msg 291 223 \$1 \$2;
#X obj 318 137 * 15;
#X obj 140 125 * 15;
#X obj 333 93 r r;
#X obj 136 99 r d;
#X obj 99 98 r a;
#X obj 93 156 pack 0 0 0 0;
#X obj 171 98 r s;
#X msg 96 195 1 \$2 \, \$4 \$3;
#X obj 177 134 / 80;
#X connect 0 0 14 0;
#X connect 1 0 5 0;
#X connect 5 0 6 0;
#X connect 6 0 7 0;
#X connect 7 0 8 0;
#X connect 8 0 2 0;
#X connect 9 0 7 1;
#X connect 10 0 14 2;
#X connect 11 0 9 0;
#X connect 12 0 10 0;
#X connect 13 0 14 1;
#X connect 14 0 16 0;
#X connect 15 0 17 0;
#X connect 16 0 2 0;
#X connect 17 0 14 3;
#X restore 264 121 pd adsramp;
#X obj 347 406 bob~;
#X obj 424 343 r q;
#N canvas 400 152 582 495 adsrfilt 0;
#X obj 84 15 inlet;
#X obj 176 16 inlet;
#X text 136 18 ADS;
#X text 228 17 R;
#X obj 216 66 select 0, f 9;
#X obj 230 117 delay 10;
#X obj 245 180 pack 0 0;
#X msg 291 223 \$1 \$2;
#X obj 318 137 * 15;
#X obj 92 171 pack 0 0 0 0;
#X msg 96 195 1 \$2 \, \$4 \$3;
#X obj 99 98 r a2;
#X obj 136 99 r d2;
#X obj 171 98 r s2;
#X obj 333 93 r r2;
#X obj 70 275 r f;
#X obj 68 306 mtof~;
#X obj 120 286 vline~;
#X obj 164 330 nbx 5 14 -1e+37 1e+37 0 0 empty empty empty 0 -8 0 10
-262144 -1 -1 129 256;
#X obj 146 362 *~;
#X obj 149 435 *~;
#X obj 185 285 r amt;
#X obj 185 307 + 2;
#X obj 229 461 outlet~;
#X obj 140 125 * 5;
#X obj 177 134 / 256;
#X obj 99 120 + 2;
#X obj 99 142 * 2;
#X obj 65 369 lop~ 5;
#X connect 0 0 9 0;
#X connect 1 0 4 0;
#X connect 4 0 5 0;
#X connect 5 0 6 0;
#X connect 6 0 7 0;
#X connect 7 0 17 0;
#X connect 8 0 6 1;
#X connect 9 0 10 0;
#X connect 10 0 17 0;
#X connect 11 0 26 0;
#X connect 12 0 24 0;
#X connect 13 0 25 0;
#X connect 14 0 8 0;
#X connect 15 0 16 0;
#X connect 16 0 28 0;
#X connect 17 0 19 0;
#X connect 18 0 19 1;
#X connect 19 0 20 1;
#X connect 20 0 23 0;
#X connect 21 0 22 0;
#X connect 22 0 18 0;
#X connect 24 0 9 2;
#X connect 25 0 9 3;
#X connect 26 0 27 0;
#X connect 27 0 9 1;
#X connect 28 0 20 0;
#X restore 359 156 pd adsrfilt;
#X obj 20 193 osc~;
#X obj 424 365 / 127;
#X obj 69 108 mtof;
#X obj 62 193 / 256;
#X obj 19 243 *~ 0.5;
#X obj 92 313 +~;
#X obj 153 272 -~ 0.5;
#X obj 218 293 *~;
#X obj 28 281 *~;
#X obj 11 147 * 2;
#X obj 215 52 unpack 0 0;
#X obj 552 279 outlet~;
#X obj 35 28 r o2amt;
#X obj 108 136 sig~;
#X obj 145 241 blsaw;
#X obj 168 146 *~;
#X obj 179 98 sig~;
#X obj 173 168 *~ 2;
#X obj 163 200 +~ 1;
#X obj 179 120 lop~ 5;
#X obj 122 184 *~;
#X obj 179 76 r fscale;
#X connect 0 0 17 0;
#X connect 2 0 14 1;
#X connect 2 0 15 1;
#X connect 2 0 18 0;
#X connect 3 0 2 0;
#X connect 4 0 1 0;
#X connect 5 0 8 0;
#X connect 6 0 4 1;
#X connect 7 0 11 0;
#X connect 8 0 4 2;
#X connect 9 0 6 0;
#X connect 9 0 16 0;
#X connect 9 0 20 0;
#X connect 10 0 11 1;
#X connect 11 0 15 0;
#X connect 12 0 4 0;
#X connect 13 0 14 0;
#X connect 14 0 12 1;
#X connect 15 0 12 0;
#X connect 16 0 7 0;
#X connect 17 0 9 0;
#X connect 17 0 3 0;
#X connect 17 1 3 1;
#X connect 17 1 6 1;
#X connect 19 0 10 0;
#X connect 20 0 27 0;
#X connect 21 0 13 0;
#X connect 22 0 24 0;
#X connect 23 0 26 0;
#X connect 24 0 25 0;
#X connect 25 0 27 1;
#X connect 26 0 22 1;
#X connect 26 0 22 0;
#X connect 27 0 21 0;
#X connect 28 0 23 0;
