#N canvas 7 50 1481 712 10;
#X obj 262 525 bob~;
#X obj 165 192 mtof;
#X obj 245 386 -~ 0.5;
#X obj 260 429 *~;
#X obj 266 108 unpack 0 0;
#X obj 200 250 sig~;
#X obj 237 355 blsaw;
#X obj 242 208 *~;
#X obj 253 160 sig~;
#X obj 247 230 *~ 2;
#X obj 237 262 +~ 1;
#X obj 253 182 lop~ 5;
#X obj 255 139 r fscale;
#X obj 375 207 r vca-attack;
#X obj 466 207 r vca-decay;
#X obj 481 229 r vca-sustain;
#X obj 486 255 r vca-release;
#X obj 478 478 sig~;
#X obj 344 278 adsr 1 10 100 50 500;
#X obj 478 356 adsr 1 10 100 50 500;
#X obj 509 285 r vcf-attack;
#X obj 601 286 r vcf-decay;
#X obj 617 307 r vcf-sustain;
#X obj 618 332 r vcf-release;
#X obj 349 479 +~ 100;
#X obj 462 381 *~;
#X obj 333 317 *~;
#X obj 516 388 r cutoff;
#X obj 516 410 lop~ 5;
#X obj 393 447 *~;
#X obj 601 452 r reson;
#X obj 161 349 blsaw;
#X obj 119 109 r transpose;
#X obj 268 76 inlet;
#X obj 265 570 outlet~;
#X obj 214 298 *~ 1;
#X obj 72 230 r oratio;
#X obj 72 252 lop~ 5;
#X obj 162 322 *~;
#X obj 165 149 + 12;
#X connect 0 0 34 0;
#X connect 1 0 5 0;
#X connect 2 0 3 0;
#X connect 3 0 0 0;
#X connect 4 0 39 0;
#X connect 4 1 18 0;
#X connect 4 1 19 0;
#X connect 5 0 35 0;
#X connect 6 0 2 0;
#X connect 7 0 9 0;
#X connect 8 0 11 0;
#X connect 9 0 10 0;
#X connect 11 0 7 1;
#X connect 11 0 7 0;
#X connect 12 0 8 0;
#X connect 13 0 18 2;
#X connect 14 0 18 3;
#X connect 15 0 18 4;
#X connect 16 0 18 5;
#X connect 17 0 0 2;
#X connect 18 0 26 1;
#X connect 18 0 26 0;
#X connect 19 0 25 1;
#X connect 19 0 25 0;
#X connect 20 0 19 2;
#X connect 21 0 19 3;
#X connect 22 0 19 4;
#X connect 23 0 19 5;
#X connect 24 0 0 1;
#X connect 25 0 29 0;
#X connect 26 0 3 1;
#X connect 27 0 28 0;
#X connect 28 0 29 1;
#X connect 29 0 24 0;
#X connect 30 0 17 0;
#X connect 31 0 2 0;
#X connect 32 0 39 1;
#X connect 33 0 4 0;
#X connect 35 0 6 0;
#X connect 35 0 38 0;
#X connect 36 0 37 0;
#X connect 37 0 38 1;
#X connect 38 0 31 0;
#X connect 39 0 1 0;
