#N canvas 724 215 836 643 10;
#X obj 349 44 r nr-number;
#X msg 349 140 Repeat Num \$1x;
#X obj 349 162 s nr-number-label;
#X obj 194 42 r nr-speed;
#X msg 194 183 Repeat Speed \$1 ms;
#X obj 194 206 s nr-speed-label;
#X text 6 6 A Note Repeater Module.;
#X text 194 23 Rate of repeat;
#X text 351 24 Number of Repeats on release;
#X obj 194 159 i;
#X obj 349 114 i;
#X obj 571 67 r nr-length;
#X obj 571 89 * 101;
#X obj 571 111 i;
#X msg 571 141 Note Length \$1 %;
#X obj 24 207 pack 0 0 0, f 11;
#X obj 24 154 r nr-notes-in;
#X obj 24 233 route 1 2 3 4 5 6 7 8 9 10, f 51;
#X obj 571 163 s nr-length-label;
#X obj 349 68 * 32;
#X obj 194 64 t f f;
#X obj 194 86 *;
#X obj 194 117 * 1000;
#X obj 224 158 s voice-speed;
#X obj 383 106 s voice-number;
#X obj 624 117 s voice-length;
#X text 557 52 relative length of note out;
#X obj 194 139 + 2;
#X obj 24 377 unpack 0 0;
#X obj 24 474 makenote 100 100, f 19;
#X obj 24 496 pack 0 0;
#X obj 154 423 *;
#X obj 164 397 t b f;
#X obj 154 445 i;
#X obj 154 351 r voice-length;
#X obj 164 375 r voice-speed;
#X obj 24 518 s nr-notes-out;
#X obj 24 180 poly 10, f 11;
#X obj 24 255 nr-voice;
#X obj 219 279 nr-voice;
#X obj 79 279 nr-voice;
#X obj 149 279 nr-voice;
#X obj 94 255 nr-voice;
#X obj 164 255 nr-voice;
#X obj 289 279 nr-voice;
#X obj 235 255 nr-voice;
#X obj 359 279 nr-voice;
#X obj 305 255 nr-voice;
#X connect 0 0 19 0;
#X connect 1 0 2 0;
#X connect 3 0 20 0;
#X connect 4 0 5 0;
#X connect 9 0 4 0;
#X connect 9 0 23 0;
#X connect 10 0 1 0;
#X connect 10 0 24 0;
#X connect 11 0 12 0;
#X connect 11 0 25 0;
#X connect 12 0 13 0;
#X connect 13 0 14 0;
#X connect 14 0 18 0;
#X connect 15 0 17 0;
#X connect 16 0 37 0;
#X connect 17 0 38 0;
#X connect 17 1 40 0;
#X connect 17 2 42 0;
#X connect 17 3 41 0;
#X connect 17 4 43 0;
#X connect 17 5 39 0;
#X connect 17 6 45 0;
#X connect 17 7 44 0;
#X connect 17 8 47 0;
#X connect 17 9 46 0;
#X connect 19 0 10 0;
#X connect 20 0 21 0;
#X connect 20 1 21 1;
#X connect 21 0 22 0;
#X connect 22 0 27 0;
#X connect 27 0 9 0;
#X connect 28 0 29 0;
#X connect 28 1 29 1;
#X connect 29 0 30 0;
#X connect 29 1 30 1;
#X connect 30 0 36 0;
#X connect 31 0 33 0;
#X connect 32 0 31 0;
#X connect 32 1 31 1;
#X connect 33 0 29 2;
#X connect 34 0 31 0;
#X connect 35 0 32 0;
#X connect 37 0 15 0;
#X connect 37 1 15 1;
#X connect 37 2 15 2;
#X connect 38 0 28 0;
#X connect 39 0 28 0;
#X connect 40 0 28 0;
#X connect 41 0 28 0;
#X connect 42 0 28 0;
#X connect 43 0 28 0;
#X connect 44 0 28 0;
#X connect 45 0 28 0;
#X connect 46 0 28 0;
#X connect 47 0 28 0;
