#N canvas 497 130 612 663 10;
#X obj 93 249 metro 100;
#X obj 15 450 i, f 5;
#X obj 93 101 sel 0, f 8;
#X msg 93 153 0;
#X obj 89 58 unpack 0 0;
#N canvas 553 201 460 529 bang 0;
#X obj 34 291 f;
#X obj 64 291 + 1;
#X msg 52 267 0;
#X obj 34 54 t b b b, f 12;
#X obj 34 319 %, f 10;
#X obj 134 224 sel, f 6;
#X obj 173 156 t f f, f 14;
#X obj 173 182 - 1;
#X obj 34 15 inlet;
#X obj 34 490 outlet;
#X msg 65 166 0;
#X msg 34 166 1;
#X obj 34 189 metro 100, f 15;
#X obj 34 361 expr 1 - ($f1 * (1 / $f2));
#X obj 34 431 * 127;
#X obj 34 453 int;
#X text 84 12 bang when velocity is zero/release;
#X obj 173 113 r voice-number;
#X obj 136 77 r voice-speed;
#X obj 34 383 t f f;
#X obj 34 405 *, f 5;
#X obj 226 309 + 1;
#X obj 320 65 inlet;
#X text 363 66 kill;
#X obj 320 87 b;
#X connect 0 0 1 0;
#X connect 0 0 4 0;
#X connect 1 0 0 1;
#X connect 2 0 0 1;
#X connect 3 0 11 0;
#X connect 3 1 10 0;
#X connect 3 2 2 0;
#X connect 4 0 5 0;
#X connect 4 0 13 0;
#X connect 5 0 10 0;
#X connect 6 0 7 0;
#X connect 6 1 4 1;
#X connect 7 0 5 1;
#X connect 8 0 3 0;
#X connect 10 0 12 0;
#X connect 11 0 12 0;
#X connect 12 0 0 0;
#X connect 13 0 19 0;
#X connect 14 0 15 0;
#X connect 15 0 9 0;
#X connect 17 0 6 0;
#X connect 17 0 21 0;
#X connect 18 0 12 1;
#X connect 19 0 20 0;
#X connect 19 1 20 1;
#X connect 20 0 14 0;
#X connect 21 0 13 1;
#X connect 22 0 24 0;
#X connect 24 0 10 0;
#X restore 265 246 pd bang times;
#X obj 93 123 t b b;
#X obj 154 351 t b f;
#X obj 93 351 t b b;
#X msg 119 404 127;
#X obj 89 4 inlet;
#X obj 54 608 outlet;
#X obj 153 153 r voice-speed;
#X obj 49 504 pack 0 0;
#X msg 107 209 1;
#X obj 143 123 t b b;
#X obj 18 64 stripnote;
#X obj 89 26 t a a;
#X obj 265 214 spigot;
#X obj 304 144 <= 0;
#X obj 304 120 r voice-number;
#X text 285 98 if voice number is 0 turn off;
#X obj 303 186 tgl 15 0 empty empty empty 17 7 0 10 -262144 -1 -1 0
1;
#X obj 304 166 ==;
#X obj 326 209 sel 0;
#X connect 0 0 8 0;
#X connect 1 0 13 0;
#X connect 2 0 6 0;
#X connect 2 1 15 0;
#X connect 3 0 0 0;
#X connect 4 1 2 0;
#X connect 5 0 7 0;
#X connect 6 0 3 0;
#X connect 6 1 18 0;
#X connect 7 0 1 0;
#X connect 7 1 13 1;
#X connect 8 0 1 0;
#X connect 8 1 9 0;
#X connect 9 0 13 1;
#X connect 10 0 17 0;
#X connect 12 0 0 1;
#X connect 13 0 11 0;
#X connect 14 0 0 0;
#X connect 15 0 14 0;
#X connect 16 0 1 0;
#X connect 17 0 4 0;
#X connect 17 1 16 0;
#X connect 18 0 5 0;
#X connect 19 0 23 0;
#X connect 20 0 19 0;
#X connect 22 0 18 1;
#X connect 22 0 24 0;
#X connect 23 0 22 0;
#X connect 24 0 5 1;
