#N canvas 20 50 1042 870 10;
#X msg 185 450 start;
#X obj 168 678 tgl 50 0 empty empty empty 17 7 0 100 -262144 -1 -1
0 1;
#X msg 185 645 1;
#X msg 142 450 stop;
#X msg 142 642 0;
#X msg 539 468 start;
#X obj 648 634 bng 15 250 50 0 empty empty empty 17 7 0 10 -262144
-1 -1;
#X obj 328 65 tgl 50 0 empty empty empty 17 7 0 100 -262144 -1 -1 0
1;
#X obj 362 168 sel 1 0;
#X obj 574 428 t b b;
#X obj 437 290 t b b;
#X obj 558 381 delay 100;
#X msg 512 499 0;
#X msg 131 309 0;
#X text 624 381 a little time to close file;
#X text 723 474 offset cause we waited a little;
#X msg 623 557 start;
#X obj 694 634 t b b;
#X obj 268 488 r~ inL;
#X obj 323 488 r~ inR;
#X obj 276 622 writesf~;
#X obj 435 229 t b b;
#X obj 436 257 delay 5;
#X obj 489 369 line~;
#X obj 489 391 *~;
#X obj 316 573 *~;
#X msg 505 340 0 5;
#X obj 338 261 t b b b;
#X obj 314 375 t b b;
#X msg 323 289 1 5;
#X obj 333 199 t b b;
#X obj 334 227 delay 5;
#X obj 131 280 delay 10000;
#X obj 131 349 bng 50 250 50 0 empty empty empty 17 7 0 10 -262144
-1 -1;
#X text 71 258 autostop after 10 seconds;
#X obj 315 21 inlet;
#X obj 120 770 outlet;
#X obj 600 470 symbol \$1;
#X obj 739 679 symbol \$1;
#X obj 336 453 print;
#X obj 296 412 symbol \$1;
#X msg 240 448 open \$1.wav;
#X msg 591 510 open \$1.wav 4410;
#X msg 704 572 open \$1.wav;
#X obj 559 633 readsf~;
#X obj 473 803 throw~ sampout;
#X obj 664 156 bang;
#X obj 410 509 r~ recycle;
#X obj 678 93 r stopall;
#X connect 0 0 2 0;
#X connect 0 0 20 0;
#X connect 1 0 36 0;
#X connect 2 0 1 0;
#X connect 3 0 4 0;
#X connect 3 0 20 0;
#X connect 4 0 1 0;
#X connect 5 0 44 0;
#X connect 6 0 17 0;
#X connect 7 0 8 0;
#X connect 8 0 30 0;
#X connect 8 1 21 0;
#X connect 9 0 5 0;
#X connect 9 1 37 0;
#X connect 10 0 11 0;
#X connect 10 1 3 0;
#X connect 11 0 9 0;
#X connect 12 0 44 0;
#X connect 13 0 33 0;
#X connect 16 0 44 0;
#X connect 17 0 16 0;
#X connect 17 1 38 0;
#X connect 18 0 25 0;
#X connect 19 0 25 0;
#X connect 21 0 22 0;
#X connect 21 1 26 0;
#X connect 22 0 10 0;
#X connect 23 0 24 0;
#X connect 23 0 24 1;
#X connect 24 0 25 1;
#X connect 25 0 20 0;
#X connect 26 0 23 0;
#X connect 27 0 29 0;
#X connect 27 1 28 0;
#X connect 27 2 12 0;
#X connect 28 0 0 0;
#X connect 28 0 32 0;
#X connect 28 1 40 0;
#X connect 29 0 23 0;
#X connect 30 0 31 0;
#X connect 30 1 26 0;
#X connect 31 0 27 0;
#X connect 32 0 13 0;
#X connect 35 0 7 0;
#X connect 37 0 42 0;
#X connect 38 0 43 0;
#X connect 40 0 41 0;
#X connect 41 0 20 0;
#X connect 41 0 39 0;
#X connect 42 0 44 0;
#X connect 43 0 44 0;
#X connect 44 0 45 0;
#X connect 44 1 6 0;
#X connect 46 0 12 0;
#X connect 46 0 3 0;
#X connect 47 0 25 0;
#X connect 48 0 46 0;
