#N canvas 165 170 1339 743 10;
#X obj 998 285 *~;
#X obj 998 263 c_adsr 1 80 100 80 200, f 46;
#X text 214 12 Line: start x \, y \, end x \, y \, color (0 or 1);
#X obj 1055 490 s oscOut;
#X msg 1055 465 /oled/gClear 0 1;
#X obj 998 209 / 127;
#X obj 998 235 t a a;
#X obj 283 507 * 0.0033333;
#X obj 283 529 * 32;
#X obj 283 551 i;
#X floatatom 283 573 5 0 0 0 - - -, f 5;
#X obj 453 431 * 0.0033333;
#X obj 453 453 * 32;
#X obj 453 475 i;
#X obj 598 420 * 0.01;
#X obj 598 442 * 64;
#X obj 598 487 i;
#X obj 598 464 * -1;
#X obj 786 422 * 0.00025;
#X obj 786 444 * 32;
#X obj 786 466 i;
#X floatatom 786 491 5 0 0 0 - - -, f 5;
#X floatatom 598 509 5 0 0 0 - - -, f 5;
#X floatatom 453 517 5 0 0 0 - - -, f 5;
#X obj 642 566 + 32;
#X obj 786 520 t b a;
#X obj 283 592 t b a;
#X obj 453 541 t b a;
#X obj 498 557 t b a;
#X obj 453 497 +, f 8;
#X obj 494 473 t b a;
#X obj 598 632 pack 0 0 0 0;
#X obj 598 528 t b a;
#X obj 642 588 t b a;
#X obj 786 547 +;
#X obj 791 608 pack 0 0 0 63;
#X obj 142 513 r \$0-bang;
#X obj 754 391 s \$0-bang;
#X obj 1055 437 r \$0-clear;
#X obj 566 390 s \$0-bang;
#X obj 421 392 s \$0-bang;
#X obj 251 473 s \$0-bang;
#X obj 142 535 t b b b b;
#X obj 251 269 r knob1;
#X obj 251 323 * 300;
#X obj 421 310 * 300;
#X obj 421 266 r knob2;
#X obj 754 330 * 4000;
#X obj 754 268 r knob4;
#X obj 566 266 r knob3;
#X obj 566 330 + 2;
#X obj 283 623 pack 0 63 0 10;
#X obj 439 631 pack 0 10 0 0;
#X obj 566 308 * 83;
#N canvas 5 50 450 300 erase-redraw 0;
#X obj 99 87 list;
#X obj 53 149 t a a, f 18;
#X obj 99 109 route list;
#X obj 124 38 loadbang;
#X msg 124 60 0;
#X text 188 150 previous area to invert(erase);
#X text 158 61 erase old session list;
#X obj 53 65 t l b, f 7;
#X msg 53 178 /oled/gLine 0 \$1 \$2 \$3 \$4 1;
#X msg 99 200 /oled/gLine 0 \$1 \$2 \$3 \$4 0;
#X text 255 177 on;
#X text 294 201 off;
#X obj 53 12 inlet;
#X obj 53 228 outlet;
#X connect 0 0 2 0;
#X connect 1 0 8 0;
#X connect 1 1 0 1;
#X connect 2 0 9 0;
#X connect 3 0 4 0;
#X connect 4 0 0 1;
#X connect 7 0 1 0;
#X connect 7 1 0 0;
#X connect 8 0 13 0;
#X connect 9 0 13 0;
#X connect 12 0 7 0;
#X restore 791 638 pd erase-redraw;
#X obj 791 660 s oscOut;
#N canvas 5 50 450 300 erase-redraw 0;
#X obj 99 87 list;
#X obj 53 169 t a a, f 18;
#X obj 99 109 route list;
#X obj 124 38 loadbang;
#X msg 124 60 0;
#X text 188 169 previous area to invert(erase);
#X text 158 61 erase old session list;
#X obj 53 65 t l b, f 7;
#X msg 53 198 /oled/gLine 0 \$1 \$2 \$3 \$4 1;
#X msg 99 220 /oled/gLine 0 \$1 \$2 \$3 \$4 0;
#X text 255 197 on;
#X text 302 221 off;
#X obj 53 12 inlet;
#X obj 53 248 outlet;
#X connect 0 0 2 0;
#X connect 1 0 8 0;
#X connect 1 1 0 1;
#X connect 2 0 9 0;
#X connect 3 0 4 0;
#X connect 4 0 0 1;
#X connect 7 0 1 0;
#X connect 7 1 0 0;
#X connect 8 0 13 0;
#X connect 9 0 13 0;
#X connect 12 0 7 0;
#X restore 598 655 pd erase-redraw;
#X obj 598 677 s oscOut;
#N canvas 5 50 450 300 erase-redraw 0;
#X obj 99 87 list;
#X obj 53 169 t a a, f 18;
#X obj 99 109 route list;
#X obj 124 38 loadbang;
#X msg 124 60 0;
#X text 188 169 previous area to invert(erase);
#X text 158 61 erase old session list;
#X obj 53 65 t l b, f 7;
#X msg 53 198 /oled/gLine 0 \$1 \$2 \$3 \$4 1;
#X msg 99 220 /oled/gLine 0 \$1 \$2 \$3 \$4 0;
#X text 255 197 on;
#X text 302 221 off;
#X obj 53 12 inlet;
#X obj 53 248 outlet;
#X connect 0 0 2 0;
#X connect 1 0 8 0;
#X connect 1 1 0 1;
#X connect 2 0 9 0;
#X connect 3 0 4 0;
#X connect 4 0 0 1;
#X connect 7 0 1 0;
#X connect 7 1 0 0;
#X connect 8 0 13 0;
#X connect 9 0 13 0;
#X connect 12 0 7 0;
#X restore 439 654 pd erase-redraw;
#X obj 439 676 s oscOut;
#N canvas 675 323 450 300 erase-redraw 0;
#X obj 99 87 list;
#X obj 53 169 t a a, f 18;
#X obj 99 109 route list;
#X obj 124 38 loadbang;
#X msg 124 60 0;
#X text 188 169 previous area to invert(erase);
#X text 158 61 erase old session list;
#X obj 53 65 t l b, f 7;
#X msg 53 198 /oled/gLine 0 \$1 \$2 \$3 \$4 1;
#X msg 99 220 /oled/gLine 0 \$1 \$2 \$3 \$4 0;
#X text 255 197 on;
#X text 302 221 off;
#X obj 53 12 inlet;
#X obj 53 248 outlet;
#X connect 0 0 2 0;
#X connect 1 0 8 0;
#X connect 1 1 0 1;
#X connect 2 0 9 0;
#X connect 3 0 4 0;
#X connect 4 0 0 1;
#X connect 7 0 1 0;
#X connect 7 1 0 0;
#X connect 8 0 13 0;
#X connect 9 0 13 0;
#X connect 12 0 7 0;
#X restore 283 645 pd erase-redraw;
#X obj 283 667 s oscOut;
#X obj 251 416 t b a;
#X obj 421 335 t b a;
#X obj 566 363 t b a;
#X obj 754 364 t b a;
#X obj 251 291 m_speedlimit 100;
#X obj 422 288 m_speedlimit 100;
#X obj 566 288 m_speedlimit 100;
#X obj 754 290 m_speedlimit 100;
#X connect 1 0 0 0;
#X connect 1 0 0 1;
#X connect 4 0 3 0;
#X connect 5 0 6 0;
#X connect 6 0 1 0;
#X connect 6 1 1 1;
#X connect 7 0 8 0;
#X connect 8 0 9 0;
#X connect 9 0 10 0;
#X connect 10 0 26 0;
#X connect 10 0 30 0;
#X connect 11 0 12 0;
#X connect 12 0 13 0;
#X connect 13 0 29 0;
#X connect 14 0 15 0;
#X connect 15 0 17 0;
#X connect 16 0 22 0;
#X connect 17 0 16 0;
#X connect 18 0 19 0;
#X connect 19 0 20 0;
#X connect 20 0 21 0;
#X connect 21 0 25 0;
#X connect 22 0 28 0;
#X connect 22 0 32 0;
#X connect 23 0 24 0;
#X connect 23 0 27 0;
#X connect 23 0 31 0;
#X connect 24 0 33 0;
#X connect 24 0 34 0;
#X connect 25 0 34 0;
#X connect 25 1 34 1;
#X connect 26 0 51 0;
#X connect 26 1 51 2;
#X connect 26 1 52 0;
#X connect 27 0 52 0;
#X connect 27 1 52 2;
#X connect 28 0 52 0;
#X connect 28 1 52 3;
#X connect 29 0 23 0;
#X connect 30 0 29 0;
#X connect 30 1 29 1;
#X connect 31 0 56 0;
#X connect 32 0 31 0;
#X connect 32 1 31 1;
#X connect 32 1 31 3;
#X connect 32 1 35 1;
#X connect 33 0 31 0;
#X connect 33 1 31 2;
#X connect 33 1 35 0;
#X connect 34 0 35 2;
#X connect 35 0 54 0;
#X connect 36 0 42 0;
#X connect 38 0 4 0;
#X connect 42 0 35 0;
#X connect 42 1 31 0;
#X connect 42 2 52 0;
#X connect 42 3 51 0;
#X connect 43 0 66 0;
#X connect 44 0 62 0;
#X connect 45 0 63 0;
#X connect 46 0 67 0;
#X connect 47 0 65 0;
#X connect 48 0 69 0;
#X connect 49 0 68 0;
#X connect 50 0 64 0;
#X connect 51 0 60 0;
#X connect 52 0 58 0;
#X connect 53 0 50 0;
#X connect 54 0 55 0;
#X connect 56 0 57 0;
#X connect 58 0 59 0;
#X connect 60 0 61 0;
#X connect 62 0 41 0;
#X connect 62 1 7 0;
#X connect 63 0 40 0;
#X connect 63 1 11 0;
#X connect 64 0 39 0;
#X connect 64 1 14 0;
#X connect 65 0 37 0;
#X connect 65 1 18 0;
#X connect 66 0 44 0;
#X connect 67 0 45 0;
#X connect 68 0 53 0;
#X connect 69 0 47 0;
