#N canvas 505 405 450 300 10;
#X declare -path Visual Looper;
#X obj 228 30 declare -path Visual Looper;
#X obj 22 217 r knob1;
#X obj 153 217 r knob2;
#X obj 27 107 throw~ outL;
#X obj 268 223 r knob3;
#X obj 229 88 r notes;
#X obj 229 114 s vloop-1-notes-in;
#X obj 268 249 s vloop-1-speed;
#X obj 153 245 s vloop-1-end;
#X obj 22 245 s vloop-1-start;
#X obj 27 85 catch~ vloop-1-voice-out;
#X obj 31 18 VisualLooper 1;
#X connect 1 0 9 0;
#X connect 2 0 8 0;
#X connect 4 0 7 0;
#X connect 5 0 6 0;
#X connect 10 0 3 0;
