#N canvas 463 391 805 558 10;
#X declare -path Chorus;
#X obj 40 73 Chorus;
#X obj 39 49 declare -path Chorus;
#N canvas 4 50 450 300 midi-control 0;
#X obj 187 127 s midiOutGate;
#X obj 187 47 loadbang;
#X obj 187 73 delay 20;
#X msg 187 99 0;
#X obj 188 212 noteout 1;
#X obj 188 180 unpack;
#X obj 188 150 r punchy-notes-out;
#X connect 1 0 2 0;
#X connect 2 0 3 0;
#X connect 3 0 0 0;
#X connect 5 0 4 0;
#X connect 5 1 4 1;
#X connect 6 0 5 0;
#X restore 862 347 pd midi-control;
#X text 42 157 map knobs to chorus;
#X obj 44 180 map-knob 1 chor-freq;
#X obj 43 205 map-knob 2 chor-mod;
#X obj 44 231 map-knob 3 chor-dw;
#X obj 456 78 loadbang;
#X msg 456 111 \; screenLine4 4: x \;;
#X obj 446 204 r~ inR;
#X obj 355 205 r~ inL;
#X obj 390 253 s~ chor-in;
#X obj 357 307 r~ chor-outL;
#X obj 471 310 r~ chor-outR;
#X obj 358 336 throw~ outL;
#X obj 472 333 throw~ outR;
#X text 601 117 knob 4 does nothing;
#X text 554 261 routing;
#X connect 7 0 8 0;
#X connect 9 0 11 0;
#X connect 10 0 11 0;
#X connect 12 0 14 0;
#X connect 13 0 15 0;
